M48
; DRILL file {KiCad (5.1.5)-3} date 19.07.2021 12:04:46 PM
; FORMAT={3:3/ absolute / metric / suppress leading zeros}
; #@! TF.CreationDate,2021-07-19T12:04:46+02:00
; #@! TF.GenerationSoftware,Kicad,Pcbnew,(5.1.5)-3
FMAT,2
METRIC,TZ
T1C0.400
T2C0.800
T3C1.000
T4C1.500
%
G90
G05
T1
X6985Y-33503
X7710Y-15320
X8530Y-19130
X10256Y-10140
X10690Y-6990
X11300Y-3260
X11720Y-12830
X13691Y-15494
X13720Y-10190
X15240Y-12700
X15240Y-13970
X15240Y-15240
X15770Y-10160
X16383Y-28169
X16510Y-13970
X16510Y-15240
X16510Y-16510
X17780Y-10160
X17780Y-12700
X17780Y-13970
X17780Y-15240
X17780Y-16510
X17780Y-17780
X19050Y-13970
X19050Y-15240
X19050Y-16510
X19050Y-17780
X20955Y-4318
X20955Y-17398
X22733Y-2286
X22733Y-4318
X22733Y-5588
X22733Y-15366
X22733Y-17398
X22733Y-18668
X24511Y-4318
X24511Y-17398
X26340Y-23240
X26670Y-13970
X26670Y-15240
X26670Y-16510
X26670Y-17780
X27610Y-23317
X28260Y-4010
X28905Y-11227
X28920Y-18480
X29380Y-17040
X32766Y-10160
X32766Y-12700
X32766Y-13970
X32766Y-15240
X34036Y-13970
X34036Y-15240
X34036Y-16510
X35306Y-10160
X35306Y-12700
X35306Y-13970
X35306Y-15240
X35306Y-16510
X35306Y-17780
X36576Y-13970
X36576Y-15240
X36576Y-16510
X36576Y-17780
X37846Y-10160
X37846Y-12700
X38455Y-4318
X38455Y-17398
X40090Y-30890
X40233Y-2286
X40233Y-4318
X40233Y-5588
X40233Y-15366
X40233Y-17398
X40233Y-18668
X41340Y-30900
X42011Y-4318
X42011Y-17398
X44196Y-13970
X44196Y-15240
X44196Y-16510
X44196Y-17780
X45500Y-5260
X46090Y-18750
X46685Y-16281
X46990Y-3429
X50292Y-13970
X50292Y-15240
X50800Y-10160
X50800Y-12700
X51562Y-13970
X51562Y-15240
X51562Y-16510
X52832Y-13970
X52832Y-15240
X52832Y-16510
X52832Y-17780
X53340Y-10160
X53340Y-12700
X54102Y-13970
X54102Y-15240
X54102Y-16510
X54102Y-17780
X55955Y-4318
X55955Y-17398
X57733Y-2286
X57733Y-4318
X57733Y-5588
X57733Y-15366
X57733Y-17398
X57733Y-18668
X59385Y-28600
X59511Y-4318
X59511Y-17398
X60960Y-10160
X60960Y-12700
X61722Y-13970
X61722Y-15240
X61722Y-16510
X61722Y-17780
X62281Y-27051
X63119Y-5740
X63373Y-18974
X64872Y-15951
X65176Y-3683
X66040Y-10160
X66040Y-12700
X67691Y-13970
X67691Y-15240
X68580Y-10160
X68580Y-12700
X68961Y-13970
X68961Y-15240
X68961Y-16510
X70231Y-13970
X70231Y-15240
X70231Y-16510
X70231Y-17780
X71120Y-10160
X71120Y-12700
X71501Y-13970
X71501Y-15240
X71501Y-16510
X71501Y-17780
X73455Y-4318
X73455Y-17398
X75233Y-2286
X75233Y-4318
X75233Y-5588
X75233Y-15366
X75233Y-17398
X75233Y-18668
X77011Y-4318
X77011Y-17398
X78029Y-22885
X78740Y-12700
X79121Y-13970
X79121Y-15240
X79121Y-16510
X79121Y-17780
X79553Y-23851
X80797Y-5944
X80823Y-11938
X80899Y-18872
X81077Y-24841
T2
X15800Y-4500
X18300Y-4500
X50800Y-4500
X53300Y-4500
X33400Y-4500
X35900Y-4500
X68400Y-4400
X70900Y-4400
T3
X3740Y-4010
X3740Y-6550
X3740Y-9090
X3740Y-11630
X3740Y-14170
X3740Y-16710
X3740Y-19250
X3740Y-21790
X3740Y-24330
X3740Y-26870
X3740Y-29410
X3740Y-31950
X6280Y-4010
X6280Y-6550
X6280Y-9090
X6280Y-11630
X6280Y-14170
X6280Y-16710
X6280Y-19250
X6280Y-21790
X6280Y-24330
X6280Y-26870
X6280Y-29410
X6280Y-31950
X23000Y-11000
X40500Y-11000
X58000Y-11000
X75500Y-11000
X83430Y-4010
X83430Y-6550
X83430Y-9090
X83430Y-11630
X83430Y-14170
X83430Y-16710
X83430Y-19250
X83430Y-21790
X83430Y-24330
X83430Y-26870
X83430Y-29410
X83430Y-31950
X85970Y-4010
X85970Y-6550
X85970Y-9090
X85970Y-11630
X85970Y-14170
X85970Y-16710
X85970Y-19250
X85970Y-21790
X85970Y-24330
X85970Y-26870
X85970Y-29410
X85970Y-31950
X21900Y-27500
X21900Y-32500
X68000Y-27500
X68000Y-32500
T4
X35000Y-30000
X50000Y-30000
T0
M30
