G04 #@! TF.GenerationSoftware,KiCad,Pcbnew,(5.1.5)-3*
G04 #@! TF.CreationDate,2021-07-19T12:04:44+02:00*
G04 #@! TF.ProjectId,4xHalfBridge-VSON8,34784861-6c66-4427-9269-6467652d5653,rev?*
G04 #@! TF.SameCoordinates,Original*
G04 #@! TF.FileFunction,Legend,Top*
G04 #@! TF.FilePolarity,Positive*
%FSLAX46Y46*%
G04 Gerber Fmt 4.6, Leading zero omitted, Abs format (unit mm)*
G04 Created by KiCad (PCBNEW (5.1.5)-3) date 2021-07-19 12:04:44*
%MOMM*%
%LPD*%
G04 APERTURE LIST*
%ADD10C,0.150000*%
%ADD11C,0.120000*%
%ADD12C,0.127000*%
%ADD13C,0.300000*%
G04 APERTURE END LIST*
D10*
X49198095Y-32920000D02*
X49102857Y-32872380D01*
X48960000Y-32872380D01*
X48817142Y-32920000D01*
X48721904Y-33015238D01*
X48674285Y-33110476D01*
X48626666Y-33300952D01*
X48626666Y-33443809D01*
X48674285Y-33634285D01*
X48721904Y-33729523D01*
X48817142Y-33824761D01*
X48960000Y-33872380D01*
X49055238Y-33872380D01*
X49198095Y-33824761D01*
X49245714Y-33777142D01*
X49245714Y-33443809D01*
X49055238Y-33443809D01*
X49674285Y-33872380D02*
X49674285Y-32872380D01*
X50245714Y-33872380D01*
X50245714Y-32872380D01*
X50721904Y-33872380D02*
X50721904Y-32872380D01*
X50960000Y-32872380D01*
X51102857Y-32920000D01*
X51198095Y-33015238D01*
X51245714Y-33110476D01*
X51293333Y-33300952D01*
X51293333Y-33443809D01*
X51245714Y-33634285D01*
X51198095Y-33729523D01*
X51102857Y-33824761D01*
X50960000Y-33872380D01*
X50721904Y-33872380D01*
X32751904Y-32872380D02*
X33085238Y-33872380D01*
X33418571Y-32872380D01*
X33751904Y-33872380D02*
X33751904Y-33205714D01*
X33751904Y-33300952D02*
X33799523Y-33253333D01*
X33894761Y-33205714D01*
X34037619Y-33205714D01*
X34132857Y-33253333D01*
X34180476Y-33348571D01*
X34180476Y-33872380D01*
X34180476Y-33348571D02*
X34228095Y-33253333D01*
X34323333Y-33205714D01*
X34466190Y-33205714D01*
X34561428Y-33253333D01*
X34609047Y-33348571D01*
X34609047Y-33872380D01*
X35228095Y-33872380D02*
X35132857Y-33824761D01*
X35085238Y-33777142D01*
X35037619Y-33681904D01*
X35037619Y-33396190D01*
X35085238Y-33300952D01*
X35132857Y-33253333D01*
X35228095Y-33205714D01*
X35370952Y-33205714D01*
X35466190Y-33253333D01*
X35513809Y-33300952D01*
X35561428Y-33396190D01*
X35561428Y-33681904D01*
X35513809Y-33777142D01*
X35466190Y-33824761D01*
X35370952Y-33872380D01*
X35228095Y-33872380D01*
X35847142Y-33205714D02*
X36228095Y-33205714D01*
X35990000Y-32872380D02*
X35990000Y-33729523D01*
X36037619Y-33824761D01*
X36132857Y-33872380D01*
X36228095Y-33872380D01*
D11*
X45190000Y-30823734D02*
X45190000Y-31166268D01*
X46210000Y-30823734D02*
X46210000Y-31166268D01*
X49960000Y-18371267D02*
X49960000Y-18028733D01*
X48940000Y-18371267D02*
X48940000Y-18028733D01*
X31679000Y-18371267D02*
X31679000Y-18028733D01*
X30659000Y-18371267D02*
X30659000Y-18028733D01*
X66760000Y-18371267D02*
X66760000Y-18028733D01*
X65740000Y-18371267D02*
X65740000Y-18028733D01*
X14045000Y-18371267D02*
X14045000Y-18028733D01*
X13025000Y-18371267D02*
X13025000Y-18028733D01*
X15565000Y-18371267D02*
X15565000Y-18028733D01*
X14545000Y-18371267D02*
X14545000Y-18028733D01*
X68260000Y-18371267D02*
X68260000Y-18028733D01*
X67240000Y-18371267D02*
X67240000Y-18028733D01*
X48435000Y-18371267D02*
X48435000Y-18028733D01*
X47415000Y-18371267D02*
X47415000Y-18028733D01*
X33203000Y-18371267D02*
X33203000Y-18028733D01*
X32183000Y-18371267D02*
X32183000Y-18028733D01*
X72204775Y-6125000D02*
X72204775Y-5625000D01*
X72454775Y-5875000D02*
X71954775Y-5875000D01*
X67049000Y-4684000D02*
X67049000Y-4116000D01*
X67089000Y-4918000D02*
X67089000Y-3882000D01*
X67129000Y-5077000D02*
X67129000Y-3723000D01*
X67169000Y-5205000D02*
X67169000Y-3595000D01*
X67209000Y-5315000D02*
X67209000Y-3485000D01*
X67249000Y-5411000D02*
X67249000Y-3389000D01*
X67289000Y-5498000D02*
X67289000Y-3302000D01*
X67329000Y-5578000D02*
X67329000Y-3222000D01*
X67369000Y-3360000D02*
X67369000Y-3149000D01*
X67369000Y-5651000D02*
X67369000Y-5440000D01*
X67409000Y-3360000D02*
X67409000Y-3081000D01*
X67409000Y-5719000D02*
X67409000Y-5440000D01*
X67449000Y-3360000D02*
X67449000Y-3017000D01*
X67449000Y-5783000D02*
X67449000Y-5440000D01*
X67489000Y-3360000D02*
X67489000Y-2957000D01*
X67489000Y-5843000D02*
X67489000Y-5440000D01*
X67529000Y-3360000D02*
X67529000Y-2900000D01*
X67529000Y-5900000D02*
X67529000Y-5440000D01*
X67569000Y-3360000D02*
X67569000Y-2846000D01*
X67569000Y-5954000D02*
X67569000Y-5440000D01*
X67609000Y-3360000D02*
X67609000Y-2795000D01*
X67609000Y-6005000D02*
X67609000Y-5440000D01*
X67649000Y-3360000D02*
X67649000Y-2747000D01*
X67649000Y-6053000D02*
X67649000Y-5440000D01*
X67689000Y-3360000D02*
X67689000Y-2701000D01*
X67689000Y-6099000D02*
X67689000Y-5440000D01*
X67729000Y-3360000D02*
X67729000Y-2657000D01*
X67729000Y-6143000D02*
X67729000Y-5440000D01*
X67769000Y-3360000D02*
X67769000Y-2615000D01*
X67769000Y-6185000D02*
X67769000Y-5440000D01*
X67809000Y-3360000D02*
X67809000Y-2574000D01*
X67809000Y-6226000D02*
X67809000Y-5440000D01*
X67849000Y-3360000D02*
X67849000Y-2536000D01*
X67849000Y-6264000D02*
X67849000Y-5440000D01*
X67889000Y-3360000D02*
X67889000Y-2499000D01*
X67889000Y-6301000D02*
X67889000Y-5440000D01*
X67929000Y-3360000D02*
X67929000Y-2463000D01*
X67929000Y-6337000D02*
X67929000Y-5440000D01*
X67969000Y-3360000D02*
X67969000Y-2429000D01*
X67969000Y-6371000D02*
X67969000Y-5440000D01*
X68009000Y-3360000D02*
X68009000Y-2396000D01*
X68009000Y-6404000D02*
X68009000Y-5440000D01*
X68049000Y-3360000D02*
X68049000Y-2365000D01*
X68049000Y-6435000D02*
X68049000Y-5440000D01*
X68089000Y-3360000D02*
X68089000Y-2335000D01*
X68089000Y-6465000D02*
X68089000Y-5440000D01*
X68129000Y-3360000D02*
X68129000Y-2305000D01*
X68129000Y-6495000D02*
X68129000Y-5440000D01*
X68169000Y-3360000D02*
X68169000Y-2278000D01*
X68169000Y-6522000D02*
X68169000Y-5440000D01*
X68209000Y-3360000D02*
X68209000Y-2251000D01*
X68209000Y-6549000D02*
X68209000Y-5440000D01*
X68249000Y-3360000D02*
X68249000Y-2225000D01*
X68249000Y-6575000D02*
X68249000Y-5440000D01*
X68289000Y-3360000D02*
X68289000Y-2200000D01*
X68289000Y-6600000D02*
X68289000Y-5440000D01*
X68329000Y-3360000D02*
X68329000Y-2176000D01*
X68329000Y-6624000D02*
X68329000Y-5440000D01*
X68369000Y-3360000D02*
X68369000Y-2153000D01*
X68369000Y-6647000D02*
X68369000Y-5440000D01*
X68409000Y-3360000D02*
X68409000Y-2132000D01*
X68409000Y-6668000D02*
X68409000Y-5440000D01*
X68449000Y-3360000D02*
X68449000Y-2110000D01*
X68449000Y-6690000D02*
X68449000Y-5440000D01*
X68489000Y-3360000D02*
X68489000Y-2090000D01*
X68489000Y-6710000D02*
X68489000Y-5440000D01*
X68529000Y-3360000D02*
X68529000Y-2071000D01*
X68529000Y-6729000D02*
X68529000Y-5440000D01*
X68569000Y-3360000D02*
X68569000Y-2052000D01*
X68569000Y-6748000D02*
X68569000Y-5440000D01*
X68609000Y-3360000D02*
X68609000Y-2035000D01*
X68609000Y-6765000D02*
X68609000Y-5440000D01*
X68649000Y-3360000D02*
X68649000Y-2018000D01*
X68649000Y-6782000D02*
X68649000Y-5440000D01*
X68689000Y-3360000D02*
X68689000Y-2002000D01*
X68689000Y-6798000D02*
X68689000Y-5440000D01*
X68729000Y-3360000D02*
X68729000Y-1986000D01*
X68729000Y-6814000D02*
X68729000Y-5440000D01*
X68769000Y-3360000D02*
X68769000Y-1972000D01*
X68769000Y-6828000D02*
X68769000Y-5440000D01*
X68809000Y-3360000D02*
X68809000Y-1958000D01*
X68809000Y-6842000D02*
X68809000Y-5440000D01*
X68849000Y-3360000D02*
X68849000Y-1945000D01*
X68849000Y-6855000D02*
X68849000Y-5440000D01*
X68889000Y-3360000D02*
X68889000Y-1932000D01*
X68889000Y-6868000D02*
X68889000Y-5440000D01*
X68929000Y-3360000D02*
X68929000Y-1920000D01*
X68929000Y-6880000D02*
X68929000Y-5440000D01*
X68970000Y-3360000D02*
X68970000Y-1909000D01*
X68970000Y-6891000D02*
X68970000Y-5440000D01*
X69010000Y-3360000D02*
X69010000Y-1899000D01*
X69010000Y-6901000D02*
X69010000Y-5440000D01*
X69050000Y-3360000D02*
X69050000Y-1889000D01*
X69050000Y-6911000D02*
X69050000Y-5440000D01*
X69090000Y-3360000D02*
X69090000Y-1880000D01*
X69090000Y-6920000D02*
X69090000Y-5440000D01*
X69130000Y-3360000D02*
X69130000Y-1872000D01*
X69130000Y-6928000D02*
X69130000Y-5440000D01*
X69170000Y-3360000D02*
X69170000Y-1864000D01*
X69170000Y-6936000D02*
X69170000Y-5440000D01*
X69210000Y-3360000D02*
X69210000Y-1857000D01*
X69210000Y-6943000D02*
X69210000Y-5440000D01*
X69250000Y-3360000D02*
X69250000Y-1850000D01*
X69250000Y-6950000D02*
X69250000Y-5440000D01*
X69290000Y-3360000D02*
X69290000Y-1844000D01*
X69290000Y-6956000D02*
X69290000Y-5440000D01*
X69330000Y-3360000D02*
X69330000Y-1839000D01*
X69330000Y-6961000D02*
X69330000Y-5440000D01*
X69370000Y-3360000D02*
X69370000Y-1835000D01*
X69370000Y-6965000D02*
X69370000Y-5440000D01*
X69410000Y-3360000D02*
X69410000Y-1831000D01*
X69410000Y-6969000D02*
X69410000Y-5440000D01*
X69450000Y-6973000D02*
X69450000Y-1827000D01*
X69490000Y-6976000D02*
X69490000Y-1824000D01*
X69530000Y-6978000D02*
X69530000Y-1822000D01*
X69570000Y-6979000D02*
X69570000Y-1821000D01*
X69610000Y-6980000D02*
X69610000Y-1820000D01*
X69650000Y-6980000D02*
X69650000Y-1820000D01*
X72270000Y-4400000D02*
G75*
G03X72270000Y-4400000I-2620000J0D01*
G01*
D12*
X72850000Y-20426250D02*
X72850000Y-14626250D01*
X77850000Y-20426250D02*
X77850000Y-14626250D01*
D13*
X73478750Y-21103750D02*
G75*
G03X73478750Y-21103750I-50000J0D01*
G01*
D12*
X72850000Y-7350000D02*
X72850000Y-1550000D01*
X77850000Y-7350000D02*
X77850000Y-1550000D01*
D13*
X73478750Y-8027500D02*
G75*
G03X73478750Y-8027500I-50000J0D01*
G01*
D12*
X55315000Y-20426250D02*
X55315000Y-14626250D01*
X60315000Y-20426250D02*
X60315000Y-14626250D01*
D13*
X55943750Y-21103750D02*
G75*
G03X55943750Y-21103750I-50000J0D01*
G01*
D12*
X55315000Y-7350000D02*
X55315000Y-1550000D01*
X60315000Y-7350000D02*
X60315000Y-1550000D01*
D13*
X55943750Y-8027500D02*
G75*
G03X55943750Y-8027500I-50000J0D01*
G01*
D12*
X37813333Y-20426250D02*
X37813333Y-14626250D01*
X42813333Y-20426250D02*
X42813333Y-14626250D01*
D13*
X38442083Y-21103750D02*
G75*
G03X38442083Y-21103750I-50000J0D01*
G01*
D12*
X37813333Y-7350000D02*
X37813333Y-1550000D01*
X42813333Y-7350000D02*
X42813333Y-1550000D01*
D13*
X38442083Y-8027500D02*
G75*
G03X38442083Y-8027500I-50000J0D01*
G01*
D12*
X20295000Y-20426250D02*
X20295000Y-14626250D01*
X25295000Y-20426250D02*
X25295000Y-14626250D01*
D13*
X20923750Y-21103750D02*
G75*
G03X20923750Y-21103750I-50000J0D01*
G01*
D12*
X20295000Y-7350000D02*
X20295000Y-1550000D01*
X25295000Y-7350000D02*
X25295000Y-1550000D01*
D13*
X20923750Y-8027500D02*
G75*
G03X20923750Y-8027500I-50000J0D01*
G01*
D11*
X74351252Y-21480000D02*
X72128748Y-21480000D01*
X74351252Y-23300000D02*
X72128748Y-23300000D01*
X75690000Y-26928733D02*
X75690000Y-27271267D01*
X76710000Y-26928733D02*
X76710000Y-27271267D01*
X78790000Y-20928733D02*
X78790000Y-21271267D01*
X79810000Y-20928733D02*
X79810000Y-21271267D01*
X78990000Y-7928733D02*
X78990000Y-8271267D01*
X80010000Y-7928733D02*
X80010000Y-8271267D01*
X56861252Y-21480000D02*
X54638748Y-21480000D01*
X56861252Y-23300000D02*
X54638748Y-23300000D01*
X55490000Y-27373733D02*
X55490000Y-27716267D01*
X56510000Y-27373733D02*
X56510000Y-27716267D01*
X61190000Y-20984733D02*
X61190000Y-21327267D01*
X62210000Y-20984733D02*
X62210000Y-21327267D01*
X61384000Y-7928733D02*
X61384000Y-8271267D01*
X62404000Y-7928733D02*
X62404000Y-8271267D01*
X39371252Y-21480000D02*
X37148748Y-21480000D01*
X39371252Y-23300000D02*
X37148748Y-23300000D01*
X39253000Y-27373733D02*
X39253000Y-27716267D01*
X40273000Y-27373733D02*
X40273000Y-27716267D01*
X43639999Y-30823734D02*
X43639999Y-31166268D01*
X44659999Y-30823734D02*
X44659999Y-31166268D01*
X43826000Y-21084733D02*
X43826000Y-21427267D01*
X44846000Y-21084733D02*
X44846000Y-21427267D01*
X43778000Y-7928733D02*
X43778000Y-8271267D01*
X44798000Y-7928733D02*
X44798000Y-8271267D01*
X21881252Y-21480000D02*
X19658748Y-21480000D01*
X21881252Y-23300000D02*
X19658748Y-23300000D01*
X14400000Y-27373733D02*
X14400000Y-27716267D01*
X15420000Y-27373733D02*
X15420000Y-27716267D01*
X25950000Y-21084733D02*
X25950000Y-21427267D01*
X26970000Y-21084733D02*
X26970000Y-21427267D01*
X27690000Y-7928733D02*
X27690000Y-8271267D01*
X28710000Y-7928733D02*
X28710000Y-8271267D01*
X29242936Y-31205000D02*
X30447064Y-31205000D01*
X29242936Y-28485000D02*
X30447064Y-28485000D01*
X44965000Y-25930000D02*
X44965000Y-28390000D01*
X46435000Y-25930000D02*
X44965000Y-25930000D01*
X46435000Y-28390000D02*
X46435000Y-25930000D01*
X43415000Y-25930000D02*
X43415000Y-28390000D01*
X44885000Y-25930000D02*
X43415000Y-25930000D01*
X44885000Y-28390000D02*
X44885000Y-25930000D01*
X66760000Y-21727267D02*
X66760000Y-21384733D01*
X65740000Y-21727267D02*
X65740000Y-21384733D01*
X68260000Y-21727267D02*
X68260000Y-21384733D01*
X67240000Y-21727267D02*
X67240000Y-21384733D01*
X65260000Y-21727267D02*
X65260000Y-21384733D01*
X64240000Y-21727267D02*
X64240000Y-21384733D01*
X74090000Y-26928733D02*
X74090000Y-27271267D01*
X75110000Y-26928733D02*
X75110000Y-27271267D01*
X80390000Y-20928733D02*
X80390000Y-21271267D01*
X81410000Y-20928733D02*
X81410000Y-21271267D01*
X80490000Y-7928733D02*
X80490000Y-8271267D01*
X81510000Y-7928733D02*
X81510000Y-8271267D01*
X49935000Y-21727267D02*
X49935000Y-21384733D01*
X48915000Y-21727267D02*
X48915000Y-21384733D01*
X51435000Y-21727267D02*
X51435000Y-21384733D01*
X50415000Y-21727267D02*
X50415000Y-21384733D01*
X48410000Y-21727267D02*
X48410000Y-21384733D01*
X47390000Y-21727267D02*
X47390000Y-21384733D01*
X54604775Y-6225000D02*
X54604775Y-5725000D01*
X54854775Y-5975000D02*
X54354775Y-5975000D01*
X49449000Y-4784000D02*
X49449000Y-4216000D01*
X49489000Y-5018000D02*
X49489000Y-3982000D01*
X49529000Y-5177000D02*
X49529000Y-3823000D01*
X49569000Y-5305000D02*
X49569000Y-3695000D01*
X49609000Y-5415000D02*
X49609000Y-3585000D01*
X49649000Y-5511000D02*
X49649000Y-3489000D01*
X49689000Y-5598000D02*
X49689000Y-3402000D01*
X49729000Y-5678000D02*
X49729000Y-3322000D01*
X49769000Y-3460000D02*
X49769000Y-3249000D01*
X49769000Y-5751000D02*
X49769000Y-5540000D01*
X49809000Y-3460000D02*
X49809000Y-3181000D01*
X49809000Y-5819000D02*
X49809000Y-5540000D01*
X49849000Y-3460000D02*
X49849000Y-3117000D01*
X49849000Y-5883000D02*
X49849000Y-5540000D01*
X49889000Y-3460000D02*
X49889000Y-3057000D01*
X49889000Y-5943000D02*
X49889000Y-5540000D01*
X49929000Y-3460000D02*
X49929000Y-3000000D01*
X49929000Y-6000000D02*
X49929000Y-5540000D01*
X49969000Y-3460000D02*
X49969000Y-2946000D01*
X49969000Y-6054000D02*
X49969000Y-5540000D01*
X50009000Y-3460000D02*
X50009000Y-2895000D01*
X50009000Y-6105000D02*
X50009000Y-5540000D01*
X50049000Y-3460000D02*
X50049000Y-2847000D01*
X50049000Y-6153000D02*
X50049000Y-5540000D01*
X50089000Y-3460000D02*
X50089000Y-2801000D01*
X50089000Y-6199000D02*
X50089000Y-5540000D01*
X50129000Y-3460000D02*
X50129000Y-2757000D01*
X50129000Y-6243000D02*
X50129000Y-5540000D01*
X50169000Y-3460000D02*
X50169000Y-2715000D01*
X50169000Y-6285000D02*
X50169000Y-5540000D01*
X50209000Y-3460000D02*
X50209000Y-2674000D01*
X50209000Y-6326000D02*
X50209000Y-5540000D01*
X50249000Y-3460000D02*
X50249000Y-2636000D01*
X50249000Y-6364000D02*
X50249000Y-5540000D01*
X50289000Y-3460000D02*
X50289000Y-2599000D01*
X50289000Y-6401000D02*
X50289000Y-5540000D01*
X50329000Y-3460000D02*
X50329000Y-2563000D01*
X50329000Y-6437000D02*
X50329000Y-5540000D01*
X50369000Y-3460000D02*
X50369000Y-2529000D01*
X50369000Y-6471000D02*
X50369000Y-5540000D01*
X50409000Y-3460000D02*
X50409000Y-2496000D01*
X50409000Y-6504000D02*
X50409000Y-5540000D01*
X50449000Y-3460000D02*
X50449000Y-2465000D01*
X50449000Y-6535000D02*
X50449000Y-5540000D01*
X50489000Y-3460000D02*
X50489000Y-2435000D01*
X50489000Y-6565000D02*
X50489000Y-5540000D01*
X50529000Y-3460000D02*
X50529000Y-2405000D01*
X50529000Y-6595000D02*
X50529000Y-5540000D01*
X50569000Y-3460000D02*
X50569000Y-2378000D01*
X50569000Y-6622000D02*
X50569000Y-5540000D01*
X50609000Y-3460000D02*
X50609000Y-2351000D01*
X50609000Y-6649000D02*
X50609000Y-5540000D01*
X50649000Y-3460000D02*
X50649000Y-2325000D01*
X50649000Y-6675000D02*
X50649000Y-5540000D01*
X50689000Y-3460000D02*
X50689000Y-2300000D01*
X50689000Y-6700000D02*
X50689000Y-5540000D01*
X50729000Y-3460000D02*
X50729000Y-2276000D01*
X50729000Y-6724000D02*
X50729000Y-5540000D01*
X50769000Y-3460000D02*
X50769000Y-2253000D01*
X50769000Y-6747000D02*
X50769000Y-5540000D01*
X50809000Y-3460000D02*
X50809000Y-2232000D01*
X50809000Y-6768000D02*
X50809000Y-5540000D01*
X50849000Y-3460000D02*
X50849000Y-2210000D01*
X50849000Y-6790000D02*
X50849000Y-5540000D01*
X50889000Y-3460000D02*
X50889000Y-2190000D01*
X50889000Y-6810000D02*
X50889000Y-5540000D01*
X50929000Y-3460000D02*
X50929000Y-2171000D01*
X50929000Y-6829000D02*
X50929000Y-5540000D01*
X50969000Y-3460000D02*
X50969000Y-2152000D01*
X50969000Y-6848000D02*
X50969000Y-5540000D01*
X51009000Y-3460000D02*
X51009000Y-2135000D01*
X51009000Y-6865000D02*
X51009000Y-5540000D01*
X51049000Y-3460000D02*
X51049000Y-2118000D01*
X51049000Y-6882000D02*
X51049000Y-5540000D01*
X51089000Y-3460000D02*
X51089000Y-2102000D01*
X51089000Y-6898000D02*
X51089000Y-5540000D01*
X51129000Y-3460000D02*
X51129000Y-2086000D01*
X51129000Y-6914000D02*
X51129000Y-5540000D01*
X51169000Y-3460000D02*
X51169000Y-2072000D01*
X51169000Y-6928000D02*
X51169000Y-5540000D01*
X51209000Y-3460000D02*
X51209000Y-2058000D01*
X51209000Y-6942000D02*
X51209000Y-5540000D01*
X51249000Y-3460000D02*
X51249000Y-2045000D01*
X51249000Y-6955000D02*
X51249000Y-5540000D01*
X51289000Y-3460000D02*
X51289000Y-2032000D01*
X51289000Y-6968000D02*
X51289000Y-5540000D01*
X51329000Y-3460000D02*
X51329000Y-2020000D01*
X51329000Y-6980000D02*
X51329000Y-5540000D01*
X51370000Y-3460000D02*
X51370000Y-2009000D01*
X51370000Y-6991000D02*
X51370000Y-5540000D01*
X51410000Y-3460000D02*
X51410000Y-1999000D01*
X51410000Y-7001000D02*
X51410000Y-5540000D01*
X51450000Y-3460000D02*
X51450000Y-1989000D01*
X51450000Y-7011000D02*
X51450000Y-5540000D01*
X51490000Y-3460000D02*
X51490000Y-1980000D01*
X51490000Y-7020000D02*
X51490000Y-5540000D01*
X51530000Y-3460000D02*
X51530000Y-1972000D01*
X51530000Y-7028000D02*
X51530000Y-5540000D01*
X51570000Y-3460000D02*
X51570000Y-1964000D01*
X51570000Y-7036000D02*
X51570000Y-5540000D01*
X51610000Y-3460000D02*
X51610000Y-1957000D01*
X51610000Y-7043000D02*
X51610000Y-5540000D01*
X51650000Y-3460000D02*
X51650000Y-1950000D01*
X51650000Y-7050000D02*
X51650000Y-5540000D01*
X51690000Y-3460000D02*
X51690000Y-1944000D01*
X51690000Y-7056000D02*
X51690000Y-5540000D01*
X51730000Y-3460000D02*
X51730000Y-1939000D01*
X51730000Y-7061000D02*
X51730000Y-5540000D01*
X51770000Y-3460000D02*
X51770000Y-1935000D01*
X51770000Y-7065000D02*
X51770000Y-5540000D01*
X51810000Y-3460000D02*
X51810000Y-1931000D01*
X51810000Y-7069000D02*
X51810000Y-5540000D01*
X51850000Y-7073000D02*
X51850000Y-1927000D01*
X51890000Y-7076000D02*
X51890000Y-1924000D01*
X51930000Y-7078000D02*
X51930000Y-1922000D01*
X51970000Y-7079000D02*
X51970000Y-1921000D01*
X52010000Y-7080000D02*
X52010000Y-1920000D01*
X52050000Y-7080000D02*
X52050000Y-1920000D01*
X54670000Y-4500000D02*
G75*
G03X54670000Y-4500000I-2620000J0D01*
G01*
X56990000Y-27373733D02*
X56990000Y-27716267D01*
X58010000Y-27373733D02*
X58010000Y-27716267D01*
X37204775Y-6225000D02*
X37204775Y-5725000D01*
X37454775Y-5975000D02*
X36954775Y-5975000D01*
X32049000Y-4784000D02*
X32049000Y-4216000D01*
X32089000Y-5018000D02*
X32089000Y-3982000D01*
X32129000Y-5177000D02*
X32129000Y-3823000D01*
X32169000Y-5305000D02*
X32169000Y-3695000D01*
X32209000Y-5415000D02*
X32209000Y-3585000D01*
X32249000Y-5511000D02*
X32249000Y-3489000D01*
X32289000Y-5598000D02*
X32289000Y-3402000D01*
X32329000Y-5678000D02*
X32329000Y-3322000D01*
X32369000Y-3460000D02*
X32369000Y-3249000D01*
X32369000Y-5751000D02*
X32369000Y-5540000D01*
X32409000Y-3460000D02*
X32409000Y-3181000D01*
X32409000Y-5819000D02*
X32409000Y-5540000D01*
X32449000Y-3460000D02*
X32449000Y-3117000D01*
X32449000Y-5883000D02*
X32449000Y-5540000D01*
X32489000Y-3460000D02*
X32489000Y-3057000D01*
X32489000Y-5943000D02*
X32489000Y-5540000D01*
X32529000Y-3460000D02*
X32529000Y-3000000D01*
X32529000Y-6000000D02*
X32529000Y-5540000D01*
X32569000Y-3460000D02*
X32569000Y-2946000D01*
X32569000Y-6054000D02*
X32569000Y-5540000D01*
X32609000Y-3460000D02*
X32609000Y-2895000D01*
X32609000Y-6105000D02*
X32609000Y-5540000D01*
X32649000Y-3460000D02*
X32649000Y-2847000D01*
X32649000Y-6153000D02*
X32649000Y-5540000D01*
X32689000Y-3460000D02*
X32689000Y-2801000D01*
X32689000Y-6199000D02*
X32689000Y-5540000D01*
X32729000Y-3460000D02*
X32729000Y-2757000D01*
X32729000Y-6243000D02*
X32729000Y-5540000D01*
X32769000Y-3460000D02*
X32769000Y-2715000D01*
X32769000Y-6285000D02*
X32769000Y-5540000D01*
X32809000Y-3460000D02*
X32809000Y-2674000D01*
X32809000Y-6326000D02*
X32809000Y-5540000D01*
X32849000Y-3460000D02*
X32849000Y-2636000D01*
X32849000Y-6364000D02*
X32849000Y-5540000D01*
X32889000Y-3460000D02*
X32889000Y-2599000D01*
X32889000Y-6401000D02*
X32889000Y-5540000D01*
X32929000Y-3460000D02*
X32929000Y-2563000D01*
X32929000Y-6437000D02*
X32929000Y-5540000D01*
X32969000Y-3460000D02*
X32969000Y-2529000D01*
X32969000Y-6471000D02*
X32969000Y-5540000D01*
X33009000Y-3460000D02*
X33009000Y-2496000D01*
X33009000Y-6504000D02*
X33009000Y-5540000D01*
X33049000Y-3460000D02*
X33049000Y-2465000D01*
X33049000Y-6535000D02*
X33049000Y-5540000D01*
X33089000Y-3460000D02*
X33089000Y-2435000D01*
X33089000Y-6565000D02*
X33089000Y-5540000D01*
X33129000Y-3460000D02*
X33129000Y-2405000D01*
X33129000Y-6595000D02*
X33129000Y-5540000D01*
X33169000Y-3460000D02*
X33169000Y-2378000D01*
X33169000Y-6622000D02*
X33169000Y-5540000D01*
X33209000Y-3460000D02*
X33209000Y-2351000D01*
X33209000Y-6649000D02*
X33209000Y-5540000D01*
X33249000Y-3460000D02*
X33249000Y-2325000D01*
X33249000Y-6675000D02*
X33249000Y-5540000D01*
X33289000Y-3460000D02*
X33289000Y-2300000D01*
X33289000Y-6700000D02*
X33289000Y-5540000D01*
X33329000Y-3460000D02*
X33329000Y-2276000D01*
X33329000Y-6724000D02*
X33329000Y-5540000D01*
X33369000Y-3460000D02*
X33369000Y-2253000D01*
X33369000Y-6747000D02*
X33369000Y-5540000D01*
X33409000Y-3460000D02*
X33409000Y-2232000D01*
X33409000Y-6768000D02*
X33409000Y-5540000D01*
X33449000Y-3460000D02*
X33449000Y-2210000D01*
X33449000Y-6790000D02*
X33449000Y-5540000D01*
X33489000Y-3460000D02*
X33489000Y-2190000D01*
X33489000Y-6810000D02*
X33489000Y-5540000D01*
X33529000Y-3460000D02*
X33529000Y-2171000D01*
X33529000Y-6829000D02*
X33529000Y-5540000D01*
X33569000Y-3460000D02*
X33569000Y-2152000D01*
X33569000Y-6848000D02*
X33569000Y-5540000D01*
X33609000Y-3460000D02*
X33609000Y-2135000D01*
X33609000Y-6865000D02*
X33609000Y-5540000D01*
X33649000Y-3460000D02*
X33649000Y-2118000D01*
X33649000Y-6882000D02*
X33649000Y-5540000D01*
X33689000Y-3460000D02*
X33689000Y-2102000D01*
X33689000Y-6898000D02*
X33689000Y-5540000D01*
X33729000Y-3460000D02*
X33729000Y-2086000D01*
X33729000Y-6914000D02*
X33729000Y-5540000D01*
X33769000Y-3460000D02*
X33769000Y-2072000D01*
X33769000Y-6928000D02*
X33769000Y-5540000D01*
X33809000Y-3460000D02*
X33809000Y-2058000D01*
X33809000Y-6942000D02*
X33809000Y-5540000D01*
X33849000Y-3460000D02*
X33849000Y-2045000D01*
X33849000Y-6955000D02*
X33849000Y-5540000D01*
X33889000Y-3460000D02*
X33889000Y-2032000D01*
X33889000Y-6968000D02*
X33889000Y-5540000D01*
X33929000Y-3460000D02*
X33929000Y-2020000D01*
X33929000Y-6980000D02*
X33929000Y-5540000D01*
X33970000Y-3460000D02*
X33970000Y-2009000D01*
X33970000Y-6991000D02*
X33970000Y-5540000D01*
X34010000Y-3460000D02*
X34010000Y-1999000D01*
X34010000Y-7001000D02*
X34010000Y-5540000D01*
X34050000Y-3460000D02*
X34050000Y-1989000D01*
X34050000Y-7011000D02*
X34050000Y-5540000D01*
X34090000Y-3460000D02*
X34090000Y-1980000D01*
X34090000Y-7020000D02*
X34090000Y-5540000D01*
X34130000Y-3460000D02*
X34130000Y-1972000D01*
X34130000Y-7028000D02*
X34130000Y-5540000D01*
X34170000Y-3460000D02*
X34170000Y-1964000D01*
X34170000Y-7036000D02*
X34170000Y-5540000D01*
X34210000Y-3460000D02*
X34210000Y-1957000D01*
X34210000Y-7043000D02*
X34210000Y-5540000D01*
X34250000Y-3460000D02*
X34250000Y-1950000D01*
X34250000Y-7050000D02*
X34250000Y-5540000D01*
X34290000Y-3460000D02*
X34290000Y-1944000D01*
X34290000Y-7056000D02*
X34290000Y-5540000D01*
X34330000Y-3460000D02*
X34330000Y-1939000D01*
X34330000Y-7061000D02*
X34330000Y-5540000D01*
X34370000Y-3460000D02*
X34370000Y-1935000D01*
X34370000Y-7065000D02*
X34370000Y-5540000D01*
X34410000Y-3460000D02*
X34410000Y-1931000D01*
X34410000Y-7069000D02*
X34410000Y-5540000D01*
X34450000Y-7073000D02*
X34450000Y-1927000D01*
X34490000Y-7076000D02*
X34490000Y-1924000D01*
X34530000Y-7078000D02*
X34530000Y-1922000D01*
X34570000Y-7079000D02*
X34570000Y-1921000D01*
X34610000Y-7080000D02*
X34610000Y-1920000D01*
X34650000Y-7080000D02*
X34650000Y-1920000D01*
X37270000Y-4500000D02*
G75*
G03X37270000Y-4500000I-2620000J0D01*
G01*
X62690000Y-20984733D02*
X62690000Y-21327267D01*
X63710000Y-20984733D02*
X63710000Y-21327267D01*
X19604775Y-6225000D02*
X19604775Y-5725000D01*
X19854775Y-5975000D02*
X19354775Y-5975000D01*
X14449000Y-4784000D02*
X14449000Y-4216000D01*
X14489000Y-5018000D02*
X14489000Y-3982000D01*
X14529000Y-5177000D02*
X14529000Y-3823000D01*
X14569000Y-5305000D02*
X14569000Y-3695000D01*
X14609000Y-5415000D02*
X14609000Y-3585000D01*
X14649000Y-5511000D02*
X14649000Y-3489000D01*
X14689000Y-5598000D02*
X14689000Y-3402000D01*
X14729000Y-5678000D02*
X14729000Y-3322000D01*
X14769000Y-3460000D02*
X14769000Y-3249000D01*
X14769000Y-5751000D02*
X14769000Y-5540000D01*
X14809000Y-3460000D02*
X14809000Y-3181000D01*
X14809000Y-5819000D02*
X14809000Y-5540000D01*
X14849000Y-3460000D02*
X14849000Y-3117000D01*
X14849000Y-5883000D02*
X14849000Y-5540000D01*
X14889000Y-3460000D02*
X14889000Y-3057000D01*
X14889000Y-5943000D02*
X14889000Y-5540000D01*
X14929000Y-3460000D02*
X14929000Y-3000000D01*
X14929000Y-6000000D02*
X14929000Y-5540000D01*
X14969000Y-3460000D02*
X14969000Y-2946000D01*
X14969000Y-6054000D02*
X14969000Y-5540000D01*
X15009000Y-3460000D02*
X15009000Y-2895000D01*
X15009000Y-6105000D02*
X15009000Y-5540000D01*
X15049000Y-3460000D02*
X15049000Y-2847000D01*
X15049000Y-6153000D02*
X15049000Y-5540000D01*
X15089000Y-3460000D02*
X15089000Y-2801000D01*
X15089000Y-6199000D02*
X15089000Y-5540000D01*
X15129000Y-3460000D02*
X15129000Y-2757000D01*
X15129000Y-6243000D02*
X15129000Y-5540000D01*
X15169000Y-3460000D02*
X15169000Y-2715000D01*
X15169000Y-6285000D02*
X15169000Y-5540000D01*
X15209000Y-3460000D02*
X15209000Y-2674000D01*
X15209000Y-6326000D02*
X15209000Y-5540000D01*
X15249000Y-3460000D02*
X15249000Y-2636000D01*
X15249000Y-6364000D02*
X15249000Y-5540000D01*
X15289000Y-3460000D02*
X15289000Y-2599000D01*
X15289000Y-6401000D02*
X15289000Y-5540000D01*
X15329000Y-3460000D02*
X15329000Y-2563000D01*
X15329000Y-6437000D02*
X15329000Y-5540000D01*
X15369000Y-3460000D02*
X15369000Y-2529000D01*
X15369000Y-6471000D02*
X15369000Y-5540000D01*
X15409000Y-3460000D02*
X15409000Y-2496000D01*
X15409000Y-6504000D02*
X15409000Y-5540000D01*
X15449000Y-3460000D02*
X15449000Y-2465000D01*
X15449000Y-6535000D02*
X15449000Y-5540000D01*
X15489000Y-3460000D02*
X15489000Y-2435000D01*
X15489000Y-6565000D02*
X15489000Y-5540000D01*
X15529000Y-3460000D02*
X15529000Y-2405000D01*
X15529000Y-6595000D02*
X15529000Y-5540000D01*
X15569000Y-3460000D02*
X15569000Y-2378000D01*
X15569000Y-6622000D02*
X15569000Y-5540000D01*
X15609000Y-3460000D02*
X15609000Y-2351000D01*
X15609000Y-6649000D02*
X15609000Y-5540000D01*
X15649000Y-3460000D02*
X15649000Y-2325000D01*
X15649000Y-6675000D02*
X15649000Y-5540000D01*
X15689000Y-3460000D02*
X15689000Y-2300000D01*
X15689000Y-6700000D02*
X15689000Y-5540000D01*
X15729000Y-3460000D02*
X15729000Y-2276000D01*
X15729000Y-6724000D02*
X15729000Y-5540000D01*
X15769000Y-3460000D02*
X15769000Y-2253000D01*
X15769000Y-6747000D02*
X15769000Y-5540000D01*
X15809000Y-3460000D02*
X15809000Y-2232000D01*
X15809000Y-6768000D02*
X15809000Y-5540000D01*
X15849000Y-3460000D02*
X15849000Y-2210000D01*
X15849000Y-6790000D02*
X15849000Y-5540000D01*
X15889000Y-3460000D02*
X15889000Y-2190000D01*
X15889000Y-6810000D02*
X15889000Y-5540000D01*
X15929000Y-3460000D02*
X15929000Y-2171000D01*
X15929000Y-6829000D02*
X15929000Y-5540000D01*
X15969000Y-3460000D02*
X15969000Y-2152000D01*
X15969000Y-6848000D02*
X15969000Y-5540000D01*
X16009000Y-3460000D02*
X16009000Y-2135000D01*
X16009000Y-6865000D02*
X16009000Y-5540000D01*
X16049000Y-3460000D02*
X16049000Y-2118000D01*
X16049000Y-6882000D02*
X16049000Y-5540000D01*
X16089000Y-3460000D02*
X16089000Y-2102000D01*
X16089000Y-6898000D02*
X16089000Y-5540000D01*
X16129000Y-3460000D02*
X16129000Y-2086000D01*
X16129000Y-6914000D02*
X16129000Y-5540000D01*
X16169000Y-3460000D02*
X16169000Y-2072000D01*
X16169000Y-6928000D02*
X16169000Y-5540000D01*
X16209000Y-3460000D02*
X16209000Y-2058000D01*
X16209000Y-6942000D02*
X16209000Y-5540000D01*
X16249000Y-3460000D02*
X16249000Y-2045000D01*
X16249000Y-6955000D02*
X16249000Y-5540000D01*
X16289000Y-3460000D02*
X16289000Y-2032000D01*
X16289000Y-6968000D02*
X16289000Y-5540000D01*
X16329000Y-3460000D02*
X16329000Y-2020000D01*
X16329000Y-6980000D02*
X16329000Y-5540000D01*
X16370000Y-3460000D02*
X16370000Y-2009000D01*
X16370000Y-6991000D02*
X16370000Y-5540000D01*
X16410000Y-3460000D02*
X16410000Y-1999000D01*
X16410000Y-7001000D02*
X16410000Y-5540000D01*
X16450000Y-3460000D02*
X16450000Y-1989000D01*
X16450000Y-7011000D02*
X16450000Y-5540000D01*
X16490000Y-3460000D02*
X16490000Y-1980000D01*
X16490000Y-7020000D02*
X16490000Y-5540000D01*
X16530000Y-3460000D02*
X16530000Y-1972000D01*
X16530000Y-7028000D02*
X16530000Y-5540000D01*
X16570000Y-3460000D02*
X16570000Y-1964000D01*
X16570000Y-7036000D02*
X16570000Y-5540000D01*
X16610000Y-3460000D02*
X16610000Y-1957000D01*
X16610000Y-7043000D02*
X16610000Y-5540000D01*
X16650000Y-3460000D02*
X16650000Y-1950000D01*
X16650000Y-7050000D02*
X16650000Y-5540000D01*
X16690000Y-3460000D02*
X16690000Y-1944000D01*
X16690000Y-7056000D02*
X16690000Y-5540000D01*
X16730000Y-3460000D02*
X16730000Y-1939000D01*
X16730000Y-7061000D02*
X16730000Y-5540000D01*
X16770000Y-3460000D02*
X16770000Y-1935000D01*
X16770000Y-7065000D02*
X16770000Y-5540000D01*
X16810000Y-3460000D02*
X16810000Y-1931000D01*
X16810000Y-7069000D02*
X16810000Y-5540000D01*
X16850000Y-7073000D02*
X16850000Y-1927000D01*
X16890000Y-7076000D02*
X16890000Y-1924000D01*
X16930000Y-7078000D02*
X16930000Y-1922000D01*
X16970000Y-7079000D02*
X16970000Y-1921000D01*
X17010000Y-7080000D02*
X17010000Y-1920000D01*
X17050000Y-7080000D02*
X17050000Y-1920000D01*
X19670000Y-4500000D02*
G75*
G03X19670000Y-4500000I-2620000J0D01*
G01*
X62890000Y-7928733D02*
X62890000Y-8271267D01*
X63910000Y-7928733D02*
X63910000Y-8271267D01*
X64625000Y-34979646D02*
X65625000Y-34979646D01*
X65125000Y-35479646D02*
X65125000Y-34479646D01*
X67401000Y-24919000D02*
X68599000Y-24919000D01*
X67138000Y-24959000D02*
X68862000Y-24959000D01*
X66938000Y-24999000D02*
X69062000Y-24999000D01*
X66770000Y-25039000D02*
X69230000Y-25039000D01*
X66622000Y-25079000D02*
X69378000Y-25079000D01*
X66490000Y-25119000D02*
X69510000Y-25119000D01*
X66370000Y-25159000D02*
X69630000Y-25159000D01*
X66258000Y-25199000D02*
X69742000Y-25199000D01*
X66154000Y-25239000D02*
X69846000Y-25239000D01*
X66056000Y-25279000D02*
X69944000Y-25279000D01*
X65963000Y-25319000D02*
X70037000Y-25319000D01*
X65875000Y-25359000D02*
X70125000Y-25359000D01*
X65791000Y-25399000D02*
X70209000Y-25399000D01*
X65711000Y-25439000D02*
X70289000Y-25439000D01*
X65635000Y-25479000D02*
X70365000Y-25479000D01*
X65561000Y-25519000D02*
X70439000Y-25519000D01*
X65490000Y-25559000D02*
X70510000Y-25559000D01*
X65421000Y-25599000D02*
X70579000Y-25599000D01*
X65355000Y-25639000D02*
X70645000Y-25639000D01*
X65291000Y-25679000D02*
X70709000Y-25679000D01*
X65230000Y-25719000D02*
X70770000Y-25719000D01*
X65170000Y-25759000D02*
X70830000Y-25759000D01*
X65111000Y-25799000D02*
X70889000Y-25799000D01*
X65055000Y-25839000D02*
X70945000Y-25839000D01*
X65000000Y-25879000D02*
X71000000Y-25879000D01*
X64946000Y-25919000D02*
X71054000Y-25919000D01*
X64894000Y-25959000D02*
X71106000Y-25959000D01*
X64844000Y-25999000D02*
X71156000Y-25999000D01*
X64794000Y-26039000D02*
X71206000Y-26039000D01*
X64746000Y-26079000D02*
X71254000Y-26079000D01*
X64699000Y-26119000D02*
X71301000Y-26119000D01*
X64653000Y-26159000D02*
X71347000Y-26159000D01*
X64608000Y-26199000D02*
X71392000Y-26199000D01*
X64564000Y-26239000D02*
X71436000Y-26239000D01*
X69241000Y-26279000D02*
X71478000Y-26279000D01*
X64522000Y-26279000D02*
X66759000Y-26279000D01*
X69241000Y-26319000D02*
X71520000Y-26319000D01*
X64480000Y-26319000D02*
X66759000Y-26319000D01*
X69241000Y-26359000D02*
X71561000Y-26359000D01*
X64439000Y-26359000D02*
X66759000Y-26359000D01*
X69241000Y-26399000D02*
X71601000Y-26399000D01*
X64399000Y-26399000D02*
X66759000Y-26399000D01*
X69241000Y-26439000D02*
X71640000Y-26439000D01*
X64360000Y-26439000D02*
X66759000Y-26439000D01*
X69241000Y-26479000D02*
X71679000Y-26479000D01*
X64321000Y-26479000D02*
X66759000Y-26479000D01*
X69241000Y-26519000D02*
X71716000Y-26519000D01*
X64284000Y-26519000D02*
X66759000Y-26519000D01*
X69241000Y-26559000D02*
X71753000Y-26559000D01*
X64247000Y-26559000D02*
X66759000Y-26559000D01*
X69241000Y-26599000D02*
X71789000Y-26599000D01*
X64211000Y-26599000D02*
X66759000Y-26599000D01*
X69241000Y-26639000D02*
X71824000Y-26639000D01*
X64176000Y-26639000D02*
X66759000Y-26639000D01*
X69241000Y-26679000D02*
X71858000Y-26679000D01*
X64142000Y-26679000D02*
X66759000Y-26679000D01*
X69241000Y-26719000D02*
X71892000Y-26719000D01*
X64108000Y-26719000D02*
X66759000Y-26719000D01*
X69241000Y-26759000D02*
X71925000Y-26759000D01*
X64075000Y-26759000D02*
X66759000Y-26759000D01*
X69241000Y-26799000D02*
X71957000Y-26799000D01*
X64043000Y-26799000D02*
X66759000Y-26799000D01*
X69241000Y-26839000D02*
X71989000Y-26839000D01*
X64011000Y-26839000D02*
X66759000Y-26839000D01*
X69241000Y-26879000D02*
X72020000Y-26879000D01*
X63980000Y-26879000D02*
X66759000Y-26879000D01*
X69241000Y-26919000D02*
X72050000Y-26919000D01*
X63950000Y-26919000D02*
X66759000Y-26919000D01*
X69241000Y-26959000D02*
X72080000Y-26959000D01*
X63920000Y-26959000D02*
X66759000Y-26959000D01*
X69241000Y-26999000D02*
X72110000Y-26999000D01*
X63890000Y-26999000D02*
X66759000Y-26999000D01*
X69241000Y-27039000D02*
X72138000Y-27039000D01*
X63862000Y-27039000D02*
X66759000Y-27039000D01*
X69241000Y-27079000D02*
X72166000Y-27079000D01*
X63834000Y-27079000D02*
X66759000Y-27079000D01*
X69241000Y-27119000D02*
X72194000Y-27119000D01*
X63806000Y-27119000D02*
X66759000Y-27119000D01*
X69241000Y-27159000D02*
X72221000Y-27159000D01*
X63779000Y-27159000D02*
X66759000Y-27159000D01*
X69241000Y-27199000D02*
X72247000Y-27199000D01*
X63753000Y-27199000D02*
X66759000Y-27199000D01*
X69241000Y-27239000D02*
X72273000Y-27239000D01*
X63727000Y-27239000D02*
X66759000Y-27239000D01*
X69241000Y-27279000D02*
X72298000Y-27279000D01*
X63702000Y-27279000D02*
X66759000Y-27279000D01*
X69241000Y-27319000D02*
X72323000Y-27319000D01*
X63677000Y-27319000D02*
X66759000Y-27319000D01*
X69241000Y-27359000D02*
X72347000Y-27359000D01*
X63653000Y-27359000D02*
X66759000Y-27359000D01*
X69241000Y-27399000D02*
X72371000Y-27399000D01*
X63629000Y-27399000D02*
X66759000Y-27399000D01*
X69241000Y-27439000D02*
X72395000Y-27439000D01*
X63605000Y-27439000D02*
X66759000Y-27439000D01*
X69241000Y-27479000D02*
X72417000Y-27479000D01*
X63583000Y-27479000D02*
X66759000Y-27479000D01*
X69241000Y-27519000D02*
X72440000Y-27519000D01*
X63560000Y-27519000D02*
X66759000Y-27519000D01*
X69241000Y-27559000D02*
X72462000Y-27559000D01*
X63538000Y-27559000D02*
X66759000Y-27559000D01*
X69241000Y-27599000D02*
X72483000Y-27599000D01*
X63517000Y-27599000D02*
X66759000Y-27599000D01*
X69241000Y-27639000D02*
X72504000Y-27639000D01*
X63496000Y-27639000D02*
X66759000Y-27639000D01*
X69241000Y-27679000D02*
X72525000Y-27679000D01*
X63475000Y-27679000D02*
X66759000Y-27679000D01*
X69241000Y-27719000D02*
X72545000Y-27719000D01*
X63455000Y-27719000D02*
X66759000Y-27719000D01*
X69241000Y-27759000D02*
X72564000Y-27759000D01*
X63436000Y-27759000D02*
X66759000Y-27759000D01*
X69241000Y-27799000D02*
X72584000Y-27799000D01*
X63416000Y-27799000D02*
X66759000Y-27799000D01*
X69241000Y-27839000D02*
X72603000Y-27839000D01*
X63397000Y-27839000D02*
X66759000Y-27839000D01*
X69241000Y-27879000D02*
X72621000Y-27879000D01*
X63379000Y-27879000D02*
X66759000Y-27879000D01*
X69241000Y-27919000D02*
X72639000Y-27919000D01*
X63361000Y-27919000D02*
X66759000Y-27919000D01*
X69241000Y-27959000D02*
X72657000Y-27959000D01*
X63343000Y-27959000D02*
X66759000Y-27959000D01*
X69241000Y-27999000D02*
X72674000Y-27999000D01*
X63326000Y-27999000D02*
X66759000Y-27999000D01*
X69241000Y-28039000D02*
X72690000Y-28039000D01*
X63310000Y-28039000D02*
X66759000Y-28039000D01*
X69241000Y-28079000D02*
X72707000Y-28079000D01*
X63293000Y-28079000D02*
X66759000Y-28079000D01*
X69241000Y-28119000D02*
X72723000Y-28119000D01*
X63277000Y-28119000D02*
X66759000Y-28119000D01*
X69241000Y-28159000D02*
X72738000Y-28159000D01*
X63262000Y-28159000D02*
X66759000Y-28159000D01*
X69241000Y-28199000D02*
X72754000Y-28199000D01*
X63246000Y-28199000D02*
X66759000Y-28199000D01*
X69241000Y-28239000D02*
X72768000Y-28239000D01*
X63232000Y-28239000D02*
X66759000Y-28239000D01*
X69241000Y-28279000D02*
X72783000Y-28279000D01*
X63217000Y-28279000D02*
X66759000Y-28279000D01*
X69241000Y-28319000D02*
X72797000Y-28319000D01*
X63203000Y-28319000D02*
X66759000Y-28319000D01*
X69241000Y-28359000D02*
X72811000Y-28359000D01*
X63189000Y-28359000D02*
X66759000Y-28359000D01*
X69241000Y-28399000D02*
X72824000Y-28399000D01*
X63176000Y-28399000D02*
X66759000Y-28399000D01*
X69241000Y-28439000D02*
X72837000Y-28439000D01*
X63163000Y-28439000D02*
X66759000Y-28439000D01*
X69241000Y-28479000D02*
X72850000Y-28479000D01*
X63150000Y-28479000D02*
X66759000Y-28479000D01*
X69241000Y-28519000D02*
X72862000Y-28519000D01*
X63138000Y-28519000D02*
X66759000Y-28519000D01*
X69241000Y-28559000D02*
X72874000Y-28559000D01*
X63126000Y-28559000D02*
X66759000Y-28559000D01*
X69241000Y-28599000D02*
X72885000Y-28599000D01*
X63115000Y-28599000D02*
X66759000Y-28599000D01*
X69241000Y-28639000D02*
X72897000Y-28639000D01*
X63103000Y-28639000D02*
X66759000Y-28639000D01*
X69241000Y-28679000D02*
X72907000Y-28679000D01*
X63093000Y-28679000D02*
X66759000Y-28679000D01*
X69241000Y-28719000D02*
X72918000Y-28719000D01*
X63082000Y-28719000D02*
X66759000Y-28719000D01*
X63072000Y-28759000D02*
X72928000Y-28759000D01*
X63062000Y-28799000D02*
X72938000Y-28799000D01*
X63053000Y-28839000D02*
X72947000Y-28839000D01*
X63044000Y-28879000D02*
X72956000Y-28879000D01*
X63035000Y-28919000D02*
X72965000Y-28919000D01*
X63026000Y-28959000D02*
X72974000Y-28959000D01*
X63018000Y-28999000D02*
X72982000Y-28999000D01*
X63010000Y-29039000D02*
X72990000Y-29039000D01*
X63003000Y-29079000D02*
X72997000Y-29079000D01*
X62996000Y-29119000D02*
X73004000Y-29119000D01*
X62989000Y-29159000D02*
X73011000Y-29159000D01*
X62982000Y-29199000D02*
X73018000Y-29199000D01*
X62976000Y-29239000D02*
X73024000Y-29239000D01*
X62970000Y-29279000D02*
X73030000Y-29279000D01*
X62965000Y-29320000D02*
X73035000Y-29320000D01*
X62960000Y-29360000D02*
X73040000Y-29360000D01*
X62955000Y-29400000D02*
X73045000Y-29400000D01*
X62950000Y-29440000D02*
X73050000Y-29440000D01*
X62946000Y-29480000D02*
X73054000Y-29480000D01*
X62942000Y-29520000D02*
X73058000Y-29520000D01*
X62938000Y-29560000D02*
X73062000Y-29560000D01*
X62935000Y-29600000D02*
X73065000Y-29600000D01*
X62932000Y-29640000D02*
X73068000Y-29640000D01*
X62930000Y-29680000D02*
X73070000Y-29680000D01*
X62927000Y-29720000D02*
X73073000Y-29720000D01*
X62925000Y-29760000D02*
X73075000Y-29760000D01*
X62923000Y-29800000D02*
X73077000Y-29800000D01*
X62922000Y-29840000D02*
X73078000Y-29840000D01*
X62921000Y-29880000D02*
X73079000Y-29880000D01*
X62920000Y-29920000D02*
X73080000Y-29920000D01*
X62920000Y-29960000D02*
X73080000Y-29960000D01*
X62920000Y-30000000D02*
X73080000Y-30000000D01*
X73120000Y-30000000D02*
G75*
G03X73120000Y-30000000I-5120000J0D01*
G01*
X18525000Y-34979646D02*
X19525000Y-34979646D01*
X19025000Y-35479646D02*
X19025000Y-34479646D01*
X21301000Y-24919000D02*
X22499000Y-24919000D01*
X21038000Y-24959000D02*
X22762000Y-24959000D01*
X20838000Y-24999000D02*
X22962000Y-24999000D01*
X20670000Y-25039000D02*
X23130000Y-25039000D01*
X20522000Y-25079000D02*
X23278000Y-25079000D01*
X20390000Y-25119000D02*
X23410000Y-25119000D01*
X20270000Y-25159000D02*
X23530000Y-25159000D01*
X20158000Y-25199000D02*
X23642000Y-25199000D01*
X20054000Y-25239000D02*
X23746000Y-25239000D01*
X19956000Y-25279000D02*
X23844000Y-25279000D01*
X19863000Y-25319000D02*
X23937000Y-25319000D01*
X19775000Y-25359000D02*
X24025000Y-25359000D01*
X19691000Y-25399000D02*
X24109000Y-25399000D01*
X19611000Y-25439000D02*
X24189000Y-25439000D01*
X19535000Y-25479000D02*
X24265000Y-25479000D01*
X19461000Y-25519000D02*
X24339000Y-25519000D01*
X19390000Y-25559000D02*
X24410000Y-25559000D01*
X19321000Y-25599000D02*
X24479000Y-25599000D01*
X19255000Y-25639000D02*
X24545000Y-25639000D01*
X19191000Y-25679000D02*
X24609000Y-25679000D01*
X19130000Y-25719000D02*
X24670000Y-25719000D01*
X19070000Y-25759000D02*
X24730000Y-25759000D01*
X19011000Y-25799000D02*
X24789000Y-25799000D01*
X18955000Y-25839000D02*
X24845000Y-25839000D01*
X18900000Y-25879000D02*
X24900000Y-25879000D01*
X18846000Y-25919000D02*
X24954000Y-25919000D01*
X18794000Y-25959000D02*
X25006000Y-25959000D01*
X18744000Y-25999000D02*
X25056000Y-25999000D01*
X18694000Y-26039000D02*
X25106000Y-26039000D01*
X18646000Y-26079000D02*
X25154000Y-26079000D01*
X18599000Y-26119000D02*
X25201000Y-26119000D01*
X18553000Y-26159000D02*
X25247000Y-26159000D01*
X18508000Y-26199000D02*
X25292000Y-26199000D01*
X18464000Y-26239000D02*
X25336000Y-26239000D01*
X23141000Y-26279000D02*
X25378000Y-26279000D01*
X18422000Y-26279000D02*
X20659000Y-26279000D01*
X23141000Y-26319000D02*
X25420000Y-26319000D01*
X18380000Y-26319000D02*
X20659000Y-26319000D01*
X23141000Y-26359000D02*
X25461000Y-26359000D01*
X18339000Y-26359000D02*
X20659000Y-26359000D01*
X23141000Y-26399000D02*
X25501000Y-26399000D01*
X18299000Y-26399000D02*
X20659000Y-26399000D01*
X23141000Y-26439000D02*
X25540000Y-26439000D01*
X18260000Y-26439000D02*
X20659000Y-26439000D01*
X23141000Y-26479000D02*
X25579000Y-26479000D01*
X18221000Y-26479000D02*
X20659000Y-26479000D01*
X23141000Y-26519000D02*
X25616000Y-26519000D01*
X18184000Y-26519000D02*
X20659000Y-26519000D01*
X23141000Y-26559000D02*
X25653000Y-26559000D01*
X18147000Y-26559000D02*
X20659000Y-26559000D01*
X23141000Y-26599000D02*
X25689000Y-26599000D01*
X18111000Y-26599000D02*
X20659000Y-26599000D01*
X23141000Y-26639000D02*
X25724000Y-26639000D01*
X18076000Y-26639000D02*
X20659000Y-26639000D01*
X23141000Y-26679000D02*
X25758000Y-26679000D01*
X18042000Y-26679000D02*
X20659000Y-26679000D01*
X23141000Y-26719000D02*
X25792000Y-26719000D01*
X18008000Y-26719000D02*
X20659000Y-26719000D01*
X23141000Y-26759000D02*
X25825000Y-26759000D01*
X17975000Y-26759000D02*
X20659000Y-26759000D01*
X23141000Y-26799000D02*
X25857000Y-26799000D01*
X17943000Y-26799000D02*
X20659000Y-26799000D01*
X23141000Y-26839000D02*
X25889000Y-26839000D01*
X17911000Y-26839000D02*
X20659000Y-26839000D01*
X23141000Y-26879000D02*
X25920000Y-26879000D01*
X17880000Y-26879000D02*
X20659000Y-26879000D01*
X23141000Y-26919000D02*
X25950000Y-26919000D01*
X17850000Y-26919000D02*
X20659000Y-26919000D01*
X23141000Y-26959000D02*
X25980000Y-26959000D01*
X17820000Y-26959000D02*
X20659000Y-26959000D01*
X23141000Y-26999000D02*
X26010000Y-26999000D01*
X17790000Y-26999000D02*
X20659000Y-26999000D01*
X23141000Y-27039000D02*
X26038000Y-27039000D01*
X17762000Y-27039000D02*
X20659000Y-27039000D01*
X23141000Y-27079000D02*
X26066000Y-27079000D01*
X17734000Y-27079000D02*
X20659000Y-27079000D01*
X23141000Y-27119000D02*
X26094000Y-27119000D01*
X17706000Y-27119000D02*
X20659000Y-27119000D01*
X23141000Y-27159000D02*
X26121000Y-27159000D01*
X17679000Y-27159000D02*
X20659000Y-27159000D01*
X23141000Y-27199000D02*
X26147000Y-27199000D01*
X17653000Y-27199000D02*
X20659000Y-27199000D01*
X23141000Y-27239000D02*
X26173000Y-27239000D01*
X17627000Y-27239000D02*
X20659000Y-27239000D01*
X23141000Y-27279000D02*
X26198000Y-27279000D01*
X17602000Y-27279000D02*
X20659000Y-27279000D01*
X23141000Y-27319000D02*
X26223000Y-27319000D01*
X17577000Y-27319000D02*
X20659000Y-27319000D01*
X23141000Y-27359000D02*
X26247000Y-27359000D01*
X17553000Y-27359000D02*
X20659000Y-27359000D01*
X23141000Y-27399000D02*
X26271000Y-27399000D01*
X17529000Y-27399000D02*
X20659000Y-27399000D01*
X23141000Y-27439000D02*
X26295000Y-27439000D01*
X17505000Y-27439000D02*
X20659000Y-27439000D01*
X23141000Y-27479000D02*
X26317000Y-27479000D01*
X17483000Y-27479000D02*
X20659000Y-27479000D01*
X23141000Y-27519000D02*
X26340000Y-27519000D01*
X17460000Y-27519000D02*
X20659000Y-27519000D01*
X23141000Y-27559000D02*
X26362000Y-27559000D01*
X17438000Y-27559000D02*
X20659000Y-27559000D01*
X23141000Y-27599000D02*
X26383000Y-27599000D01*
X17417000Y-27599000D02*
X20659000Y-27599000D01*
X23141000Y-27639000D02*
X26404000Y-27639000D01*
X17396000Y-27639000D02*
X20659000Y-27639000D01*
X23141000Y-27679000D02*
X26425000Y-27679000D01*
X17375000Y-27679000D02*
X20659000Y-27679000D01*
X23141000Y-27719000D02*
X26445000Y-27719000D01*
X17355000Y-27719000D02*
X20659000Y-27719000D01*
X23141000Y-27759000D02*
X26464000Y-27759000D01*
X17336000Y-27759000D02*
X20659000Y-27759000D01*
X23141000Y-27799000D02*
X26484000Y-27799000D01*
X17316000Y-27799000D02*
X20659000Y-27799000D01*
X23141000Y-27839000D02*
X26503000Y-27839000D01*
X17297000Y-27839000D02*
X20659000Y-27839000D01*
X23141000Y-27879000D02*
X26521000Y-27879000D01*
X17279000Y-27879000D02*
X20659000Y-27879000D01*
X23141000Y-27919000D02*
X26539000Y-27919000D01*
X17261000Y-27919000D02*
X20659000Y-27919000D01*
X23141000Y-27959000D02*
X26557000Y-27959000D01*
X17243000Y-27959000D02*
X20659000Y-27959000D01*
X23141000Y-27999000D02*
X26574000Y-27999000D01*
X17226000Y-27999000D02*
X20659000Y-27999000D01*
X23141000Y-28039000D02*
X26590000Y-28039000D01*
X17210000Y-28039000D02*
X20659000Y-28039000D01*
X23141000Y-28079000D02*
X26607000Y-28079000D01*
X17193000Y-28079000D02*
X20659000Y-28079000D01*
X23141000Y-28119000D02*
X26623000Y-28119000D01*
X17177000Y-28119000D02*
X20659000Y-28119000D01*
X23141000Y-28159000D02*
X26638000Y-28159000D01*
X17162000Y-28159000D02*
X20659000Y-28159000D01*
X23141000Y-28199000D02*
X26654000Y-28199000D01*
X17146000Y-28199000D02*
X20659000Y-28199000D01*
X23141000Y-28239000D02*
X26668000Y-28239000D01*
X17132000Y-28239000D02*
X20659000Y-28239000D01*
X23141000Y-28279000D02*
X26683000Y-28279000D01*
X17117000Y-28279000D02*
X20659000Y-28279000D01*
X23141000Y-28319000D02*
X26697000Y-28319000D01*
X17103000Y-28319000D02*
X20659000Y-28319000D01*
X23141000Y-28359000D02*
X26711000Y-28359000D01*
X17089000Y-28359000D02*
X20659000Y-28359000D01*
X23141000Y-28399000D02*
X26724000Y-28399000D01*
X17076000Y-28399000D02*
X20659000Y-28399000D01*
X23141000Y-28439000D02*
X26737000Y-28439000D01*
X17063000Y-28439000D02*
X20659000Y-28439000D01*
X23141000Y-28479000D02*
X26750000Y-28479000D01*
X17050000Y-28479000D02*
X20659000Y-28479000D01*
X23141000Y-28519000D02*
X26762000Y-28519000D01*
X17038000Y-28519000D02*
X20659000Y-28519000D01*
X23141000Y-28559000D02*
X26774000Y-28559000D01*
X17026000Y-28559000D02*
X20659000Y-28559000D01*
X23141000Y-28599000D02*
X26785000Y-28599000D01*
X17015000Y-28599000D02*
X20659000Y-28599000D01*
X23141000Y-28639000D02*
X26797000Y-28639000D01*
X17003000Y-28639000D02*
X20659000Y-28639000D01*
X23141000Y-28679000D02*
X26807000Y-28679000D01*
X16993000Y-28679000D02*
X20659000Y-28679000D01*
X23141000Y-28719000D02*
X26818000Y-28719000D01*
X16982000Y-28719000D02*
X20659000Y-28719000D01*
X16972000Y-28759000D02*
X26828000Y-28759000D01*
X16962000Y-28799000D02*
X26838000Y-28799000D01*
X16953000Y-28839000D02*
X26847000Y-28839000D01*
X16944000Y-28879000D02*
X26856000Y-28879000D01*
X16935000Y-28919000D02*
X26865000Y-28919000D01*
X16926000Y-28959000D02*
X26874000Y-28959000D01*
X16918000Y-28999000D02*
X26882000Y-28999000D01*
X16910000Y-29039000D02*
X26890000Y-29039000D01*
X16903000Y-29079000D02*
X26897000Y-29079000D01*
X16896000Y-29119000D02*
X26904000Y-29119000D01*
X16889000Y-29159000D02*
X26911000Y-29159000D01*
X16882000Y-29199000D02*
X26918000Y-29199000D01*
X16876000Y-29239000D02*
X26924000Y-29239000D01*
X16870000Y-29279000D02*
X26930000Y-29279000D01*
X16865000Y-29320000D02*
X26935000Y-29320000D01*
X16860000Y-29360000D02*
X26940000Y-29360000D01*
X16855000Y-29400000D02*
X26945000Y-29400000D01*
X16850000Y-29440000D02*
X26950000Y-29440000D01*
X16846000Y-29480000D02*
X26954000Y-29480000D01*
X16842000Y-29520000D02*
X26958000Y-29520000D01*
X16838000Y-29560000D02*
X26962000Y-29560000D01*
X16835000Y-29600000D02*
X26965000Y-29600000D01*
X16832000Y-29640000D02*
X26968000Y-29640000D01*
X16830000Y-29680000D02*
X26970000Y-29680000D01*
X16827000Y-29720000D02*
X26973000Y-29720000D01*
X16825000Y-29760000D02*
X26975000Y-29760000D01*
X16823000Y-29800000D02*
X26977000Y-29800000D01*
X16822000Y-29840000D02*
X26978000Y-29840000D01*
X16821000Y-29880000D02*
X26979000Y-29880000D01*
X16820000Y-29920000D02*
X26980000Y-29920000D01*
X16820000Y-29960000D02*
X26980000Y-29960000D01*
X16820000Y-30000000D02*
X26980000Y-30000000D01*
X27020000Y-30000000D02*
G75*
G03X27020000Y-30000000I-5120000J0D01*
G01*
X31679000Y-21727267D02*
X31679000Y-21384733D01*
X30659000Y-21727267D02*
X30659000Y-21384733D01*
X34727000Y-21727267D02*
X34727000Y-21384733D01*
X33707000Y-21727267D02*
X33707000Y-21384733D01*
X33203000Y-21727267D02*
X33203000Y-21384733D01*
X32183000Y-21727267D02*
X32183000Y-21384733D01*
X37729000Y-27373733D02*
X37729000Y-27716267D01*
X38749000Y-27373733D02*
X38749000Y-27716267D01*
X45350000Y-21084733D02*
X45350000Y-21427267D01*
X46370000Y-21084733D02*
X46370000Y-21427267D01*
X45290000Y-7928733D02*
X45290000Y-8271267D01*
X46310000Y-7928733D02*
X46310000Y-8271267D01*
X17065000Y-21727267D02*
X17065000Y-21384733D01*
X16045000Y-21727267D02*
X16045000Y-21384733D01*
X15560000Y-21727267D02*
X15560000Y-21384733D01*
X14540000Y-21727267D02*
X14540000Y-21384733D01*
X14055000Y-21727267D02*
X14055000Y-21384733D01*
X13035000Y-21727267D02*
X13035000Y-21384733D01*
X12890000Y-27373733D02*
X12890000Y-27716267D01*
X13910000Y-27373733D02*
X13910000Y-27716267D01*
X27460000Y-21084733D02*
X27460000Y-21427267D01*
X28480000Y-21084733D02*
X28480000Y-21427267D01*
X26172000Y-7928733D02*
X26172000Y-8271267D01*
X27192000Y-7928733D02*
X27192000Y-8271267D01*
D10*
X3888095Y-962380D02*
X3888095Y-1771904D01*
X3935714Y-1867142D01*
X3983333Y-1914761D01*
X4078571Y-1962380D01*
X4269047Y-1962380D01*
X4364285Y-1914761D01*
X4411904Y-1867142D01*
X4459523Y-1771904D01*
X4459523Y-962380D01*
X4983333Y-1962380D02*
X5173809Y-1962380D01*
X5269047Y-1914761D01*
X5316666Y-1867142D01*
X5411904Y-1724285D01*
X5459523Y-1533809D01*
X5459523Y-1152857D01*
X5411904Y-1057619D01*
X5364285Y-1010000D01*
X5269047Y-962380D01*
X5078571Y-962380D01*
X4983333Y-1010000D01*
X4935714Y-1057619D01*
X4888095Y-1152857D01*
X4888095Y-1390952D01*
X4935714Y-1486190D01*
X4983333Y-1533809D01*
X5078571Y-1581428D01*
X5269047Y-1581428D01*
X5364285Y-1533809D01*
X5411904Y-1486190D01*
X5459523Y-1390952D01*
X43152380Y-31487858D02*
X42676190Y-31821191D01*
X43152380Y-32059286D02*
X42152380Y-32059286D01*
X42152380Y-31678334D01*
X42200000Y-31583096D01*
X42247619Y-31535477D01*
X42342857Y-31487858D01*
X42485714Y-31487858D01*
X42580952Y-31535477D01*
X42628571Y-31583096D01*
X42676190Y-31678334D01*
X42676190Y-32059286D01*
X42152380Y-31154524D02*
X42152380Y-30535477D01*
X42533333Y-30868810D01*
X42533333Y-30725953D01*
X42580952Y-30630715D01*
X42628571Y-30583096D01*
X42723809Y-30535477D01*
X42961904Y-30535477D01*
X43057142Y-30583096D01*
X43104761Y-30630715D01*
X43152380Y-30725953D01*
X43152380Y-31011667D01*
X43104761Y-31106905D01*
X43057142Y-31154524D01*
X42152380Y-29916429D02*
X42152380Y-29821191D01*
X42200000Y-29725953D01*
X42247619Y-29678334D01*
X42342857Y-29630715D01*
X42533333Y-29583096D01*
X42771428Y-29583096D01*
X42961904Y-29630715D01*
X43057142Y-29678334D01*
X43104761Y-29725953D01*
X43152380Y-29821191D01*
X43152380Y-29916429D01*
X43104761Y-30011667D01*
X43057142Y-30059286D01*
X42961904Y-30106905D01*
X42771428Y-30154524D01*
X42533333Y-30154524D01*
X42342857Y-30106905D01*
X42247619Y-30059286D01*
X42200000Y-30011667D01*
X42152380Y-29916429D01*
X49902380Y-15592857D02*
X49426190Y-15926190D01*
X49902380Y-16164285D02*
X48902380Y-16164285D01*
X48902380Y-15783333D01*
X48950000Y-15688095D01*
X48997619Y-15640476D01*
X49092857Y-15592857D01*
X49235714Y-15592857D01*
X49330952Y-15640476D01*
X49378571Y-15688095D01*
X49426190Y-15783333D01*
X49426190Y-16164285D01*
X49902380Y-14640476D02*
X49902380Y-15211904D01*
X49902380Y-14926190D02*
X48902380Y-14926190D01*
X49045238Y-15021428D01*
X49140476Y-15116666D01*
X49188095Y-15211904D01*
X49330952Y-14069047D02*
X49283333Y-14164285D01*
X49235714Y-14211904D01*
X49140476Y-14259523D01*
X49092857Y-14259523D01*
X48997619Y-14211904D01*
X48950000Y-14164285D01*
X48902380Y-14069047D01*
X48902380Y-13878571D01*
X48950000Y-13783333D01*
X48997619Y-13735714D01*
X49092857Y-13688095D01*
X49140476Y-13688095D01*
X49235714Y-13735714D01*
X49283333Y-13783333D01*
X49330952Y-13878571D01*
X49330952Y-14069047D01*
X49378571Y-14164285D01*
X49426190Y-14211904D01*
X49521428Y-14259523D01*
X49711904Y-14259523D01*
X49807142Y-14211904D01*
X49854761Y-14164285D01*
X49902380Y-14069047D01*
X49902380Y-13878571D01*
X49854761Y-13783333D01*
X49807142Y-13735714D01*
X49711904Y-13688095D01*
X49521428Y-13688095D01*
X49426190Y-13735714D01*
X49378571Y-13783333D01*
X49330952Y-13878571D01*
X31494380Y-15794857D02*
X31018190Y-16128190D01*
X31494380Y-16366285D02*
X30494380Y-16366285D01*
X30494380Y-15985333D01*
X30542000Y-15890095D01*
X30589619Y-15842476D01*
X30684857Y-15794857D01*
X30827714Y-15794857D01*
X30922952Y-15842476D01*
X30970571Y-15890095D01*
X31018190Y-15985333D01*
X31018190Y-16366285D01*
X31494380Y-14842476D02*
X31494380Y-15413904D01*
X31494380Y-15128190D02*
X30494380Y-15128190D01*
X30637238Y-15223428D01*
X30732476Y-15318666D01*
X30780095Y-15413904D01*
X31494380Y-14366285D02*
X31494380Y-14175809D01*
X31446761Y-14080571D01*
X31399142Y-14032952D01*
X31256285Y-13937714D01*
X31065809Y-13890095D01*
X30684857Y-13890095D01*
X30589619Y-13937714D01*
X30542000Y-13985333D01*
X30494380Y-14080571D01*
X30494380Y-14271047D01*
X30542000Y-14366285D01*
X30589619Y-14413904D01*
X30684857Y-14461523D01*
X30922952Y-14461523D01*
X31018190Y-14413904D01*
X31065809Y-14366285D01*
X31113428Y-14271047D01*
X31113428Y-14080571D01*
X31065809Y-13985333D01*
X31018190Y-13937714D01*
X30922952Y-13890095D01*
X66452380Y-12842857D02*
X65976190Y-13176190D01*
X66452380Y-13414285D02*
X65452380Y-13414285D01*
X65452380Y-13033333D01*
X65500000Y-12938095D01*
X65547619Y-12890476D01*
X65642857Y-12842857D01*
X65785714Y-12842857D01*
X65880952Y-12890476D01*
X65928571Y-12938095D01*
X65976190Y-13033333D01*
X65976190Y-13414285D01*
X65547619Y-12461904D02*
X65500000Y-12414285D01*
X65452380Y-12319047D01*
X65452380Y-12080952D01*
X65500000Y-11985714D01*
X65547619Y-11938095D01*
X65642857Y-11890476D01*
X65738095Y-11890476D01*
X65880952Y-11938095D01*
X66452380Y-12509523D01*
X66452380Y-11890476D01*
X65452380Y-11557142D02*
X65452380Y-10938095D01*
X65833333Y-11271428D01*
X65833333Y-11128571D01*
X65880952Y-11033333D01*
X65928571Y-10985714D01*
X66023809Y-10938095D01*
X66261904Y-10938095D01*
X66357142Y-10985714D01*
X66404761Y-11033333D01*
X66452380Y-11128571D01*
X66452380Y-11414285D01*
X66404761Y-11509523D01*
X66357142Y-11557142D01*
X14027380Y-15772857D02*
X13551190Y-16106190D01*
X14027380Y-16344285D02*
X13027380Y-16344285D01*
X13027380Y-15963333D01*
X13075000Y-15868095D01*
X13122619Y-15820476D01*
X13217857Y-15772857D01*
X13360714Y-15772857D01*
X13455952Y-15820476D01*
X13503571Y-15868095D01*
X13551190Y-15963333D01*
X13551190Y-16344285D01*
X14027380Y-14820476D02*
X14027380Y-15391904D01*
X14027380Y-15106190D02*
X13027380Y-15106190D01*
X13170238Y-15201428D01*
X13265476Y-15296666D01*
X13313095Y-15391904D01*
X13027380Y-14487142D02*
X13027380Y-13820476D01*
X14027380Y-14249047D01*
X15432142Y-15676666D02*
X15479761Y-15724285D01*
X15527380Y-15867142D01*
X15527380Y-15962380D01*
X15479761Y-16105238D01*
X15384523Y-16200476D01*
X15289285Y-16248095D01*
X15098809Y-16295714D01*
X14955952Y-16295714D01*
X14765476Y-16248095D01*
X14670238Y-16200476D01*
X14575000Y-16105238D01*
X14527380Y-15962380D01*
X14527380Y-15867142D01*
X14575000Y-15724285D01*
X14622619Y-15676666D01*
X15527380Y-15200476D02*
X15527380Y-15010000D01*
X15479761Y-14914761D01*
X15432142Y-14867142D01*
X15289285Y-14771904D01*
X15098809Y-14724285D01*
X14717857Y-14724285D01*
X14622619Y-14771904D01*
X14575000Y-14819523D01*
X14527380Y-14914761D01*
X14527380Y-15105238D01*
X14575000Y-15200476D01*
X14622619Y-15248095D01*
X14717857Y-15295714D01*
X14955952Y-15295714D01*
X15051190Y-15248095D01*
X15098809Y-15200476D01*
X15146428Y-15105238D01*
X15146428Y-14914761D01*
X15098809Y-14819523D01*
X15051190Y-14771904D01*
X14955952Y-14724285D01*
X67857142Y-12842857D02*
X67904761Y-12890476D01*
X67952380Y-13033333D01*
X67952380Y-13128571D01*
X67904761Y-13271428D01*
X67809523Y-13366666D01*
X67714285Y-13414285D01*
X67523809Y-13461904D01*
X67380952Y-13461904D01*
X67190476Y-13414285D01*
X67095238Y-13366666D01*
X67000000Y-13271428D01*
X66952380Y-13128571D01*
X66952380Y-13033333D01*
X67000000Y-12890476D01*
X67047619Y-12842857D01*
X67047619Y-12461904D02*
X67000000Y-12414285D01*
X66952380Y-12319047D01*
X66952380Y-12080952D01*
X67000000Y-11985714D01*
X67047619Y-11938095D01*
X67142857Y-11890476D01*
X67238095Y-11890476D01*
X67380952Y-11938095D01*
X67952380Y-12509523D01*
X67952380Y-11890476D01*
X67952380Y-10938095D02*
X67952380Y-11509523D01*
X67952380Y-11223809D02*
X66952380Y-11223809D01*
X67095238Y-11319047D01*
X67190476Y-11414285D01*
X67238095Y-11509523D01*
X48307142Y-15592857D02*
X48354761Y-15640476D01*
X48402380Y-15783333D01*
X48402380Y-15878571D01*
X48354761Y-16021428D01*
X48259523Y-16116666D01*
X48164285Y-16164285D01*
X47973809Y-16211904D01*
X47830952Y-16211904D01*
X47640476Y-16164285D01*
X47545238Y-16116666D01*
X47450000Y-16021428D01*
X47402380Y-15878571D01*
X47402380Y-15783333D01*
X47450000Y-15640476D01*
X47497619Y-15592857D01*
X48402380Y-14640476D02*
X48402380Y-15211904D01*
X48402380Y-14926190D02*
X47402380Y-14926190D01*
X47545238Y-15021428D01*
X47640476Y-15116666D01*
X47688095Y-15211904D01*
X47402380Y-14307142D02*
X47402380Y-13688095D01*
X47783333Y-14021428D01*
X47783333Y-13878571D01*
X47830952Y-13783333D01*
X47878571Y-13735714D01*
X47973809Y-13688095D01*
X48211904Y-13688095D01*
X48307142Y-13735714D01*
X48354761Y-13783333D01*
X48402380Y-13878571D01*
X48402380Y-14164285D01*
X48354761Y-14259523D01*
X48307142Y-14307142D01*
X33050142Y-15808857D02*
X33097761Y-15856476D01*
X33145380Y-15999333D01*
X33145380Y-16094571D01*
X33097761Y-16237428D01*
X33002523Y-16332666D01*
X32907285Y-16380285D01*
X32716809Y-16427904D01*
X32573952Y-16427904D01*
X32383476Y-16380285D01*
X32288238Y-16332666D01*
X32193000Y-16237428D01*
X32145380Y-16094571D01*
X32145380Y-15999333D01*
X32193000Y-15856476D01*
X32240619Y-15808857D01*
X33145380Y-14856476D02*
X33145380Y-15427904D01*
X33145380Y-15142190D02*
X32145380Y-15142190D01*
X32288238Y-15237428D01*
X32383476Y-15332666D01*
X32431095Y-15427904D01*
X32145380Y-14523142D02*
X32145380Y-13856476D01*
X33145380Y-14285047D01*
X68757142Y-1357142D02*
X68709523Y-1404761D01*
X68566666Y-1452380D01*
X68471428Y-1452380D01*
X68328571Y-1404761D01*
X68233333Y-1309523D01*
X68185714Y-1214285D01*
X68138095Y-1023809D01*
X68138095Y-880952D01*
X68185714Y-690476D01*
X68233333Y-595238D01*
X68328571Y-500000D01*
X68471428Y-452380D01*
X68566666Y-452380D01*
X68709523Y-500000D01*
X68757142Y-547619D01*
X69090476Y-452380D02*
X69709523Y-452380D01*
X69376190Y-833333D01*
X69519047Y-833333D01*
X69614285Y-880952D01*
X69661904Y-928571D01*
X69709523Y-1023809D01*
X69709523Y-1261904D01*
X69661904Y-1357142D01*
X69614285Y-1404761D01*
X69519047Y-1452380D01*
X69233333Y-1452380D01*
X69138095Y-1404761D01*
X69090476Y-1357142D01*
X70566666Y-785714D02*
X70566666Y-1452380D01*
X70328571Y-404761D02*
X70090476Y-1119047D01*
X70709523Y-1119047D01*
X76336967Y-12751570D02*
X76336967Y-13562292D01*
X76384657Y-13657671D01*
X76432346Y-13705360D01*
X76527725Y-13753050D01*
X76718483Y-13753050D01*
X76813862Y-13705360D01*
X76861552Y-13657671D01*
X76909241Y-13562292D01*
X76909241Y-12751570D01*
X77529205Y-13180776D02*
X77433826Y-13133086D01*
X77386137Y-13085397D01*
X77338447Y-12990018D01*
X77338447Y-12942328D01*
X77386137Y-12846949D01*
X77433826Y-12799260D01*
X77529205Y-12751570D01*
X77719963Y-12751570D01*
X77815342Y-12799260D01*
X77863032Y-12846949D01*
X77910721Y-12942328D01*
X77910721Y-12990018D01*
X77863032Y-13085397D01*
X77815342Y-13133086D01*
X77719963Y-13180776D01*
X77529205Y-13180776D01*
X77433826Y-13228465D01*
X77386137Y-13276155D01*
X77338447Y-13371534D01*
X77338447Y-13562292D01*
X77386137Y-13657671D01*
X77433826Y-13705360D01*
X77529205Y-13753050D01*
X77719963Y-13753050D01*
X77815342Y-13705360D01*
X77863032Y-13657671D01*
X77910721Y-13562292D01*
X77910721Y-13371534D01*
X77863032Y-13276155D01*
X77815342Y-13228465D01*
X77719963Y-13180776D01*
X75855967Y-8030820D02*
X75855967Y-8841542D01*
X75903657Y-8936921D01*
X75951346Y-8984610D01*
X76046725Y-9032300D01*
X76237483Y-9032300D01*
X76332862Y-8984610D01*
X76380552Y-8936921D01*
X76428241Y-8841542D01*
X76428241Y-8030820D01*
X76809758Y-8030820D02*
X77429721Y-8030820D01*
X77095895Y-8412336D01*
X77238963Y-8412336D01*
X77334342Y-8460026D01*
X77382032Y-8507715D01*
X77429721Y-8603094D01*
X77429721Y-8841542D01*
X77382032Y-8936921D01*
X77334342Y-8984610D01*
X77238963Y-9032300D01*
X76952826Y-9032300D01*
X76857447Y-8984610D01*
X76809758Y-8936921D01*
X53450940Y-18289272D02*
X54261662Y-18289272D01*
X54357041Y-18241582D01*
X54404730Y-18193893D01*
X54452420Y-18098514D01*
X54452420Y-17907756D01*
X54404730Y-17812377D01*
X54357041Y-17764687D01*
X54261662Y-17716998D01*
X53450940Y-17716998D01*
X53450940Y-16810897D02*
X53450940Y-17001655D01*
X53498630Y-17097034D01*
X53546319Y-17144723D01*
X53689388Y-17240102D01*
X53880146Y-17287792D01*
X54261662Y-17287792D01*
X54357041Y-17240102D01*
X54404730Y-17192413D01*
X54452420Y-17097034D01*
X54452420Y-16906276D01*
X54404730Y-16810897D01*
X54357041Y-16763207D01*
X54261662Y-16715518D01*
X54023214Y-16715518D01*
X53927835Y-16763207D01*
X53880146Y-16810897D01*
X53832456Y-16906276D01*
X53832456Y-17097034D01*
X53880146Y-17192413D01*
X53927835Y-17240102D01*
X54023214Y-17287792D01*
X58246967Y-8030820D02*
X58246967Y-8841542D01*
X58294657Y-8936921D01*
X58342346Y-8984610D01*
X58437725Y-9032300D01*
X58628483Y-9032300D01*
X58723862Y-8984610D01*
X58771552Y-8936921D01*
X58819241Y-8841542D01*
X58819241Y-8030820D01*
X59248447Y-8126199D02*
X59296137Y-8078510D01*
X59391516Y-8030820D01*
X59629963Y-8030820D01*
X59725342Y-8078510D01*
X59773032Y-8126199D01*
X59820721Y-8221578D01*
X59820721Y-8316957D01*
X59773032Y-8460026D01*
X59200758Y-9032300D01*
X59820721Y-9032300D01*
X37623300Y-12874570D02*
X37623300Y-13685292D01*
X37670990Y-13780671D01*
X37718679Y-13828360D01*
X37814058Y-13876050D01*
X38004816Y-13876050D01*
X38100195Y-13828360D01*
X38147885Y-13780671D01*
X38195574Y-13685292D01*
X38195574Y-12874570D01*
X38577091Y-12874570D02*
X39244744Y-12874570D01*
X38815538Y-13876050D01*
X40798300Y-8048570D02*
X40798300Y-8859292D01*
X40845990Y-8954671D01*
X40893679Y-9002360D01*
X40989058Y-9050050D01*
X41179816Y-9050050D01*
X41275195Y-9002360D01*
X41322885Y-8954671D01*
X41370574Y-8859292D01*
X41370574Y-8048570D01*
X42372054Y-9050050D02*
X41799780Y-9050050D01*
X42085917Y-9050050D02*
X42085917Y-8048570D01*
X41990538Y-8191639D01*
X41895159Y-8287018D01*
X41799780Y-8334707D01*
X18430940Y-18289272D02*
X19241662Y-18289272D01*
X19337041Y-18241582D01*
X19384730Y-18193893D01*
X19432420Y-18098514D01*
X19432420Y-17907756D01*
X19384730Y-17812377D01*
X19337041Y-17764687D01*
X19241662Y-17716998D01*
X18430940Y-17716998D01*
X18430940Y-16763207D02*
X18430940Y-17240102D01*
X18907835Y-17287792D01*
X18860146Y-17240102D01*
X18812456Y-17144723D01*
X18812456Y-16906276D01*
X18860146Y-16810897D01*
X18907835Y-16763207D01*
X19003214Y-16715518D01*
X19241662Y-16715518D01*
X19337041Y-16763207D01*
X19384730Y-16810897D01*
X19432420Y-16906276D01*
X19432420Y-17144723D01*
X19384730Y-17240102D01*
X19337041Y-17287792D01*
X23332967Y-8048570D02*
X23332967Y-8859292D01*
X23380657Y-8954671D01*
X23428346Y-9002360D01*
X23523725Y-9050050D01*
X23714483Y-9050050D01*
X23809862Y-9002360D01*
X23857552Y-8954671D01*
X23905241Y-8859292D01*
X23905241Y-8048570D01*
X24811342Y-8382397D02*
X24811342Y-9050050D01*
X24572895Y-8000880D02*
X24334447Y-8716223D01*
X24954411Y-8716223D01*
X77612380Y-22962857D02*
X77136190Y-23296190D01*
X77612380Y-23534285D02*
X76612380Y-23534285D01*
X76612380Y-23153333D01*
X76660000Y-23058095D01*
X76707619Y-23010476D01*
X76802857Y-22962857D01*
X76945714Y-22962857D01*
X77040952Y-23010476D01*
X77088571Y-23058095D01*
X77136190Y-23153333D01*
X77136190Y-23534285D01*
X76707619Y-22581904D02*
X76660000Y-22534285D01*
X76612380Y-22439047D01*
X76612380Y-22200952D01*
X76660000Y-22105714D01*
X76707619Y-22058095D01*
X76802857Y-22010476D01*
X76898095Y-22010476D01*
X77040952Y-22058095D01*
X77612380Y-22629523D01*
X77612380Y-22010476D01*
X76612380Y-21677142D02*
X76612380Y-21010476D01*
X77612380Y-21439047D01*
X76602380Y-30792857D02*
X76126190Y-31126190D01*
X76602380Y-31364285D02*
X75602380Y-31364285D01*
X75602380Y-30983333D01*
X75650000Y-30888095D01*
X75697619Y-30840476D01*
X75792857Y-30792857D01*
X75935714Y-30792857D01*
X76030952Y-30840476D01*
X76078571Y-30888095D01*
X76126190Y-30983333D01*
X76126190Y-31364285D01*
X75697619Y-30411904D02*
X75650000Y-30364285D01*
X75602380Y-30269047D01*
X75602380Y-30030952D01*
X75650000Y-29935714D01*
X75697619Y-29888095D01*
X75792857Y-29840476D01*
X75888095Y-29840476D01*
X76030952Y-29888095D01*
X76602380Y-30459523D01*
X76602380Y-29840476D01*
X76030952Y-29269047D02*
X75983333Y-29364285D01*
X75935714Y-29411904D01*
X75840476Y-29459523D01*
X75792857Y-29459523D01*
X75697619Y-29411904D01*
X75650000Y-29364285D01*
X75602380Y-29269047D01*
X75602380Y-29078571D01*
X75650000Y-28983333D01*
X75697619Y-28935714D01*
X75792857Y-28888095D01*
X75840476Y-28888095D01*
X75935714Y-28935714D01*
X75983333Y-28983333D01*
X76030952Y-29078571D01*
X76030952Y-29269047D01*
X76078571Y-29364285D01*
X76126190Y-29411904D01*
X76221428Y-29459523D01*
X76411904Y-29459523D01*
X76507142Y-29411904D01*
X76554761Y-29364285D01*
X76602380Y-29269047D01*
X76602380Y-29078571D01*
X76554761Y-28983333D01*
X76507142Y-28935714D01*
X76411904Y-28888095D01*
X76221428Y-28888095D01*
X76126190Y-28935714D01*
X76078571Y-28983333D01*
X76030952Y-29078571D01*
X79752380Y-18592857D02*
X79276190Y-18926190D01*
X79752380Y-19164285D02*
X78752380Y-19164285D01*
X78752380Y-18783333D01*
X78800000Y-18688095D01*
X78847619Y-18640476D01*
X78942857Y-18592857D01*
X79085714Y-18592857D01*
X79180952Y-18640476D01*
X79228571Y-18688095D01*
X79276190Y-18783333D01*
X79276190Y-19164285D01*
X79752380Y-17640476D02*
X79752380Y-18211904D01*
X79752380Y-17926190D02*
X78752380Y-17926190D01*
X78895238Y-18021428D01*
X78990476Y-18116666D01*
X79038095Y-18211904D01*
X78752380Y-16735714D02*
X78752380Y-17211904D01*
X79228571Y-17259523D01*
X79180952Y-17211904D01*
X79133333Y-17116666D01*
X79133333Y-16878571D01*
X79180952Y-16783333D01*
X79228571Y-16735714D01*
X79323809Y-16688095D01*
X79561904Y-16688095D01*
X79657142Y-16735714D01*
X79704761Y-16783333D01*
X79752380Y-16878571D01*
X79752380Y-17116666D01*
X79704761Y-17211904D01*
X79657142Y-17259523D01*
X80052380Y-5666666D02*
X79576190Y-6000000D01*
X80052380Y-6238095D02*
X79052380Y-6238095D01*
X79052380Y-5857142D01*
X79100000Y-5761904D01*
X79147619Y-5714285D01*
X79242857Y-5666666D01*
X79385714Y-5666666D01*
X79480952Y-5714285D01*
X79528571Y-5761904D01*
X79576190Y-5857142D01*
X79576190Y-6238095D01*
X79052380Y-4761904D02*
X79052380Y-5238095D01*
X79528571Y-5285714D01*
X79480952Y-5238095D01*
X79433333Y-5142857D01*
X79433333Y-4904761D01*
X79480952Y-4809523D01*
X79528571Y-4761904D01*
X79623809Y-4714285D01*
X79861904Y-4714285D01*
X79957142Y-4761904D01*
X80004761Y-4809523D01*
X80052380Y-4904761D01*
X80052380Y-5142857D01*
X80004761Y-5238095D01*
X79957142Y-5285714D01*
X53007142Y-20881380D02*
X52673809Y-20405190D01*
X52435714Y-20881380D02*
X52435714Y-19881380D01*
X52816666Y-19881380D01*
X52911904Y-19929000D01*
X52959523Y-19976619D01*
X53007142Y-20071857D01*
X53007142Y-20214714D01*
X52959523Y-20309952D01*
X52911904Y-20357571D01*
X52816666Y-20405190D01*
X52435714Y-20405190D01*
X53388095Y-19976619D02*
X53435714Y-19929000D01*
X53530952Y-19881380D01*
X53769047Y-19881380D01*
X53864285Y-19929000D01*
X53911904Y-19976619D01*
X53959523Y-20071857D01*
X53959523Y-20167095D01*
X53911904Y-20309952D01*
X53340476Y-20881380D01*
X53959523Y-20881380D01*
X54911904Y-20881380D02*
X54340476Y-20881380D01*
X54626190Y-20881380D02*
X54626190Y-19881380D01*
X54530952Y-20024238D01*
X54435714Y-20119476D01*
X54340476Y-20167095D01*
X56352380Y-31287857D02*
X55876190Y-31621190D01*
X56352380Y-31859285D02*
X55352380Y-31859285D01*
X55352380Y-31478333D01*
X55400000Y-31383095D01*
X55447619Y-31335476D01*
X55542857Y-31287857D01*
X55685714Y-31287857D01*
X55780952Y-31335476D01*
X55828571Y-31383095D01*
X55876190Y-31478333D01*
X55876190Y-31859285D01*
X55447619Y-30906904D02*
X55400000Y-30859285D01*
X55352380Y-30764047D01*
X55352380Y-30525952D01*
X55400000Y-30430714D01*
X55447619Y-30383095D01*
X55542857Y-30335476D01*
X55638095Y-30335476D01*
X55780952Y-30383095D01*
X56352380Y-30954523D01*
X56352380Y-30335476D01*
X55352380Y-29430714D02*
X55352380Y-29906904D01*
X55828571Y-29954523D01*
X55780952Y-29906904D01*
X55733333Y-29811666D01*
X55733333Y-29573571D01*
X55780952Y-29478333D01*
X55828571Y-29430714D01*
X55923809Y-29383095D01*
X56161904Y-29383095D01*
X56257142Y-29430714D01*
X56304761Y-29478333D01*
X56352380Y-29573571D01*
X56352380Y-29811666D01*
X56304761Y-29906904D01*
X56257142Y-29954523D01*
X62152380Y-18548857D02*
X61676190Y-18882190D01*
X62152380Y-19120285D02*
X61152380Y-19120285D01*
X61152380Y-18739333D01*
X61200000Y-18644095D01*
X61247619Y-18596476D01*
X61342857Y-18548857D01*
X61485714Y-18548857D01*
X61580952Y-18596476D01*
X61628571Y-18644095D01*
X61676190Y-18739333D01*
X61676190Y-19120285D01*
X62152380Y-17596476D02*
X62152380Y-18167904D01*
X62152380Y-17882190D02*
X61152380Y-17882190D01*
X61295238Y-17977428D01*
X61390476Y-18072666D01*
X61438095Y-18167904D01*
X61152380Y-16977428D02*
X61152380Y-16882190D01*
X61200000Y-16786952D01*
X61247619Y-16739333D01*
X61342857Y-16691714D01*
X61533333Y-16644095D01*
X61771428Y-16644095D01*
X61961904Y-16691714D01*
X62057142Y-16739333D01*
X62104761Y-16786952D01*
X62152380Y-16882190D01*
X62152380Y-16977428D01*
X62104761Y-17072666D01*
X62057142Y-17120285D01*
X61961904Y-17167904D01*
X61771428Y-17215523D01*
X61533333Y-17215523D01*
X61342857Y-17167904D01*
X61247619Y-17120285D01*
X61200000Y-17072666D01*
X61152380Y-16977428D01*
X62446380Y-5566666D02*
X61970190Y-5900000D01*
X62446380Y-6138095D02*
X61446380Y-6138095D01*
X61446380Y-5757142D01*
X61494000Y-5661904D01*
X61541619Y-5614285D01*
X61636857Y-5566666D01*
X61779714Y-5566666D01*
X61874952Y-5614285D01*
X61922571Y-5661904D01*
X61970190Y-5757142D01*
X61970190Y-6138095D01*
X61541619Y-5185714D02*
X61494000Y-5138095D01*
X61446380Y-5042857D01*
X61446380Y-4804761D01*
X61494000Y-4709523D01*
X61541619Y-4661904D01*
X61636857Y-4614285D01*
X61732095Y-4614285D01*
X61874952Y-4661904D01*
X62446380Y-5233333D01*
X62446380Y-4614285D01*
X42602380Y-23162857D02*
X42126190Y-23496190D01*
X42602380Y-23734285D02*
X41602380Y-23734285D01*
X41602380Y-23353333D01*
X41650000Y-23258095D01*
X41697619Y-23210476D01*
X41792857Y-23162857D01*
X41935714Y-23162857D01*
X42030952Y-23210476D01*
X42078571Y-23258095D01*
X42126190Y-23353333D01*
X42126190Y-23734285D01*
X41697619Y-22781904D02*
X41650000Y-22734285D01*
X41602380Y-22639047D01*
X41602380Y-22400952D01*
X41650000Y-22305714D01*
X41697619Y-22258095D01*
X41792857Y-22210476D01*
X41888095Y-22210476D01*
X42030952Y-22258095D01*
X42602380Y-22829523D01*
X42602380Y-22210476D01*
X41697619Y-21829523D02*
X41650000Y-21781904D01*
X41602380Y-21686666D01*
X41602380Y-21448571D01*
X41650000Y-21353333D01*
X41697619Y-21305714D01*
X41792857Y-21258095D01*
X41888095Y-21258095D01*
X42030952Y-21305714D01*
X42602380Y-21877142D01*
X42602380Y-21258095D01*
X40202380Y-25082857D02*
X39726190Y-25416190D01*
X40202380Y-25654285D02*
X39202380Y-25654285D01*
X39202380Y-25273333D01*
X39250000Y-25178095D01*
X39297619Y-25130476D01*
X39392857Y-25082857D01*
X39535714Y-25082857D01*
X39630952Y-25130476D01*
X39678571Y-25178095D01*
X39726190Y-25273333D01*
X39726190Y-25654285D01*
X39297619Y-24701904D02*
X39250000Y-24654285D01*
X39202380Y-24559047D01*
X39202380Y-24320952D01*
X39250000Y-24225714D01*
X39297619Y-24178095D01*
X39392857Y-24130476D01*
X39488095Y-24130476D01*
X39630952Y-24178095D01*
X40202380Y-24749523D01*
X40202380Y-24130476D01*
X39202380Y-23273333D02*
X39202380Y-23463809D01*
X39250000Y-23559047D01*
X39297619Y-23606666D01*
X39440476Y-23701904D01*
X39630952Y-23749523D01*
X40011904Y-23749523D01*
X40107142Y-23701904D01*
X40154761Y-23654285D01*
X40202380Y-23559047D01*
X40202380Y-23368571D01*
X40154761Y-23273333D01*
X40107142Y-23225714D01*
X40011904Y-23178095D01*
X39773809Y-23178095D01*
X39678571Y-23225714D01*
X39630952Y-23273333D01*
X39583333Y-23368571D01*
X39583333Y-23559047D01*
X39630952Y-23654285D01*
X39678571Y-23701904D01*
X39773809Y-23749523D01*
X41852380Y-31542857D02*
X41376190Y-31876190D01*
X41852380Y-32114285D02*
X40852380Y-32114285D01*
X40852380Y-31733333D01*
X40900000Y-31638095D01*
X40947619Y-31590476D01*
X41042857Y-31542857D01*
X41185714Y-31542857D01*
X41280952Y-31590476D01*
X41328571Y-31638095D01*
X41376190Y-31733333D01*
X41376190Y-32114285D01*
X40947619Y-31161904D02*
X40900000Y-31114285D01*
X40852380Y-31019047D01*
X40852380Y-30780952D01*
X40900000Y-30685714D01*
X40947619Y-30638095D01*
X41042857Y-30590476D01*
X41138095Y-30590476D01*
X41280952Y-30638095D01*
X41852380Y-31209523D01*
X41852380Y-30590476D01*
X41852380Y-30114285D02*
X41852380Y-29923809D01*
X41804761Y-29828571D01*
X41757142Y-29780952D01*
X41614285Y-29685714D01*
X41423809Y-29638095D01*
X41042857Y-29638095D01*
X40947619Y-29685714D01*
X40900000Y-29733333D01*
X40852380Y-29828571D01*
X40852380Y-30019047D01*
X40900000Y-30114285D01*
X40947619Y-30161904D01*
X41042857Y-30209523D01*
X41280952Y-30209523D01*
X41376190Y-30161904D01*
X41423809Y-30114285D01*
X41471428Y-30019047D01*
X41471428Y-29828571D01*
X41423809Y-29733333D01*
X41376190Y-29685714D01*
X41280952Y-29638095D01*
X44661380Y-19217857D02*
X44185190Y-19551190D01*
X44661380Y-19789285D02*
X43661380Y-19789285D01*
X43661380Y-19408333D01*
X43709000Y-19313095D01*
X43756619Y-19265476D01*
X43851857Y-19217857D01*
X43994714Y-19217857D01*
X44089952Y-19265476D01*
X44137571Y-19313095D01*
X44185190Y-19408333D01*
X44185190Y-19789285D01*
X44661380Y-18265476D02*
X44661380Y-18836904D01*
X44661380Y-18551190D02*
X43661380Y-18551190D01*
X43804238Y-18646428D01*
X43899476Y-18741666D01*
X43947095Y-18836904D01*
X44661380Y-17313095D02*
X44661380Y-17884523D01*
X44661380Y-17598809D02*
X43661380Y-17598809D01*
X43804238Y-17694047D01*
X43899476Y-17789285D01*
X43947095Y-17884523D01*
X47670380Y-8166666D02*
X47194190Y-8500000D01*
X47670380Y-8738095D02*
X46670380Y-8738095D01*
X46670380Y-8357142D01*
X46718000Y-8261904D01*
X46765619Y-8214285D01*
X46860857Y-8166666D01*
X47003714Y-8166666D01*
X47098952Y-8214285D01*
X47146571Y-8261904D01*
X47194190Y-8357142D01*
X47194190Y-8738095D01*
X47670380Y-7214285D02*
X47670380Y-7785714D01*
X47670380Y-7500000D02*
X46670380Y-7500000D01*
X46813238Y-7595238D01*
X46908476Y-7690476D01*
X46956095Y-7785714D01*
X25152380Y-23032857D02*
X24676190Y-23366190D01*
X25152380Y-23604285D02*
X24152380Y-23604285D01*
X24152380Y-23223333D01*
X24200000Y-23128095D01*
X24247619Y-23080476D01*
X24342857Y-23032857D01*
X24485714Y-23032857D01*
X24580952Y-23080476D01*
X24628571Y-23128095D01*
X24676190Y-23223333D01*
X24676190Y-23604285D01*
X24247619Y-22651904D02*
X24200000Y-22604285D01*
X24152380Y-22509047D01*
X24152380Y-22270952D01*
X24200000Y-22175714D01*
X24247619Y-22128095D01*
X24342857Y-22080476D01*
X24438095Y-22080476D01*
X24580952Y-22128095D01*
X25152380Y-22699523D01*
X25152380Y-22080476D01*
X24152380Y-21461428D02*
X24152380Y-21366190D01*
X24200000Y-21270952D01*
X24247619Y-21223333D01*
X24342857Y-21175714D01*
X24533333Y-21128095D01*
X24771428Y-21128095D01*
X24961904Y-21175714D01*
X25057142Y-21223333D01*
X25104761Y-21270952D01*
X25152380Y-21366190D01*
X25152380Y-21461428D01*
X25104761Y-21556666D01*
X25057142Y-21604285D01*
X24961904Y-21651904D01*
X24771428Y-21699523D01*
X24533333Y-21699523D01*
X24342857Y-21651904D01*
X24247619Y-21604285D01*
X24200000Y-21556666D01*
X24152380Y-21461428D01*
X15302380Y-31397857D02*
X14826190Y-31731190D01*
X15302380Y-31969285D02*
X14302380Y-31969285D01*
X14302380Y-31588333D01*
X14350000Y-31493095D01*
X14397619Y-31445476D01*
X14492857Y-31397857D01*
X14635714Y-31397857D01*
X14730952Y-31445476D01*
X14778571Y-31493095D01*
X14826190Y-31588333D01*
X14826190Y-31969285D01*
X14397619Y-31016904D02*
X14350000Y-30969285D01*
X14302380Y-30874047D01*
X14302380Y-30635952D01*
X14350000Y-30540714D01*
X14397619Y-30493095D01*
X14492857Y-30445476D01*
X14588095Y-30445476D01*
X14730952Y-30493095D01*
X15302380Y-31064523D01*
X15302380Y-30445476D01*
X14635714Y-29588333D02*
X15302380Y-29588333D01*
X14254761Y-29826428D02*
X14969047Y-30064523D01*
X14969047Y-29445476D01*
X26932380Y-18872666D02*
X26456190Y-19206000D01*
X26932380Y-19444095D02*
X25932380Y-19444095D01*
X25932380Y-19063142D01*
X25980000Y-18967904D01*
X26027619Y-18920285D01*
X26122857Y-18872666D01*
X26265714Y-18872666D01*
X26360952Y-18920285D01*
X26408571Y-18967904D01*
X26456190Y-19063142D01*
X26456190Y-19444095D01*
X26932380Y-18396476D02*
X26932380Y-18206000D01*
X26884761Y-18110761D01*
X26837142Y-18063142D01*
X26694285Y-17967904D01*
X26503809Y-17920285D01*
X26122857Y-17920285D01*
X26027619Y-17967904D01*
X25980000Y-18015523D01*
X25932380Y-18110761D01*
X25932380Y-18301238D01*
X25980000Y-18396476D01*
X26027619Y-18444095D01*
X26122857Y-18491714D01*
X26360952Y-18491714D01*
X26456190Y-18444095D01*
X26503809Y-18396476D01*
X26551428Y-18301238D01*
X26551428Y-18110761D01*
X26503809Y-18015523D01*
X26456190Y-17967904D01*
X26360952Y-17920285D01*
X28752380Y-10766666D02*
X28276190Y-11100000D01*
X28752380Y-11338095D02*
X27752380Y-11338095D01*
X27752380Y-10957142D01*
X27800000Y-10861904D01*
X27847619Y-10814285D01*
X27942857Y-10766666D01*
X28085714Y-10766666D01*
X28180952Y-10814285D01*
X28228571Y-10861904D01*
X28276190Y-10957142D01*
X28276190Y-11338095D01*
X27752380Y-9909523D02*
X27752380Y-10100000D01*
X27800000Y-10195238D01*
X27847619Y-10242857D01*
X27990476Y-10338095D01*
X28180952Y-10385714D01*
X28561904Y-10385714D01*
X28657142Y-10338095D01*
X28704761Y-10290476D01*
X28752380Y-10195238D01*
X28752380Y-10004761D01*
X28704761Y-9909523D01*
X28657142Y-9861904D01*
X28561904Y-9814285D01*
X28323809Y-9814285D01*
X28228571Y-9861904D01*
X28180952Y-9909523D01*
X28133333Y-10004761D01*
X28133333Y-10195238D01*
X28180952Y-10290476D01*
X28228571Y-10338095D01*
X28323809Y-10385714D01*
X29711666Y-27573571D02*
X29378333Y-27573571D01*
X29378333Y-28097380D02*
X29378333Y-27097380D01*
X29854523Y-27097380D01*
X30759285Y-28097380D02*
X30187857Y-28097380D01*
X30473571Y-28097380D02*
X30473571Y-27097380D01*
X30378333Y-27240238D01*
X30283095Y-27335476D01*
X30187857Y-27383095D01*
X43152380Y-28128095D02*
X42152380Y-28128095D01*
X42152380Y-27890000D01*
X42200000Y-27747142D01*
X42295238Y-27651904D01*
X42390476Y-27604285D01*
X42580952Y-27556666D01*
X42723809Y-27556666D01*
X42914285Y-27604285D01*
X43009523Y-27651904D01*
X43104761Y-27747142D01*
X43152380Y-27890000D01*
X43152380Y-28128095D01*
X42247619Y-27175714D02*
X42200000Y-27128095D01*
X42152380Y-27032857D01*
X42152380Y-26794761D01*
X42200000Y-26699523D01*
X42247619Y-26651904D01*
X42342857Y-26604285D01*
X42438095Y-26604285D01*
X42580952Y-26651904D01*
X43152380Y-27223333D01*
X43152380Y-26604285D01*
X41802380Y-28078095D02*
X40802380Y-28078095D01*
X40802380Y-27840000D01*
X40850000Y-27697142D01*
X40945238Y-27601904D01*
X41040476Y-27554285D01*
X41230952Y-27506666D01*
X41373809Y-27506666D01*
X41564285Y-27554285D01*
X41659523Y-27601904D01*
X41754761Y-27697142D01*
X41802380Y-27840000D01*
X41802380Y-28078095D01*
X41802380Y-26554285D02*
X41802380Y-27125714D01*
X41802380Y-26840000D02*
X40802380Y-26840000D01*
X40945238Y-26935238D01*
X41040476Y-27030476D01*
X41088095Y-27125714D01*
X66357142Y-15448857D02*
X66404761Y-15496476D01*
X66452380Y-15639333D01*
X66452380Y-15734571D01*
X66404761Y-15877428D01*
X66309523Y-15972666D01*
X66214285Y-16020285D01*
X66023809Y-16067904D01*
X65880952Y-16067904D01*
X65690476Y-16020285D01*
X65595238Y-15972666D01*
X65500000Y-15877428D01*
X65452380Y-15734571D01*
X65452380Y-15639333D01*
X65500000Y-15496476D01*
X65547619Y-15448857D01*
X65547619Y-15067904D02*
X65500000Y-15020285D01*
X65452380Y-14925047D01*
X65452380Y-14686952D01*
X65500000Y-14591714D01*
X65547619Y-14544095D01*
X65642857Y-14496476D01*
X65738095Y-14496476D01*
X65880952Y-14544095D01*
X66452380Y-15115523D01*
X66452380Y-14496476D01*
X65785714Y-13639333D02*
X66452380Y-13639333D01*
X65404761Y-13877428D02*
X66119047Y-14115523D01*
X66119047Y-13496476D01*
X67857142Y-15448857D02*
X67904761Y-15496476D01*
X67952380Y-15639333D01*
X67952380Y-15734571D01*
X67904761Y-15877428D01*
X67809523Y-15972666D01*
X67714285Y-16020285D01*
X67523809Y-16067904D01*
X67380952Y-16067904D01*
X67190476Y-16020285D01*
X67095238Y-15972666D01*
X67000000Y-15877428D01*
X66952380Y-15734571D01*
X66952380Y-15639333D01*
X67000000Y-15496476D01*
X67047619Y-15448857D01*
X67047619Y-15067904D02*
X67000000Y-15020285D01*
X66952380Y-14925047D01*
X66952380Y-14686952D01*
X67000000Y-14591714D01*
X67047619Y-14544095D01*
X67142857Y-14496476D01*
X67238095Y-14496476D01*
X67380952Y-14544095D01*
X67952380Y-15115523D01*
X67952380Y-14496476D01*
X66952380Y-14163142D02*
X66952380Y-13544095D01*
X67333333Y-13877428D01*
X67333333Y-13734571D01*
X67380952Y-13639333D01*
X67428571Y-13591714D01*
X67523809Y-13544095D01*
X67761904Y-13544095D01*
X67857142Y-13591714D01*
X67904761Y-13639333D01*
X67952380Y-13734571D01*
X67952380Y-14020285D01*
X67904761Y-14115523D01*
X67857142Y-14163142D01*
X65107142Y-18948857D02*
X65154761Y-18996476D01*
X65202380Y-19139333D01*
X65202380Y-19234571D01*
X65154761Y-19377428D01*
X65059523Y-19472666D01*
X64964285Y-19520285D01*
X64773809Y-19567904D01*
X64630952Y-19567904D01*
X64440476Y-19520285D01*
X64345238Y-19472666D01*
X64250000Y-19377428D01*
X64202380Y-19234571D01*
X64202380Y-19139333D01*
X64250000Y-18996476D01*
X64297619Y-18948857D01*
X64297619Y-18567904D02*
X64250000Y-18520285D01*
X64202380Y-18425047D01*
X64202380Y-18186952D01*
X64250000Y-18091714D01*
X64297619Y-18044095D01*
X64392857Y-17996476D01*
X64488095Y-17996476D01*
X64630952Y-18044095D01*
X65202380Y-18615523D01*
X65202380Y-17996476D01*
X64297619Y-17615523D02*
X64250000Y-17567904D01*
X64202380Y-17472666D01*
X64202380Y-17234571D01*
X64250000Y-17139333D01*
X64297619Y-17091714D01*
X64392857Y-17044095D01*
X64488095Y-17044095D01*
X64630952Y-17091714D01*
X65202380Y-17663142D01*
X65202380Y-17044095D01*
X74907142Y-30742857D02*
X74954761Y-30790476D01*
X75002380Y-30933333D01*
X75002380Y-31028571D01*
X74954761Y-31171428D01*
X74859523Y-31266666D01*
X74764285Y-31314285D01*
X74573809Y-31361904D01*
X74430952Y-31361904D01*
X74240476Y-31314285D01*
X74145238Y-31266666D01*
X74050000Y-31171428D01*
X74002380Y-31028571D01*
X74002380Y-30933333D01*
X74050000Y-30790476D01*
X74097619Y-30742857D01*
X74097619Y-30361904D02*
X74050000Y-30314285D01*
X74002380Y-30219047D01*
X74002380Y-29980952D01*
X74050000Y-29885714D01*
X74097619Y-29838095D01*
X74192857Y-29790476D01*
X74288095Y-29790476D01*
X74430952Y-29838095D01*
X75002380Y-30409523D01*
X75002380Y-29790476D01*
X74430952Y-29219047D02*
X74383333Y-29314285D01*
X74335714Y-29361904D01*
X74240476Y-29409523D01*
X74192857Y-29409523D01*
X74097619Y-29361904D01*
X74050000Y-29314285D01*
X74002380Y-29219047D01*
X74002380Y-29028571D01*
X74050000Y-28933333D01*
X74097619Y-28885714D01*
X74192857Y-28838095D01*
X74240476Y-28838095D01*
X74335714Y-28885714D01*
X74383333Y-28933333D01*
X74430952Y-29028571D01*
X74430952Y-29219047D01*
X74478571Y-29314285D01*
X74526190Y-29361904D01*
X74621428Y-29409523D01*
X74811904Y-29409523D01*
X74907142Y-29361904D01*
X74954761Y-29314285D01*
X75002380Y-29219047D01*
X75002380Y-29028571D01*
X74954761Y-28933333D01*
X74907142Y-28885714D01*
X74811904Y-28838095D01*
X74621428Y-28838095D01*
X74526190Y-28885714D01*
X74478571Y-28933333D01*
X74430952Y-29028571D01*
X81307142Y-18616666D02*
X81354761Y-18664285D01*
X81402380Y-18807142D01*
X81402380Y-18902380D01*
X81354761Y-19045238D01*
X81259523Y-19140476D01*
X81164285Y-19188095D01*
X80973809Y-19235714D01*
X80830952Y-19235714D01*
X80640476Y-19188095D01*
X80545238Y-19140476D01*
X80450000Y-19045238D01*
X80402380Y-18902380D01*
X80402380Y-18807142D01*
X80450000Y-18664285D01*
X80497619Y-18616666D01*
X80830952Y-18045238D02*
X80783333Y-18140476D01*
X80735714Y-18188095D01*
X80640476Y-18235714D01*
X80592857Y-18235714D01*
X80497619Y-18188095D01*
X80450000Y-18140476D01*
X80402380Y-18045238D01*
X80402380Y-17854761D01*
X80450000Y-17759523D01*
X80497619Y-17711904D01*
X80592857Y-17664285D01*
X80640476Y-17664285D01*
X80735714Y-17711904D01*
X80783333Y-17759523D01*
X80830952Y-17854761D01*
X80830952Y-18045238D01*
X80878571Y-18140476D01*
X80926190Y-18188095D01*
X81021428Y-18235714D01*
X81211904Y-18235714D01*
X81307142Y-18188095D01*
X81354761Y-18140476D01*
X81402380Y-18045238D01*
X81402380Y-17854761D01*
X81354761Y-17759523D01*
X81307142Y-17711904D01*
X81211904Y-17664285D01*
X81021428Y-17664285D01*
X80926190Y-17711904D01*
X80878571Y-17759523D01*
X80830952Y-17854761D01*
X81457142Y-5616666D02*
X81504761Y-5664285D01*
X81552380Y-5807142D01*
X81552380Y-5902380D01*
X81504761Y-6045238D01*
X81409523Y-6140476D01*
X81314285Y-6188095D01*
X81123809Y-6235714D01*
X80980952Y-6235714D01*
X80790476Y-6188095D01*
X80695238Y-6140476D01*
X80600000Y-6045238D01*
X80552380Y-5902380D01*
X80552380Y-5807142D01*
X80600000Y-5664285D01*
X80647619Y-5616666D01*
X80552380Y-5283333D02*
X80552380Y-4664285D01*
X80933333Y-4997619D01*
X80933333Y-4854761D01*
X80980952Y-4759523D01*
X81028571Y-4711904D01*
X81123809Y-4664285D01*
X81361904Y-4664285D01*
X81457142Y-4711904D01*
X81504761Y-4759523D01*
X81552380Y-4854761D01*
X81552380Y-5140476D01*
X81504761Y-5235714D01*
X81457142Y-5283333D01*
X49757142Y-25342857D02*
X49804761Y-25390476D01*
X49852380Y-25533333D01*
X49852380Y-25628571D01*
X49804761Y-25771428D01*
X49709523Y-25866666D01*
X49614285Y-25914285D01*
X49423809Y-25961904D01*
X49280952Y-25961904D01*
X49090476Y-25914285D01*
X48995238Y-25866666D01*
X48900000Y-25771428D01*
X48852380Y-25628571D01*
X48852380Y-25533333D01*
X48900000Y-25390476D01*
X48947619Y-25342857D01*
X49852380Y-24390476D02*
X49852380Y-24961904D01*
X49852380Y-24676190D02*
X48852380Y-24676190D01*
X48995238Y-24771428D01*
X49090476Y-24866666D01*
X49138095Y-24961904D01*
X48852380Y-23533333D02*
X48852380Y-23723809D01*
X48900000Y-23819047D01*
X48947619Y-23866666D01*
X49090476Y-23961904D01*
X49280952Y-24009523D01*
X49661904Y-24009523D01*
X49757142Y-23961904D01*
X49804761Y-23914285D01*
X49852380Y-23819047D01*
X49852380Y-23628571D01*
X49804761Y-23533333D01*
X49757142Y-23485714D01*
X49661904Y-23438095D01*
X49423809Y-23438095D01*
X49328571Y-23485714D01*
X49280952Y-23533333D01*
X49233333Y-23628571D01*
X49233333Y-23819047D01*
X49280952Y-23914285D01*
X49328571Y-23961904D01*
X49423809Y-24009523D01*
X51257142Y-18942857D02*
X51304761Y-18990476D01*
X51352380Y-19133333D01*
X51352380Y-19228571D01*
X51304761Y-19371428D01*
X51209523Y-19466666D01*
X51114285Y-19514285D01*
X50923809Y-19561904D01*
X50780952Y-19561904D01*
X50590476Y-19514285D01*
X50495238Y-19466666D01*
X50400000Y-19371428D01*
X50352380Y-19228571D01*
X50352380Y-19133333D01*
X50400000Y-18990476D01*
X50447619Y-18942857D01*
X51352380Y-17990476D02*
X51352380Y-18561904D01*
X51352380Y-18276190D02*
X50352380Y-18276190D01*
X50495238Y-18371428D01*
X50590476Y-18466666D01*
X50638095Y-18561904D01*
X50352380Y-17085714D02*
X50352380Y-17561904D01*
X50828571Y-17609523D01*
X50780952Y-17561904D01*
X50733333Y-17466666D01*
X50733333Y-17228571D01*
X50780952Y-17133333D01*
X50828571Y-17085714D01*
X50923809Y-17038095D01*
X51161904Y-17038095D01*
X51257142Y-17085714D01*
X51304761Y-17133333D01*
X51352380Y-17228571D01*
X51352380Y-17466666D01*
X51304761Y-17561904D01*
X51257142Y-17609523D01*
X48257142Y-25342857D02*
X48304761Y-25390476D01*
X48352380Y-25533333D01*
X48352380Y-25628571D01*
X48304761Y-25771428D01*
X48209523Y-25866666D01*
X48114285Y-25914285D01*
X47923809Y-25961904D01*
X47780952Y-25961904D01*
X47590476Y-25914285D01*
X47495238Y-25866666D01*
X47400000Y-25771428D01*
X47352380Y-25628571D01*
X47352380Y-25533333D01*
X47400000Y-25390476D01*
X47447619Y-25342857D01*
X48352380Y-24390476D02*
X48352380Y-24961904D01*
X48352380Y-24676190D02*
X47352380Y-24676190D01*
X47495238Y-24771428D01*
X47590476Y-24866666D01*
X47638095Y-24961904D01*
X47685714Y-23533333D02*
X48352380Y-23533333D01*
X47304761Y-23771428D02*
X48019047Y-24009523D01*
X48019047Y-23390476D01*
X51057142Y-1357142D02*
X51009523Y-1404761D01*
X50866666Y-1452380D01*
X50771428Y-1452380D01*
X50628571Y-1404761D01*
X50533333Y-1309523D01*
X50485714Y-1214285D01*
X50438095Y-1023809D01*
X50438095Y-880952D01*
X50485714Y-690476D01*
X50533333Y-595238D01*
X50628571Y-500000D01*
X50771428Y-452380D01*
X50866666Y-452380D01*
X51009523Y-500000D01*
X51057142Y-547619D01*
X51390476Y-452380D02*
X52009523Y-452380D01*
X51676190Y-833333D01*
X51819047Y-833333D01*
X51914285Y-880952D01*
X51961904Y-928571D01*
X52009523Y-1023809D01*
X52009523Y-1261904D01*
X51961904Y-1357142D01*
X51914285Y-1404761D01*
X51819047Y-1452380D01*
X51533333Y-1452380D01*
X51438095Y-1404761D01*
X51390476Y-1357142D01*
X52342857Y-452380D02*
X52961904Y-452380D01*
X52628571Y-833333D01*
X52771428Y-833333D01*
X52866666Y-880952D01*
X52914285Y-928571D01*
X52961904Y-1023809D01*
X52961904Y-1261904D01*
X52914285Y-1357142D01*
X52866666Y-1404761D01*
X52771428Y-1452380D01*
X52485714Y-1452380D01*
X52390476Y-1404761D01*
X52342857Y-1357142D01*
X57907142Y-31337857D02*
X57954761Y-31385476D01*
X58002380Y-31528333D01*
X58002380Y-31623571D01*
X57954761Y-31766428D01*
X57859523Y-31861666D01*
X57764285Y-31909285D01*
X57573809Y-31956904D01*
X57430952Y-31956904D01*
X57240476Y-31909285D01*
X57145238Y-31861666D01*
X57050000Y-31766428D01*
X57002380Y-31623571D01*
X57002380Y-31528333D01*
X57050000Y-31385476D01*
X57097619Y-31337857D01*
X57097619Y-30956904D02*
X57050000Y-30909285D01*
X57002380Y-30814047D01*
X57002380Y-30575952D01*
X57050000Y-30480714D01*
X57097619Y-30433095D01*
X57192857Y-30385476D01*
X57288095Y-30385476D01*
X57430952Y-30433095D01*
X58002380Y-31004523D01*
X58002380Y-30385476D01*
X57002380Y-29528333D02*
X57002380Y-29718809D01*
X57050000Y-29814047D01*
X57097619Y-29861666D01*
X57240476Y-29956904D01*
X57430952Y-30004523D01*
X57811904Y-30004523D01*
X57907142Y-29956904D01*
X57954761Y-29909285D01*
X58002380Y-29814047D01*
X58002380Y-29623571D01*
X57954761Y-29528333D01*
X57907142Y-29480714D01*
X57811904Y-29433095D01*
X57573809Y-29433095D01*
X57478571Y-29480714D01*
X57430952Y-29528333D01*
X57383333Y-29623571D01*
X57383333Y-29814047D01*
X57430952Y-29909285D01*
X57478571Y-29956904D01*
X57573809Y-30004523D01*
X33957142Y-1257142D02*
X33909523Y-1304761D01*
X33766666Y-1352380D01*
X33671428Y-1352380D01*
X33528571Y-1304761D01*
X33433333Y-1209523D01*
X33385714Y-1114285D01*
X33338095Y-923809D01*
X33338095Y-780952D01*
X33385714Y-590476D01*
X33433333Y-495238D01*
X33528571Y-400000D01*
X33671428Y-352380D01*
X33766666Y-352380D01*
X33909523Y-400000D01*
X33957142Y-447619D01*
X34290476Y-352380D02*
X34909523Y-352380D01*
X34576190Y-733333D01*
X34719047Y-733333D01*
X34814285Y-780952D01*
X34861904Y-828571D01*
X34909523Y-923809D01*
X34909523Y-1161904D01*
X34861904Y-1257142D01*
X34814285Y-1304761D01*
X34719047Y-1352380D01*
X34433333Y-1352380D01*
X34338095Y-1304761D01*
X34290476Y-1257142D01*
X35290476Y-447619D02*
X35338095Y-400000D01*
X35433333Y-352380D01*
X35671428Y-352380D01*
X35766666Y-400000D01*
X35814285Y-447619D01*
X35861904Y-542857D01*
X35861904Y-638095D01*
X35814285Y-780952D01*
X35242857Y-1352380D01*
X35861904Y-1352380D01*
X63557142Y-18572666D02*
X63604761Y-18620285D01*
X63652380Y-18763142D01*
X63652380Y-18858380D01*
X63604761Y-19001238D01*
X63509523Y-19096476D01*
X63414285Y-19144095D01*
X63223809Y-19191714D01*
X63080952Y-19191714D01*
X62890476Y-19144095D01*
X62795238Y-19096476D01*
X62700000Y-19001238D01*
X62652380Y-18858380D01*
X62652380Y-18763142D01*
X62700000Y-18620285D01*
X62747619Y-18572666D01*
X62652380Y-17715523D02*
X62652380Y-17906000D01*
X62700000Y-18001238D01*
X62747619Y-18048857D01*
X62890476Y-18144095D01*
X63080952Y-18191714D01*
X63461904Y-18191714D01*
X63557142Y-18144095D01*
X63604761Y-18096476D01*
X63652380Y-18001238D01*
X63652380Y-17810761D01*
X63604761Y-17715523D01*
X63557142Y-17667904D01*
X63461904Y-17620285D01*
X63223809Y-17620285D01*
X63128571Y-17667904D01*
X63080952Y-17715523D01*
X63033333Y-17810761D01*
X63033333Y-18001238D01*
X63080952Y-18096476D01*
X63128571Y-18144095D01*
X63223809Y-18191714D01*
X16387142Y-1301142D02*
X16339523Y-1348761D01*
X16196666Y-1396380D01*
X16101428Y-1396380D01*
X15958571Y-1348761D01*
X15863333Y-1253523D01*
X15815714Y-1158285D01*
X15768095Y-967809D01*
X15768095Y-824952D01*
X15815714Y-634476D01*
X15863333Y-539238D01*
X15958571Y-444000D01*
X16101428Y-396380D01*
X16196666Y-396380D01*
X16339523Y-444000D01*
X16387142Y-491619D01*
X16720476Y-396380D02*
X17339523Y-396380D01*
X17006190Y-777333D01*
X17149047Y-777333D01*
X17244285Y-824952D01*
X17291904Y-872571D01*
X17339523Y-967809D01*
X17339523Y-1205904D01*
X17291904Y-1301142D01*
X17244285Y-1348761D01*
X17149047Y-1396380D01*
X16863333Y-1396380D01*
X16768095Y-1348761D01*
X16720476Y-1301142D01*
X18291904Y-1396380D02*
X17720476Y-1396380D01*
X18006190Y-1396380D02*
X18006190Y-396380D01*
X17910952Y-539238D01*
X17815714Y-634476D01*
X17720476Y-682095D01*
X63857142Y-5566666D02*
X63904761Y-5614285D01*
X63952380Y-5757142D01*
X63952380Y-5852380D01*
X63904761Y-5995238D01*
X63809523Y-6090476D01*
X63714285Y-6138095D01*
X63523809Y-6185714D01*
X63380952Y-6185714D01*
X63190476Y-6138095D01*
X63095238Y-6090476D01*
X63000000Y-5995238D01*
X62952380Y-5852380D01*
X62952380Y-5757142D01*
X63000000Y-5614285D01*
X63047619Y-5566666D01*
X63047619Y-5185714D02*
X63000000Y-5138095D01*
X62952380Y-5042857D01*
X62952380Y-4804761D01*
X63000000Y-4709523D01*
X63047619Y-4661904D01*
X63142857Y-4614285D01*
X63238095Y-4614285D01*
X63380952Y-4661904D01*
X63952380Y-5233333D01*
X63952380Y-4614285D01*
X62107142Y-30642857D02*
X62154761Y-30690476D01*
X62202380Y-30833333D01*
X62202380Y-30928571D01*
X62154761Y-31071428D01*
X62059523Y-31166666D01*
X61964285Y-31214285D01*
X61773809Y-31261904D01*
X61630952Y-31261904D01*
X61440476Y-31214285D01*
X61345238Y-31166666D01*
X61250000Y-31071428D01*
X61202380Y-30928571D01*
X61202380Y-30833333D01*
X61250000Y-30690476D01*
X61297619Y-30642857D01*
X61202380Y-30309523D02*
X61202380Y-29690476D01*
X61583333Y-30023809D01*
X61583333Y-29880952D01*
X61630952Y-29785714D01*
X61678571Y-29738095D01*
X61773809Y-29690476D01*
X62011904Y-29690476D01*
X62107142Y-29738095D01*
X62154761Y-29785714D01*
X62202380Y-29880952D01*
X62202380Y-30166666D01*
X62154761Y-30261904D01*
X62107142Y-30309523D01*
X61202380Y-29071428D02*
X61202380Y-28976190D01*
X61250000Y-28880952D01*
X61297619Y-28833333D01*
X61392857Y-28785714D01*
X61583333Y-28738095D01*
X61821428Y-28738095D01*
X62011904Y-28785714D01*
X62107142Y-28833333D01*
X62154761Y-28880952D01*
X62202380Y-28976190D01*
X62202380Y-29071428D01*
X62154761Y-29166666D01*
X62107142Y-29214285D01*
X62011904Y-29261904D01*
X61821428Y-29309523D01*
X61583333Y-29309523D01*
X61392857Y-29261904D01*
X61297619Y-29214285D01*
X61250000Y-29166666D01*
X61202380Y-29071428D01*
X28657142Y-30042857D02*
X28704761Y-30090476D01*
X28752380Y-30233333D01*
X28752380Y-30328571D01*
X28704761Y-30471428D01*
X28609523Y-30566666D01*
X28514285Y-30614285D01*
X28323809Y-30661904D01*
X28180952Y-30661904D01*
X27990476Y-30614285D01*
X27895238Y-30566666D01*
X27800000Y-30471428D01*
X27752380Y-30328571D01*
X27752380Y-30233333D01*
X27800000Y-30090476D01*
X27847619Y-30042857D01*
X27847619Y-29661904D02*
X27800000Y-29614285D01*
X27752380Y-29519047D01*
X27752380Y-29280952D01*
X27800000Y-29185714D01*
X27847619Y-29138095D01*
X27942857Y-29090476D01*
X28038095Y-29090476D01*
X28180952Y-29138095D01*
X28752380Y-29709523D01*
X28752380Y-29090476D01*
X28752380Y-28614285D02*
X28752380Y-28423809D01*
X28704761Y-28328571D01*
X28657142Y-28280952D01*
X28514285Y-28185714D01*
X28323809Y-28138095D01*
X27942857Y-28138095D01*
X27847619Y-28185714D01*
X27800000Y-28233333D01*
X27752380Y-28328571D01*
X27752380Y-28519047D01*
X27800000Y-28614285D01*
X27847619Y-28661904D01*
X27942857Y-28709523D01*
X28180952Y-28709523D01*
X28276190Y-28661904D01*
X28323809Y-28614285D01*
X28371428Y-28519047D01*
X28371428Y-28328571D01*
X28323809Y-28233333D01*
X28276190Y-28185714D01*
X28180952Y-28138095D01*
X31536142Y-25333857D02*
X31583761Y-25381476D01*
X31631380Y-25524333D01*
X31631380Y-25619571D01*
X31583761Y-25762428D01*
X31488523Y-25857666D01*
X31393285Y-25905285D01*
X31202809Y-25952904D01*
X31059952Y-25952904D01*
X30869476Y-25905285D01*
X30774238Y-25857666D01*
X30679000Y-25762428D01*
X30631380Y-25619571D01*
X30631380Y-25524333D01*
X30679000Y-25381476D01*
X30726619Y-25333857D01*
X30726619Y-24952904D02*
X30679000Y-24905285D01*
X30631380Y-24810047D01*
X30631380Y-24571952D01*
X30679000Y-24476714D01*
X30726619Y-24429095D01*
X30821857Y-24381476D01*
X30917095Y-24381476D01*
X31059952Y-24429095D01*
X31631380Y-25000523D01*
X31631380Y-24381476D01*
X30631380Y-23762428D02*
X30631380Y-23667190D01*
X30679000Y-23571952D01*
X30726619Y-23524333D01*
X30821857Y-23476714D01*
X31012333Y-23429095D01*
X31250428Y-23429095D01*
X31440904Y-23476714D01*
X31536142Y-23524333D01*
X31583761Y-23571952D01*
X31631380Y-23667190D01*
X31631380Y-23762428D01*
X31583761Y-23857666D01*
X31536142Y-23905285D01*
X31440904Y-23952904D01*
X31250428Y-24000523D01*
X31012333Y-24000523D01*
X30821857Y-23952904D01*
X30726619Y-23905285D01*
X30679000Y-23857666D01*
X30631380Y-23762428D01*
X34457142Y-25460857D02*
X34504761Y-25508476D01*
X34552380Y-25651333D01*
X34552380Y-25746571D01*
X34504761Y-25889428D01*
X34409523Y-25984666D01*
X34314285Y-26032285D01*
X34123809Y-26079904D01*
X33980952Y-26079904D01*
X33790476Y-26032285D01*
X33695238Y-25984666D01*
X33600000Y-25889428D01*
X33552380Y-25746571D01*
X33552380Y-25651333D01*
X33600000Y-25508476D01*
X33647619Y-25460857D01*
X34552380Y-24508476D02*
X34552380Y-25079904D01*
X34552380Y-24794190D02*
X33552380Y-24794190D01*
X33695238Y-24889428D01*
X33790476Y-24984666D01*
X33838095Y-25079904D01*
X34552380Y-24032285D02*
X34552380Y-23841809D01*
X34504761Y-23746571D01*
X34457142Y-23698952D01*
X34314285Y-23603714D01*
X34123809Y-23556095D01*
X33742857Y-23556095D01*
X33647619Y-23603714D01*
X33600000Y-23651333D01*
X33552380Y-23746571D01*
X33552380Y-23937047D01*
X33600000Y-24032285D01*
X33647619Y-24079904D01*
X33742857Y-24127523D01*
X33980952Y-24127523D01*
X34076190Y-24079904D01*
X34123809Y-24032285D01*
X34171428Y-23937047D01*
X34171428Y-23746571D01*
X34123809Y-23651333D01*
X34076190Y-23603714D01*
X33980952Y-23556095D01*
X33060142Y-25333857D02*
X33107761Y-25381476D01*
X33155380Y-25524333D01*
X33155380Y-25619571D01*
X33107761Y-25762428D01*
X33012523Y-25857666D01*
X32917285Y-25905285D01*
X32726809Y-25952904D01*
X32583952Y-25952904D01*
X32393476Y-25905285D01*
X32298238Y-25857666D01*
X32203000Y-25762428D01*
X32155380Y-25619571D01*
X32155380Y-25524333D01*
X32203000Y-25381476D01*
X32250619Y-25333857D01*
X33155380Y-24381476D02*
X33155380Y-24952904D01*
X33155380Y-24667190D02*
X32155380Y-24667190D01*
X32298238Y-24762428D01*
X32393476Y-24857666D01*
X32441095Y-24952904D01*
X32583952Y-23810047D02*
X32536333Y-23905285D01*
X32488714Y-23952904D01*
X32393476Y-24000523D01*
X32345857Y-24000523D01*
X32250619Y-23952904D01*
X32203000Y-23905285D01*
X32155380Y-23810047D01*
X32155380Y-23619571D01*
X32203000Y-23524333D01*
X32250619Y-23476714D01*
X32345857Y-23429095D01*
X32393476Y-23429095D01*
X32488714Y-23476714D01*
X32536333Y-23524333D01*
X32583952Y-23619571D01*
X32583952Y-23810047D01*
X32631571Y-23905285D01*
X32679190Y-23952904D01*
X32774428Y-24000523D01*
X32964904Y-24000523D01*
X33060142Y-23952904D01*
X33107761Y-23905285D01*
X33155380Y-23810047D01*
X33155380Y-23619571D01*
X33107761Y-23524333D01*
X33060142Y-23476714D01*
X32964904Y-23429095D01*
X32774428Y-23429095D01*
X32679190Y-23476714D01*
X32631571Y-23524333D01*
X32583952Y-23619571D01*
X38907142Y-25082857D02*
X38954761Y-25130476D01*
X39002380Y-25273333D01*
X39002380Y-25368571D01*
X38954761Y-25511428D01*
X38859523Y-25606666D01*
X38764285Y-25654285D01*
X38573809Y-25701904D01*
X38430952Y-25701904D01*
X38240476Y-25654285D01*
X38145238Y-25606666D01*
X38050000Y-25511428D01*
X38002380Y-25368571D01*
X38002380Y-25273333D01*
X38050000Y-25130476D01*
X38097619Y-25082857D01*
X38097619Y-24701904D02*
X38050000Y-24654285D01*
X38002380Y-24559047D01*
X38002380Y-24320952D01*
X38050000Y-24225714D01*
X38097619Y-24178095D01*
X38192857Y-24130476D01*
X38288095Y-24130476D01*
X38430952Y-24178095D01*
X39002380Y-24749523D01*
X39002380Y-24130476D01*
X38002380Y-23797142D02*
X38002380Y-23130476D01*
X39002380Y-23559047D01*
X46090142Y-18741666D02*
X46137761Y-18789285D01*
X46185380Y-18932142D01*
X46185380Y-19027380D01*
X46137761Y-19170238D01*
X46042523Y-19265476D01*
X45947285Y-19313095D01*
X45756809Y-19360714D01*
X45613952Y-19360714D01*
X45423476Y-19313095D01*
X45328238Y-19265476D01*
X45233000Y-19170238D01*
X45185380Y-19027380D01*
X45185380Y-18932142D01*
X45233000Y-18789285D01*
X45280619Y-18741666D01*
X45185380Y-18408333D02*
X45185380Y-17741666D01*
X46185380Y-18170238D01*
X49037142Y-8096666D02*
X49084761Y-8144285D01*
X49132380Y-8287142D01*
X49132380Y-8382380D01*
X49084761Y-8525238D01*
X48989523Y-8620476D01*
X48894285Y-8668095D01*
X48703809Y-8715714D01*
X48560952Y-8715714D01*
X48370476Y-8668095D01*
X48275238Y-8620476D01*
X48180000Y-8525238D01*
X48132380Y-8382380D01*
X48132380Y-8287142D01*
X48180000Y-8144285D01*
X48227619Y-8096666D01*
X49132380Y-7144285D02*
X49132380Y-7715714D01*
X49132380Y-7430000D02*
X48132380Y-7430000D01*
X48275238Y-7525238D01*
X48370476Y-7620476D01*
X48418095Y-7715714D01*
X16942142Y-25228857D02*
X16989761Y-25276476D01*
X17037380Y-25419333D01*
X17037380Y-25514571D01*
X16989761Y-25657428D01*
X16894523Y-25752666D01*
X16799285Y-25800285D01*
X16608809Y-25847904D01*
X16465952Y-25847904D01*
X16275476Y-25800285D01*
X16180238Y-25752666D01*
X16085000Y-25657428D01*
X16037380Y-25514571D01*
X16037380Y-25419333D01*
X16085000Y-25276476D01*
X16132619Y-25228857D01*
X17037380Y-24276476D02*
X17037380Y-24847904D01*
X17037380Y-24562190D02*
X16037380Y-24562190D01*
X16180238Y-24657428D01*
X16275476Y-24752666D01*
X16323095Y-24847904D01*
X16132619Y-23895523D02*
X16085000Y-23847904D01*
X16037380Y-23752666D01*
X16037380Y-23514571D01*
X16085000Y-23419333D01*
X16132619Y-23371714D01*
X16227857Y-23324095D01*
X16323095Y-23324095D01*
X16465952Y-23371714D01*
X17037380Y-23943142D01*
X17037380Y-23324095D01*
X15327142Y-25348857D02*
X15374761Y-25396476D01*
X15422380Y-25539333D01*
X15422380Y-25634571D01*
X15374761Y-25777428D01*
X15279523Y-25872666D01*
X15184285Y-25920285D01*
X14993809Y-25967904D01*
X14850952Y-25967904D01*
X14660476Y-25920285D01*
X14565238Y-25872666D01*
X14470000Y-25777428D01*
X14422380Y-25634571D01*
X14422380Y-25539333D01*
X14470000Y-25396476D01*
X14517619Y-25348857D01*
X15422380Y-24396476D02*
X15422380Y-24967904D01*
X15422380Y-24682190D02*
X14422380Y-24682190D01*
X14565238Y-24777428D01*
X14660476Y-24872666D01*
X14708095Y-24967904D01*
X15422380Y-23444095D02*
X15422380Y-24015523D01*
X15422380Y-23729809D02*
X14422380Y-23729809D01*
X14565238Y-23825047D01*
X14660476Y-23920285D01*
X14708095Y-24015523D01*
X13932142Y-25278857D02*
X13979761Y-25326476D01*
X14027380Y-25469333D01*
X14027380Y-25564571D01*
X13979761Y-25707428D01*
X13884523Y-25802666D01*
X13789285Y-25850285D01*
X13598809Y-25897904D01*
X13455952Y-25897904D01*
X13265476Y-25850285D01*
X13170238Y-25802666D01*
X13075000Y-25707428D01*
X13027380Y-25564571D01*
X13027380Y-25469333D01*
X13075000Y-25326476D01*
X13122619Y-25278857D01*
X14027380Y-24326476D02*
X14027380Y-24897904D01*
X14027380Y-24612190D02*
X13027380Y-24612190D01*
X13170238Y-24707428D01*
X13265476Y-24802666D01*
X13313095Y-24897904D01*
X13027380Y-23707428D02*
X13027380Y-23612190D01*
X13075000Y-23516952D01*
X13122619Y-23469333D01*
X13217857Y-23421714D01*
X13408333Y-23374095D01*
X13646428Y-23374095D01*
X13836904Y-23421714D01*
X13932142Y-23469333D01*
X13979761Y-23516952D01*
X14027380Y-23612190D01*
X14027380Y-23707428D01*
X13979761Y-23802666D01*
X13932142Y-23850285D01*
X13836904Y-23897904D01*
X13646428Y-23945523D01*
X13408333Y-23945523D01*
X13217857Y-23897904D01*
X13122619Y-23850285D01*
X13075000Y-23802666D01*
X13027380Y-23707428D01*
X13757142Y-31387857D02*
X13804761Y-31435476D01*
X13852380Y-31578333D01*
X13852380Y-31673571D01*
X13804761Y-31816428D01*
X13709523Y-31911666D01*
X13614285Y-31959285D01*
X13423809Y-32006904D01*
X13280952Y-32006904D01*
X13090476Y-31959285D01*
X12995238Y-31911666D01*
X12900000Y-31816428D01*
X12852380Y-31673571D01*
X12852380Y-31578333D01*
X12900000Y-31435476D01*
X12947619Y-31387857D01*
X12947619Y-31006904D02*
X12900000Y-30959285D01*
X12852380Y-30864047D01*
X12852380Y-30625952D01*
X12900000Y-30530714D01*
X12947619Y-30483095D01*
X13042857Y-30435476D01*
X13138095Y-30435476D01*
X13280952Y-30483095D01*
X13852380Y-31054523D01*
X13852380Y-30435476D01*
X12852380Y-29530714D02*
X12852380Y-30006904D01*
X13328571Y-30054523D01*
X13280952Y-30006904D01*
X13233333Y-29911666D01*
X13233333Y-29673571D01*
X13280952Y-29578333D01*
X13328571Y-29530714D01*
X13423809Y-29483095D01*
X13661904Y-29483095D01*
X13757142Y-29530714D01*
X13804761Y-29578333D01*
X13852380Y-29673571D01*
X13852380Y-29911666D01*
X13804761Y-30006904D01*
X13757142Y-30054523D01*
X28327142Y-18872666D02*
X28374761Y-18920285D01*
X28422380Y-19063142D01*
X28422380Y-19158380D01*
X28374761Y-19301238D01*
X28279523Y-19396476D01*
X28184285Y-19444095D01*
X27993809Y-19491714D01*
X27850952Y-19491714D01*
X27660476Y-19444095D01*
X27565238Y-19396476D01*
X27470000Y-19301238D01*
X27422380Y-19158380D01*
X27422380Y-19063142D01*
X27470000Y-18920285D01*
X27517619Y-18872666D01*
X27422380Y-17967904D02*
X27422380Y-18444095D01*
X27898571Y-18491714D01*
X27850952Y-18444095D01*
X27803333Y-18348857D01*
X27803333Y-18110761D01*
X27850952Y-18015523D01*
X27898571Y-17967904D01*
X27993809Y-17920285D01*
X28231904Y-17920285D01*
X28327142Y-17967904D01*
X28374761Y-18015523D01*
X28422380Y-18110761D01*
X28422380Y-18348857D01*
X28374761Y-18444095D01*
X28327142Y-18491714D01*
X27039142Y-10806666D02*
X27086761Y-10854285D01*
X27134380Y-10997142D01*
X27134380Y-11092380D01*
X27086761Y-11235238D01*
X26991523Y-11330476D01*
X26896285Y-11378095D01*
X26705809Y-11425714D01*
X26562952Y-11425714D01*
X26372476Y-11378095D01*
X26277238Y-11330476D01*
X26182000Y-11235238D01*
X26134380Y-11092380D01*
X26134380Y-10997142D01*
X26182000Y-10854285D01*
X26229619Y-10806666D01*
X26467714Y-9949523D02*
X27134380Y-9949523D01*
X26086761Y-10187619D02*
X26801047Y-10425714D01*
X26801047Y-9806666D01*
M02*
