G04 #@! TF.GenerationSoftware,KiCad,Pcbnew,(5.1.5)-3*
G04 #@! TF.CreationDate,2021-07-19T12:04:44+02:00*
G04 #@! TF.ProjectId,4xHalfBridge-VSON8,34784861-6c66-4427-9269-6467652d5653,rev?*
G04 #@! TF.SameCoordinates,Original*
G04 #@! TF.FileFunction,Copper,L2,Inr*
G04 #@! TF.FilePolarity,Positive*
%FSLAX46Y46*%
G04 Gerber Fmt 4.6, Leading zero omitted, Abs format (unit mm)*
G04 Created by KiCad (PCBNEW (5.1.5)-3) date 2021-07-19 12:04:44*
%MOMM*%
%LPD*%
G04 APERTURE LIST*
%ADD10C,3.000000*%
%ADD11C,1.700000*%
%ADD12C,4.000000*%
%ADD13C,1.600000*%
%ADD14R,1.600000X1.600000*%
%ADD15C,2.000000*%
%ADD16R,2.000000X2.000000*%
%ADD17C,0.800000*%
G04 APERTURE END LIST*
D10*
X75500000Y-11000000D03*
X58000000Y-11000000D03*
X40500000Y-11000000D03*
X23000000Y-11000000D03*
D11*
X3740000Y-4010000D03*
X6280000Y-4010000D03*
X3740000Y-6550000D03*
X6280000Y-6550000D03*
X3740000Y-9090000D03*
X6280000Y-9090000D03*
X3740000Y-11630000D03*
X6280000Y-11630000D03*
X3740000Y-14170000D03*
X6280000Y-14170000D03*
X3740000Y-16710000D03*
X6280000Y-16710000D03*
X3740000Y-19250000D03*
X6280000Y-19250000D03*
X3740000Y-21790000D03*
X6280000Y-21790000D03*
X3740000Y-24330000D03*
X6280000Y-24330000D03*
X3740000Y-26870000D03*
X6280000Y-26870000D03*
X3740000Y-29410000D03*
X6280000Y-29410000D03*
X3740000Y-31950000D03*
X6280000Y-31950000D03*
D12*
X35000000Y-30000000D03*
X50000000Y-30000000D03*
D11*
X85970000Y-29410000D03*
X85970000Y-4010000D03*
X83430000Y-24330000D03*
X83430000Y-26870000D03*
X85970000Y-11630000D03*
X85970000Y-21790000D03*
X83430000Y-21790000D03*
X83430000Y-11630000D03*
X83430000Y-19250000D03*
X85970000Y-16710000D03*
X83430000Y-14170000D03*
X83430000Y-9090000D03*
X83430000Y-6550000D03*
X85970000Y-31950000D03*
X83430000Y-31950000D03*
X83430000Y-29410000D03*
X83430000Y-4010000D03*
X85970000Y-26870000D03*
X85970000Y-9090000D03*
X85970000Y-6550000D03*
X85970000Y-19250000D03*
X83430000Y-16710000D03*
X85970000Y-24330000D03*
X85970000Y-14170000D03*
D13*
X68400000Y-4400000D03*
D14*
X70900000Y-4400000D03*
D13*
X50800000Y-4500000D03*
D14*
X53300000Y-4500000D03*
D13*
X33400000Y-4500000D03*
D14*
X35900000Y-4500000D03*
D13*
X15800000Y-4500000D03*
D14*
X18300000Y-4500000D03*
D15*
X68000000Y-27500000D03*
D16*
X68000000Y-32500000D03*
D15*
X21900000Y-27500000D03*
D16*
X21900000Y-32500000D03*
D17*
X45500000Y-5260000D03*
X63119000Y-5740400D03*
X80797400Y-5943600D03*
X16383000Y-28168600D03*
X27609800Y-23317200D03*
X79552800Y-23850600D03*
X11300000Y-3260000D03*
X13720000Y-10190000D03*
X8530000Y-19130000D03*
X80899000Y-18872200D03*
X40090000Y-30890000D03*
X6985000Y-33502600D03*
X22733000Y-5588000D03*
X22733000Y-2286000D03*
X24511000Y-4318000D03*
X20955000Y-4318000D03*
X22733000Y-4318000D03*
X42011000Y-4318000D03*
X59511000Y-4318000D03*
X77011000Y-4318000D03*
X40233000Y-5588000D03*
X57733000Y-5588000D03*
X75233000Y-5588000D03*
X40233000Y-2286000D03*
X57733000Y-2286000D03*
X75233000Y-2286000D03*
X38455000Y-4318000D03*
X55955000Y-4318000D03*
X73455000Y-4318000D03*
X40233000Y-4318000D03*
X57733000Y-4318000D03*
X75233000Y-4318000D03*
X59385200Y-28600400D03*
X81076800Y-24841200D03*
X28905200Y-11226800D03*
X26340000Y-23240000D03*
X46990000Y-3429000D03*
X41340000Y-30900000D03*
X65176400Y-3683000D03*
X62280800Y-27051000D03*
X80822800Y-11938000D03*
X78028800Y-22885400D03*
X26670000Y-16510000D03*
X26670000Y-15240000D03*
X26670000Y-13970000D03*
X26670000Y-17780000D03*
X24511000Y-17398000D03*
X22733000Y-18668000D03*
X22733000Y-15366000D03*
X20955000Y-17398000D03*
X22733000Y-17398000D03*
X15770000Y-10160000D03*
X17780000Y-10160000D03*
X17780000Y-12700000D03*
X15240000Y-12700000D03*
X17780000Y-13970000D03*
X17780000Y-15240000D03*
X19050000Y-13970000D03*
X19050000Y-15240000D03*
X19050000Y-16510000D03*
X17780000Y-16510000D03*
X17780000Y-17780000D03*
X19050000Y-17780000D03*
X16510000Y-16510000D03*
X16510000Y-15240000D03*
X16510000Y-13970000D03*
X15240000Y-13970000D03*
X15240000Y-15240000D03*
X37846000Y-12700000D03*
X37846000Y-10160000D03*
X36576000Y-15240000D03*
X32766000Y-13970000D03*
X32766000Y-15240000D03*
X35306000Y-13970000D03*
X35306000Y-16510000D03*
X36576000Y-13970000D03*
X44196000Y-15240000D03*
X34036000Y-16510000D03*
X36576000Y-17780000D03*
X35306000Y-17780000D03*
X44196000Y-17780000D03*
X34036000Y-15240000D03*
X44196000Y-13970000D03*
X34036000Y-13970000D03*
X36576000Y-16510000D03*
X44196000Y-16510000D03*
X35306000Y-15240000D03*
X42011000Y-17398000D03*
X40233000Y-15366000D03*
X38455000Y-17398000D03*
X40233000Y-17398000D03*
X40233000Y-18668000D03*
X35306000Y-12700000D03*
X35306000Y-10160000D03*
X32766000Y-12700000D03*
X32766000Y-10160000D03*
X51562000Y-16510000D03*
X52832000Y-17780000D03*
X54102000Y-13970000D03*
X52832000Y-15240000D03*
X50292000Y-13970000D03*
X52832000Y-16510000D03*
X54102000Y-15240000D03*
X61722000Y-17780000D03*
X50292000Y-15240000D03*
X54102000Y-16510000D03*
X61722000Y-16510000D03*
X51562000Y-15240000D03*
X51562000Y-13970000D03*
X61722000Y-13970000D03*
X52832000Y-13970000D03*
X54102000Y-17780000D03*
X61722000Y-15240000D03*
X59511000Y-17398000D03*
X57733000Y-18668000D03*
X57733000Y-15366000D03*
X55955000Y-17398000D03*
X57733000Y-17398000D03*
X50800000Y-12700000D03*
X53340000Y-12700000D03*
X60960000Y-12700000D03*
X60960000Y-10160000D03*
X53340000Y-10160000D03*
X50800000Y-10160000D03*
X68961000Y-16510000D03*
X70231000Y-17780000D03*
X71501000Y-13970000D03*
X70231000Y-15240000D03*
X67691000Y-13970000D03*
X70231000Y-16510000D03*
X71501000Y-15240000D03*
X79121000Y-17780000D03*
X67691000Y-15240000D03*
X71501000Y-16510000D03*
X79121000Y-16510000D03*
X68961000Y-15240000D03*
X68961000Y-13970000D03*
X79121000Y-13970000D03*
X70231000Y-13970000D03*
X71501000Y-17780000D03*
X79121000Y-15240000D03*
X77011000Y-17398000D03*
X75233000Y-18668000D03*
X75233000Y-15366000D03*
X73455000Y-17398000D03*
X75233000Y-17398000D03*
X66040000Y-10160000D03*
X68580000Y-10160000D03*
X71120000Y-10160000D03*
X78740000Y-12700000D03*
X71120000Y-12700000D03*
X68580000Y-12700000D03*
X66040000Y-12700000D03*
X64871600Y-15951200D03*
X13690600Y-15494000D03*
X46685200Y-16281400D03*
X29380000Y-17040000D03*
X28260000Y-4010000D03*
X28920000Y-18480000D03*
X63373000Y-18973800D03*
X46090000Y-18750000D03*
X10690000Y-6990000D03*
X11720000Y-12830000D03*
X10255600Y-10140400D03*
X7710000Y-15320000D03*
M02*
