G04 #@! TF.GenerationSoftware,KiCad,Pcbnew,(5.1.5)-3*
G04 #@! TF.CreationDate,2021-07-19T12:04:44+02:00*
G04 #@! TF.ProjectId,4xHalfBridge-VSON8,34784861-6c66-4427-9269-6467652d5653,rev?*
G04 #@! TF.SameCoordinates,Original*
G04 #@! TF.FileFunction,Soldermask,Bot*
G04 #@! TF.FilePolarity,Negative*
%FSLAX46Y46*%
G04 Gerber Fmt 4.6, Leading zero omitted, Abs format (unit mm)*
G04 Created by KiCad (PCBNEW (5.1.5)-3) date 2021-07-19 12:04:44*
%MOMM*%
%LPD*%
G04 APERTURE LIST*
%ADD10C,0.100000*%
G04 APERTURE END LIST*
D10*
G36*
X69051000Y-33551000D02*
G01*
X66949000Y-33551000D01*
X66949000Y-31449000D01*
X69051000Y-31449000D01*
X69051000Y-33551000D01*
G37*
G36*
X22951000Y-33551000D02*
G01*
X20849000Y-33551000D01*
X20849000Y-31449000D01*
X22951000Y-31449000D01*
X22951000Y-33551000D01*
G37*
G36*
X86083512Y-31053927D02*
G01*
X86232812Y-31083624D01*
X86396784Y-31151544D01*
X86544354Y-31250147D01*
X86669853Y-31375646D01*
X86768456Y-31523216D01*
X86836376Y-31687188D01*
X86871000Y-31861259D01*
X86871000Y-32038741D01*
X86836376Y-32212812D01*
X86768456Y-32376784D01*
X86669853Y-32524354D01*
X86544354Y-32649853D01*
X86396784Y-32748456D01*
X86232812Y-32816376D01*
X86083512Y-32846073D01*
X86058742Y-32851000D01*
X85881258Y-32851000D01*
X85856488Y-32846073D01*
X85707188Y-32816376D01*
X85543216Y-32748456D01*
X85395646Y-32649853D01*
X85270147Y-32524354D01*
X85171544Y-32376784D01*
X85103624Y-32212812D01*
X85069000Y-32038741D01*
X85069000Y-31861259D01*
X85103624Y-31687188D01*
X85171544Y-31523216D01*
X85270147Y-31375646D01*
X85395646Y-31250147D01*
X85543216Y-31151544D01*
X85707188Y-31083624D01*
X85856488Y-31053927D01*
X85881258Y-31049000D01*
X86058742Y-31049000D01*
X86083512Y-31053927D01*
G37*
G36*
X6393512Y-31053927D02*
G01*
X6542812Y-31083624D01*
X6706784Y-31151544D01*
X6854354Y-31250147D01*
X6979853Y-31375646D01*
X7078456Y-31523216D01*
X7146376Y-31687188D01*
X7181000Y-31861259D01*
X7181000Y-32038741D01*
X7146376Y-32212812D01*
X7078456Y-32376784D01*
X6979853Y-32524354D01*
X6854354Y-32649853D01*
X6706784Y-32748456D01*
X6542812Y-32816376D01*
X6393512Y-32846073D01*
X6368742Y-32851000D01*
X6191258Y-32851000D01*
X6166488Y-32846073D01*
X6017188Y-32816376D01*
X5853216Y-32748456D01*
X5705646Y-32649853D01*
X5580147Y-32524354D01*
X5481544Y-32376784D01*
X5413624Y-32212812D01*
X5379000Y-32038741D01*
X5379000Y-31861259D01*
X5413624Y-31687188D01*
X5481544Y-31523216D01*
X5580147Y-31375646D01*
X5705646Y-31250147D01*
X5853216Y-31151544D01*
X6017188Y-31083624D01*
X6166488Y-31053927D01*
X6191258Y-31049000D01*
X6368742Y-31049000D01*
X6393512Y-31053927D01*
G37*
G36*
X3853512Y-31053927D02*
G01*
X4002812Y-31083624D01*
X4166784Y-31151544D01*
X4314354Y-31250147D01*
X4439853Y-31375646D01*
X4538456Y-31523216D01*
X4606376Y-31687188D01*
X4641000Y-31861259D01*
X4641000Y-32038741D01*
X4606376Y-32212812D01*
X4538456Y-32376784D01*
X4439853Y-32524354D01*
X4314354Y-32649853D01*
X4166784Y-32748456D01*
X4002812Y-32816376D01*
X3853512Y-32846073D01*
X3828742Y-32851000D01*
X3651258Y-32851000D01*
X3626488Y-32846073D01*
X3477188Y-32816376D01*
X3313216Y-32748456D01*
X3165646Y-32649853D01*
X3040147Y-32524354D01*
X2941544Y-32376784D01*
X2873624Y-32212812D01*
X2839000Y-32038741D01*
X2839000Y-31861259D01*
X2873624Y-31687188D01*
X2941544Y-31523216D01*
X3040147Y-31375646D01*
X3165646Y-31250147D01*
X3313216Y-31151544D01*
X3477188Y-31083624D01*
X3626488Y-31053927D01*
X3651258Y-31049000D01*
X3828742Y-31049000D01*
X3853512Y-31053927D01*
G37*
G36*
X83543512Y-31053927D02*
G01*
X83692812Y-31083624D01*
X83856784Y-31151544D01*
X84004354Y-31250147D01*
X84129853Y-31375646D01*
X84228456Y-31523216D01*
X84296376Y-31687188D01*
X84331000Y-31861259D01*
X84331000Y-32038741D01*
X84296376Y-32212812D01*
X84228456Y-32376784D01*
X84129853Y-32524354D01*
X84004354Y-32649853D01*
X83856784Y-32748456D01*
X83692812Y-32816376D01*
X83543512Y-32846073D01*
X83518742Y-32851000D01*
X83341258Y-32851000D01*
X83316488Y-32846073D01*
X83167188Y-32816376D01*
X83003216Y-32748456D01*
X82855646Y-32649853D01*
X82730147Y-32524354D01*
X82631544Y-32376784D01*
X82563624Y-32212812D01*
X82529000Y-32038741D01*
X82529000Y-31861259D01*
X82563624Y-31687188D01*
X82631544Y-31523216D01*
X82730147Y-31375646D01*
X82855646Y-31250147D01*
X83003216Y-31151544D01*
X83167188Y-31083624D01*
X83316488Y-31053927D01*
X83341258Y-31049000D01*
X83518742Y-31049000D01*
X83543512Y-31053927D01*
G37*
G36*
X50598254Y-28027818D02*
G01*
X50971511Y-28182426D01*
X50971513Y-28182427D01*
X51307436Y-28406884D01*
X51593116Y-28692564D01*
X51688721Y-28835646D01*
X51817574Y-29028489D01*
X51972182Y-29401746D01*
X52051000Y-29797993D01*
X52051000Y-30202007D01*
X51972182Y-30598254D01*
X51817574Y-30971511D01*
X51817573Y-30971513D01*
X51593116Y-31307436D01*
X51307436Y-31593116D01*
X50971513Y-31817573D01*
X50971512Y-31817574D01*
X50971511Y-31817574D01*
X50598254Y-31972182D01*
X50202007Y-32051000D01*
X49797993Y-32051000D01*
X49401746Y-31972182D01*
X49028489Y-31817574D01*
X49028488Y-31817574D01*
X49028487Y-31817573D01*
X48692564Y-31593116D01*
X48406884Y-31307436D01*
X48182427Y-30971513D01*
X48182426Y-30971511D01*
X48027818Y-30598254D01*
X47949000Y-30202007D01*
X47949000Y-29797993D01*
X48027818Y-29401746D01*
X48182426Y-29028489D01*
X48311280Y-28835646D01*
X48406884Y-28692564D01*
X48692564Y-28406884D01*
X49028487Y-28182427D01*
X49028489Y-28182426D01*
X49401746Y-28027818D01*
X49797993Y-27949000D01*
X50202007Y-27949000D01*
X50598254Y-28027818D01*
G37*
G36*
X35598254Y-28027818D02*
G01*
X35971511Y-28182426D01*
X35971513Y-28182427D01*
X36307436Y-28406884D01*
X36593116Y-28692564D01*
X36688721Y-28835646D01*
X36817574Y-29028489D01*
X36972182Y-29401746D01*
X37051000Y-29797993D01*
X37051000Y-30202007D01*
X36972182Y-30598254D01*
X36817574Y-30971511D01*
X36817573Y-30971513D01*
X36593116Y-31307436D01*
X36307436Y-31593116D01*
X35971513Y-31817573D01*
X35971512Y-31817574D01*
X35971511Y-31817574D01*
X35598254Y-31972182D01*
X35202007Y-32051000D01*
X34797993Y-32051000D01*
X34401746Y-31972182D01*
X34028489Y-31817574D01*
X34028488Y-31817574D01*
X34028487Y-31817573D01*
X33692564Y-31593116D01*
X33406884Y-31307436D01*
X33182427Y-30971513D01*
X33182426Y-30971511D01*
X33027818Y-30598254D01*
X32949000Y-30202007D01*
X32949000Y-29797993D01*
X33027818Y-29401746D01*
X33182426Y-29028489D01*
X33311280Y-28835646D01*
X33406884Y-28692564D01*
X33692564Y-28406884D01*
X34028487Y-28182427D01*
X34028489Y-28182426D01*
X34401746Y-28027818D01*
X34797993Y-27949000D01*
X35202007Y-27949000D01*
X35598254Y-28027818D01*
G37*
G36*
X3853512Y-28513927D02*
G01*
X4002812Y-28543624D01*
X4166784Y-28611544D01*
X4314354Y-28710147D01*
X4439853Y-28835646D01*
X4538456Y-28983216D01*
X4606376Y-29147188D01*
X4641000Y-29321259D01*
X4641000Y-29498741D01*
X4606376Y-29672812D01*
X4538456Y-29836784D01*
X4439853Y-29984354D01*
X4314354Y-30109853D01*
X4166784Y-30208456D01*
X4002812Y-30276376D01*
X3853512Y-30306073D01*
X3828742Y-30311000D01*
X3651258Y-30311000D01*
X3626488Y-30306073D01*
X3477188Y-30276376D01*
X3313216Y-30208456D01*
X3165646Y-30109853D01*
X3040147Y-29984354D01*
X2941544Y-29836784D01*
X2873624Y-29672812D01*
X2839000Y-29498741D01*
X2839000Y-29321259D01*
X2873624Y-29147188D01*
X2941544Y-28983216D01*
X3040147Y-28835646D01*
X3165646Y-28710147D01*
X3313216Y-28611544D01*
X3477188Y-28543624D01*
X3626488Y-28513927D01*
X3651258Y-28509000D01*
X3828742Y-28509000D01*
X3853512Y-28513927D01*
G37*
G36*
X83543512Y-28513927D02*
G01*
X83692812Y-28543624D01*
X83856784Y-28611544D01*
X84004354Y-28710147D01*
X84129853Y-28835646D01*
X84228456Y-28983216D01*
X84296376Y-29147188D01*
X84331000Y-29321259D01*
X84331000Y-29498741D01*
X84296376Y-29672812D01*
X84228456Y-29836784D01*
X84129853Y-29984354D01*
X84004354Y-30109853D01*
X83856784Y-30208456D01*
X83692812Y-30276376D01*
X83543512Y-30306073D01*
X83518742Y-30311000D01*
X83341258Y-30311000D01*
X83316488Y-30306073D01*
X83167188Y-30276376D01*
X83003216Y-30208456D01*
X82855646Y-30109853D01*
X82730147Y-29984354D01*
X82631544Y-29836784D01*
X82563624Y-29672812D01*
X82529000Y-29498741D01*
X82529000Y-29321259D01*
X82563624Y-29147188D01*
X82631544Y-28983216D01*
X82730147Y-28835646D01*
X82855646Y-28710147D01*
X83003216Y-28611544D01*
X83167188Y-28543624D01*
X83316488Y-28513927D01*
X83341258Y-28509000D01*
X83518742Y-28509000D01*
X83543512Y-28513927D01*
G37*
G36*
X86083512Y-28513927D02*
G01*
X86232812Y-28543624D01*
X86396784Y-28611544D01*
X86544354Y-28710147D01*
X86669853Y-28835646D01*
X86768456Y-28983216D01*
X86836376Y-29147188D01*
X86871000Y-29321259D01*
X86871000Y-29498741D01*
X86836376Y-29672812D01*
X86768456Y-29836784D01*
X86669853Y-29984354D01*
X86544354Y-30109853D01*
X86396784Y-30208456D01*
X86232812Y-30276376D01*
X86083512Y-30306073D01*
X86058742Y-30311000D01*
X85881258Y-30311000D01*
X85856488Y-30306073D01*
X85707188Y-30276376D01*
X85543216Y-30208456D01*
X85395646Y-30109853D01*
X85270147Y-29984354D01*
X85171544Y-29836784D01*
X85103624Y-29672812D01*
X85069000Y-29498741D01*
X85069000Y-29321259D01*
X85103624Y-29147188D01*
X85171544Y-28983216D01*
X85270147Y-28835646D01*
X85395646Y-28710147D01*
X85543216Y-28611544D01*
X85707188Y-28543624D01*
X85856488Y-28513927D01*
X85881258Y-28509000D01*
X86058742Y-28509000D01*
X86083512Y-28513927D01*
G37*
G36*
X6393512Y-28513927D02*
G01*
X6542812Y-28543624D01*
X6706784Y-28611544D01*
X6854354Y-28710147D01*
X6979853Y-28835646D01*
X7078456Y-28983216D01*
X7146376Y-29147188D01*
X7181000Y-29321259D01*
X7181000Y-29498741D01*
X7146376Y-29672812D01*
X7078456Y-29836784D01*
X6979853Y-29984354D01*
X6854354Y-30109853D01*
X6706784Y-30208456D01*
X6542812Y-30276376D01*
X6393512Y-30306073D01*
X6368742Y-30311000D01*
X6191258Y-30311000D01*
X6166488Y-30306073D01*
X6017188Y-30276376D01*
X5853216Y-30208456D01*
X5705646Y-30109853D01*
X5580147Y-29984354D01*
X5481544Y-29836784D01*
X5413624Y-29672812D01*
X5379000Y-29498741D01*
X5379000Y-29321259D01*
X5413624Y-29147188D01*
X5481544Y-28983216D01*
X5580147Y-28835646D01*
X5705646Y-28710147D01*
X5853216Y-28611544D01*
X6017188Y-28543624D01*
X6166488Y-28513927D01*
X6191258Y-28509000D01*
X6368742Y-28509000D01*
X6393512Y-28513927D01*
G37*
G36*
X22206564Y-26489389D02*
G01*
X22397833Y-26568615D01*
X22397835Y-26568616D01*
X22569973Y-26683635D01*
X22716365Y-26830027D01*
X22802370Y-26958742D01*
X22831385Y-27002167D01*
X22910611Y-27193436D01*
X22951000Y-27396484D01*
X22951000Y-27603516D01*
X22910611Y-27806564D01*
X22851612Y-27949000D01*
X22831384Y-27997835D01*
X22716365Y-28169973D01*
X22569973Y-28316365D01*
X22397835Y-28431384D01*
X22397834Y-28431385D01*
X22397833Y-28431385D01*
X22206564Y-28510611D01*
X22003516Y-28551000D01*
X21796484Y-28551000D01*
X21593436Y-28510611D01*
X21402167Y-28431385D01*
X21402166Y-28431385D01*
X21402165Y-28431384D01*
X21230027Y-28316365D01*
X21083635Y-28169973D01*
X20968616Y-27997835D01*
X20948388Y-27949000D01*
X20889389Y-27806564D01*
X20849000Y-27603516D01*
X20849000Y-27396484D01*
X20889389Y-27193436D01*
X20968615Y-27002167D01*
X20997631Y-26958742D01*
X21083635Y-26830027D01*
X21230027Y-26683635D01*
X21402165Y-26568616D01*
X21402167Y-26568615D01*
X21593436Y-26489389D01*
X21796484Y-26449000D01*
X22003516Y-26449000D01*
X22206564Y-26489389D01*
G37*
G36*
X68306564Y-26489389D02*
G01*
X68497833Y-26568615D01*
X68497835Y-26568616D01*
X68669973Y-26683635D01*
X68816365Y-26830027D01*
X68902370Y-26958742D01*
X68931385Y-27002167D01*
X69010611Y-27193436D01*
X69051000Y-27396484D01*
X69051000Y-27603516D01*
X69010611Y-27806564D01*
X68951612Y-27949000D01*
X68931384Y-27997835D01*
X68816365Y-28169973D01*
X68669973Y-28316365D01*
X68497835Y-28431384D01*
X68497834Y-28431385D01*
X68497833Y-28431385D01*
X68306564Y-28510611D01*
X68103516Y-28551000D01*
X67896484Y-28551000D01*
X67693436Y-28510611D01*
X67502167Y-28431385D01*
X67502166Y-28431385D01*
X67502165Y-28431384D01*
X67330027Y-28316365D01*
X67183635Y-28169973D01*
X67068616Y-27997835D01*
X67048388Y-27949000D01*
X66989389Y-27806564D01*
X66949000Y-27603516D01*
X66949000Y-27396484D01*
X66989389Y-27193436D01*
X67068615Y-27002167D01*
X67097631Y-26958742D01*
X67183635Y-26830027D01*
X67330027Y-26683635D01*
X67502165Y-26568616D01*
X67502167Y-26568615D01*
X67693436Y-26489389D01*
X67896484Y-26449000D01*
X68103516Y-26449000D01*
X68306564Y-26489389D01*
G37*
G36*
X6393512Y-25973927D02*
G01*
X6542812Y-26003624D01*
X6706784Y-26071544D01*
X6854354Y-26170147D01*
X6979853Y-26295646D01*
X7078456Y-26443216D01*
X7146376Y-26607188D01*
X7181000Y-26781259D01*
X7181000Y-26958741D01*
X7146376Y-27132812D01*
X7078456Y-27296784D01*
X6979853Y-27444354D01*
X6854354Y-27569853D01*
X6706784Y-27668456D01*
X6542812Y-27736376D01*
X6393512Y-27766073D01*
X6368742Y-27771000D01*
X6191258Y-27771000D01*
X6166488Y-27766073D01*
X6017188Y-27736376D01*
X5853216Y-27668456D01*
X5705646Y-27569853D01*
X5580147Y-27444354D01*
X5481544Y-27296784D01*
X5413624Y-27132812D01*
X5379000Y-26958741D01*
X5379000Y-26781259D01*
X5413624Y-26607188D01*
X5481544Y-26443216D01*
X5580147Y-26295646D01*
X5705646Y-26170147D01*
X5853216Y-26071544D01*
X6017188Y-26003624D01*
X6166488Y-25973927D01*
X6191258Y-25969000D01*
X6368742Y-25969000D01*
X6393512Y-25973927D01*
G37*
G36*
X86083512Y-25973927D02*
G01*
X86232812Y-26003624D01*
X86396784Y-26071544D01*
X86544354Y-26170147D01*
X86669853Y-26295646D01*
X86768456Y-26443216D01*
X86836376Y-26607188D01*
X86871000Y-26781259D01*
X86871000Y-26958741D01*
X86836376Y-27132812D01*
X86768456Y-27296784D01*
X86669853Y-27444354D01*
X86544354Y-27569853D01*
X86396784Y-27668456D01*
X86232812Y-27736376D01*
X86083512Y-27766073D01*
X86058742Y-27771000D01*
X85881258Y-27771000D01*
X85856488Y-27766073D01*
X85707188Y-27736376D01*
X85543216Y-27668456D01*
X85395646Y-27569853D01*
X85270147Y-27444354D01*
X85171544Y-27296784D01*
X85103624Y-27132812D01*
X85069000Y-26958741D01*
X85069000Y-26781259D01*
X85103624Y-26607188D01*
X85171544Y-26443216D01*
X85270147Y-26295646D01*
X85395646Y-26170147D01*
X85543216Y-26071544D01*
X85707188Y-26003624D01*
X85856488Y-25973927D01*
X85881258Y-25969000D01*
X86058742Y-25969000D01*
X86083512Y-25973927D01*
G37*
G36*
X3853512Y-25973927D02*
G01*
X4002812Y-26003624D01*
X4166784Y-26071544D01*
X4314354Y-26170147D01*
X4439853Y-26295646D01*
X4538456Y-26443216D01*
X4606376Y-26607188D01*
X4641000Y-26781259D01*
X4641000Y-26958741D01*
X4606376Y-27132812D01*
X4538456Y-27296784D01*
X4439853Y-27444354D01*
X4314354Y-27569853D01*
X4166784Y-27668456D01*
X4002812Y-27736376D01*
X3853512Y-27766073D01*
X3828742Y-27771000D01*
X3651258Y-27771000D01*
X3626488Y-27766073D01*
X3477188Y-27736376D01*
X3313216Y-27668456D01*
X3165646Y-27569853D01*
X3040147Y-27444354D01*
X2941544Y-27296784D01*
X2873624Y-27132812D01*
X2839000Y-26958741D01*
X2839000Y-26781259D01*
X2873624Y-26607188D01*
X2941544Y-26443216D01*
X3040147Y-26295646D01*
X3165646Y-26170147D01*
X3313216Y-26071544D01*
X3477188Y-26003624D01*
X3626488Y-25973927D01*
X3651258Y-25969000D01*
X3828742Y-25969000D01*
X3853512Y-25973927D01*
G37*
G36*
X83543512Y-25973927D02*
G01*
X83692812Y-26003624D01*
X83856784Y-26071544D01*
X84004354Y-26170147D01*
X84129853Y-26295646D01*
X84228456Y-26443216D01*
X84296376Y-26607188D01*
X84331000Y-26781259D01*
X84331000Y-26958741D01*
X84296376Y-27132812D01*
X84228456Y-27296784D01*
X84129853Y-27444354D01*
X84004354Y-27569853D01*
X83856784Y-27668456D01*
X83692812Y-27736376D01*
X83543512Y-27766073D01*
X83518742Y-27771000D01*
X83341258Y-27771000D01*
X83316488Y-27766073D01*
X83167188Y-27736376D01*
X83003216Y-27668456D01*
X82855646Y-27569853D01*
X82730147Y-27444354D01*
X82631544Y-27296784D01*
X82563624Y-27132812D01*
X82529000Y-26958741D01*
X82529000Y-26781259D01*
X82563624Y-26607188D01*
X82631544Y-26443216D01*
X82730147Y-26295646D01*
X82855646Y-26170147D01*
X83003216Y-26071544D01*
X83167188Y-26003624D01*
X83316488Y-25973927D01*
X83341258Y-25969000D01*
X83518742Y-25969000D01*
X83543512Y-25973927D01*
G37*
G36*
X6393512Y-23433927D02*
G01*
X6542812Y-23463624D01*
X6706784Y-23531544D01*
X6854354Y-23630147D01*
X6979853Y-23755646D01*
X7078456Y-23903216D01*
X7146376Y-24067188D01*
X7181000Y-24241259D01*
X7181000Y-24418741D01*
X7146376Y-24592812D01*
X7078456Y-24756784D01*
X6979853Y-24904354D01*
X6854354Y-25029853D01*
X6706784Y-25128456D01*
X6542812Y-25196376D01*
X6393512Y-25226073D01*
X6368742Y-25231000D01*
X6191258Y-25231000D01*
X6166488Y-25226073D01*
X6017188Y-25196376D01*
X5853216Y-25128456D01*
X5705646Y-25029853D01*
X5580147Y-24904354D01*
X5481544Y-24756784D01*
X5413624Y-24592812D01*
X5379000Y-24418741D01*
X5379000Y-24241259D01*
X5413624Y-24067188D01*
X5481544Y-23903216D01*
X5580147Y-23755646D01*
X5705646Y-23630147D01*
X5853216Y-23531544D01*
X6017188Y-23463624D01*
X6166488Y-23433927D01*
X6191258Y-23429000D01*
X6368742Y-23429000D01*
X6393512Y-23433927D01*
G37*
G36*
X83543512Y-23433927D02*
G01*
X83692812Y-23463624D01*
X83856784Y-23531544D01*
X84004354Y-23630147D01*
X84129853Y-23755646D01*
X84228456Y-23903216D01*
X84296376Y-24067188D01*
X84331000Y-24241259D01*
X84331000Y-24418741D01*
X84296376Y-24592812D01*
X84228456Y-24756784D01*
X84129853Y-24904354D01*
X84004354Y-25029853D01*
X83856784Y-25128456D01*
X83692812Y-25196376D01*
X83543512Y-25226073D01*
X83518742Y-25231000D01*
X83341258Y-25231000D01*
X83316488Y-25226073D01*
X83167188Y-25196376D01*
X83003216Y-25128456D01*
X82855646Y-25029853D01*
X82730147Y-24904354D01*
X82631544Y-24756784D01*
X82563624Y-24592812D01*
X82529000Y-24418741D01*
X82529000Y-24241259D01*
X82563624Y-24067188D01*
X82631544Y-23903216D01*
X82730147Y-23755646D01*
X82855646Y-23630147D01*
X83003216Y-23531544D01*
X83167188Y-23463624D01*
X83316488Y-23433927D01*
X83341258Y-23429000D01*
X83518742Y-23429000D01*
X83543512Y-23433927D01*
G37*
G36*
X3853512Y-23433927D02*
G01*
X4002812Y-23463624D01*
X4166784Y-23531544D01*
X4314354Y-23630147D01*
X4439853Y-23755646D01*
X4538456Y-23903216D01*
X4606376Y-24067188D01*
X4641000Y-24241259D01*
X4641000Y-24418741D01*
X4606376Y-24592812D01*
X4538456Y-24756784D01*
X4439853Y-24904354D01*
X4314354Y-25029853D01*
X4166784Y-25128456D01*
X4002812Y-25196376D01*
X3853512Y-25226073D01*
X3828742Y-25231000D01*
X3651258Y-25231000D01*
X3626488Y-25226073D01*
X3477188Y-25196376D01*
X3313216Y-25128456D01*
X3165646Y-25029853D01*
X3040147Y-24904354D01*
X2941544Y-24756784D01*
X2873624Y-24592812D01*
X2839000Y-24418741D01*
X2839000Y-24241259D01*
X2873624Y-24067188D01*
X2941544Y-23903216D01*
X3040147Y-23755646D01*
X3165646Y-23630147D01*
X3313216Y-23531544D01*
X3477188Y-23463624D01*
X3626488Y-23433927D01*
X3651258Y-23429000D01*
X3828742Y-23429000D01*
X3853512Y-23433927D01*
G37*
G36*
X86083512Y-23433927D02*
G01*
X86232812Y-23463624D01*
X86396784Y-23531544D01*
X86544354Y-23630147D01*
X86669853Y-23755646D01*
X86768456Y-23903216D01*
X86836376Y-24067188D01*
X86871000Y-24241259D01*
X86871000Y-24418741D01*
X86836376Y-24592812D01*
X86768456Y-24756784D01*
X86669853Y-24904354D01*
X86544354Y-25029853D01*
X86396784Y-25128456D01*
X86232812Y-25196376D01*
X86083512Y-25226073D01*
X86058742Y-25231000D01*
X85881258Y-25231000D01*
X85856488Y-25226073D01*
X85707188Y-25196376D01*
X85543216Y-25128456D01*
X85395646Y-25029853D01*
X85270147Y-24904354D01*
X85171544Y-24756784D01*
X85103624Y-24592812D01*
X85069000Y-24418741D01*
X85069000Y-24241259D01*
X85103624Y-24067188D01*
X85171544Y-23903216D01*
X85270147Y-23755646D01*
X85395646Y-23630147D01*
X85543216Y-23531544D01*
X85707188Y-23463624D01*
X85856488Y-23433927D01*
X85881258Y-23429000D01*
X86058742Y-23429000D01*
X86083512Y-23433927D01*
G37*
G36*
X86083512Y-20893927D02*
G01*
X86232812Y-20923624D01*
X86396784Y-20991544D01*
X86544354Y-21090147D01*
X86669853Y-21215646D01*
X86768456Y-21363216D01*
X86836376Y-21527188D01*
X86871000Y-21701259D01*
X86871000Y-21878741D01*
X86836376Y-22052812D01*
X86768456Y-22216784D01*
X86669853Y-22364354D01*
X86544354Y-22489853D01*
X86396784Y-22588456D01*
X86232812Y-22656376D01*
X86083512Y-22686073D01*
X86058742Y-22691000D01*
X85881258Y-22691000D01*
X85856488Y-22686073D01*
X85707188Y-22656376D01*
X85543216Y-22588456D01*
X85395646Y-22489853D01*
X85270147Y-22364354D01*
X85171544Y-22216784D01*
X85103624Y-22052812D01*
X85069000Y-21878741D01*
X85069000Y-21701259D01*
X85103624Y-21527188D01*
X85171544Y-21363216D01*
X85270147Y-21215646D01*
X85395646Y-21090147D01*
X85543216Y-20991544D01*
X85707188Y-20923624D01*
X85856488Y-20893927D01*
X85881258Y-20889000D01*
X86058742Y-20889000D01*
X86083512Y-20893927D01*
G37*
G36*
X6393512Y-20893927D02*
G01*
X6542812Y-20923624D01*
X6706784Y-20991544D01*
X6854354Y-21090147D01*
X6979853Y-21215646D01*
X7078456Y-21363216D01*
X7146376Y-21527188D01*
X7181000Y-21701259D01*
X7181000Y-21878741D01*
X7146376Y-22052812D01*
X7078456Y-22216784D01*
X6979853Y-22364354D01*
X6854354Y-22489853D01*
X6706784Y-22588456D01*
X6542812Y-22656376D01*
X6393512Y-22686073D01*
X6368742Y-22691000D01*
X6191258Y-22691000D01*
X6166488Y-22686073D01*
X6017188Y-22656376D01*
X5853216Y-22588456D01*
X5705646Y-22489853D01*
X5580147Y-22364354D01*
X5481544Y-22216784D01*
X5413624Y-22052812D01*
X5379000Y-21878741D01*
X5379000Y-21701259D01*
X5413624Y-21527188D01*
X5481544Y-21363216D01*
X5580147Y-21215646D01*
X5705646Y-21090147D01*
X5853216Y-20991544D01*
X6017188Y-20923624D01*
X6166488Y-20893927D01*
X6191258Y-20889000D01*
X6368742Y-20889000D01*
X6393512Y-20893927D01*
G37*
G36*
X83543512Y-20893927D02*
G01*
X83692812Y-20923624D01*
X83856784Y-20991544D01*
X84004354Y-21090147D01*
X84129853Y-21215646D01*
X84228456Y-21363216D01*
X84296376Y-21527188D01*
X84331000Y-21701259D01*
X84331000Y-21878741D01*
X84296376Y-22052812D01*
X84228456Y-22216784D01*
X84129853Y-22364354D01*
X84004354Y-22489853D01*
X83856784Y-22588456D01*
X83692812Y-22656376D01*
X83543512Y-22686073D01*
X83518742Y-22691000D01*
X83341258Y-22691000D01*
X83316488Y-22686073D01*
X83167188Y-22656376D01*
X83003216Y-22588456D01*
X82855646Y-22489853D01*
X82730147Y-22364354D01*
X82631544Y-22216784D01*
X82563624Y-22052812D01*
X82529000Y-21878741D01*
X82529000Y-21701259D01*
X82563624Y-21527188D01*
X82631544Y-21363216D01*
X82730147Y-21215646D01*
X82855646Y-21090147D01*
X83003216Y-20991544D01*
X83167188Y-20923624D01*
X83316488Y-20893927D01*
X83341258Y-20889000D01*
X83518742Y-20889000D01*
X83543512Y-20893927D01*
G37*
G36*
X3853512Y-20893927D02*
G01*
X4002812Y-20923624D01*
X4166784Y-20991544D01*
X4314354Y-21090147D01*
X4439853Y-21215646D01*
X4538456Y-21363216D01*
X4606376Y-21527188D01*
X4641000Y-21701259D01*
X4641000Y-21878741D01*
X4606376Y-22052812D01*
X4538456Y-22216784D01*
X4439853Y-22364354D01*
X4314354Y-22489853D01*
X4166784Y-22588456D01*
X4002812Y-22656376D01*
X3853512Y-22686073D01*
X3828742Y-22691000D01*
X3651258Y-22691000D01*
X3626488Y-22686073D01*
X3477188Y-22656376D01*
X3313216Y-22588456D01*
X3165646Y-22489853D01*
X3040147Y-22364354D01*
X2941544Y-22216784D01*
X2873624Y-22052812D01*
X2839000Y-21878741D01*
X2839000Y-21701259D01*
X2873624Y-21527188D01*
X2941544Y-21363216D01*
X3040147Y-21215646D01*
X3165646Y-21090147D01*
X3313216Y-20991544D01*
X3477188Y-20923624D01*
X3626488Y-20893927D01*
X3651258Y-20889000D01*
X3828742Y-20889000D01*
X3853512Y-20893927D01*
G37*
G36*
X63611165Y-21403445D02*
G01*
X63648661Y-21414820D01*
X63683220Y-21433292D01*
X63713513Y-21458153D01*
X63738374Y-21488446D01*
X63756846Y-21523005D01*
X63768221Y-21560501D01*
X63772666Y-21605638D01*
X63772666Y-22344362D01*
X63768221Y-22389499D01*
X63756846Y-22426995D01*
X63738374Y-22461554D01*
X63713513Y-22491847D01*
X63683220Y-22516708D01*
X63648661Y-22535180D01*
X63611165Y-22546555D01*
X63566028Y-22551000D01*
X62927304Y-22551000D01*
X62882167Y-22546555D01*
X62844671Y-22535180D01*
X62810112Y-22516708D01*
X62779819Y-22491847D01*
X62754958Y-22461554D01*
X62736486Y-22426995D01*
X62725111Y-22389499D01*
X62720666Y-22344362D01*
X62720666Y-21605638D01*
X62725111Y-21560501D01*
X62736486Y-21523005D01*
X62754958Y-21488446D01*
X62779819Y-21458153D01*
X62810112Y-21433292D01*
X62844671Y-21414820D01*
X62882167Y-21403445D01*
X62927304Y-21399000D01*
X63566028Y-21399000D01*
X63611165Y-21403445D01*
G37*
G36*
X28304499Y-21403445D02*
G01*
X28341995Y-21414820D01*
X28376554Y-21433292D01*
X28406847Y-21458153D01*
X28431708Y-21488446D01*
X28450180Y-21523005D01*
X28461555Y-21560501D01*
X28466000Y-21605638D01*
X28466000Y-22344362D01*
X28461555Y-22389499D01*
X28450180Y-22426995D01*
X28431708Y-22461554D01*
X28406847Y-22491847D01*
X28376554Y-22516708D01*
X28341995Y-22535180D01*
X28304499Y-22546555D01*
X28259362Y-22551000D01*
X27620638Y-22551000D01*
X27575501Y-22546555D01*
X27538005Y-22535180D01*
X27503446Y-22516708D01*
X27473153Y-22491847D01*
X27448292Y-22461554D01*
X27429820Y-22426995D01*
X27418445Y-22389499D01*
X27414000Y-22344362D01*
X27414000Y-21605638D01*
X27418445Y-21560501D01*
X27429820Y-21523005D01*
X27448292Y-21488446D01*
X27473153Y-21458153D01*
X27503446Y-21433292D01*
X27538005Y-21414820D01*
X27575501Y-21403445D01*
X27620638Y-21399000D01*
X28259362Y-21399000D01*
X28304499Y-21403445D01*
G37*
G36*
X45957832Y-21403445D02*
G01*
X45995328Y-21414820D01*
X46029887Y-21433292D01*
X46060180Y-21458153D01*
X46085041Y-21488446D01*
X46103513Y-21523005D01*
X46114888Y-21560501D01*
X46119333Y-21605638D01*
X46119333Y-22344362D01*
X46114888Y-22389499D01*
X46103513Y-22426995D01*
X46085041Y-22461554D01*
X46060180Y-22491847D01*
X46029887Y-22516708D01*
X45995328Y-22535180D01*
X45957832Y-22546555D01*
X45912695Y-22551000D01*
X45273971Y-22551000D01*
X45228834Y-22546555D01*
X45191338Y-22535180D01*
X45156779Y-22516708D01*
X45126486Y-22491847D01*
X45101625Y-22461554D01*
X45083153Y-22426995D01*
X45071778Y-22389499D01*
X45067333Y-22344362D01*
X45067333Y-21605638D01*
X45071778Y-21560501D01*
X45083153Y-21523005D01*
X45101625Y-21488446D01*
X45126486Y-21458153D01*
X45156779Y-21433292D01*
X45191338Y-21414820D01*
X45228834Y-21403445D01*
X45273971Y-21399000D01*
X45912695Y-21399000D01*
X45957832Y-21403445D01*
G37*
G36*
X81264499Y-21403445D02*
G01*
X81301995Y-21414820D01*
X81336554Y-21433292D01*
X81366847Y-21458153D01*
X81391708Y-21488446D01*
X81410180Y-21523005D01*
X81421555Y-21560501D01*
X81426000Y-21605638D01*
X81426000Y-22344362D01*
X81421555Y-22389499D01*
X81410180Y-22426995D01*
X81391708Y-22461554D01*
X81366847Y-22491847D01*
X81336554Y-22516708D01*
X81301995Y-22535180D01*
X81264499Y-22546555D01*
X81219362Y-22551000D01*
X80580638Y-22551000D01*
X80535501Y-22546555D01*
X80498005Y-22535180D01*
X80463446Y-22516708D01*
X80433153Y-22491847D01*
X80408292Y-22461554D01*
X80389820Y-22426995D01*
X80378445Y-22389499D01*
X80374000Y-22344362D01*
X80374000Y-21605638D01*
X80378445Y-21560501D01*
X80389820Y-21523005D01*
X80408292Y-21488446D01*
X80433153Y-21458153D01*
X80463446Y-21433292D01*
X80498005Y-21414820D01*
X80535501Y-21403445D01*
X80580638Y-21399000D01*
X81219362Y-21399000D01*
X81264499Y-21403445D01*
G37*
G36*
X81264499Y-19653445D02*
G01*
X81301995Y-19664820D01*
X81336554Y-19683292D01*
X81366847Y-19708153D01*
X81391708Y-19738446D01*
X81410180Y-19773005D01*
X81421555Y-19810501D01*
X81426000Y-19855638D01*
X81426000Y-20594362D01*
X81421555Y-20639499D01*
X81410180Y-20676995D01*
X81391708Y-20711554D01*
X81366847Y-20741847D01*
X81336554Y-20766708D01*
X81301995Y-20785180D01*
X81264499Y-20796555D01*
X81219362Y-20801000D01*
X80580638Y-20801000D01*
X80535501Y-20796555D01*
X80498005Y-20785180D01*
X80463446Y-20766708D01*
X80433153Y-20741847D01*
X80408292Y-20711554D01*
X80389820Y-20676995D01*
X80378445Y-20639499D01*
X80374000Y-20594362D01*
X80374000Y-19855638D01*
X80378445Y-19810501D01*
X80389820Y-19773005D01*
X80408292Y-19738446D01*
X80433153Y-19708153D01*
X80463446Y-19683292D01*
X80498005Y-19664820D01*
X80535501Y-19653445D01*
X80580638Y-19649000D01*
X81219362Y-19649000D01*
X81264499Y-19653445D01*
G37*
G36*
X28304499Y-19653445D02*
G01*
X28341995Y-19664820D01*
X28376554Y-19683292D01*
X28406847Y-19708153D01*
X28431708Y-19738446D01*
X28450180Y-19773005D01*
X28461555Y-19810501D01*
X28466000Y-19855638D01*
X28466000Y-20594362D01*
X28461555Y-20639499D01*
X28450180Y-20676995D01*
X28431708Y-20711554D01*
X28406847Y-20741847D01*
X28376554Y-20766708D01*
X28341995Y-20785180D01*
X28304499Y-20796555D01*
X28259362Y-20801000D01*
X27620638Y-20801000D01*
X27575501Y-20796555D01*
X27538005Y-20785180D01*
X27503446Y-20766708D01*
X27473153Y-20741847D01*
X27448292Y-20711554D01*
X27429820Y-20676995D01*
X27418445Y-20639499D01*
X27414000Y-20594362D01*
X27414000Y-19855638D01*
X27418445Y-19810501D01*
X27429820Y-19773005D01*
X27448292Y-19738446D01*
X27473153Y-19708153D01*
X27503446Y-19683292D01*
X27538005Y-19664820D01*
X27575501Y-19653445D01*
X27620638Y-19649000D01*
X28259362Y-19649000D01*
X28304499Y-19653445D01*
G37*
G36*
X45957832Y-19653445D02*
G01*
X45995328Y-19664820D01*
X46029887Y-19683292D01*
X46060180Y-19708153D01*
X46085041Y-19738446D01*
X46103513Y-19773005D01*
X46114888Y-19810501D01*
X46119333Y-19855638D01*
X46119333Y-20594362D01*
X46114888Y-20639499D01*
X46103513Y-20676995D01*
X46085041Y-20711554D01*
X46060180Y-20741847D01*
X46029887Y-20766708D01*
X45995328Y-20785180D01*
X45957832Y-20796555D01*
X45912695Y-20801000D01*
X45273971Y-20801000D01*
X45228834Y-20796555D01*
X45191338Y-20785180D01*
X45156779Y-20766708D01*
X45126486Y-20741847D01*
X45101625Y-20711554D01*
X45083153Y-20676995D01*
X45071778Y-20639499D01*
X45067333Y-20594362D01*
X45067333Y-19855638D01*
X45071778Y-19810501D01*
X45083153Y-19773005D01*
X45101625Y-19738446D01*
X45126486Y-19708153D01*
X45156779Y-19683292D01*
X45191338Y-19664820D01*
X45228834Y-19653445D01*
X45273971Y-19649000D01*
X45912695Y-19649000D01*
X45957832Y-19653445D01*
G37*
G36*
X63611165Y-19653445D02*
G01*
X63648661Y-19664820D01*
X63683220Y-19683292D01*
X63713513Y-19708153D01*
X63738374Y-19738446D01*
X63756846Y-19773005D01*
X63768221Y-19810501D01*
X63772666Y-19855638D01*
X63772666Y-20594362D01*
X63768221Y-20639499D01*
X63756846Y-20676995D01*
X63738374Y-20711554D01*
X63713513Y-20741847D01*
X63683220Y-20766708D01*
X63648661Y-20785180D01*
X63611165Y-20796555D01*
X63566028Y-20801000D01*
X62927304Y-20801000D01*
X62882167Y-20796555D01*
X62844671Y-20785180D01*
X62810112Y-20766708D01*
X62779819Y-20741847D01*
X62754958Y-20711554D01*
X62736486Y-20676995D01*
X62725111Y-20639499D01*
X62720666Y-20594362D01*
X62720666Y-19855638D01*
X62725111Y-19810501D01*
X62736486Y-19773005D01*
X62754958Y-19738446D01*
X62779819Y-19708153D01*
X62810112Y-19683292D01*
X62844671Y-19664820D01*
X62882167Y-19653445D01*
X62927304Y-19649000D01*
X63566028Y-19649000D01*
X63611165Y-19653445D01*
G37*
G36*
X86083512Y-18353927D02*
G01*
X86232812Y-18383624D01*
X86396784Y-18451544D01*
X86544354Y-18550147D01*
X86669853Y-18675646D01*
X86768456Y-18823216D01*
X86836376Y-18987188D01*
X86871000Y-19161259D01*
X86871000Y-19338741D01*
X86836376Y-19512812D01*
X86768456Y-19676784D01*
X86669853Y-19824354D01*
X86544354Y-19949853D01*
X86396784Y-20048456D01*
X86232812Y-20116376D01*
X86083512Y-20146073D01*
X86058742Y-20151000D01*
X85881258Y-20151000D01*
X85856488Y-20146073D01*
X85707188Y-20116376D01*
X85543216Y-20048456D01*
X85395646Y-19949853D01*
X85270147Y-19824354D01*
X85171544Y-19676784D01*
X85103624Y-19512812D01*
X85069000Y-19338741D01*
X85069000Y-19161259D01*
X85103624Y-18987188D01*
X85171544Y-18823216D01*
X85270147Y-18675646D01*
X85395646Y-18550147D01*
X85543216Y-18451544D01*
X85707188Y-18383624D01*
X85856488Y-18353927D01*
X85881258Y-18349000D01*
X86058742Y-18349000D01*
X86083512Y-18353927D01*
G37*
G36*
X83543512Y-18353927D02*
G01*
X83692812Y-18383624D01*
X83856784Y-18451544D01*
X84004354Y-18550147D01*
X84129853Y-18675646D01*
X84228456Y-18823216D01*
X84296376Y-18987188D01*
X84331000Y-19161259D01*
X84331000Y-19338741D01*
X84296376Y-19512812D01*
X84228456Y-19676784D01*
X84129853Y-19824354D01*
X84004354Y-19949853D01*
X83856784Y-20048456D01*
X83692812Y-20116376D01*
X83543512Y-20146073D01*
X83518742Y-20151000D01*
X83341258Y-20151000D01*
X83316488Y-20146073D01*
X83167188Y-20116376D01*
X83003216Y-20048456D01*
X82855646Y-19949853D01*
X82730147Y-19824354D01*
X82631544Y-19676784D01*
X82563624Y-19512812D01*
X82529000Y-19338741D01*
X82529000Y-19161259D01*
X82563624Y-18987188D01*
X82631544Y-18823216D01*
X82730147Y-18675646D01*
X82855646Y-18550147D01*
X83003216Y-18451544D01*
X83167188Y-18383624D01*
X83316488Y-18353927D01*
X83341258Y-18349000D01*
X83518742Y-18349000D01*
X83543512Y-18353927D01*
G37*
G36*
X6393512Y-18353927D02*
G01*
X6542812Y-18383624D01*
X6706784Y-18451544D01*
X6854354Y-18550147D01*
X6979853Y-18675646D01*
X7078456Y-18823216D01*
X7146376Y-18987188D01*
X7181000Y-19161259D01*
X7181000Y-19338741D01*
X7146376Y-19512812D01*
X7078456Y-19676784D01*
X6979853Y-19824354D01*
X6854354Y-19949853D01*
X6706784Y-20048456D01*
X6542812Y-20116376D01*
X6393512Y-20146073D01*
X6368742Y-20151000D01*
X6191258Y-20151000D01*
X6166488Y-20146073D01*
X6017188Y-20116376D01*
X5853216Y-20048456D01*
X5705646Y-19949853D01*
X5580147Y-19824354D01*
X5481544Y-19676784D01*
X5413624Y-19512812D01*
X5379000Y-19338741D01*
X5379000Y-19161259D01*
X5413624Y-18987188D01*
X5481544Y-18823216D01*
X5580147Y-18675646D01*
X5705646Y-18550147D01*
X5853216Y-18451544D01*
X6017188Y-18383624D01*
X6166488Y-18353927D01*
X6191258Y-18349000D01*
X6368742Y-18349000D01*
X6393512Y-18353927D01*
G37*
G36*
X3853512Y-18353927D02*
G01*
X4002812Y-18383624D01*
X4166784Y-18451544D01*
X4314354Y-18550147D01*
X4439853Y-18675646D01*
X4538456Y-18823216D01*
X4606376Y-18987188D01*
X4641000Y-19161259D01*
X4641000Y-19338741D01*
X4606376Y-19512812D01*
X4538456Y-19676784D01*
X4439853Y-19824354D01*
X4314354Y-19949853D01*
X4166784Y-20048456D01*
X4002812Y-20116376D01*
X3853512Y-20146073D01*
X3828742Y-20151000D01*
X3651258Y-20151000D01*
X3626488Y-20146073D01*
X3477188Y-20116376D01*
X3313216Y-20048456D01*
X3165646Y-19949853D01*
X3040147Y-19824354D01*
X2941544Y-19676784D01*
X2873624Y-19512812D01*
X2839000Y-19338741D01*
X2839000Y-19161259D01*
X2873624Y-18987188D01*
X2941544Y-18823216D01*
X3040147Y-18675646D01*
X3165646Y-18550147D01*
X3313216Y-18451544D01*
X3477188Y-18383624D01*
X3626488Y-18353927D01*
X3651258Y-18349000D01*
X3828742Y-18349000D01*
X3853512Y-18353927D01*
G37*
G36*
X9739499Y-18608445D02*
G01*
X9776995Y-18619820D01*
X9811554Y-18638292D01*
X9841847Y-18663153D01*
X9866708Y-18693446D01*
X9885180Y-18728005D01*
X9896555Y-18765501D01*
X9901000Y-18810638D01*
X9901000Y-19449362D01*
X9896555Y-19494499D01*
X9885180Y-19531995D01*
X9866708Y-19566554D01*
X9841847Y-19596847D01*
X9811554Y-19621708D01*
X9776995Y-19640180D01*
X9739499Y-19651555D01*
X9694362Y-19656000D01*
X8955638Y-19656000D01*
X8910501Y-19651555D01*
X8873005Y-19640180D01*
X8838446Y-19621708D01*
X8808153Y-19596847D01*
X8783292Y-19566554D01*
X8764820Y-19531995D01*
X8753445Y-19494499D01*
X8749000Y-19449362D01*
X8749000Y-18810638D01*
X8753445Y-18765501D01*
X8764820Y-18728005D01*
X8783292Y-18693446D01*
X8808153Y-18663153D01*
X8838446Y-18638292D01*
X8873005Y-18619820D01*
X8910501Y-18608445D01*
X8955638Y-18604000D01*
X9694362Y-18604000D01*
X9739499Y-18608445D01*
G37*
G36*
X11489499Y-18608445D02*
G01*
X11526995Y-18619820D01*
X11561554Y-18638292D01*
X11591847Y-18663153D01*
X11616708Y-18693446D01*
X11635180Y-18728005D01*
X11646555Y-18765501D01*
X11651000Y-18810638D01*
X11651000Y-19449362D01*
X11646555Y-19494499D01*
X11635180Y-19531995D01*
X11616708Y-19566554D01*
X11591847Y-19596847D01*
X11561554Y-19621708D01*
X11526995Y-19640180D01*
X11489499Y-19651555D01*
X11444362Y-19656000D01*
X10705638Y-19656000D01*
X10660501Y-19651555D01*
X10623005Y-19640180D01*
X10588446Y-19621708D01*
X10558153Y-19596847D01*
X10533292Y-19566554D01*
X10514820Y-19531995D01*
X10503445Y-19494499D01*
X10499000Y-19449362D01*
X10499000Y-18810638D01*
X10503445Y-18765501D01*
X10514820Y-18728005D01*
X10533292Y-18693446D01*
X10558153Y-18663153D01*
X10588446Y-18638292D01*
X10623005Y-18619820D01*
X10660501Y-18608445D01*
X10705638Y-18604000D01*
X11444362Y-18604000D01*
X11489499Y-18608445D01*
G37*
G36*
X9379499Y-17048445D02*
G01*
X9416995Y-17059820D01*
X9451554Y-17078292D01*
X9481847Y-17103153D01*
X9506708Y-17133446D01*
X9525180Y-17168005D01*
X9536555Y-17205501D01*
X9541000Y-17250638D01*
X9541000Y-17889362D01*
X9536555Y-17934499D01*
X9525180Y-17971995D01*
X9506708Y-18006554D01*
X9481847Y-18036847D01*
X9451554Y-18061708D01*
X9416995Y-18080180D01*
X9379499Y-18091555D01*
X9334362Y-18096000D01*
X8595638Y-18096000D01*
X8550501Y-18091555D01*
X8513005Y-18080180D01*
X8478446Y-18061708D01*
X8448153Y-18036847D01*
X8423292Y-18006554D01*
X8404820Y-17971995D01*
X8393445Y-17934499D01*
X8389000Y-17889362D01*
X8389000Y-17250638D01*
X8393445Y-17205501D01*
X8404820Y-17168005D01*
X8423292Y-17133446D01*
X8448153Y-17103153D01*
X8478446Y-17078292D01*
X8513005Y-17059820D01*
X8550501Y-17048445D01*
X8595638Y-17044000D01*
X9334362Y-17044000D01*
X9379499Y-17048445D01*
G37*
G36*
X11129499Y-17048445D02*
G01*
X11166995Y-17059820D01*
X11201554Y-17078292D01*
X11231847Y-17103153D01*
X11256708Y-17133446D01*
X11275180Y-17168005D01*
X11286555Y-17205501D01*
X11291000Y-17250638D01*
X11291000Y-17889362D01*
X11286555Y-17934499D01*
X11275180Y-17971995D01*
X11256708Y-18006554D01*
X11231847Y-18036847D01*
X11201554Y-18061708D01*
X11166995Y-18080180D01*
X11129499Y-18091555D01*
X11084362Y-18096000D01*
X10345638Y-18096000D01*
X10300501Y-18091555D01*
X10263005Y-18080180D01*
X10228446Y-18061708D01*
X10198153Y-18036847D01*
X10173292Y-18006554D01*
X10154820Y-17971995D01*
X10143445Y-17934499D01*
X10139000Y-17889362D01*
X10139000Y-17250638D01*
X10143445Y-17205501D01*
X10154820Y-17168005D01*
X10173292Y-17133446D01*
X10198153Y-17103153D01*
X10228446Y-17078292D01*
X10263005Y-17059820D01*
X10300501Y-17048445D01*
X10345638Y-17044000D01*
X11084362Y-17044000D01*
X11129499Y-17048445D01*
G37*
G36*
X3853512Y-15813927D02*
G01*
X4002812Y-15843624D01*
X4166784Y-15911544D01*
X4314354Y-16010147D01*
X4439853Y-16135646D01*
X4538456Y-16283216D01*
X4606376Y-16447188D01*
X4641000Y-16621259D01*
X4641000Y-16798741D01*
X4606376Y-16972812D01*
X4538456Y-17136784D01*
X4439853Y-17284354D01*
X4314354Y-17409853D01*
X4166784Y-17508456D01*
X4002812Y-17576376D01*
X3853512Y-17606073D01*
X3828742Y-17611000D01*
X3651258Y-17611000D01*
X3626488Y-17606073D01*
X3477188Y-17576376D01*
X3313216Y-17508456D01*
X3165646Y-17409853D01*
X3040147Y-17284354D01*
X2941544Y-17136784D01*
X2873624Y-16972812D01*
X2839000Y-16798741D01*
X2839000Y-16621259D01*
X2873624Y-16447188D01*
X2941544Y-16283216D01*
X3040147Y-16135646D01*
X3165646Y-16010147D01*
X3313216Y-15911544D01*
X3477188Y-15843624D01*
X3626488Y-15813927D01*
X3651258Y-15809000D01*
X3828742Y-15809000D01*
X3853512Y-15813927D01*
G37*
G36*
X83543512Y-15813927D02*
G01*
X83692812Y-15843624D01*
X83856784Y-15911544D01*
X84004354Y-16010147D01*
X84129853Y-16135646D01*
X84228456Y-16283216D01*
X84296376Y-16447188D01*
X84331000Y-16621259D01*
X84331000Y-16798741D01*
X84296376Y-16972812D01*
X84228456Y-17136784D01*
X84129853Y-17284354D01*
X84004354Y-17409853D01*
X83856784Y-17508456D01*
X83692812Y-17576376D01*
X83543512Y-17606073D01*
X83518742Y-17611000D01*
X83341258Y-17611000D01*
X83316488Y-17606073D01*
X83167188Y-17576376D01*
X83003216Y-17508456D01*
X82855646Y-17409853D01*
X82730147Y-17284354D01*
X82631544Y-17136784D01*
X82563624Y-16972812D01*
X82529000Y-16798741D01*
X82529000Y-16621259D01*
X82563624Y-16447188D01*
X82631544Y-16283216D01*
X82730147Y-16135646D01*
X82855646Y-16010147D01*
X83003216Y-15911544D01*
X83167188Y-15843624D01*
X83316488Y-15813927D01*
X83341258Y-15809000D01*
X83518742Y-15809000D01*
X83543512Y-15813927D01*
G37*
G36*
X6393512Y-15813927D02*
G01*
X6542812Y-15843624D01*
X6706784Y-15911544D01*
X6854354Y-16010147D01*
X6979853Y-16135646D01*
X7078456Y-16283216D01*
X7146376Y-16447188D01*
X7181000Y-16621259D01*
X7181000Y-16798741D01*
X7146376Y-16972812D01*
X7078456Y-17136784D01*
X6979853Y-17284354D01*
X6854354Y-17409853D01*
X6706784Y-17508456D01*
X6542812Y-17576376D01*
X6393512Y-17606073D01*
X6368742Y-17611000D01*
X6191258Y-17611000D01*
X6166488Y-17606073D01*
X6017188Y-17576376D01*
X5853216Y-17508456D01*
X5705646Y-17409853D01*
X5580147Y-17284354D01*
X5481544Y-17136784D01*
X5413624Y-16972812D01*
X5379000Y-16798741D01*
X5379000Y-16621259D01*
X5413624Y-16447188D01*
X5481544Y-16283216D01*
X5580147Y-16135646D01*
X5705646Y-16010147D01*
X5853216Y-15911544D01*
X6017188Y-15843624D01*
X6166488Y-15813927D01*
X6191258Y-15809000D01*
X6368742Y-15809000D01*
X6393512Y-15813927D01*
G37*
G36*
X86083512Y-15813927D02*
G01*
X86232812Y-15843624D01*
X86396784Y-15911544D01*
X86544354Y-16010147D01*
X86669853Y-16135646D01*
X86768456Y-16283216D01*
X86836376Y-16447188D01*
X86871000Y-16621259D01*
X86871000Y-16798741D01*
X86836376Y-16972812D01*
X86768456Y-17136784D01*
X86669853Y-17284354D01*
X86544354Y-17409853D01*
X86396784Y-17508456D01*
X86232812Y-17576376D01*
X86083512Y-17606073D01*
X86058742Y-17611000D01*
X85881258Y-17611000D01*
X85856488Y-17606073D01*
X85707188Y-17576376D01*
X85543216Y-17508456D01*
X85395646Y-17409853D01*
X85270147Y-17284354D01*
X85171544Y-17136784D01*
X85103624Y-16972812D01*
X85069000Y-16798741D01*
X85069000Y-16621259D01*
X85103624Y-16447188D01*
X85171544Y-16283216D01*
X85270147Y-16135646D01*
X85395646Y-16010147D01*
X85543216Y-15911544D01*
X85707188Y-15843624D01*
X85856488Y-15813927D01*
X85881258Y-15809000D01*
X86058742Y-15809000D01*
X86083512Y-15813927D01*
G37*
G36*
X11119499Y-15528445D02*
G01*
X11156995Y-15539820D01*
X11191554Y-15558292D01*
X11221847Y-15583153D01*
X11246708Y-15613446D01*
X11265180Y-15648005D01*
X11276555Y-15685501D01*
X11281000Y-15730638D01*
X11281000Y-16369362D01*
X11276555Y-16414499D01*
X11265180Y-16451995D01*
X11246708Y-16486554D01*
X11221847Y-16516847D01*
X11191554Y-16541708D01*
X11156995Y-16560180D01*
X11119499Y-16571555D01*
X11074362Y-16576000D01*
X10335638Y-16576000D01*
X10290501Y-16571555D01*
X10253005Y-16560180D01*
X10218446Y-16541708D01*
X10188153Y-16516847D01*
X10163292Y-16486554D01*
X10144820Y-16451995D01*
X10133445Y-16414499D01*
X10129000Y-16369362D01*
X10129000Y-15730638D01*
X10133445Y-15685501D01*
X10144820Y-15648005D01*
X10163292Y-15613446D01*
X10188153Y-15583153D01*
X10218446Y-15558292D01*
X10253005Y-15539820D01*
X10290501Y-15528445D01*
X10335638Y-15524000D01*
X11074362Y-15524000D01*
X11119499Y-15528445D01*
G37*
G36*
X9369499Y-15528445D02*
G01*
X9406995Y-15539820D01*
X9441554Y-15558292D01*
X9471847Y-15583153D01*
X9496708Y-15613446D01*
X9515180Y-15648005D01*
X9526555Y-15685501D01*
X9531000Y-15730638D01*
X9531000Y-16369362D01*
X9526555Y-16414499D01*
X9515180Y-16451995D01*
X9496708Y-16486554D01*
X9471847Y-16516847D01*
X9441554Y-16541708D01*
X9406995Y-16560180D01*
X9369499Y-16571555D01*
X9324362Y-16576000D01*
X8585638Y-16576000D01*
X8540501Y-16571555D01*
X8503005Y-16560180D01*
X8468446Y-16541708D01*
X8438153Y-16516847D01*
X8413292Y-16486554D01*
X8394820Y-16451995D01*
X8383445Y-16414499D01*
X8379000Y-16369362D01*
X8379000Y-15730638D01*
X8383445Y-15685501D01*
X8394820Y-15648005D01*
X8413292Y-15613446D01*
X8438153Y-15583153D01*
X8468446Y-15558292D01*
X8503005Y-15539820D01*
X8540501Y-15528445D01*
X8585638Y-15524000D01*
X9324362Y-15524000D01*
X9369499Y-15528445D01*
G37*
G36*
X11139499Y-14058445D02*
G01*
X11176995Y-14069820D01*
X11211554Y-14088292D01*
X11241847Y-14113153D01*
X11266708Y-14143446D01*
X11285180Y-14178005D01*
X11296555Y-14215501D01*
X11301000Y-14260638D01*
X11301000Y-14899362D01*
X11296555Y-14944499D01*
X11285180Y-14981995D01*
X11266708Y-15016554D01*
X11241847Y-15046847D01*
X11211554Y-15071708D01*
X11176995Y-15090180D01*
X11139499Y-15101555D01*
X11094362Y-15106000D01*
X10355638Y-15106000D01*
X10310501Y-15101555D01*
X10273005Y-15090180D01*
X10238446Y-15071708D01*
X10208153Y-15046847D01*
X10183292Y-15016554D01*
X10164820Y-14981995D01*
X10153445Y-14944499D01*
X10149000Y-14899362D01*
X10149000Y-14260638D01*
X10153445Y-14215501D01*
X10164820Y-14178005D01*
X10183292Y-14143446D01*
X10208153Y-14113153D01*
X10238446Y-14088292D01*
X10273005Y-14069820D01*
X10310501Y-14058445D01*
X10355638Y-14054000D01*
X11094362Y-14054000D01*
X11139499Y-14058445D01*
G37*
G36*
X9389499Y-14058445D02*
G01*
X9426995Y-14069820D01*
X9461554Y-14088292D01*
X9491847Y-14113153D01*
X9516708Y-14143446D01*
X9535180Y-14178005D01*
X9546555Y-14215501D01*
X9551000Y-14260638D01*
X9551000Y-14899362D01*
X9546555Y-14944499D01*
X9535180Y-14981995D01*
X9516708Y-15016554D01*
X9491847Y-15046847D01*
X9461554Y-15071708D01*
X9426995Y-15090180D01*
X9389499Y-15101555D01*
X9344362Y-15106000D01*
X8605638Y-15106000D01*
X8560501Y-15101555D01*
X8523005Y-15090180D01*
X8488446Y-15071708D01*
X8458153Y-15046847D01*
X8433292Y-15016554D01*
X8414820Y-14981995D01*
X8403445Y-14944499D01*
X8399000Y-14899362D01*
X8399000Y-14260638D01*
X8403445Y-14215501D01*
X8414820Y-14178005D01*
X8433292Y-14143446D01*
X8458153Y-14113153D01*
X8488446Y-14088292D01*
X8523005Y-14069820D01*
X8560501Y-14058445D01*
X8605638Y-14054000D01*
X9344362Y-14054000D01*
X9389499Y-14058445D01*
G37*
G36*
X83543512Y-13273927D02*
G01*
X83692812Y-13303624D01*
X83856784Y-13371544D01*
X84004354Y-13470147D01*
X84129853Y-13595646D01*
X84228456Y-13743216D01*
X84296376Y-13907188D01*
X84331000Y-14081259D01*
X84331000Y-14258741D01*
X84296376Y-14432812D01*
X84228456Y-14596784D01*
X84129853Y-14744354D01*
X84004354Y-14869853D01*
X83856784Y-14968456D01*
X83692812Y-15036376D01*
X83543512Y-15066073D01*
X83518742Y-15071000D01*
X83341258Y-15071000D01*
X83316488Y-15066073D01*
X83167188Y-15036376D01*
X83003216Y-14968456D01*
X82855646Y-14869853D01*
X82730147Y-14744354D01*
X82631544Y-14596784D01*
X82563624Y-14432812D01*
X82529000Y-14258741D01*
X82529000Y-14081259D01*
X82563624Y-13907188D01*
X82631544Y-13743216D01*
X82730147Y-13595646D01*
X82855646Y-13470147D01*
X83003216Y-13371544D01*
X83167188Y-13303624D01*
X83316488Y-13273927D01*
X83341258Y-13269000D01*
X83518742Y-13269000D01*
X83543512Y-13273927D01*
G37*
G36*
X6393512Y-13273927D02*
G01*
X6542812Y-13303624D01*
X6706784Y-13371544D01*
X6854354Y-13470147D01*
X6979853Y-13595646D01*
X7078456Y-13743216D01*
X7146376Y-13907188D01*
X7181000Y-14081259D01*
X7181000Y-14258741D01*
X7146376Y-14432812D01*
X7078456Y-14596784D01*
X6979853Y-14744354D01*
X6854354Y-14869853D01*
X6706784Y-14968456D01*
X6542812Y-15036376D01*
X6393512Y-15066073D01*
X6368742Y-15071000D01*
X6191258Y-15071000D01*
X6166488Y-15066073D01*
X6017188Y-15036376D01*
X5853216Y-14968456D01*
X5705646Y-14869853D01*
X5580147Y-14744354D01*
X5481544Y-14596784D01*
X5413624Y-14432812D01*
X5379000Y-14258741D01*
X5379000Y-14081259D01*
X5413624Y-13907188D01*
X5481544Y-13743216D01*
X5580147Y-13595646D01*
X5705646Y-13470147D01*
X5853216Y-13371544D01*
X6017188Y-13303624D01*
X6166488Y-13273927D01*
X6191258Y-13269000D01*
X6368742Y-13269000D01*
X6393512Y-13273927D01*
G37*
G36*
X3853512Y-13273927D02*
G01*
X4002812Y-13303624D01*
X4166784Y-13371544D01*
X4314354Y-13470147D01*
X4439853Y-13595646D01*
X4538456Y-13743216D01*
X4606376Y-13907188D01*
X4641000Y-14081259D01*
X4641000Y-14258741D01*
X4606376Y-14432812D01*
X4538456Y-14596784D01*
X4439853Y-14744354D01*
X4314354Y-14869853D01*
X4166784Y-14968456D01*
X4002812Y-15036376D01*
X3853512Y-15066073D01*
X3828742Y-15071000D01*
X3651258Y-15071000D01*
X3626488Y-15066073D01*
X3477188Y-15036376D01*
X3313216Y-14968456D01*
X3165646Y-14869853D01*
X3040147Y-14744354D01*
X2941544Y-14596784D01*
X2873624Y-14432812D01*
X2839000Y-14258741D01*
X2839000Y-14081259D01*
X2873624Y-13907188D01*
X2941544Y-13743216D01*
X3040147Y-13595646D01*
X3165646Y-13470147D01*
X3313216Y-13371544D01*
X3477188Y-13303624D01*
X3626488Y-13273927D01*
X3651258Y-13269000D01*
X3828742Y-13269000D01*
X3853512Y-13273927D01*
G37*
G36*
X86083512Y-13273927D02*
G01*
X86232812Y-13303624D01*
X86396784Y-13371544D01*
X86544354Y-13470147D01*
X86669853Y-13595646D01*
X86768456Y-13743216D01*
X86836376Y-13907188D01*
X86871000Y-14081259D01*
X86871000Y-14258741D01*
X86836376Y-14432812D01*
X86768456Y-14596784D01*
X86669853Y-14744354D01*
X86544354Y-14869853D01*
X86396784Y-14968456D01*
X86232812Y-15036376D01*
X86083512Y-15066073D01*
X86058742Y-15071000D01*
X85881258Y-15071000D01*
X85856488Y-15066073D01*
X85707188Y-15036376D01*
X85543216Y-14968456D01*
X85395646Y-14869853D01*
X85270147Y-14744354D01*
X85171544Y-14596784D01*
X85103624Y-14432812D01*
X85069000Y-14258741D01*
X85069000Y-14081259D01*
X85103624Y-13907188D01*
X85171544Y-13743216D01*
X85270147Y-13595646D01*
X85395646Y-13470147D01*
X85543216Y-13371544D01*
X85707188Y-13303624D01*
X85856488Y-13273927D01*
X85881258Y-13269000D01*
X86058742Y-13269000D01*
X86083512Y-13273927D01*
G37*
G36*
X13444499Y-12463445D02*
G01*
X13481995Y-12474820D01*
X13516554Y-12493292D01*
X13546847Y-12518153D01*
X13571708Y-12548446D01*
X13590180Y-12583005D01*
X13601555Y-12620501D01*
X13606000Y-12665638D01*
X13606000Y-13404362D01*
X13601555Y-13449499D01*
X13590180Y-13486995D01*
X13571708Y-13521554D01*
X13546847Y-13551847D01*
X13516554Y-13576708D01*
X13481995Y-13595180D01*
X13444499Y-13606555D01*
X13399362Y-13611000D01*
X12760638Y-13611000D01*
X12715501Y-13606555D01*
X12678005Y-13595180D01*
X12643446Y-13576708D01*
X12613153Y-13551847D01*
X12588292Y-13521554D01*
X12569820Y-13486995D01*
X12558445Y-13449499D01*
X12554000Y-13404362D01*
X12554000Y-12665638D01*
X12558445Y-12620501D01*
X12569820Y-12583005D01*
X12588292Y-12548446D01*
X12613153Y-12518153D01*
X12643446Y-12493292D01*
X12678005Y-12474820D01*
X12715501Y-12463445D01*
X12760638Y-12459000D01*
X13399362Y-12459000D01*
X13444499Y-12463445D01*
G37*
G36*
X10920099Y-12443845D02*
G01*
X10957595Y-12455220D01*
X10992154Y-12473692D01*
X11022447Y-12498553D01*
X11047308Y-12528846D01*
X11065780Y-12563405D01*
X11077155Y-12600901D01*
X11081600Y-12646038D01*
X11081600Y-13384762D01*
X11077155Y-13429899D01*
X11065780Y-13467395D01*
X11047308Y-13501954D01*
X11022447Y-13532247D01*
X10992154Y-13557108D01*
X10957595Y-13575580D01*
X10920099Y-13586955D01*
X10874962Y-13591400D01*
X10236238Y-13591400D01*
X10191101Y-13586955D01*
X10153605Y-13575580D01*
X10119046Y-13557108D01*
X10088753Y-13532247D01*
X10063892Y-13501954D01*
X10045420Y-13467395D01*
X10034045Y-13429899D01*
X10029600Y-13384762D01*
X10029600Y-12646038D01*
X10034045Y-12600901D01*
X10045420Y-12563405D01*
X10063892Y-12528846D01*
X10088753Y-12498553D01*
X10119046Y-12473692D01*
X10153605Y-12455220D01*
X10191101Y-12443845D01*
X10236238Y-12439400D01*
X10874962Y-12439400D01*
X10920099Y-12443845D01*
G37*
G36*
X9420099Y-12443845D02*
G01*
X9457595Y-12455220D01*
X9492154Y-12473692D01*
X9522447Y-12498553D01*
X9547308Y-12528846D01*
X9565780Y-12563405D01*
X9577155Y-12600901D01*
X9581600Y-12646038D01*
X9581600Y-13384762D01*
X9577155Y-13429899D01*
X9565780Y-13467395D01*
X9547308Y-13501954D01*
X9522447Y-13532247D01*
X9492154Y-13557108D01*
X9457595Y-13575580D01*
X9420099Y-13586955D01*
X9374962Y-13591400D01*
X8736238Y-13591400D01*
X8691101Y-13586955D01*
X8653605Y-13575580D01*
X8619046Y-13557108D01*
X8588753Y-13532247D01*
X8563892Y-13501954D01*
X8545420Y-13467395D01*
X8534045Y-13429899D01*
X8529600Y-13384762D01*
X8529600Y-12646038D01*
X8534045Y-12600901D01*
X8545420Y-12563405D01*
X8563892Y-12528846D01*
X8588753Y-12498553D01*
X8619046Y-12473692D01*
X8653605Y-12455220D01*
X8691101Y-12443845D01*
X8736238Y-12439400D01*
X9374962Y-12439400D01*
X9420099Y-12443845D01*
G37*
G36*
X40778288Y-9473969D02*
G01*
X40952410Y-9508604D01*
X41234674Y-9625521D01*
X41488705Y-9795259D01*
X41704741Y-10011295D01*
X41874479Y-10265326D01*
X41991396Y-10547590D01*
X41991396Y-10547591D01*
X42048169Y-10833005D01*
X42051000Y-10847240D01*
X42051000Y-11152760D01*
X41991396Y-11452410D01*
X41874479Y-11734674D01*
X41704741Y-11988705D01*
X41488705Y-12204741D01*
X41234674Y-12374479D01*
X40952410Y-12491396D01*
X40826550Y-12516431D01*
X40652761Y-12551000D01*
X40347239Y-12551000D01*
X40173450Y-12516431D01*
X40047590Y-12491396D01*
X39765326Y-12374479D01*
X39511295Y-12204741D01*
X39295259Y-11988705D01*
X39125521Y-11734674D01*
X39008604Y-11452410D01*
X38949000Y-11152760D01*
X38949000Y-10847240D01*
X38951832Y-10833005D01*
X39008604Y-10547591D01*
X39008604Y-10547590D01*
X39125521Y-10265326D01*
X39295259Y-10011295D01*
X39511295Y-9795259D01*
X39765326Y-9625521D01*
X40047590Y-9508604D01*
X40221712Y-9473969D01*
X40347239Y-9449000D01*
X40652761Y-9449000D01*
X40778288Y-9473969D01*
G37*
G36*
X23278288Y-9473969D02*
G01*
X23452410Y-9508604D01*
X23734674Y-9625521D01*
X23988705Y-9795259D01*
X24204741Y-10011295D01*
X24374479Y-10265326D01*
X24491396Y-10547590D01*
X24491396Y-10547591D01*
X24548169Y-10833005D01*
X24551000Y-10847240D01*
X24551000Y-11152760D01*
X24491396Y-11452410D01*
X24374479Y-11734674D01*
X24204741Y-11988705D01*
X23988705Y-12204741D01*
X23734674Y-12374479D01*
X23452410Y-12491396D01*
X23326550Y-12516431D01*
X23152761Y-12551000D01*
X22847239Y-12551000D01*
X22673450Y-12516431D01*
X22547590Y-12491396D01*
X22265326Y-12374479D01*
X22011295Y-12204741D01*
X21795259Y-11988705D01*
X21625521Y-11734674D01*
X21508604Y-11452410D01*
X21449000Y-11152760D01*
X21449000Y-10847240D01*
X21451832Y-10833005D01*
X21508604Y-10547591D01*
X21508604Y-10547590D01*
X21625521Y-10265326D01*
X21795259Y-10011295D01*
X22011295Y-9795259D01*
X22265326Y-9625521D01*
X22547590Y-9508604D01*
X22721712Y-9473969D01*
X22847239Y-9449000D01*
X23152761Y-9449000D01*
X23278288Y-9473969D01*
G37*
G36*
X58278288Y-9473969D02*
G01*
X58452410Y-9508604D01*
X58734674Y-9625521D01*
X58988705Y-9795259D01*
X59204741Y-10011295D01*
X59374479Y-10265326D01*
X59491396Y-10547590D01*
X59491396Y-10547591D01*
X59548169Y-10833005D01*
X59551000Y-10847240D01*
X59551000Y-11152760D01*
X59491396Y-11452410D01*
X59374479Y-11734674D01*
X59204741Y-11988705D01*
X58988705Y-12204741D01*
X58734674Y-12374479D01*
X58452410Y-12491396D01*
X58326550Y-12516431D01*
X58152761Y-12551000D01*
X57847239Y-12551000D01*
X57673450Y-12516431D01*
X57547590Y-12491396D01*
X57265326Y-12374479D01*
X57011295Y-12204741D01*
X56795259Y-11988705D01*
X56625521Y-11734674D01*
X56508604Y-11452410D01*
X56449000Y-11152760D01*
X56449000Y-10847240D01*
X56451832Y-10833005D01*
X56508604Y-10547591D01*
X56508604Y-10547590D01*
X56625521Y-10265326D01*
X56795259Y-10011295D01*
X57011295Y-9795259D01*
X57265326Y-9625521D01*
X57547590Y-9508604D01*
X57721712Y-9473969D01*
X57847239Y-9449000D01*
X58152761Y-9449000D01*
X58278288Y-9473969D01*
G37*
G36*
X75778288Y-9473969D02*
G01*
X75952410Y-9508604D01*
X76234674Y-9625521D01*
X76488705Y-9795259D01*
X76704741Y-10011295D01*
X76874479Y-10265326D01*
X76991396Y-10547590D01*
X76991396Y-10547591D01*
X77048169Y-10833005D01*
X77051000Y-10847240D01*
X77051000Y-11152760D01*
X76991396Y-11452410D01*
X76874479Y-11734674D01*
X76704741Y-11988705D01*
X76488705Y-12204741D01*
X76234674Y-12374479D01*
X75952410Y-12491396D01*
X75826550Y-12516431D01*
X75652761Y-12551000D01*
X75347239Y-12551000D01*
X75173450Y-12516431D01*
X75047590Y-12491396D01*
X74765326Y-12374479D01*
X74511295Y-12204741D01*
X74295259Y-11988705D01*
X74125521Y-11734674D01*
X74008604Y-11452410D01*
X73949000Y-11152760D01*
X73949000Y-10847240D01*
X73951832Y-10833005D01*
X74008604Y-10547591D01*
X74008604Y-10547590D01*
X74125521Y-10265326D01*
X74295259Y-10011295D01*
X74511295Y-9795259D01*
X74765326Y-9625521D01*
X75047590Y-9508604D01*
X75221712Y-9473969D01*
X75347239Y-9449000D01*
X75652761Y-9449000D01*
X75778288Y-9473969D01*
G37*
G36*
X6392486Y-10733723D02*
G01*
X6542812Y-10763624D01*
X6706784Y-10831544D01*
X6854354Y-10930147D01*
X6979853Y-11055646D01*
X7078456Y-11203216D01*
X7146376Y-11367188D01*
X7181000Y-11541259D01*
X7181000Y-11718741D01*
X7146376Y-11892812D01*
X7078456Y-12056784D01*
X6979853Y-12204354D01*
X6854354Y-12329853D01*
X6706784Y-12428456D01*
X6542812Y-12496376D01*
X6393512Y-12526073D01*
X6368742Y-12531000D01*
X6191258Y-12531000D01*
X6166488Y-12526073D01*
X6017188Y-12496376D01*
X5853216Y-12428456D01*
X5705646Y-12329853D01*
X5580147Y-12204354D01*
X5481544Y-12056784D01*
X5413624Y-11892812D01*
X5379000Y-11718741D01*
X5379000Y-11541259D01*
X5413624Y-11367188D01*
X5481544Y-11203216D01*
X5580147Y-11055646D01*
X5705646Y-10930147D01*
X5853216Y-10831544D01*
X6017188Y-10763624D01*
X6167514Y-10733723D01*
X6191258Y-10729000D01*
X6368742Y-10729000D01*
X6392486Y-10733723D01*
G37*
G36*
X3852486Y-10733723D02*
G01*
X4002812Y-10763624D01*
X4166784Y-10831544D01*
X4314354Y-10930147D01*
X4439853Y-11055646D01*
X4538456Y-11203216D01*
X4606376Y-11367188D01*
X4641000Y-11541259D01*
X4641000Y-11718741D01*
X4606376Y-11892812D01*
X4538456Y-12056784D01*
X4439853Y-12204354D01*
X4314354Y-12329853D01*
X4166784Y-12428456D01*
X4002812Y-12496376D01*
X3853512Y-12526073D01*
X3828742Y-12531000D01*
X3651258Y-12531000D01*
X3626488Y-12526073D01*
X3477188Y-12496376D01*
X3313216Y-12428456D01*
X3165646Y-12329853D01*
X3040147Y-12204354D01*
X2941544Y-12056784D01*
X2873624Y-11892812D01*
X2839000Y-11718741D01*
X2839000Y-11541259D01*
X2873624Y-11367188D01*
X2941544Y-11203216D01*
X3040147Y-11055646D01*
X3165646Y-10930147D01*
X3313216Y-10831544D01*
X3477188Y-10763624D01*
X3627514Y-10733723D01*
X3651258Y-10729000D01*
X3828742Y-10729000D01*
X3852486Y-10733723D01*
G37*
G36*
X83542486Y-10733723D02*
G01*
X83692812Y-10763624D01*
X83856784Y-10831544D01*
X84004354Y-10930147D01*
X84129853Y-11055646D01*
X84228456Y-11203216D01*
X84296376Y-11367188D01*
X84331000Y-11541259D01*
X84331000Y-11718741D01*
X84296376Y-11892812D01*
X84228456Y-12056784D01*
X84129853Y-12204354D01*
X84004354Y-12329853D01*
X83856784Y-12428456D01*
X83692812Y-12496376D01*
X83543512Y-12526073D01*
X83518742Y-12531000D01*
X83341258Y-12531000D01*
X83316488Y-12526073D01*
X83167188Y-12496376D01*
X83003216Y-12428456D01*
X82855646Y-12329853D01*
X82730147Y-12204354D01*
X82631544Y-12056784D01*
X82563624Y-11892812D01*
X82529000Y-11718741D01*
X82529000Y-11541259D01*
X82563624Y-11367188D01*
X82631544Y-11203216D01*
X82730147Y-11055646D01*
X82855646Y-10930147D01*
X83003216Y-10831544D01*
X83167188Y-10763624D01*
X83317514Y-10733723D01*
X83341258Y-10729000D01*
X83518742Y-10729000D01*
X83542486Y-10733723D01*
G37*
G36*
X86082486Y-10733723D02*
G01*
X86232812Y-10763624D01*
X86396784Y-10831544D01*
X86544354Y-10930147D01*
X86669853Y-11055646D01*
X86768456Y-11203216D01*
X86836376Y-11367188D01*
X86871000Y-11541259D01*
X86871000Y-11718741D01*
X86836376Y-11892812D01*
X86768456Y-12056784D01*
X86669853Y-12204354D01*
X86544354Y-12329853D01*
X86396784Y-12428456D01*
X86232812Y-12496376D01*
X86083512Y-12526073D01*
X86058742Y-12531000D01*
X85881258Y-12531000D01*
X85856488Y-12526073D01*
X85707188Y-12496376D01*
X85543216Y-12428456D01*
X85395646Y-12329853D01*
X85270147Y-12204354D01*
X85171544Y-12056784D01*
X85103624Y-11892812D01*
X85069000Y-11718741D01*
X85069000Y-11541259D01*
X85103624Y-11367188D01*
X85171544Y-11203216D01*
X85270147Y-11055646D01*
X85395646Y-10930147D01*
X85543216Y-10831544D01*
X85707188Y-10763624D01*
X85857514Y-10733723D01*
X85881258Y-10729000D01*
X86058742Y-10729000D01*
X86082486Y-10733723D01*
G37*
G36*
X13444499Y-10713445D02*
G01*
X13481995Y-10724820D01*
X13516554Y-10743292D01*
X13546847Y-10768153D01*
X13571708Y-10798446D01*
X13590180Y-10833005D01*
X13601555Y-10870501D01*
X13606000Y-10915638D01*
X13606000Y-11654362D01*
X13601555Y-11699499D01*
X13590180Y-11736995D01*
X13571708Y-11771554D01*
X13546847Y-11801847D01*
X13516554Y-11826708D01*
X13481995Y-11845180D01*
X13444499Y-11856555D01*
X13399362Y-11861000D01*
X12760638Y-11861000D01*
X12715501Y-11856555D01*
X12678005Y-11845180D01*
X12643446Y-11826708D01*
X12613153Y-11801847D01*
X12588292Y-11771554D01*
X12569820Y-11736995D01*
X12558445Y-11699499D01*
X12554000Y-11654362D01*
X12554000Y-10915638D01*
X12558445Y-10870501D01*
X12569820Y-10833005D01*
X12588292Y-10798446D01*
X12613153Y-10768153D01*
X12643446Y-10743292D01*
X12678005Y-10724820D01*
X12715501Y-10713445D01*
X12760638Y-10709000D01*
X13399362Y-10709000D01*
X13444499Y-10713445D01*
G37*
G36*
X10920099Y-10693845D02*
G01*
X10957595Y-10705220D01*
X10992154Y-10723692D01*
X11022447Y-10748553D01*
X11047308Y-10778846D01*
X11065780Y-10813405D01*
X11077155Y-10850901D01*
X11081600Y-10896038D01*
X11081600Y-11634762D01*
X11077155Y-11679899D01*
X11065780Y-11717395D01*
X11047308Y-11751954D01*
X11022447Y-11782247D01*
X10992154Y-11807108D01*
X10957595Y-11825580D01*
X10920099Y-11836955D01*
X10874962Y-11841400D01*
X10236238Y-11841400D01*
X10191101Y-11836955D01*
X10153605Y-11825580D01*
X10119046Y-11807108D01*
X10088753Y-11782247D01*
X10063892Y-11751954D01*
X10045420Y-11717395D01*
X10034045Y-11679899D01*
X10029600Y-11634762D01*
X10029600Y-10896038D01*
X10034045Y-10850901D01*
X10045420Y-10813405D01*
X10063892Y-10778846D01*
X10088753Y-10748553D01*
X10119046Y-10723692D01*
X10153605Y-10705220D01*
X10191101Y-10693845D01*
X10236238Y-10689400D01*
X10874962Y-10689400D01*
X10920099Y-10693845D01*
G37*
G36*
X9420099Y-10693845D02*
G01*
X9457595Y-10705220D01*
X9492154Y-10723692D01*
X9522447Y-10748553D01*
X9547308Y-10778846D01*
X9565780Y-10813405D01*
X9577155Y-10850901D01*
X9581600Y-10896038D01*
X9581600Y-11634762D01*
X9577155Y-11679899D01*
X9565780Y-11717395D01*
X9547308Y-11751954D01*
X9522447Y-11782247D01*
X9492154Y-11807108D01*
X9457595Y-11825580D01*
X9420099Y-11836955D01*
X9374962Y-11841400D01*
X8736238Y-11841400D01*
X8691101Y-11836955D01*
X8653605Y-11825580D01*
X8619046Y-11807108D01*
X8588753Y-11782247D01*
X8563892Y-11751954D01*
X8545420Y-11717395D01*
X8534045Y-11679899D01*
X8529600Y-11634762D01*
X8529600Y-10896038D01*
X8534045Y-10850901D01*
X8545420Y-10813405D01*
X8563892Y-10778846D01*
X8588753Y-10748553D01*
X8619046Y-10723692D01*
X8653605Y-10705220D01*
X8691101Y-10693845D01*
X8736238Y-10689400D01*
X9374962Y-10689400D01*
X9420099Y-10693845D01*
G37*
G36*
X86083512Y-8193927D02*
G01*
X86232812Y-8223624D01*
X86396784Y-8291544D01*
X86544354Y-8390147D01*
X86669853Y-8515646D01*
X86768456Y-8663216D01*
X86836376Y-8827188D01*
X86871000Y-9001259D01*
X86871000Y-9178741D01*
X86836376Y-9352812D01*
X86768456Y-9516784D01*
X86669853Y-9664354D01*
X86544354Y-9789853D01*
X86396784Y-9888456D01*
X86232812Y-9956376D01*
X86083512Y-9986073D01*
X86058742Y-9991000D01*
X85881258Y-9991000D01*
X85856488Y-9986073D01*
X85707188Y-9956376D01*
X85543216Y-9888456D01*
X85395646Y-9789853D01*
X85270147Y-9664354D01*
X85171544Y-9516784D01*
X85103624Y-9352812D01*
X85069000Y-9178741D01*
X85069000Y-9001259D01*
X85103624Y-8827188D01*
X85171544Y-8663216D01*
X85270147Y-8515646D01*
X85395646Y-8390147D01*
X85543216Y-8291544D01*
X85707188Y-8223624D01*
X85856488Y-8193927D01*
X85881258Y-8189000D01*
X86058742Y-8189000D01*
X86083512Y-8193927D01*
G37*
G36*
X83543512Y-8193927D02*
G01*
X83692812Y-8223624D01*
X83856784Y-8291544D01*
X84004354Y-8390147D01*
X84129853Y-8515646D01*
X84228456Y-8663216D01*
X84296376Y-8827188D01*
X84331000Y-9001259D01*
X84331000Y-9178741D01*
X84296376Y-9352812D01*
X84228456Y-9516784D01*
X84129853Y-9664354D01*
X84004354Y-9789853D01*
X83856784Y-9888456D01*
X83692812Y-9956376D01*
X83543512Y-9986073D01*
X83518742Y-9991000D01*
X83341258Y-9991000D01*
X83316488Y-9986073D01*
X83167188Y-9956376D01*
X83003216Y-9888456D01*
X82855646Y-9789853D01*
X82730147Y-9664354D01*
X82631544Y-9516784D01*
X82563624Y-9352812D01*
X82529000Y-9178741D01*
X82529000Y-9001259D01*
X82563624Y-8827188D01*
X82631544Y-8663216D01*
X82730147Y-8515646D01*
X82855646Y-8390147D01*
X83003216Y-8291544D01*
X83167188Y-8223624D01*
X83316488Y-8193927D01*
X83341258Y-8189000D01*
X83518742Y-8189000D01*
X83543512Y-8193927D01*
G37*
G36*
X6393512Y-8193927D02*
G01*
X6542812Y-8223624D01*
X6706784Y-8291544D01*
X6854354Y-8390147D01*
X6979853Y-8515646D01*
X7078456Y-8663216D01*
X7146376Y-8827188D01*
X7181000Y-9001259D01*
X7181000Y-9178741D01*
X7146376Y-9352812D01*
X7078456Y-9516784D01*
X6979853Y-9664354D01*
X6854354Y-9789853D01*
X6706784Y-9888456D01*
X6542812Y-9956376D01*
X6393512Y-9986073D01*
X6368742Y-9991000D01*
X6191258Y-9991000D01*
X6166488Y-9986073D01*
X6017188Y-9956376D01*
X5853216Y-9888456D01*
X5705646Y-9789853D01*
X5580147Y-9664354D01*
X5481544Y-9516784D01*
X5413624Y-9352812D01*
X5379000Y-9178741D01*
X5379000Y-9001259D01*
X5413624Y-8827188D01*
X5481544Y-8663216D01*
X5580147Y-8515646D01*
X5705646Y-8390147D01*
X5853216Y-8291544D01*
X6017188Y-8223624D01*
X6166488Y-8193927D01*
X6191258Y-8189000D01*
X6368742Y-8189000D01*
X6393512Y-8193927D01*
G37*
G36*
X3853512Y-8193927D02*
G01*
X4002812Y-8223624D01*
X4166784Y-8291544D01*
X4314354Y-8390147D01*
X4439853Y-8515646D01*
X4538456Y-8663216D01*
X4606376Y-8827188D01*
X4641000Y-9001259D01*
X4641000Y-9178741D01*
X4606376Y-9352812D01*
X4538456Y-9516784D01*
X4439853Y-9664354D01*
X4314354Y-9789853D01*
X4166784Y-9888456D01*
X4002812Y-9956376D01*
X3853512Y-9986073D01*
X3828742Y-9991000D01*
X3651258Y-9991000D01*
X3626488Y-9986073D01*
X3477188Y-9956376D01*
X3313216Y-9888456D01*
X3165646Y-9789853D01*
X3040147Y-9664354D01*
X2941544Y-9516784D01*
X2873624Y-9352812D01*
X2839000Y-9178741D01*
X2839000Y-9001259D01*
X2873624Y-8827188D01*
X2941544Y-8663216D01*
X3040147Y-8515646D01*
X3165646Y-8390147D01*
X3313216Y-8291544D01*
X3477188Y-8223624D01*
X3626488Y-8193927D01*
X3651258Y-8189000D01*
X3828742Y-8189000D01*
X3853512Y-8193927D01*
G37*
G36*
X28304499Y-8558445D02*
G01*
X28341995Y-8569820D01*
X28376554Y-8588292D01*
X28406847Y-8613153D01*
X28431708Y-8643446D01*
X28450180Y-8678005D01*
X28461555Y-8715501D01*
X28466000Y-8760638D01*
X28466000Y-9499362D01*
X28461555Y-9544499D01*
X28450180Y-9581995D01*
X28431708Y-9616554D01*
X28406847Y-9646847D01*
X28376554Y-9671708D01*
X28341995Y-9690180D01*
X28304499Y-9701555D01*
X28259362Y-9706000D01*
X27620638Y-9706000D01*
X27575501Y-9701555D01*
X27538005Y-9690180D01*
X27503446Y-9671708D01*
X27473153Y-9646847D01*
X27448292Y-9616554D01*
X27429820Y-9581995D01*
X27418445Y-9544499D01*
X27414000Y-9499362D01*
X27414000Y-8760638D01*
X27418445Y-8715501D01*
X27429820Y-8678005D01*
X27448292Y-8643446D01*
X27473153Y-8613153D01*
X27503446Y-8588292D01*
X27538005Y-8569820D01*
X27575501Y-8558445D01*
X27620638Y-8554000D01*
X28259362Y-8554000D01*
X28304499Y-8558445D01*
G37*
G36*
X63611165Y-8558445D02*
G01*
X63648661Y-8569820D01*
X63683220Y-8588292D01*
X63713513Y-8613153D01*
X63738374Y-8643446D01*
X63756846Y-8678005D01*
X63768221Y-8715501D01*
X63772666Y-8760638D01*
X63772666Y-9499362D01*
X63768221Y-9544499D01*
X63756846Y-9581995D01*
X63738374Y-9616554D01*
X63713513Y-9646847D01*
X63683220Y-9671708D01*
X63648661Y-9690180D01*
X63611165Y-9701555D01*
X63566028Y-9706000D01*
X62927304Y-9706000D01*
X62882167Y-9701555D01*
X62844671Y-9690180D01*
X62810112Y-9671708D01*
X62779819Y-9646847D01*
X62754958Y-9616554D01*
X62736486Y-9581995D01*
X62725111Y-9544499D01*
X62720666Y-9499362D01*
X62720666Y-8760638D01*
X62725111Y-8715501D01*
X62736486Y-8678005D01*
X62754958Y-8643446D01*
X62779819Y-8613153D01*
X62810112Y-8588292D01*
X62844671Y-8569820D01*
X62882167Y-8558445D01*
X62927304Y-8554000D01*
X63566028Y-8554000D01*
X63611165Y-8558445D01*
G37*
G36*
X11456000Y-7709001D02*
G01*
X11458402Y-7733387D01*
X11465515Y-7756836D01*
X11477066Y-7778447D01*
X11492611Y-7797389D01*
X11511553Y-7812934D01*
X11533164Y-7824485D01*
X11556613Y-7831598D01*
X11580999Y-7834000D01*
X13379001Y-7834000D01*
X13403387Y-7831598D01*
X13426836Y-7824485D01*
X13448447Y-7812934D01*
X13467389Y-7797389D01*
X13482934Y-7778447D01*
X13494485Y-7756836D01*
X13501598Y-7733387D01*
X13504000Y-7709001D01*
X13504000Y-7659000D01*
X14356000Y-7659000D01*
X14356000Y-9561000D01*
X13504000Y-9561000D01*
X13504000Y-9510999D01*
X13501598Y-9486613D01*
X13494485Y-9463164D01*
X13482934Y-9441553D01*
X13467389Y-9422611D01*
X13448447Y-9407066D01*
X13426836Y-9395515D01*
X13403387Y-9388402D01*
X13379001Y-9386000D01*
X11580999Y-9386000D01*
X11556613Y-9388402D01*
X11533164Y-9395515D01*
X11511553Y-9407066D01*
X11492611Y-9422611D01*
X11477066Y-9441553D01*
X11465515Y-9463164D01*
X11458402Y-9486613D01*
X11456000Y-9510999D01*
X11456000Y-9561000D01*
X10604000Y-9561000D01*
X10604000Y-7659000D01*
X11456000Y-7659000D01*
X11456000Y-7709001D01*
G37*
G36*
X45957832Y-8403445D02*
G01*
X45995328Y-8414820D01*
X46029887Y-8433292D01*
X46060180Y-8458153D01*
X46085041Y-8488446D01*
X46103513Y-8523005D01*
X46114888Y-8560501D01*
X46119333Y-8605638D01*
X46119333Y-9344362D01*
X46114888Y-9389499D01*
X46103513Y-9426995D01*
X46085041Y-9461554D01*
X46060180Y-9491847D01*
X46029887Y-9516708D01*
X45995328Y-9535180D01*
X45957832Y-9546555D01*
X45912695Y-9551000D01*
X45273971Y-9551000D01*
X45228834Y-9546555D01*
X45191338Y-9535180D01*
X45156779Y-9516708D01*
X45126486Y-9491847D01*
X45101625Y-9461554D01*
X45083153Y-9426995D01*
X45071778Y-9389499D01*
X45067333Y-9344362D01*
X45067333Y-8605638D01*
X45071778Y-8560501D01*
X45083153Y-8523005D01*
X45101625Y-8488446D01*
X45126486Y-8458153D01*
X45156779Y-8433292D01*
X45191338Y-8414820D01*
X45228834Y-8403445D01*
X45273971Y-8399000D01*
X45912695Y-8399000D01*
X45957832Y-8403445D01*
G37*
G36*
X81264499Y-8403445D02*
G01*
X81301995Y-8414820D01*
X81336554Y-8433292D01*
X81366847Y-8458153D01*
X81391708Y-8488446D01*
X81410180Y-8523005D01*
X81421555Y-8560501D01*
X81426000Y-8605638D01*
X81426000Y-9344362D01*
X81421555Y-9389499D01*
X81410180Y-9426995D01*
X81391708Y-9461554D01*
X81366847Y-9491847D01*
X81336554Y-9516708D01*
X81301995Y-9535180D01*
X81264499Y-9546555D01*
X81219362Y-9551000D01*
X80580638Y-9551000D01*
X80535501Y-9546555D01*
X80498005Y-9535180D01*
X80463446Y-9516708D01*
X80433153Y-9491847D01*
X80408292Y-9461554D01*
X80389820Y-9426995D01*
X80378445Y-9389499D01*
X80374000Y-9344362D01*
X80374000Y-8605638D01*
X80378445Y-8560501D01*
X80389820Y-8523005D01*
X80408292Y-8488446D01*
X80433153Y-8458153D01*
X80463446Y-8433292D01*
X80498005Y-8414820D01*
X80535501Y-8403445D01*
X80580638Y-8399000D01*
X81219362Y-8399000D01*
X81264499Y-8403445D01*
G37*
G36*
X28304499Y-6808445D02*
G01*
X28341995Y-6819820D01*
X28376554Y-6838292D01*
X28406847Y-6863153D01*
X28431708Y-6893446D01*
X28450180Y-6928005D01*
X28461555Y-6965501D01*
X28466000Y-7010638D01*
X28466000Y-7749362D01*
X28461555Y-7794499D01*
X28450180Y-7831995D01*
X28431708Y-7866554D01*
X28406847Y-7896847D01*
X28376554Y-7921708D01*
X28341995Y-7940180D01*
X28304499Y-7951555D01*
X28259362Y-7956000D01*
X27620638Y-7956000D01*
X27575501Y-7951555D01*
X27538005Y-7940180D01*
X27503446Y-7921708D01*
X27473153Y-7896847D01*
X27448292Y-7866554D01*
X27429820Y-7831995D01*
X27418445Y-7794499D01*
X27414000Y-7749362D01*
X27414000Y-7010638D01*
X27418445Y-6965501D01*
X27429820Y-6928005D01*
X27448292Y-6893446D01*
X27473153Y-6863153D01*
X27503446Y-6838292D01*
X27538005Y-6819820D01*
X27575501Y-6808445D01*
X27620638Y-6804000D01*
X28259362Y-6804000D01*
X28304499Y-6808445D01*
G37*
G36*
X63611165Y-6808445D02*
G01*
X63648661Y-6819820D01*
X63683220Y-6838292D01*
X63713513Y-6863153D01*
X63738374Y-6893446D01*
X63756846Y-6928005D01*
X63768221Y-6965501D01*
X63772666Y-7010638D01*
X63772666Y-7749362D01*
X63768221Y-7794499D01*
X63756846Y-7831995D01*
X63738374Y-7866554D01*
X63713513Y-7896847D01*
X63683220Y-7921708D01*
X63648661Y-7940180D01*
X63611165Y-7951555D01*
X63566028Y-7956000D01*
X62927304Y-7956000D01*
X62882167Y-7951555D01*
X62844671Y-7940180D01*
X62810112Y-7921708D01*
X62779819Y-7896847D01*
X62754958Y-7866554D01*
X62736486Y-7831995D01*
X62725111Y-7794499D01*
X62720666Y-7749362D01*
X62720666Y-7010638D01*
X62725111Y-6965501D01*
X62736486Y-6928005D01*
X62754958Y-6893446D01*
X62779819Y-6863153D01*
X62810112Y-6838292D01*
X62844671Y-6819820D01*
X62882167Y-6808445D01*
X62927304Y-6804000D01*
X63566028Y-6804000D01*
X63611165Y-6808445D01*
G37*
G36*
X81264499Y-6653445D02*
G01*
X81301995Y-6664820D01*
X81336554Y-6683292D01*
X81366847Y-6708153D01*
X81391708Y-6738446D01*
X81410180Y-6773005D01*
X81421555Y-6810501D01*
X81426000Y-6855638D01*
X81426000Y-7594362D01*
X81421555Y-7639499D01*
X81410180Y-7676995D01*
X81391708Y-7711554D01*
X81366847Y-7741847D01*
X81336554Y-7766708D01*
X81301995Y-7785180D01*
X81264499Y-7796555D01*
X81219362Y-7801000D01*
X80580638Y-7801000D01*
X80535501Y-7796555D01*
X80498005Y-7785180D01*
X80463446Y-7766708D01*
X80433153Y-7741847D01*
X80408292Y-7711554D01*
X80389820Y-7676995D01*
X80378445Y-7639499D01*
X80374000Y-7594362D01*
X80374000Y-6855638D01*
X80378445Y-6810501D01*
X80389820Y-6773005D01*
X80408292Y-6738446D01*
X80433153Y-6708153D01*
X80463446Y-6683292D01*
X80498005Y-6664820D01*
X80535501Y-6653445D01*
X80580638Y-6649000D01*
X81219362Y-6649000D01*
X81264499Y-6653445D01*
G37*
G36*
X45957832Y-6653445D02*
G01*
X45995328Y-6664820D01*
X46029887Y-6683292D01*
X46060180Y-6708153D01*
X46085041Y-6738446D01*
X46103513Y-6773005D01*
X46114888Y-6810501D01*
X46119333Y-6855638D01*
X46119333Y-7594362D01*
X46114888Y-7639499D01*
X46103513Y-7676995D01*
X46085041Y-7711554D01*
X46060180Y-7741847D01*
X46029887Y-7766708D01*
X45995328Y-7785180D01*
X45957832Y-7796555D01*
X45912695Y-7801000D01*
X45273971Y-7801000D01*
X45228834Y-7796555D01*
X45191338Y-7785180D01*
X45156779Y-7766708D01*
X45126486Y-7741847D01*
X45101625Y-7711554D01*
X45083153Y-7676995D01*
X45071778Y-7639499D01*
X45067333Y-7594362D01*
X45067333Y-6855638D01*
X45071778Y-6810501D01*
X45083153Y-6773005D01*
X45101625Y-6738446D01*
X45126486Y-6708153D01*
X45156779Y-6683292D01*
X45191338Y-6664820D01*
X45228834Y-6653445D01*
X45273971Y-6649000D01*
X45912695Y-6649000D01*
X45957832Y-6653445D01*
G37*
G36*
X9580099Y-6353845D02*
G01*
X9617595Y-6365220D01*
X9652154Y-6383692D01*
X9682447Y-6408553D01*
X9707308Y-6438846D01*
X9725780Y-6473405D01*
X9737155Y-6510901D01*
X9741600Y-6556038D01*
X9741600Y-7294762D01*
X9737155Y-7339899D01*
X9725780Y-7377395D01*
X9707308Y-7411954D01*
X9682447Y-7442247D01*
X9652154Y-7467108D01*
X9617595Y-7485580D01*
X9580099Y-7496955D01*
X9534962Y-7501400D01*
X8896238Y-7501400D01*
X8851101Y-7496955D01*
X8813605Y-7485580D01*
X8779046Y-7467108D01*
X8748753Y-7442247D01*
X8723892Y-7411954D01*
X8705420Y-7377395D01*
X8694045Y-7339899D01*
X8689600Y-7294762D01*
X8689600Y-6556038D01*
X8694045Y-6510901D01*
X8705420Y-6473405D01*
X8723892Y-6438846D01*
X8748753Y-6408553D01*
X8779046Y-6383692D01*
X8813605Y-6365220D01*
X8851101Y-6353845D01*
X8896238Y-6349400D01*
X9534962Y-6349400D01*
X9580099Y-6353845D01*
G37*
G36*
X83543512Y-5653927D02*
G01*
X83692812Y-5683624D01*
X83856784Y-5751544D01*
X84004354Y-5850147D01*
X84129853Y-5975646D01*
X84228456Y-6123216D01*
X84296376Y-6287188D01*
X84320516Y-6408553D01*
X84331000Y-6461258D01*
X84331000Y-6638742D01*
X84328075Y-6653445D01*
X84296376Y-6812812D01*
X84228456Y-6976784D01*
X84129853Y-7124354D01*
X84004354Y-7249853D01*
X83856784Y-7348456D01*
X83692812Y-7416376D01*
X83562746Y-7442247D01*
X83518742Y-7451000D01*
X83341258Y-7451000D01*
X83297254Y-7442247D01*
X83167188Y-7416376D01*
X83003216Y-7348456D01*
X82855646Y-7249853D01*
X82730147Y-7124354D01*
X82631544Y-6976784D01*
X82563624Y-6812812D01*
X82531925Y-6653445D01*
X82529000Y-6638742D01*
X82529000Y-6461258D01*
X82539484Y-6408553D01*
X82563624Y-6287188D01*
X82631544Y-6123216D01*
X82730147Y-5975646D01*
X82855646Y-5850147D01*
X83003216Y-5751544D01*
X83167188Y-5683624D01*
X83316488Y-5653927D01*
X83341258Y-5649000D01*
X83518742Y-5649000D01*
X83543512Y-5653927D01*
G37*
G36*
X86083512Y-5653927D02*
G01*
X86232812Y-5683624D01*
X86396784Y-5751544D01*
X86544354Y-5850147D01*
X86669853Y-5975646D01*
X86768456Y-6123216D01*
X86836376Y-6287188D01*
X86860516Y-6408553D01*
X86871000Y-6461258D01*
X86871000Y-6638742D01*
X86868075Y-6653445D01*
X86836376Y-6812812D01*
X86768456Y-6976784D01*
X86669853Y-7124354D01*
X86544354Y-7249853D01*
X86396784Y-7348456D01*
X86232812Y-7416376D01*
X86102746Y-7442247D01*
X86058742Y-7451000D01*
X85881258Y-7451000D01*
X85837254Y-7442247D01*
X85707188Y-7416376D01*
X85543216Y-7348456D01*
X85395646Y-7249853D01*
X85270147Y-7124354D01*
X85171544Y-6976784D01*
X85103624Y-6812812D01*
X85071925Y-6653445D01*
X85069000Y-6638742D01*
X85069000Y-6461258D01*
X85079484Y-6408553D01*
X85103624Y-6287188D01*
X85171544Y-6123216D01*
X85270147Y-5975646D01*
X85395646Y-5850147D01*
X85543216Y-5751544D01*
X85707188Y-5683624D01*
X85856488Y-5653927D01*
X85881258Y-5649000D01*
X86058742Y-5649000D01*
X86083512Y-5653927D01*
G37*
G36*
X3853512Y-5653927D02*
G01*
X4002812Y-5683624D01*
X4166784Y-5751544D01*
X4314354Y-5850147D01*
X4439853Y-5975646D01*
X4538456Y-6123216D01*
X4606376Y-6287188D01*
X4630516Y-6408553D01*
X4641000Y-6461258D01*
X4641000Y-6638742D01*
X4638075Y-6653445D01*
X4606376Y-6812812D01*
X4538456Y-6976784D01*
X4439853Y-7124354D01*
X4314354Y-7249853D01*
X4166784Y-7348456D01*
X4002812Y-7416376D01*
X3872746Y-7442247D01*
X3828742Y-7451000D01*
X3651258Y-7451000D01*
X3607254Y-7442247D01*
X3477188Y-7416376D01*
X3313216Y-7348456D01*
X3165646Y-7249853D01*
X3040147Y-7124354D01*
X2941544Y-6976784D01*
X2873624Y-6812812D01*
X2841925Y-6653445D01*
X2839000Y-6638742D01*
X2839000Y-6461258D01*
X2849484Y-6408553D01*
X2873624Y-6287188D01*
X2941544Y-6123216D01*
X3040147Y-5975646D01*
X3165646Y-5850147D01*
X3313216Y-5751544D01*
X3477188Y-5683624D01*
X3626488Y-5653927D01*
X3651258Y-5649000D01*
X3828742Y-5649000D01*
X3853512Y-5653927D01*
G37*
G36*
X6393512Y-5653927D02*
G01*
X6542812Y-5683624D01*
X6706784Y-5751544D01*
X6854354Y-5850147D01*
X6979853Y-5975646D01*
X7078456Y-6123216D01*
X7146376Y-6287188D01*
X7170516Y-6408553D01*
X7181000Y-6461258D01*
X7181000Y-6638742D01*
X7178075Y-6653445D01*
X7146376Y-6812812D01*
X7078456Y-6976784D01*
X6979853Y-7124354D01*
X6854354Y-7249853D01*
X6706784Y-7348456D01*
X6542812Y-7416376D01*
X6412746Y-7442247D01*
X6368742Y-7451000D01*
X6191258Y-7451000D01*
X6147254Y-7442247D01*
X6017188Y-7416376D01*
X5853216Y-7348456D01*
X5705646Y-7249853D01*
X5580147Y-7124354D01*
X5481544Y-6976784D01*
X5413624Y-6812812D01*
X5381925Y-6653445D01*
X5379000Y-6638742D01*
X5379000Y-6461258D01*
X5389484Y-6408553D01*
X5413624Y-6287188D01*
X5481544Y-6123216D01*
X5580147Y-5975646D01*
X5705646Y-5850147D01*
X5853216Y-5751544D01*
X6017188Y-5683624D01*
X6166488Y-5653927D01*
X6191258Y-5649000D01*
X6368742Y-5649000D01*
X6393512Y-5653927D01*
G37*
G36*
X11670099Y-5443845D02*
G01*
X11707595Y-5455220D01*
X11742154Y-5473692D01*
X11772447Y-5498553D01*
X11797308Y-5528846D01*
X11815780Y-5563405D01*
X11827155Y-5600901D01*
X11831600Y-5646038D01*
X11831600Y-6384762D01*
X11827155Y-6429899D01*
X11815780Y-6467395D01*
X11797308Y-6501954D01*
X11772447Y-6532247D01*
X11742154Y-6557108D01*
X11707595Y-6575580D01*
X11670099Y-6586955D01*
X11624962Y-6591400D01*
X10986238Y-6591400D01*
X10941101Y-6586955D01*
X10903605Y-6575580D01*
X10869046Y-6557108D01*
X10838753Y-6532247D01*
X10813892Y-6501954D01*
X10795420Y-6467395D01*
X10784045Y-6429899D01*
X10779600Y-6384762D01*
X10779600Y-5646038D01*
X10784045Y-5600901D01*
X10795420Y-5563405D01*
X10813892Y-5528846D01*
X10838753Y-5498553D01*
X10869046Y-5473692D01*
X10903605Y-5455220D01*
X10941101Y-5443845D01*
X10986238Y-5439400D01*
X11624962Y-5439400D01*
X11670099Y-5443845D01*
G37*
G36*
X13160099Y-5443845D02*
G01*
X13197595Y-5455220D01*
X13232154Y-5473692D01*
X13262447Y-5498553D01*
X13287308Y-5528846D01*
X13305780Y-5563405D01*
X13317155Y-5600901D01*
X13321600Y-5646038D01*
X13321600Y-6384762D01*
X13317155Y-6429899D01*
X13305780Y-6467395D01*
X13287308Y-6501954D01*
X13262447Y-6532247D01*
X13232154Y-6557108D01*
X13197595Y-6575580D01*
X13160099Y-6586955D01*
X13114962Y-6591400D01*
X12476238Y-6591400D01*
X12431101Y-6586955D01*
X12393605Y-6575580D01*
X12359046Y-6557108D01*
X12328753Y-6532247D01*
X12303892Y-6501954D01*
X12285420Y-6467395D01*
X12274045Y-6429899D01*
X12269600Y-6384762D01*
X12269600Y-5646038D01*
X12274045Y-5600901D01*
X12285420Y-5563405D01*
X12303892Y-5528846D01*
X12328753Y-5498553D01*
X12359046Y-5473692D01*
X12393605Y-5455220D01*
X12431101Y-5443845D01*
X12476238Y-5439400D01*
X13114962Y-5439400D01*
X13160099Y-5443845D01*
G37*
G36*
X9580099Y-4603845D02*
G01*
X9617595Y-4615220D01*
X9652154Y-4633692D01*
X9682447Y-4658553D01*
X9707308Y-4688846D01*
X9725780Y-4723405D01*
X9737155Y-4760901D01*
X9741600Y-4806038D01*
X9741600Y-5544762D01*
X9737155Y-5589899D01*
X9725780Y-5627395D01*
X9707308Y-5661954D01*
X9682447Y-5692247D01*
X9652154Y-5717108D01*
X9617595Y-5735580D01*
X9580099Y-5746955D01*
X9534962Y-5751400D01*
X8896238Y-5751400D01*
X8851101Y-5746955D01*
X8813605Y-5735580D01*
X8779046Y-5717108D01*
X8748753Y-5692247D01*
X8723892Y-5661954D01*
X8705420Y-5627395D01*
X8694045Y-5589899D01*
X8689600Y-5544762D01*
X8689600Y-4806038D01*
X8694045Y-4760901D01*
X8705420Y-4723405D01*
X8723892Y-4688846D01*
X8748753Y-4658553D01*
X8779046Y-4633692D01*
X8813605Y-4615220D01*
X8851101Y-4603845D01*
X8896238Y-4599400D01*
X9534962Y-4599400D01*
X9580099Y-4603845D01*
G37*
G36*
X19151000Y-5351000D02*
G01*
X17449000Y-5351000D01*
X17449000Y-3649000D01*
X19151000Y-3649000D01*
X19151000Y-5351000D01*
G37*
G36*
X16048228Y-3681703D02*
G01*
X16203100Y-3745853D01*
X16342481Y-3838985D01*
X16461015Y-3957519D01*
X16554147Y-4096900D01*
X16618297Y-4251772D01*
X16651000Y-4416184D01*
X16651000Y-4583816D01*
X16618297Y-4748228D01*
X16554147Y-4903100D01*
X16461015Y-5042481D01*
X16342481Y-5161015D01*
X16203100Y-5254147D01*
X16048228Y-5318297D01*
X15883816Y-5351000D01*
X15716184Y-5351000D01*
X15551772Y-5318297D01*
X15396900Y-5254147D01*
X15257519Y-5161015D01*
X15138985Y-5042481D01*
X15045853Y-4903100D01*
X14981703Y-4748228D01*
X14949000Y-4583816D01*
X14949000Y-4416184D01*
X14981703Y-4251772D01*
X15045853Y-4096900D01*
X15138985Y-3957519D01*
X15257519Y-3838985D01*
X15396900Y-3745853D01*
X15551772Y-3681703D01*
X15716184Y-3649000D01*
X15883816Y-3649000D01*
X16048228Y-3681703D01*
G37*
G36*
X36751000Y-5351000D02*
G01*
X35049000Y-5351000D01*
X35049000Y-3649000D01*
X36751000Y-3649000D01*
X36751000Y-5351000D01*
G37*
G36*
X33648228Y-3681703D02*
G01*
X33803100Y-3745853D01*
X33942481Y-3838985D01*
X34061015Y-3957519D01*
X34154147Y-4096900D01*
X34218297Y-4251772D01*
X34251000Y-4416184D01*
X34251000Y-4583816D01*
X34218297Y-4748228D01*
X34154147Y-4903100D01*
X34061015Y-5042481D01*
X33942481Y-5161015D01*
X33803100Y-5254147D01*
X33648228Y-5318297D01*
X33483816Y-5351000D01*
X33316184Y-5351000D01*
X33151772Y-5318297D01*
X32996900Y-5254147D01*
X32857519Y-5161015D01*
X32738985Y-5042481D01*
X32645853Y-4903100D01*
X32581703Y-4748228D01*
X32549000Y-4583816D01*
X32549000Y-4416184D01*
X32581703Y-4251772D01*
X32645853Y-4096900D01*
X32738985Y-3957519D01*
X32857519Y-3838985D01*
X32996900Y-3745853D01*
X33151772Y-3681703D01*
X33316184Y-3649000D01*
X33483816Y-3649000D01*
X33648228Y-3681703D01*
G37*
G36*
X54151000Y-5351000D02*
G01*
X52449000Y-5351000D01*
X52449000Y-3649000D01*
X54151000Y-3649000D01*
X54151000Y-5351000D01*
G37*
G36*
X51048228Y-3681703D02*
G01*
X51203100Y-3745853D01*
X51342481Y-3838985D01*
X51461015Y-3957519D01*
X51554147Y-4096900D01*
X51618297Y-4251772D01*
X51651000Y-4416184D01*
X51651000Y-4583816D01*
X51618297Y-4748228D01*
X51554147Y-4903100D01*
X51461015Y-5042481D01*
X51342481Y-5161015D01*
X51203100Y-5254147D01*
X51048228Y-5318297D01*
X50883816Y-5351000D01*
X50716184Y-5351000D01*
X50551772Y-5318297D01*
X50396900Y-5254147D01*
X50257519Y-5161015D01*
X50138985Y-5042481D01*
X50045853Y-4903100D01*
X49981703Y-4748228D01*
X49949000Y-4583816D01*
X49949000Y-4416184D01*
X49981703Y-4251772D01*
X50045853Y-4096900D01*
X50138985Y-3957519D01*
X50257519Y-3838985D01*
X50396900Y-3745853D01*
X50551772Y-3681703D01*
X50716184Y-3649000D01*
X50883816Y-3649000D01*
X51048228Y-3681703D01*
G37*
G36*
X71751000Y-5251000D02*
G01*
X70049000Y-5251000D01*
X70049000Y-3549000D01*
X71751000Y-3549000D01*
X71751000Y-5251000D01*
G37*
G36*
X68648228Y-3581703D02*
G01*
X68803100Y-3645853D01*
X68942481Y-3738985D01*
X69061015Y-3857519D01*
X69154147Y-3996900D01*
X69218297Y-4151772D01*
X69251000Y-4316184D01*
X69251000Y-4483816D01*
X69218297Y-4648228D01*
X69154147Y-4803100D01*
X69061015Y-4942481D01*
X68942481Y-5061015D01*
X68803100Y-5154147D01*
X68648228Y-5218297D01*
X68483816Y-5251000D01*
X68316184Y-5251000D01*
X68151772Y-5218297D01*
X67996900Y-5154147D01*
X67857519Y-5061015D01*
X67738985Y-4942481D01*
X67645853Y-4803100D01*
X67581703Y-4648228D01*
X67549000Y-4483816D01*
X67549000Y-4316184D01*
X67581703Y-4151772D01*
X67645853Y-3996900D01*
X67738985Y-3857519D01*
X67857519Y-3738985D01*
X67996900Y-3645853D01*
X68151772Y-3581703D01*
X68316184Y-3549000D01*
X68483816Y-3549000D01*
X68648228Y-3581703D01*
G37*
G36*
X3853512Y-3113927D02*
G01*
X4002812Y-3143624D01*
X4166784Y-3211544D01*
X4314354Y-3310147D01*
X4439853Y-3435646D01*
X4538456Y-3583216D01*
X4606376Y-3747188D01*
X4641000Y-3921259D01*
X4641000Y-4098741D01*
X4606376Y-4272812D01*
X4538456Y-4436784D01*
X4439853Y-4584354D01*
X4314354Y-4709853D01*
X4166784Y-4808456D01*
X4002812Y-4876376D01*
X3853512Y-4906073D01*
X3828742Y-4911000D01*
X3651258Y-4911000D01*
X3626488Y-4906073D01*
X3477188Y-4876376D01*
X3313216Y-4808456D01*
X3165646Y-4709853D01*
X3040147Y-4584354D01*
X2941544Y-4436784D01*
X2873624Y-4272812D01*
X2839000Y-4098741D01*
X2839000Y-3921259D01*
X2873624Y-3747188D01*
X2941544Y-3583216D01*
X3040147Y-3435646D01*
X3165646Y-3310147D01*
X3313216Y-3211544D01*
X3477188Y-3143624D01*
X3626488Y-3113927D01*
X3651258Y-3109000D01*
X3828742Y-3109000D01*
X3853512Y-3113927D01*
G37*
G36*
X86083512Y-3113927D02*
G01*
X86232812Y-3143624D01*
X86396784Y-3211544D01*
X86544354Y-3310147D01*
X86669853Y-3435646D01*
X86768456Y-3583216D01*
X86836376Y-3747188D01*
X86871000Y-3921259D01*
X86871000Y-4098741D01*
X86836376Y-4272812D01*
X86768456Y-4436784D01*
X86669853Y-4584354D01*
X86544354Y-4709853D01*
X86396784Y-4808456D01*
X86232812Y-4876376D01*
X86083512Y-4906073D01*
X86058742Y-4911000D01*
X85881258Y-4911000D01*
X85856488Y-4906073D01*
X85707188Y-4876376D01*
X85543216Y-4808456D01*
X85395646Y-4709853D01*
X85270147Y-4584354D01*
X85171544Y-4436784D01*
X85103624Y-4272812D01*
X85069000Y-4098741D01*
X85069000Y-3921259D01*
X85103624Y-3747188D01*
X85171544Y-3583216D01*
X85270147Y-3435646D01*
X85395646Y-3310147D01*
X85543216Y-3211544D01*
X85707188Y-3143624D01*
X85856488Y-3113927D01*
X85881258Y-3109000D01*
X86058742Y-3109000D01*
X86083512Y-3113927D01*
G37*
G36*
X83543512Y-3113927D02*
G01*
X83692812Y-3143624D01*
X83856784Y-3211544D01*
X84004354Y-3310147D01*
X84129853Y-3435646D01*
X84228456Y-3583216D01*
X84296376Y-3747188D01*
X84331000Y-3921259D01*
X84331000Y-4098741D01*
X84296376Y-4272812D01*
X84228456Y-4436784D01*
X84129853Y-4584354D01*
X84004354Y-4709853D01*
X83856784Y-4808456D01*
X83692812Y-4876376D01*
X83543512Y-4906073D01*
X83518742Y-4911000D01*
X83341258Y-4911000D01*
X83316488Y-4906073D01*
X83167188Y-4876376D01*
X83003216Y-4808456D01*
X82855646Y-4709853D01*
X82730147Y-4584354D01*
X82631544Y-4436784D01*
X82563624Y-4272812D01*
X82529000Y-4098741D01*
X82529000Y-3921259D01*
X82563624Y-3747188D01*
X82631544Y-3583216D01*
X82730147Y-3435646D01*
X82855646Y-3310147D01*
X83003216Y-3211544D01*
X83167188Y-3143624D01*
X83316488Y-3113927D01*
X83341258Y-3109000D01*
X83518742Y-3109000D01*
X83543512Y-3113927D01*
G37*
G36*
X6393512Y-3113927D02*
G01*
X6542812Y-3143624D01*
X6706784Y-3211544D01*
X6854354Y-3310147D01*
X6979853Y-3435646D01*
X7078456Y-3583216D01*
X7146376Y-3747188D01*
X7181000Y-3921259D01*
X7181000Y-4098741D01*
X7146376Y-4272812D01*
X7078456Y-4436784D01*
X6979853Y-4584354D01*
X6854354Y-4709853D01*
X6706784Y-4808456D01*
X6542812Y-4876376D01*
X6393512Y-4906073D01*
X6368742Y-4911000D01*
X6191258Y-4911000D01*
X6166488Y-4906073D01*
X6017188Y-4876376D01*
X5853216Y-4808456D01*
X5705646Y-4709853D01*
X5580147Y-4584354D01*
X5481544Y-4436784D01*
X5413624Y-4272812D01*
X5379000Y-4098741D01*
X5379000Y-3921259D01*
X5413624Y-3747188D01*
X5481544Y-3583216D01*
X5580147Y-3435646D01*
X5705646Y-3310147D01*
X5853216Y-3211544D01*
X6017188Y-3143624D01*
X6166488Y-3113927D01*
X6191258Y-3109000D01*
X6368742Y-3109000D01*
X6393512Y-3113927D01*
G37*
G36*
X11670099Y-3693845D02*
G01*
X11707595Y-3705220D01*
X11742154Y-3723692D01*
X11772447Y-3748553D01*
X11797308Y-3778846D01*
X11815780Y-3813405D01*
X11827155Y-3850901D01*
X11831600Y-3896038D01*
X11831600Y-4634762D01*
X11827155Y-4679899D01*
X11815780Y-4717395D01*
X11797308Y-4751954D01*
X11772447Y-4782247D01*
X11742154Y-4807108D01*
X11707595Y-4825580D01*
X11670099Y-4836955D01*
X11624962Y-4841400D01*
X10986238Y-4841400D01*
X10941101Y-4836955D01*
X10903605Y-4825580D01*
X10869046Y-4807108D01*
X10838753Y-4782247D01*
X10813892Y-4751954D01*
X10795420Y-4717395D01*
X10784045Y-4679899D01*
X10779600Y-4634762D01*
X10779600Y-3896038D01*
X10784045Y-3850901D01*
X10795420Y-3813405D01*
X10813892Y-3778846D01*
X10838753Y-3748553D01*
X10869046Y-3723692D01*
X10903605Y-3705220D01*
X10941101Y-3693845D01*
X10986238Y-3689400D01*
X11624962Y-3689400D01*
X11670099Y-3693845D01*
G37*
G36*
X13160099Y-3693845D02*
G01*
X13197595Y-3705220D01*
X13232154Y-3723692D01*
X13262447Y-3748553D01*
X13287308Y-3778846D01*
X13305780Y-3813405D01*
X13317155Y-3850901D01*
X13321600Y-3896038D01*
X13321600Y-4634762D01*
X13317155Y-4679899D01*
X13305780Y-4717395D01*
X13287308Y-4751954D01*
X13262447Y-4782247D01*
X13232154Y-4807108D01*
X13197595Y-4825580D01*
X13160099Y-4836955D01*
X13114962Y-4841400D01*
X12476238Y-4841400D01*
X12431101Y-4836955D01*
X12393605Y-4825580D01*
X12359046Y-4807108D01*
X12328753Y-4782247D01*
X12303892Y-4751954D01*
X12285420Y-4717395D01*
X12274045Y-4679899D01*
X12269600Y-4634762D01*
X12269600Y-3896038D01*
X12274045Y-3850901D01*
X12285420Y-3813405D01*
X12303892Y-3778846D01*
X12328753Y-3748553D01*
X12359046Y-3723692D01*
X12393605Y-3705220D01*
X12431101Y-3693845D01*
X12476238Y-3689400D01*
X13114962Y-3689400D01*
X13160099Y-3693845D01*
G37*
M02*
