G04 #@! TF.GenerationSoftware,KiCad,Pcbnew,(5.1.5)-3*
G04 #@! TF.CreationDate,2021-07-19T12:04:44+02:00*
G04 #@! TF.ProjectId,4xHalfBridge-VSON8,34784861-6c66-4427-9269-6467652d5653,rev?*
G04 #@! TF.SameCoordinates,Original*
G04 #@! TF.FileFunction,Soldermask,Top*
G04 #@! TF.FilePolarity,Negative*
%FSLAX46Y46*%
G04 Gerber Fmt 4.6, Leading zero omitted, Abs format (unit mm)*
G04 Created by KiCad (PCBNEW (5.1.5)-3) date 2021-07-19 12:04:44*
%MOMM*%
%LPD*%
G04 APERTURE LIST*
%ADD10C,0.100000*%
G04 APERTURE END LIST*
D10*
G36*
X69051000Y-33551000D02*
G01*
X66949000Y-33551000D01*
X66949000Y-31449000D01*
X69051000Y-31449000D01*
X69051000Y-33551000D01*
G37*
G36*
X22951000Y-33551000D02*
G01*
X20849000Y-33551000D01*
X20849000Y-31449000D01*
X22951000Y-31449000D01*
X22951000Y-33551000D01*
G37*
G36*
X86083512Y-31053927D02*
G01*
X86232812Y-31083624D01*
X86396784Y-31151544D01*
X86544354Y-31250147D01*
X86669853Y-31375646D01*
X86768456Y-31523216D01*
X86836376Y-31687188D01*
X86871000Y-31861259D01*
X86871000Y-32038741D01*
X86836376Y-32212812D01*
X86768456Y-32376784D01*
X86669853Y-32524354D01*
X86544354Y-32649853D01*
X86396784Y-32748456D01*
X86232812Y-32816376D01*
X86083512Y-32846073D01*
X86058742Y-32851000D01*
X85881258Y-32851000D01*
X85856488Y-32846073D01*
X85707188Y-32816376D01*
X85543216Y-32748456D01*
X85395646Y-32649853D01*
X85270147Y-32524354D01*
X85171544Y-32376784D01*
X85103624Y-32212812D01*
X85069000Y-32038741D01*
X85069000Y-31861259D01*
X85103624Y-31687188D01*
X85171544Y-31523216D01*
X85270147Y-31375646D01*
X85395646Y-31250147D01*
X85543216Y-31151544D01*
X85707188Y-31083624D01*
X85856488Y-31053927D01*
X85881258Y-31049000D01*
X86058742Y-31049000D01*
X86083512Y-31053927D01*
G37*
G36*
X83543512Y-31053927D02*
G01*
X83692812Y-31083624D01*
X83856784Y-31151544D01*
X84004354Y-31250147D01*
X84129853Y-31375646D01*
X84228456Y-31523216D01*
X84296376Y-31687188D01*
X84331000Y-31861259D01*
X84331000Y-32038741D01*
X84296376Y-32212812D01*
X84228456Y-32376784D01*
X84129853Y-32524354D01*
X84004354Y-32649853D01*
X83856784Y-32748456D01*
X83692812Y-32816376D01*
X83543512Y-32846073D01*
X83518742Y-32851000D01*
X83341258Y-32851000D01*
X83316488Y-32846073D01*
X83167188Y-32816376D01*
X83003216Y-32748456D01*
X82855646Y-32649853D01*
X82730147Y-32524354D01*
X82631544Y-32376784D01*
X82563624Y-32212812D01*
X82529000Y-32038741D01*
X82529000Y-31861259D01*
X82563624Y-31687188D01*
X82631544Y-31523216D01*
X82730147Y-31375646D01*
X82855646Y-31250147D01*
X83003216Y-31151544D01*
X83167188Y-31083624D01*
X83316488Y-31053927D01*
X83341258Y-31049000D01*
X83518742Y-31049000D01*
X83543512Y-31053927D01*
G37*
G36*
X6393512Y-31053927D02*
G01*
X6542812Y-31083624D01*
X6706784Y-31151544D01*
X6854354Y-31250147D01*
X6979853Y-31375646D01*
X7078456Y-31523216D01*
X7146376Y-31687188D01*
X7181000Y-31861259D01*
X7181000Y-32038741D01*
X7146376Y-32212812D01*
X7078456Y-32376784D01*
X6979853Y-32524354D01*
X6854354Y-32649853D01*
X6706784Y-32748456D01*
X6542812Y-32816376D01*
X6393512Y-32846073D01*
X6368742Y-32851000D01*
X6191258Y-32851000D01*
X6166488Y-32846073D01*
X6017188Y-32816376D01*
X5853216Y-32748456D01*
X5705646Y-32649853D01*
X5580147Y-32524354D01*
X5481544Y-32376784D01*
X5413624Y-32212812D01*
X5379000Y-32038741D01*
X5379000Y-31861259D01*
X5413624Y-31687188D01*
X5481544Y-31523216D01*
X5580147Y-31375646D01*
X5705646Y-31250147D01*
X5853216Y-31151544D01*
X6017188Y-31083624D01*
X6166488Y-31053927D01*
X6191258Y-31049000D01*
X6368742Y-31049000D01*
X6393512Y-31053927D01*
G37*
G36*
X3853512Y-31053927D02*
G01*
X4002812Y-31083624D01*
X4166784Y-31151544D01*
X4314354Y-31250147D01*
X4439853Y-31375646D01*
X4538456Y-31523216D01*
X4606376Y-31687188D01*
X4641000Y-31861259D01*
X4641000Y-32038741D01*
X4606376Y-32212812D01*
X4538456Y-32376784D01*
X4439853Y-32524354D01*
X4314354Y-32649853D01*
X4166784Y-32748456D01*
X4002812Y-32816376D01*
X3853512Y-32846073D01*
X3828742Y-32851000D01*
X3651258Y-32851000D01*
X3626488Y-32846073D01*
X3477188Y-32816376D01*
X3313216Y-32748456D01*
X3165646Y-32649853D01*
X3040147Y-32524354D01*
X2941544Y-32376784D01*
X2873624Y-32212812D01*
X2839000Y-32038741D01*
X2839000Y-31861259D01*
X2873624Y-31687188D01*
X2941544Y-31523216D01*
X3040147Y-31375646D01*
X3165646Y-31250147D01*
X3313216Y-31151544D01*
X3477188Y-31083624D01*
X3626488Y-31053927D01*
X3651258Y-31049000D01*
X3828742Y-31049000D01*
X3853512Y-31053927D01*
G37*
G36*
X46064499Y-31298446D02*
G01*
X46101995Y-31309821D01*
X46136554Y-31328293D01*
X46166847Y-31353154D01*
X46191708Y-31383447D01*
X46210180Y-31418006D01*
X46221555Y-31455502D01*
X46226000Y-31500639D01*
X46226000Y-32239363D01*
X46221555Y-32284500D01*
X46210180Y-32321996D01*
X46191708Y-32356555D01*
X46166847Y-32386848D01*
X46136554Y-32411709D01*
X46101995Y-32430181D01*
X46064499Y-32441556D01*
X46019362Y-32446001D01*
X45380638Y-32446001D01*
X45335501Y-32441556D01*
X45298005Y-32430181D01*
X45263446Y-32411709D01*
X45233153Y-32386848D01*
X45208292Y-32356555D01*
X45189820Y-32321996D01*
X45178445Y-32284500D01*
X45174000Y-32239363D01*
X45174000Y-31500639D01*
X45178445Y-31455502D01*
X45189820Y-31418006D01*
X45208292Y-31383447D01*
X45233153Y-31353154D01*
X45263446Y-31328293D01*
X45298005Y-31309821D01*
X45335501Y-31298446D01*
X45380638Y-31294001D01*
X46019362Y-31294001D01*
X46064499Y-31298446D01*
G37*
G36*
X44514498Y-31298446D02*
G01*
X44551994Y-31309821D01*
X44586553Y-31328293D01*
X44616846Y-31353154D01*
X44641707Y-31383447D01*
X44660179Y-31418006D01*
X44671554Y-31455502D01*
X44675999Y-31500639D01*
X44675999Y-32239363D01*
X44671554Y-32284500D01*
X44660179Y-32321996D01*
X44641707Y-32356555D01*
X44616846Y-32386848D01*
X44586553Y-32411709D01*
X44551994Y-32430181D01*
X44514498Y-32441556D01*
X44469361Y-32446001D01*
X43830637Y-32446001D01*
X43785500Y-32441556D01*
X43748004Y-32430181D01*
X43713445Y-32411709D01*
X43683152Y-32386848D01*
X43658291Y-32356555D01*
X43639819Y-32321996D01*
X43628444Y-32284500D01*
X43623999Y-32239363D01*
X43623999Y-31500639D01*
X43628444Y-31455502D01*
X43639819Y-31418006D01*
X43658291Y-31383447D01*
X43683152Y-31353154D01*
X43713445Y-31328293D01*
X43748004Y-31309821D01*
X43785500Y-31298446D01*
X43830637Y-31294001D01*
X44469361Y-31294001D01*
X44514498Y-31298446D01*
G37*
G36*
X50598254Y-28027818D02*
G01*
X50971511Y-28182426D01*
X50971513Y-28182427D01*
X51307436Y-28406884D01*
X51593116Y-28692564D01*
X51803021Y-29006708D01*
X51817574Y-29028489D01*
X51972182Y-29401746D01*
X52051000Y-29797993D01*
X52051000Y-30202007D01*
X51972182Y-30598254D01*
X51825198Y-30953105D01*
X51817573Y-30971513D01*
X51593116Y-31307436D01*
X51307436Y-31593116D01*
X50971513Y-31817573D01*
X50971512Y-31817574D01*
X50971511Y-31817574D01*
X50598254Y-31972182D01*
X50202007Y-32051000D01*
X49797993Y-32051000D01*
X49401746Y-31972182D01*
X49028489Y-31817574D01*
X49028488Y-31817574D01*
X49028487Y-31817573D01*
X48692564Y-31593116D01*
X48406884Y-31307436D01*
X48182427Y-30971513D01*
X48174802Y-30953105D01*
X48027818Y-30598254D01*
X47949000Y-30202007D01*
X47949000Y-29797993D01*
X48027818Y-29401746D01*
X48182426Y-29028489D01*
X48196980Y-29006708D01*
X48406884Y-28692564D01*
X48692564Y-28406884D01*
X49028487Y-28182427D01*
X49028489Y-28182426D01*
X49401746Y-28027818D01*
X49797993Y-27949000D01*
X50202007Y-27949000D01*
X50598254Y-28027818D01*
G37*
G36*
X35598254Y-28027818D02*
G01*
X35971511Y-28182426D01*
X35971513Y-28182427D01*
X36307436Y-28406884D01*
X36593116Y-28692564D01*
X36803021Y-29006708D01*
X36817574Y-29028489D01*
X36972182Y-29401746D01*
X37051000Y-29797993D01*
X37051000Y-30202007D01*
X36972182Y-30598254D01*
X36825198Y-30953105D01*
X36817573Y-30971513D01*
X36593116Y-31307436D01*
X36307436Y-31593116D01*
X35971513Y-31817573D01*
X35971512Y-31817574D01*
X35971511Y-31817574D01*
X35598254Y-31972182D01*
X35202007Y-32051000D01*
X34797993Y-32051000D01*
X34401746Y-31972182D01*
X34028489Y-31817574D01*
X34028488Y-31817574D01*
X34028487Y-31817573D01*
X33692564Y-31593116D01*
X33406884Y-31307436D01*
X33182427Y-30971513D01*
X33174802Y-30953105D01*
X33027818Y-30598254D01*
X32949000Y-30202007D01*
X32949000Y-29797993D01*
X33027818Y-29401746D01*
X33182426Y-29028489D01*
X33196980Y-29006708D01*
X33406884Y-28692564D01*
X33692564Y-28406884D01*
X34028487Y-28182427D01*
X34028489Y-28182426D01*
X34401746Y-28027818D01*
X34797993Y-27949000D01*
X35202007Y-27949000D01*
X35598254Y-28027818D01*
G37*
G36*
X28970562Y-28473181D02*
G01*
X29005481Y-28483774D01*
X29037663Y-28500976D01*
X29065873Y-28524127D01*
X29089024Y-28552337D01*
X29106226Y-28584519D01*
X29116819Y-28619438D01*
X29121000Y-28661895D01*
X29121000Y-31028105D01*
X29116819Y-31070562D01*
X29106226Y-31105481D01*
X29089024Y-31137663D01*
X29065873Y-31165873D01*
X29037663Y-31189024D01*
X29005481Y-31206226D01*
X28970562Y-31216819D01*
X28928105Y-31221000D01*
X27786895Y-31221000D01*
X27744438Y-31216819D01*
X27709519Y-31206226D01*
X27677337Y-31189024D01*
X27649127Y-31165873D01*
X27625976Y-31137663D01*
X27608774Y-31105481D01*
X27598181Y-31070562D01*
X27594000Y-31028105D01*
X27594000Y-28661895D01*
X27598181Y-28619438D01*
X27608774Y-28584519D01*
X27625976Y-28552337D01*
X27649127Y-28524127D01*
X27677337Y-28500976D01*
X27709519Y-28483774D01*
X27744438Y-28473181D01*
X27786895Y-28469000D01*
X28928105Y-28469000D01*
X28970562Y-28473181D01*
G37*
G36*
X31945562Y-28473181D02*
G01*
X31980481Y-28483774D01*
X32012663Y-28500976D01*
X32040873Y-28524127D01*
X32064024Y-28552337D01*
X32081226Y-28584519D01*
X32091819Y-28619438D01*
X32096000Y-28661895D01*
X32096000Y-31028105D01*
X32091819Y-31070562D01*
X32081226Y-31105481D01*
X32064024Y-31137663D01*
X32040873Y-31165873D01*
X32012663Y-31189024D01*
X31980481Y-31206226D01*
X31945562Y-31216819D01*
X31903105Y-31221000D01*
X30761895Y-31221000D01*
X30719438Y-31216819D01*
X30684519Y-31206226D01*
X30652337Y-31189024D01*
X30624127Y-31165873D01*
X30600976Y-31137663D01*
X30583774Y-31105481D01*
X30573181Y-31070562D01*
X30569000Y-31028105D01*
X30569000Y-28661895D01*
X30573181Y-28619438D01*
X30583774Y-28584519D01*
X30600976Y-28552337D01*
X30624127Y-28524127D01*
X30652337Y-28500976D01*
X30684519Y-28483774D01*
X30719438Y-28473181D01*
X30761895Y-28469000D01*
X31903105Y-28469000D01*
X31945562Y-28473181D01*
G37*
G36*
X44514498Y-29548446D02*
G01*
X44551994Y-29559821D01*
X44586553Y-29578293D01*
X44616846Y-29603154D01*
X44641707Y-29633447D01*
X44660179Y-29668006D01*
X44671554Y-29705502D01*
X44675999Y-29750639D01*
X44675999Y-30489363D01*
X44671554Y-30534500D01*
X44660179Y-30571996D01*
X44641707Y-30606555D01*
X44616846Y-30636848D01*
X44586553Y-30661709D01*
X44551994Y-30680181D01*
X44514498Y-30691556D01*
X44469361Y-30696001D01*
X43830637Y-30696001D01*
X43785500Y-30691556D01*
X43748004Y-30680181D01*
X43713445Y-30661709D01*
X43683152Y-30636848D01*
X43658291Y-30606555D01*
X43639819Y-30571996D01*
X43628444Y-30534500D01*
X43623999Y-30489363D01*
X43623999Y-29750639D01*
X43628444Y-29705502D01*
X43639819Y-29668006D01*
X43658291Y-29633447D01*
X43683152Y-29603154D01*
X43713445Y-29578293D01*
X43748004Y-29559821D01*
X43785500Y-29548446D01*
X43830637Y-29544001D01*
X44469361Y-29544001D01*
X44514498Y-29548446D01*
G37*
G36*
X46064499Y-29548446D02*
G01*
X46101995Y-29559821D01*
X46136554Y-29578293D01*
X46166847Y-29603154D01*
X46191708Y-29633447D01*
X46210180Y-29668006D01*
X46221555Y-29705502D01*
X46226000Y-29750639D01*
X46226000Y-30489363D01*
X46221555Y-30534500D01*
X46210180Y-30571996D01*
X46191708Y-30606555D01*
X46166847Y-30636848D01*
X46136554Y-30661709D01*
X46101995Y-30680181D01*
X46064499Y-30691556D01*
X46019362Y-30696001D01*
X45380638Y-30696001D01*
X45335501Y-30691556D01*
X45298005Y-30680181D01*
X45263446Y-30661709D01*
X45233153Y-30636848D01*
X45208292Y-30606555D01*
X45189820Y-30571996D01*
X45178445Y-30534500D01*
X45174000Y-30489363D01*
X45174000Y-29750639D01*
X45178445Y-29705502D01*
X45189820Y-29668006D01*
X45208292Y-29633447D01*
X45233153Y-29603154D01*
X45263446Y-29578293D01*
X45298005Y-29559821D01*
X45335501Y-29548446D01*
X45380638Y-29544001D01*
X46019362Y-29544001D01*
X46064499Y-29548446D01*
G37*
G36*
X3853512Y-28513927D02*
G01*
X4002812Y-28543624D01*
X4166784Y-28611544D01*
X4314354Y-28710147D01*
X4439853Y-28835646D01*
X4538456Y-28983216D01*
X4606376Y-29147188D01*
X4641000Y-29321259D01*
X4641000Y-29498741D01*
X4606376Y-29672812D01*
X4538456Y-29836784D01*
X4439853Y-29984354D01*
X4314354Y-30109853D01*
X4166784Y-30208456D01*
X4002812Y-30276376D01*
X3853512Y-30306073D01*
X3828742Y-30311000D01*
X3651258Y-30311000D01*
X3626488Y-30306073D01*
X3477188Y-30276376D01*
X3313216Y-30208456D01*
X3165646Y-30109853D01*
X3040147Y-29984354D01*
X2941544Y-29836784D01*
X2873624Y-29672812D01*
X2839000Y-29498741D01*
X2839000Y-29321259D01*
X2873624Y-29147188D01*
X2941544Y-28983216D01*
X3040147Y-28835646D01*
X3165646Y-28710147D01*
X3313216Y-28611544D01*
X3477188Y-28543624D01*
X3626488Y-28513927D01*
X3651258Y-28509000D01*
X3828742Y-28509000D01*
X3853512Y-28513927D01*
G37*
G36*
X83543512Y-28513927D02*
G01*
X83692812Y-28543624D01*
X83856784Y-28611544D01*
X84004354Y-28710147D01*
X84129853Y-28835646D01*
X84228456Y-28983216D01*
X84296376Y-29147188D01*
X84331000Y-29321259D01*
X84331000Y-29498741D01*
X84296376Y-29672812D01*
X84228456Y-29836784D01*
X84129853Y-29984354D01*
X84004354Y-30109853D01*
X83856784Y-30208456D01*
X83692812Y-30276376D01*
X83543512Y-30306073D01*
X83518742Y-30311000D01*
X83341258Y-30311000D01*
X83316488Y-30306073D01*
X83167188Y-30276376D01*
X83003216Y-30208456D01*
X82855646Y-30109853D01*
X82730147Y-29984354D01*
X82631544Y-29836784D01*
X82563624Y-29672812D01*
X82529000Y-29498741D01*
X82529000Y-29321259D01*
X82563624Y-29147188D01*
X82631544Y-28983216D01*
X82730147Y-28835646D01*
X82855646Y-28710147D01*
X83003216Y-28611544D01*
X83167188Y-28543624D01*
X83316488Y-28513927D01*
X83341258Y-28509000D01*
X83518742Y-28509000D01*
X83543512Y-28513927D01*
G37*
G36*
X6393512Y-28513927D02*
G01*
X6542812Y-28543624D01*
X6706784Y-28611544D01*
X6854354Y-28710147D01*
X6979853Y-28835646D01*
X7078456Y-28983216D01*
X7146376Y-29147188D01*
X7181000Y-29321259D01*
X7181000Y-29498741D01*
X7146376Y-29672812D01*
X7078456Y-29836784D01*
X6979853Y-29984354D01*
X6854354Y-30109853D01*
X6706784Y-30208456D01*
X6542812Y-30276376D01*
X6393512Y-30306073D01*
X6368742Y-30311000D01*
X6191258Y-30311000D01*
X6166488Y-30306073D01*
X6017188Y-30276376D01*
X5853216Y-30208456D01*
X5705646Y-30109853D01*
X5580147Y-29984354D01*
X5481544Y-29836784D01*
X5413624Y-29672812D01*
X5379000Y-29498741D01*
X5379000Y-29321259D01*
X5413624Y-29147188D01*
X5481544Y-28983216D01*
X5580147Y-28835646D01*
X5705646Y-28710147D01*
X5853216Y-28611544D01*
X6017188Y-28543624D01*
X6166488Y-28513927D01*
X6191258Y-28509000D01*
X6368742Y-28509000D01*
X6393512Y-28513927D01*
G37*
G36*
X86083512Y-28513927D02*
G01*
X86232812Y-28543624D01*
X86396784Y-28611544D01*
X86544354Y-28710147D01*
X86669853Y-28835646D01*
X86768456Y-28983216D01*
X86836376Y-29147188D01*
X86871000Y-29321259D01*
X86871000Y-29498741D01*
X86836376Y-29672812D01*
X86768456Y-29836784D01*
X86669853Y-29984354D01*
X86544354Y-30109853D01*
X86396784Y-30208456D01*
X86232812Y-30276376D01*
X86083512Y-30306073D01*
X86058742Y-30311000D01*
X85881258Y-30311000D01*
X85856488Y-30306073D01*
X85707188Y-30276376D01*
X85543216Y-30208456D01*
X85395646Y-30109853D01*
X85270147Y-29984354D01*
X85171544Y-29836784D01*
X85103624Y-29672812D01*
X85069000Y-29498741D01*
X85069000Y-29321259D01*
X85103624Y-29147188D01*
X85171544Y-28983216D01*
X85270147Y-28835646D01*
X85395646Y-28710147D01*
X85543216Y-28611544D01*
X85707188Y-28543624D01*
X85856488Y-28513927D01*
X85881258Y-28509000D01*
X86058742Y-28509000D01*
X86083512Y-28513927D01*
G37*
G36*
X44514499Y-27893445D02*
G01*
X44551995Y-27904820D01*
X44586554Y-27923292D01*
X44616847Y-27948153D01*
X44641708Y-27978446D01*
X44660180Y-28013005D01*
X44671555Y-28050501D01*
X44676000Y-28095638D01*
X44676000Y-28834362D01*
X44671555Y-28879499D01*
X44660180Y-28916995D01*
X44641708Y-28951554D01*
X44616847Y-28981847D01*
X44586554Y-29006708D01*
X44551995Y-29025180D01*
X44514499Y-29036555D01*
X44469362Y-29041000D01*
X43830638Y-29041000D01*
X43785501Y-29036555D01*
X43748005Y-29025180D01*
X43713446Y-29006708D01*
X43683153Y-28981847D01*
X43658292Y-28951554D01*
X43639820Y-28916995D01*
X43628445Y-28879499D01*
X43624000Y-28834362D01*
X43624000Y-28095638D01*
X43628445Y-28050501D01*
X43639820Y-28013005D01*
X43658292Y-27978446D01*
X43683153Y-27948153D01*
X43713446Y-27923292D01*
X43748005Y-27904820D01*
X43785501Y-27893445D01*
X43830638Y-27889000D01*
X44469362Y-27889000D01*
X44514499Y-27893445D01*
G37*
G36*
X46064499Y-27893445D02*
G01*
X46101995Y-27904820D01*
X46136554Y-27923292D01*
X46166847Y-27948153D01*
X46191708Y-27978446D01*
X46210180Y-28013005D01*
X46221555Y-28050501D01*
X46226000Y-28095638D01*
X46226000Y-28834362D01*
X46221555Y-28879499D01*
X46210180Y-28916995D01*
X46191708Y-28951554D01*
X46166847Y-28981847D01*
X46136554Y-29006708D01*
X46101995Y-29025180D01*
X46064499Y-29036555D01*
X46019362Y-29041000D01*
X45380638Y-29041000D01*
X45335501Y-29036555D01*
X45298005Y-29025180D01*
X45263446Y-29006708D01*
X45233153Y-28981847D01*
X45208292Y-28951554D01*
X45189820Y-28916995D01*
X45178445Y-28879499D01*
X45174000Y-28834362D01*
X45174000Y-28095638D01*
X45178445Y-28050501D01*
X45189820Y-28013005D01*
X45208292Y-27978446D01*
X45233153Y-27948153D01*
X45263446Y-27923292D01*
X45298005Y-27904820D01*
X45335501Y-27893445D01*
X45380638Y-27889000D01*
X46019362Y-27889000D01*
X46064499Y-27893445D01*
G37*
G36*
X57864499Y-27848445D02*
G01*
X57901995Y-27859820D01*
X57936554Y-27878292D01*
X57966847Y-27903153D01*
X57991708Y-27933446D01*
X58010180Y-27968005D01*
X58021555Y-28005501D01*
X58026000Y-28050638D01*
X58026000Y-28789362D01*
X58021555Y-28834499D01*
X58010180Y-28871995D01*
X57991708Y-28906554D01*
X57966847Y-28936847D01*
X57936554Y-28961708D01*
X57901995Y-28980180D01*
X57864499Y-28991555D01*
X57819362Y-28996000D01*
X57180638Y-28996000D01*
X57135501Y-28991555D01*
X57098005Y-28980180D01*
X57063446Y-28961708D01*
X57033153Y-28936847D01*
X57008292Y-28906554D01*
X56989820Y-28871995D01*
X56978445Y-28834499D01*
X56974000Y-28789362D01*
X56974000Y-28050638D01*
X56978445Y-28005501D01*
X56989820Y-27968005D01*
X57008292Y-27933446D01*
X57033153Y-27903153D01*
X57063446Y-27878292D01*
X57098005Y-27859820D01*
X57135501Y-27848445D01*
X57180638Y-27844000D01*
X57819362Y-27844000D01*
X57864499Y-27848445D01*
G37*
G36*
X38603499Y-27848445D02*
G01*
X38640995Y-27859820D01*
X38675554Y-27878292D01*
X38705847Y-27903153D01*
X38730708Y-27933446D01*
X38749180Y-27968005D01*
X38760555Y-28005501D01*
X38765000Y-28050638D01*
X38765000Y-28789362D01*
X38760555Y-28834499D01*
X38749180Y-28871995D01*
X38730708Y-28906554D01*
X38705847Y-28936847D01*
X38675554Y-28961708D01*
X38640995Y-28980180D01*
X38603499Y-28991555D01*
X38558362Y-28996000D01*
X37919638Y-28996000D01*
X37874501Y-28991555D01*
X37837005Y-28980180D01*
X37802446Y-28961708D01*
X37772153Y-28936847D01*
X37747292Y-28906554D01*
X37728820Y-28871995D01*
X37717445Y-28834499D01*
X37713000Y-28789362D01*
X37713000Y-28050638D01*
X37717445Y-28005501D01*
X37728820Y-27968005D01*
X37747292Y-27933446D01*
X37772153Y-27903153D01*
X37802446Y-27878292D01*
X37837005Y-27859820D01*
X37874501Y-27848445D01*
X37919638Y-27844000D01*
X38558362Y-27844000D01*
X38603499Y-27848445D01*
G37*
G36*
X56364499Y-27848445D02*
G01*
X56401995Y-27859820D01*
X56436554Y-27878292D01*
X56466847Y-27903153D01*
X56491708Y-27933446D01*
X56510180Y-27968005D01*
X56521555Y-28005501D01*
X56526000Y-28050638D01*
X56526000Y-28789362D01*
X56521555Y-28834499D01*
X56510180Y-28871995D01*
X56491708Y-28906554D01*
X56466847Y-28936847D01*
X56436554Y-28961708D01*
X56401995Y-28980180D01*
X56364499Y-28991555D01*
X56319362Y-28996000D01*
X55680638Y-28996000D01*
X55635501Y-28991555D01*
X55598005Y-28980180D01*
X55563446Y-28961708D01*
X55533153Y-28936847D01*
X55508292Y-28906554D01*
X55489820Y-28871995D01*
X55478445Y-28834499D01*
X55474000Y-28789362D01*
X55474000Y-28050638D01*
X55478445Y-28005501D01*
X55489820Y-27968005D01*
X55508292Y-27933446D01*
X55533153Y-27903153D01*
X55563446Y-27878292D01*
X55598005Y-27859820D01*
X55635501Y-27848445D01*
X55680638Y-27844000D01*
X56319362Y-27844000D01*
X56364499Y-27848445D01*
G37*
G36*
X13764499Y-27848445D02*
G01*
X13801995Y-27859820D01*
X13836554Y-27878292D01*
X13866847Y-27903153D01*
X13891708Y-27933446D01*
X13910180Y-27968005D01*
X13921555Y-28005501D01*
X13926000Y-28050638D01*
X13926000Y-28789362D01*
X13921555Y-28834499D01*
X13910180Y-28871995D01*
X13891708Y-28906554D01*
X13866847Y-28936847D01*
X13836554Y-28961708D01*
X13801995Y-28980180D01*
X13764499Y-28991555D01*
X13719362Y-28996000D01*
X13080638Y-28996000D01*
X13035501Y-28991555D01*
X12998005Y-28980180D01*
X12963446Y-28961708D01*
X12933153Y-28936847D01*
X12908292Y-28906554D01*
X12889820Y-28871995D01*
X12878445Y-28834499D01*
X12874000Y-28789362D01*
X12874000Y-28050638D01*
X12878445Y-28005501D01*
X12889820Y-27968005D01*
X12908292Y-27933446D01*
X12933153Y-27903153D01*
X12963446Y-27878292D01*
X12998005Y-27859820D01*
X13035501Y-27848445D01*
X13080638Y-27844000D01*
X13719362Y-27844000D01*
X13764499Y-27848445D01*
G37*
G36*
X15274499Y-27848445D02*
G01*
X15311995Y-27859820D01*
X15346554Y-27878292D01*
X15376847Y-27903153D01*
X15401708Y-27933446D01*
X15420180Y-27968005D01*
X15431555Y-28005501D01*
X15436000Y-28050638D01*
X15436000Y-28789362D01*
X15431555Y-28834499D01*
X15420180Y-28871995D01*
X15401708Y-28906554D01*
X15376847Y-28936847D01*
X15346554Y-28961708D01*
X15311995Y-28980180D01*
X15274499Y-28991555D01*
X15229362Y-28996000D01*
X14590638Y-28996000D01*
X14545501Y-28991555D01*
X14508005Y-28980180D01*
X14473446Y-28961708D01*
X14443153Y-28936847D01*
X14418292Y-28906554D01*
X14399820Y-28871995D01*
X14388445Y-28834499D01*
X14384000Y-28789362D01*
X14384000Y-28050638D01*
X14388445Y-28005501D01*
X14399820Y-27968005D01*
X14418292Y-27933446D01*
X14443153Y-27903153D01*
X14473446Y-27878292D01*
X14508005Y-27859820D01*
X14545501Y-27848445D01*
X14590638Y-27844000D01*
X15229362Y-27844000D01*
X15274499Y-27848445D01*
G37*
G36*
X40127499Y-27848445D02*
G01*
X40164995Y-27859820D01*
X40199554Y-27878292D01*
X40229847Y-27903153D01*
X40254708Y-27933446D01*
X40273180Y-27968005D01*
X40284555Y-28005501D01*
X40289000Y-28050638D01*
X40289000Y-28789362D01*
X40284555Y-28834499D01*
X40273180Y-28871995D01*
X40254708Y-28906554D01*
X40229847Y-28936847D01*
X40199554Y-28961708D01*
X40164995Y-28980180D01*
X40127499Y-28991555D01*
X40082362Y-28996000D01*
X39443638Y-28996000D01*
X39398501Y-28991555D01*
X39361005Y-28980180D01*
X39326446Y-28961708D01*
X39296153Y-28936847D01*
X39271292Y-28906554D01*
X39252820Y-28871995D01*
X39241445Y-28834499D01*
X39237000Y-28789362D01*
X39237000Y-28050638D01*
X39241445Y-28005501D01*
X39252820Y-27968005D01*
X39271292Y-27933446D01*
X39296153Y-27903153D01*
X39326446Y-27878292D01*
X39361005Y-27859820D01*
X39398501Y-27848445D01*
X39443638Y-27844000D01*
X40082362Y-27844000D01*
X40127499Y-27848445D01*
G37*
G36*
X74964499Y-27403445D02*
G01*
X75001995Y-27414820D01*
X75036554Y-27433292D01*
X75066847Y-27458153D01*
X75091708Y-27488446D01*
X75110180Y-27523005D01*
X75121555Y-27560501D01*
X75126000Y-27605638D01*
X75126000Y-28344362D01*
X75121555Y-28389499D01*
X75110180Y-28426995D01*
X75091708Y-28461554D01*
X75066847Y-28491847D01*
X75036554Y-28516708D01*
X75001995Y-28535180D01*
X74964499Y-28546555D01*
X74919362Y-28551000D01*
X74280638Y-28551000D01*
X74235501Y-28546555D01*
X74198005Y-28535180D01*
X74163446Y-28516708D01*
X74133153Y-28491847D01*
X74108292Y-28461554D01*
X74089820Y-28426995D01*
X74078445Y-28389499D01*
X74074000Y-28344362D01*
X74074000Y-27605638D01*
X74078445Y-27560501D01*
X74089820Y-27523005D01*
X74108292Y-27488446D01*
X74133153Y-27458153D01*
X74163446Y-27433292D01*
X74198005Y-27414820D01*
X74235501Y-27403445D01*
X74280638Y-27399000D01*
X74919362Y-27399000D01*
X74964499Y-27403445D01*
G37*
G36*
X22206564Y-26489389D02*
G01*
X22397833Y-26568615D01*
X22397835Y-26568616D01*
X22569973Y-26683635D01*
X22716365Y-26830027D01*
X22802370Y-26958742D01*
X22831385Y-27002167D01*
X22910611Y-27193436D01*
X22951000Y-27396484D01*
X22951000Y-27603516D01*
X22910611Y-27806564D01*
X22858106Y-27933323D01*
X22831384Y-27997835D01*
X22716365Y-28169973D01*
X22569973Y-28316365D01*
X22397835Y-28431384D01*
X22397834Y-28431385D01*
X22397833Y-28431385D01*
X22206564Y-28510611D01*
X22003516Y-28551000D01*
X21796484Y-28551000D01*
X21593436Y-28510611D01*
X21402167Y-28431385D01*
X21402166Y-28431385D01*
X21402165Y-28431384D01*
X21230027Y-28316365D01*
X21083635Y-28169973D01*
X20968616Y-27997835D01*
X20941894Y-27933323D01*
X20889389Y-27806564D01*
X20849000Y-27603516D01*
X20849000Y-27396484D01*
X20889389Y-27193436D01*
X20968615Y-27002167D01*
X20997631Y-26958742D01*
X21083635Y-26830027D01*
X21230027Y-26683635D01*
X21402165Y-26568616D01*
X21402167Y-26568615D01*
X21593436Y-26489389D01*
X21796484Y-26449000D01*
X22003516Y-26449000D01*
X22206564Y-26489389D01*
G37*
G36*
X76564499Y-27403445D02*
G01*
X76601995Y-27414820D01*
X76636554Y-27433292D01*
X76666847Y-27458153D01*
X76691708Y-27488446D01*
X76710180Y-27523005D01*
X76721555Y-27560501D01*
X76726000Y-27605638D01*
X76726000Y-28344362D01*
X76721555Y-28389499D01*
X76710180Y-28426995D01*
X76691708Y-28461554D01*
X76666847Y-28491847D01*
X76636554Y-28516708D01*
X76601995Y-28535180D01*
X76564499Y-28546555D01*
X76519362Y-28551000D01*
X75880638Y-28551000D01*
X75835501Y-28546555D01*
X75798005Y-28535180D01*
X75763446Y-28516708D01*
X75733153Y-28491847D01*
X75708292Y-28461554D01*
X75689820Y-28426995D01*
X75678445Y-28389499D01*
X75674000Y-28344362D01*
X75674000Y-27605638D01*
X75678445Y-27560501D01*
X75689820Y-27523005D01*
X75708292Y-27488446D01*
X75733153Y-27458153D01*
X75763446Y-27433292D01*
X75798005Y-27414820D01*
X75835501Y-27403445D01*
X75880638Y-27399000D01*
X76519362Y-27399000D01*
X76564499Y-27403445D01*
G37*
G36*
X68306564Y-26489389D02*
G01*
X68497833Y-26568615D01*
X68497835Y-26568616D01*
X68669973Y-26683635D01*
X68816365Y-26830027D01*
X68902370Y-26958742D01*
X68931385Y-27002167D01*
X69010611Y-27193436D01*
X69051000Y-27396484D01*
X69051000Y-27603516D01*
X69010611Y-27806564D01*
X68958106Y-27933323D01*
X68931384Y-27997835D01*
X68816365Y-28169973D01*
X68669973Y-28316365D01*
X68497835Y-28431384D01*
X68497834Y-28431385D01*
X68497833Y-28431385D01*
X68306564Y-28510611D01*
X68103516Y-28551000D01*
X67896484Y-28551000D01*
X67693436Y-28510611D01*
X67502167Y-28431385D01*
X67502166Y-28431385D01*
X67502165Y-28431384D01*
X67330027Y-28316365D01*
X67183635Y-28169973D01*
X67068616Y-27997835D01*
X67041894Y-27933323D01*
X66989389Y-27806564D01*
X66949000Y-27603516D01*
X66949000Y-27396484D01*
X66989389Y-27193436D01*
X67068615Y-27002167D01*
X67097631Y-26958742D01*
X67183635Y-26830027D01*
X67330027Y-26683635D01*
X67502165Y-26568616D01*
X67502167Y-26568615D01*
X67693436Y-26489389D01*
X67896484Y-26449000D01*
X68103516Y-26449000D01*
X68306564Y-26489389D01*
G37*
G36*
X6393512Y-25973927D02*
G01*
X6542812Y-26003624D01*
X6706784Y-26071544D01*
X6854354Y-26170147D01*
X6979853Y-26295646D01*
X7078456Y-26443216D01*
X7146376Y-26607188D01*
X7181000Y-26781259D01*
X7181000Y-26958741D01*
X7146376Y-27132812D01*
X7078456Y-27296784D01*
X6979853Y-27444354D01*
X6854354Y-27569853D01*
X6706784Y-27668456D01*
X6542812Y-27736376D01*
X6393512Y-27766073D01*
X6368742Y-27771000D01*
X6191258Y-27771000D01*
X6166488Y-27766073D01*
X6017188Y-27736376D01*
X5853216Y-27668456D01*
X5705646Y-27569853D01*
X5580147Y-27444354D01*
X5481544Y-27296784D01*
X5413624Y-27132812D01*
X5379000Y-26958741D01*
X5379000Y-26781259D01*
X5413624Y-26607188D01*
X5481544Y-26443216D01*
X5580147Y-26295646D01*
X5705646Y-26170147D01*
X5853216Y-26071544D01*
X6017188Y-26003624D01*
X6166488Y-25973927D01*
X6191258Y-25969000D01*
X6368742Y-25969000D01*
X6393512Y-25973927D01*
G37*
G36*
X3853512Y-25973927D02*
G01*
X4002812Y-26003624D01*
X4166784Y-26071544D01*
X4314354Y-26170147D01*
X4439853Y-26295646D01*
X4538456Y-26443216D01*
X4606376Y-26607188D01*
X4641000Y-26781259D01*
X4641000Y-26958741D01*
X4606376Y-27132812D01*
X4538456Y-27296784D01*
X4439853Y-27444354D01*
X4314354Y-27569853D01*
X4166784Y-27668456D01*
X4002812Y-27736376D01*
X3853512Y-27766073D01*
X3828742Y-27771000D01*
X3651258Y-27771000D01*
X3626488Y-27766073D01*
X3477188Y-27736376D01*
X3313216Y-27668456D01*
X3165646Y-27569853D01*
X3040147Y-27444354D01*
X2941544Y-27296784D01*
X2873624Y-27132812D01*
X2839000Y-26958741D01*
X2839000Y-26781259D01*
X2873624Y-26607188D01*
X2941544Y-26443216D01*
X3040147Y-26295646D01*
X3165646Y-26170147D01*
X3313216Y-26071544D01*
X3477188Y-26003624D01*
X3626488Y-25973927D01*
X3651258Y-25969000D01*
X3828742Y-25969000D01*
X3853512Y-25973927D01*
G37*
G36*
X83543512Y-25973927D02*
G01*
X83692812Y-26003624D01*
X83856784Y-26071544D01*
X84004354Y-26170147D01*
X84129853Y-26295646D01*
X84228456Y-26443216D01*
X84296376Y-26607188D01*
X84331000Y-26781259D01*
X84331000Y-26958741D01*
X84296376Y-27132812D01*
X84228456Y-27296784D01*
X84129853Y-27444354D01*
X84004354Y-27569853D01*
X83856784Y-27668456D01*
X83692812Y-27736376D01*
X83543512Y-27766073D01*
X83518742Y-27771000D01*
X83341258Y-27771000D01*
X83316488Y-27766073D01*
X83167188Y-27736376D01*
X83003216Y-27668456D01*
X82855646Y-27569853D01*
X82730147Y-27444354D01*
X82631544Y-27296784D01*
X82563624Y-27132812D01*
X82529000Y-26958741D01*
X82529000Y-26781259D01*
X82563624Y-26607188D01*
X82631544Y-26443216D01*
X82730147Y-26295646D01*
X82855646Y-26170147D01*
X83003216Y-26071544D01*
X83167188Y-26003624D01*
X83316488Y-25973927D01*
X83341258Y-25969000D01*
X83518742Y-25969000D01*
X83543512Y-25973927D01*
G37*
G36*
X86083512Y-25973927D02*
G01*
X86232812Y-26003624D01*
X86396784Y-26071544D01*
X86544354Y-26170147D01*
X86669853Y-26295646D01*
X86768456Y-26443216D01*
X86836376Y-26607188D01*
X86871000Y-26781259D01*
X86871000Y-26958741D01*
X86836376Y-27132812D01*
X86768456Y-27296784D01*
X86669853Y-27444354D01*
X86544354Y-27569853D01*
X86396784Y-27668456D01*
X86232812Y-27736376D01*
X86083512Y-27766073D01*
X86058742Y-27771000D01*
X85881258Y-27771000D01*
X85856488Y-27766073D01*
X85707188Y-27736376D01*
X85543216Y-27668456D01*
X85395646Y-27569853D01*
X85270147Y-27444354D01*
X85171544Y-27296784D01*
X85103624Y-27132812D01*
X85069000Y-26958741D01*
X85069000Y-26781259D01*
X85103624Y-26607188D01*
X85171544Y-26443216D01*
X85270147Y-26295646D01*
X85395646Y-26170147D01*
X85543216Y-26071544D01*
X85707188Y-26003624D01*
X85856488Y-25973927D01*
X85881258Y-25969000D01*
X86058742Y-25969000D01*
X86083512Y-25973927D01*
G37*
G36*
X44514499Y-26143445D02*
G01*
X44551995Y-26154820D01*
X44586554Y-26173292D01*
X44616847Y-26198153D01*
X44641708Y-26228446D01*
X44660180Y-26263005D01*
X44671555Y-26300501D01*
X44676000Y-26345638D01*
X44676000Y-27084362D01*
X44671555Y-27129499D01*
X44660180Y-27166995D01*
X44641708Y-27201554D01*
X44616847Y-27231847D01*
X44586554Y-27256708D01*
X44551995Y-27275180D01*
X44514499Y-27286555D01*
X44469362Y-27291000D01*
X43830638Y-27291000D01*
X43785501Y-27286555D01*
X43748005Y-27275180D01*
X43713446Y-27256708D01*
X43683153Y-27231847D01*
X43658292Y-27201554D01*
X43639820Y-27166995D01*
X43628445Y-27129499D01*
X43624000Y-27084362D01*
X43624000Y-26345638D01*
X43628445Y-26300501D01*
X43639820Y-26263005D01*
X43658292Y-26228446D01*
X43683153Y-26198153D01*
X43713446Y-26173292D01*
X43748005Y-26154820D01*
X43785501Y-26143445D01*
X43830638Y-26139000D01*
X44469362Y-26139000D01*
X44514499Y-26143445D01*
G37*
G36*
X46064499Y-26143445D02*
G01*
X46101995Y-26154820D01*
X46136554Y-26173292D01*
X46166847Y-26198153D01*
X46191708Y-26228446D01*
X46210180Y-26263005D01*
X46221555Y-26300501D01*
X46226000Y-26345638D01*
X46226000Y-27084362D01*
X46221555Y-27129499D01*
X46210180Y-27166995D01*
X46191708Y-27201554D01*
X46166847Y-27231847D01*
X46136554Y-27256708D01*
X46101995Y-27275180D01*
X46064499Y-27286555D01*
X46019362Y-27291000D01*
X45380638Y-27291000D01*
X45335501Y-27286555D01*
X45298005Y-27275180D01*
X45263446Y-27256708D01*
X45233153Y-27231847D01*
X45208292Y-27201554D01*
X45189820Y-27166995D01*
X45178445Y-27129499D01*
X45174000Y-27084362D01*
X45174000Y-26345638D01*
X45178445Y-26300501D01*
X45189820Y-26263005D01*
X45208292Y-26228446D01*
X45233153Y-26198153D01*
X45263446Y-26173292D01*
X45298005Y-26154820D01*
X45335501Y-26143445D01*
X45380638Y-26139000D01*
X46019362Y-26139000D01*
X46064499Y-26143445D01*
G37*
G36*
X15274499Y-26098445D02*
G01*
X15311995Y-26109820D01*
X15346554Y-26128292D01*
X15376847Y-26153153D01*
X15401708Y-26183446D01*
X15420180Y-26218005D01*
X15431555Y-26255501D01*
X15436000Y-26300638D01*
X15436000Y-27039362D01*
X15431555Y-27084499D01*
X15420180Y-27121995D01*
X15401708Y-27156554D01*
X15376847Y-27186847D01*
X15346554Y-27211708D01*
X15311995Y-27230180D01*
X15274499Y-27241555D01*
X15229362Y-27246000D01*
X14590638Y-27246000D01*
X14545501Y-27241555D01*
X14508005Y-27230180D01*
X14473446Y-27211708D01*
X14443153Y-27186847D01*
X14418292Y-27156554D01*
X14399820Y-27121995D01*
X14388445Y-27084499D01*
X14384000Y-27039362D01*
X14384000Y-26300638D01*
X14388445Y-26255501D01*
X14399820Y-26218005D01*
X14418292Y-26183446D01*
X14443153Y-26153153D01*
X14473446Y-26128292D01*
X14508005Y-26109820D01*
X14545501Y-26098445D01*
X14590638Y-26094000D01*
X15229362Y-26094000D01*
X15274499Y-26098445D01*
G37*
G36*
X38603499Y-26098445D02*
G01*
X38640995Y-26109820D01*
X38675554Y-26128292D01*
X38705847Y-26153153D01*
X38730708Y-26183446D01*
X38749180Y-26218005D01*
X38760555Y-26255501D01*
X38765000Y-26300638D01*
X38765000Y-27039362D01*
X38760555Y-27084499D01*
X38749180Y-27121995D01*
X38730708Y-27156554D01*
X38705847Y-27186847D01*
X38675554Y-27211708D01*
X38640995Y-27230180D01*
X38603499Y-27241555D01*
X38558362Y-27246000D01*
X37919638Y-27246000D01*
X37874501Y-27241555D01*
X37837005Y-27230180D01*
X37802446Y-27211708D01*
X37772153Y-27186847D01*
X37747292Y-27156554D01*
X37728820Y-27121995D01*
X37717445Y-27084499D01*
X37713000Y-27039362D01*
X37713000Y-26300638D01*
X37717445Y-26255501D01*
X37728820Y-26218005D01*
X37747292Y-26183446D01*
X37772153Y-26153153D01*
X37802446Y-26128292D01*
X37837005Y-26109820D01*
X37874501Y-26098445D01*
X37919638Y-26094000D01*
X38558362Y-26094000D01*
X38603499Y-26098445D01*
G37*
G36*
X40127499Y-26098445D02*
G01*
X40164995Y-26109820D01*
X40199554Y-26128292D01*
X40229847Y-26153153D01*
X40254708Y-26183446D01*
X40273180Y-26218005D01*
X40284555Y-26255501D01*
X40289000Y-26300638D01*
X40289000Y-27039362D01*
X40284555Y-27084499D01*
X40273180Y-27121995D01*
X40254708Y-27156554D01*
X40229847Y-27186847D01*
X40199554Y-27211708D01*
X40164995Y-27230180D01*
X40127499Y-27241555D01*
X40082362Y-27246000D01*
X39443638Y-27246000D01*
X39398501Y-27241555D01*
X39361005Y-27230180D01*
X39326446Y-27211708D01*
X39296153Y-27186847D01*
X39271292Y-27156554D01*
X39252820Y-27121995D01*
X39241445Y-27084499D01*
X39237000Y-27039362D01*
X39237000Y-26300638D01*
X39241445Y-26255501D01*
X39252820Y-26218005D01*
X39271292Y-26183446D01*
X39296153Y-26153153D01*
X39326446Y-26128292D01*
X39361005Y-26109820D01*
X39398501Y-26098445D01*
X39443638Y-26094000D01*
X40082362Y-26094000D01*
X40127499Y-26098445D01*
G37*
G36*
X13764499Y-26098445D02*
G01*
X13801995Y-26109820D01*
X13836554Y-26128292D01*
X13866847Y-26153153D01*
X13891708Y-26183446D01*
X13910180Y-26218005D01*
X13921555Y-26255501D01*
X13926000Y-26300638D01*
X13926000Y-27039362D01*
X13921555Y-27084499D01*
X13910180Y-27121995D01*
X13891708Y-27156554D01*
X13866847Y-27186847D01*
X13836554Y-27211708D01*
X13801995Y-27230180D01*
X13764499Y-27241555D01*
X13719362Y-27246000D01*
X13080638Y-27246000D01*
X13035501Y-27241555D01*
X12998005Y-27230180D01*
X12963446Y-27211708D01*
X12933153Y-27186847D01*
X12908292Y-27156554D01*
X12889820Y-27121995D01*
X12878445Y-27084499D01*
X12874000Y-27039362D01*
X12874000Y-26300638D01*
X12878445Y-26255501D01*
X12889820Y-26218005D01*
X12908292Y-26183446D01*
X12933153Y-26153153D01*
X12963446Y-26128292D01*
X12998005Y-26109820D01*
X13035501Y-26098445D01*
X13080638Y-26094000D01*
X13719362Y-26094000D01*
X13764499Y-26098445D01*
G37*
G36*
X56364499Y-26098445D02*
G01*
X56401995Y-26109820D01*
X56436554Y-26128292D01*
X56466847Y-26153153D01*
X56491708Y-26183446D01*
X56510180Y-26218005D01*
X56521555Y-26255501D01*
X56526000Y-26300638D01*
X56526000Y-27039362D01*
X56521555Y-27084499D01*
X56510180Y-27121995D01*
X56491708Y-27156554D01*
X56466847Y-27186847D01*
X56436554Y-27211708D01*
X56401995Y-27230180D01*
X56364499Y-27241555D01*
X56319362Y-27246000D01*
X55680638Y-27246000D01*
X55635501Y-27241555D01*
X55598005Y-27230180D01*
X55563446Y-27211708D01*
X55533153Y-27186847D01*
X55508292Y-27156554D01*
X55489820Y-27121995D01*
X55478445Y-27084499D01*
X55474000Y-27039362D01*
X55474000Y-26300638D01*
X55478445Y-26255501D01*
X55489820Y-26218005D01*
X55508292Y-26183446D01*
X55533153Y-26153153D01*
X55563446Y-26128292D01*
X55598005Y-26109820D01*
X55635501Y-26098445D01*
X55680638Y-26094000D01*
X56319362Y-26094000D01*
X56364499Y-26098445D01*
G37*
G36*
X57864499Y-26098445D02*
G01*
X57901995Y-26109820D01*
X57936554Y-26128292D01*
X57966847Y-26153153D01*
X57991708Y-26183446D01*
X58010180Y-26218005D01*
X58021555Y-26255501D01*
X58026000Y-26300638D01*
X58026000Y-27039362D01*
X58021555Y-27084499D01*
X58010180Y-27121995D01*
X57991708Y-27156554D01*
X57966847Y-27186847D01*
X57936554Y-27211708D01*
X57901995Y-27230180D01*
X57864499Y-27241555D01*
X57819362Y-27246000D01*
X57180638Y-27246000D01*
X57135501Y-27241555D01*
X57098005Y-27230180D01*
X57063446Y-27211708D01*
X57033153Y-27186847D01*
X57008292Y-27156554D01*
X56989820Y-27121995D01*
X56978445Y-27084499D01*
X56974000Y-27039362D01*
X56974000Y-26300638D01*
X56978445Y-26255501D01*
X56989820Y-26218005D01*
X57008292Y-26183446D01*
X57033153Y-26153153D01*
X57063446Y-26128292D01*
X57098005Y-26109820D01*
X57135501Y-26098445D01*
X57180638Y-26094000D01*
X57819362Y-26094000D01*
X57864499Y-26098445D01*
G37*
G36*
X76564499Y-25653445D02*
G01*
X76601995Y-25664820D01*
X76636554Y-25683292D01*
X76666847Y-25708153D01*
X76691708Y-25738446D01*
X76710180Y-25773005D01*
X76721555Y-25810501D01*
X76726000Y-25855638D01*
X76726000Y-26594362D01*
X76721555Y-26639499D01*
X76710180Y-26676995D01*
X76691708Y-26711554D01*
X76666847Y-26741847D01*
X76636554Y-26766708D01*
X76601995Y-26785180D01*
X76564499Y-26796555D01*
X76519362Y-26801000D01*
X75880638Y-26801000D01*
X75835501Y-26796555D01*
X75798005Y-26785180D01*
X75763446Y-26766708D01*
X75733153Y-26741847D01*
X75708292Y-26711554D01*
X75689820Y-26676995D01*
X75678445Y-26639499D01*
X75674000Y-26594362D01*
X75674000Y-25855638D01*
X75678445Y-25810501D01*
X75689820Y-25773005D01*
X75708292Y-25738446D01*
X75733153Y-25708153D01*
X75763446Y-25683292D01*
X75798005Y-25664820D01*
X75835501Y-25653445D01*
X75880638Y-25649000D01*
X76519362Y-25649000D01*
X76564499Y-25653445D01*
G37*
G36*
X74964499Y-25653445D02*
G01*
X75001995Y-25664820D01*
X75036554Y-25683292D01*
X75066847Y-25708153D01*
X75091708Y-25738446D01*
X75110180Y-25773005D01*
X75121555Y-25810501D01*
X75126000Y-25855638D01*
X75126000Y-26594362D01*
X75121555Y-26639499D01*
X75110180Y-26676995D01*
X75091708Y-26711554D01*
X75066847Y-26741847D01*
X75036554Y-26766708D01*
X75001995Y-26785180D01*
X74964499Y-26796555D01*
X74919362Y-26801000D01*
X74280638Y-26801000D01*
X74235501Y-26796555D01*
X74198005Y-26785180D01*
X74163446Y-26766708D01*
X74133153Y-26741847D01*
X74108292Y-26711554D01*
X74089820Y-26676995D01*
X74078445Y-26639499D01*
X74074000Y-26594362D01*
X74074000Y-25855638D01*
X74078445Y-25810501D01*
X74089820Y-25773005D01*
X74108292Y-25738446D01*
X74133153Y-25708153D01*
X74163446Y-25683292D01*
X74198005Y-25664820D01*
X74235501Y-25653445D01*
X74280638Y-25649000D01*
X74919362Y-25649000D01*
X74964499Y-25653445D01*
G37*
G36*
X83543512Y-23433927D02*
G01*
X83692812Y-23463624D01*
X83856784Y-23531544D01*
X84004354Y-23630147D01*
X84129853Y-23755646D01*
X84228456Y-23903216D01*
X84296376Y-24067188D01*
X84331000Y-24241259D01*
X84331000Y-24418741D01*
X84296376Y-24592812D01*
X84228456Y-24756784D01*
X84129853Y-24904354D01*
X84004354Y-25029853D01*
X83856784Y-25128456D01*
X83692812Y-25196376D01*
X83543512Y-25226073D01*
X83518742Y-25231000D01*
X83341258Y-25231000D01*
X83316488Y-25226073D01*
X83167188Y-25196376D01*
X83003216Y-25128456D01*
X82855646Y-25029853D01*
X82730147Y-24904354D01*
X82631544Y-24756784D01*
X82563624Y-24592812D01*
X82529000Y-24418741D01*
X82529000Y-24241259D01*
X82563624Y-24067188D01*
X82631544Y-23903216D01*
X82730147Y-23755646D01*
X82855646Y-23630147D01*
X83003216Y-23531544D01*
X83167188Y-23463624D01*
X83316488Y-23433927D01*
X83341258Y-23429000D01*
X83518742Y-23429000D01*
X83543512Y-23433927D01*
G37*
G36*
X86083512Y-23433927D02*
G01*
X86232812Y-23463624D01*
X86396784Y-23531544D01*
X86544354Y-23630147D01*
X86669853Y-23755646D01*
X86768456Y-23903216D01*
X86836376Y-24067188D01*
X86871000Y-24241259D01*
X86871000Y-24418741D01*
X86836376Y-24592812D01*
X86768456Y-24756784D01*
X86669853Y-24904354D01*
X86544354Y-25029853D01*
X86396784Y-25128456D01*
X86232812Y-25196376D01*
X86083512Y-25226073D01*
X86058742Y-25231000D01*
X85881258Y-25231000D01*
X85856488Y-25226073D01*
X85707188Y-25196376D01*
X85543216Y-25128456D01*
X85395646Y-25029853D01*
X85270147Y-24904354D01*
X85171544Y-24756784D01*
X85103624Y-24592812D01*
X85069000Y-24418741D01*
X85069000Y-24241259D01*
X85103624Y-24067188D01*
X85171544Y-23903216D01*
X85270147Y-23755646D01*
X85395646Y-23630147D01*
X85543216Y-23531544D01*
X85707188Y-23463624D01*
X85856488Y-23433927D01*
X85881258Y-23429000D01*
X86058742Y-23429000D01*
X86083512Y-23433927D01*
G37*
G36*
X6393512Y-23433927D02*
G01*
X6542812Y-23463624D01*
X6706784Y-23531544D01*
X6854354Y-23630147D01*
X6979853Y-23755646D01*
X7078456Y-23903216D01*
X7146376Y-24067188D01*
X7181000Y-24241259D01*
X7181000Y-24418741D01*
X7146376Y-24592812D01*
X7078456Y-24756784D01*
X6979853Y-24904354D01*
X6854354Y-25029853D01*
X6706784Y-25128456D01*
X6542812Y-25196376D01*
X6393512Y-25226073D01*
X6368742Y-25231000D01*
X6191258Y-25231000D01*
X6166488Y-25226073D01*
X6017188Y-25196376D01*
X5853216Y-25128456D01*
X5705646Y-25029853D01*
X5580147Y-24904354D01*
X5481544Y-24756784D01*
X5413624Y-24592812D01*
X5379000Y-24418741D01*
X5379000Y-24241259D01*
X5413624Y-24067188D01*
X5481544Y-23903216D01*
X5580147Y-23755646D01*
X5705646Y-23630147D01*
X5853216Y-23531544D01*
X6017188Y-23463624D01*
X6166488Y-23433927D01*
X6191258Y-23429000D01*
X6368742Y-23429000D01*
X6393512Y-23433927D01*
G37*
G36*
X3853512Y-23433927D02*
G01*
X4002812Y-23463624D01*
X4166784Y-23531544D01*
X4314354Y-23630147D01*
X4439853Y-23755646D01*
X4538456Y-23903216D01*
X4606376Y-24067188D01*
X4641000Y-24241259D01*
X4641000Y-24418741D01*
X4606376Y-24592812D01*
X4538456Y-24756784D01*
X4439853Y-24904354D01*
X4314354Y-25029853D01*
X4166784Y-25128456D01*
X4002812Y-25196376D01*
X3853512Y-25226073D01*
X3828742Y-25231000D01*
X3651258Y-25231000D01*
X3626488Y-25226073D01*
X3477188Y-25196376D01*
X3313216Y-25128456D01*
X3165646Y-25029853D01*
X3040147Y-24904354D01*
X2941544Y-24756784D01*
X2873624Y-24592812D01*
X2839000Y-24418741D01*
X2839000Y-24241259D01*
X2873624Y-24067188D01*
X2941544Y-23903216D01*
X3040147Y-23755646D01*
X3165646Y-23630147D01*
X3313216Y-23531544D01*
X3477188Y-23463624D01*
X3626488Y-23433927D01*
X3651258Y-23429000D01*
X3828742Y-23429000D01*
X3853512Y-23433927D01*
G37*
G36*
X36865297Y-21443068D02*
G01*
X36899109Y-21453325D01*
X36930279Y-21469986D01*
X36957596Y-21492404D01*
X36980014Y-21519721D01*
X36996675Y-21550891D01*
X37006932Y-21584703D01*
X37011000Y-21626012D01*
X37011000Y-23153988D01*
X37006932Y-23195297D01*
X36996675Y-23229109D01*
X36980014Y-23260279D01*
X36957596Y-23287596D01*
X36930279Y-23310014D01*
X36899109Y-23326675D01*
X36865297Y-23336932D01*
X36823988Y-23341000D01*
X35521012Y-23341000D01*
X35479703Y-23336932D01*
X35445891Y-23326675D01*
X35414721Y-23310014D01*
X35387404Y-23287596D01*
X35364986Y-23260279D01*
X35348325Y-23229109D01*
X35338068Y-23195297D01*
X35334000Y-23153988D01*
X35334000Y-21626012D01*
X35338068Y-21584703D01*
X35348325Y-21550891D01*
X35364986Y-21519721D01*
X35387404Y-21492404D01*
X35414721Y-21469986D01*
X35445891Y-21453325D01*
X35479703Y-21443068D01*
X35521012Y-21439000D01*
X36823988Y-21439000D01*
X36865297Y-21443068D01*
G37*
G36*
X19375297Y-21443068D02*
G01*
X19409109Y-21453325D01*
X19440279Y-21469986D01*
X19467596Y-21492404D01*
X19490014Y-21519721D01*
X19506675Y-21550891D01*
X19516932Y-21584703D01*
X19521000Y-21626012D01*
X19521000Y-23153988D01*
X19516932Y-23195297D01*
X19506675Y-23229109D01*
X19490014Y-23260279D01*
X19467596Y-23287596D01*
X19440279Y-23310014D01*
X19409109Y-23326675D01*
X19375297Y-23336932D01*
X19333988Y-23341000D01*
X18031012Y-23341000D01*
X17989703Y-23336932D01*
X17955891Y-23326675D01*
X17924721Y-23310014D01*
X17897404Y-23287596D01*
X17874986Y-23260279D01*
X17858325Y-23229109D01*
X17848068Y-23195297D01*
X17844000Y-23153988D01*
X17844000Y-21626012D01*
X17848068Y-21584703D01*
X17858325Y-21550891D01*
X17874986Y-21519721D01*
X17897404Y-21492404D01*
X17924721Y-21469986D01*
X17955891Y-21453325D01*
X17989703Y-21443068D01*
X18031012Y-21439000D01*
X19333988Y-21439000D01*
X19375297Y-21443068D01*
G37*
G36*
X76020297Y-21443068D02*
G01*
X76054109Y-21453325D01*
X76085279Y-21469986D01*
X76112596Y-21492404D01*
X76135014Y-21519721D01*
X76151675Y-21550891D01*
X76161932Y-21584703D01*
X76166000Y-21626012D01*
X76166000Y-23153988D01*
X76161932Y-23195297D01*
X76151675Y-23229109D01*
X76135014Y-23260279D01*
X76112596Y-23287596D01*
X76085279Y-23310014D01*
X76054109Y-23326675D01*
X76020297Y-23336932D01*
X75978988Y-23341000D01*
X74676012Y-23341000D01*
X74634703Y-23336932D01*
X74600891Y-23326675D01*
X74569721Y-23310014D01*
X74542404Y-23287596D01*
X74519986Y-23260279D01*
X74503325Y-23229109D01*
X74493068Y-23195297D01*
X74489000Y-23153988D01*
X74489000Y-21626012D01*
X74493068Y-21584703D01*
X74503325Y-21550891D01*
X74519986Y-21519721D01*
X74542404Y-21492404D01*
X74569721Y-21469986D01*
X74600891Y-21453325D01*
X74634703Y-21443068D01*
X74676012Y-21439000D01*
X75978988Y-21439000D01*
X76020297Y-21443068D01*
G37*
G36*
X71845297Y-21443068D02*
G01*
X71879109Y-21453325D01*
X71910279Y-21469986D01*
X71937596Y-21492404D01*
X71960014Y-21519721D01*
X71976675Y-21550891D01*
X71986932Y-21584703D01*
X71991000Y-21626012D01*
X71991000Y-23153988D01*
X71986932Y-23195297D01*
X71976675Y-23229109D01*
X71960014Y-23260279D01*
X71937596Y-23287596D01*
X71910279Y-23310014D01*
X71879109Y-23326675D01*
X71845297Y-23336932D01*
X71803988Y-23341000D01*
X70501012Y-23341000D01*
X70459703Y-23336932D01*
X70425891Y-23326675D01*
X70394721Y-23310014D01*
X70367404Y-23287596D01*
X70344986Y-23260279D01*
X70328325Y-23229109D01*
X70318068Y-23195297D01*
X70314000Y-23153988D01*
X70314000Y-21626012D01*
X70318068Y-21584703D01*
X70328325Y-21550891D01*
X70344986Y-21519721D01*
X70367404Y-21492404D01*
X70394721Y-21469986D01*
X70425891Y-21453325D01*
X70459703Y-21443068D01*
X70501012Y-21439000D01*
X71803988Y-21439000D01*
X71845297Y-21443068D01*
G37*
G36*
X58530297Y-21443068D02*
G01*
X58564109Y-21453325D01*
X58595279Y-21469986D01*
X58622596Y-21492404D01*
X58645014Y-21519721D01*
X58661675Y-21550891D01*
X58671932Y-21584703D01*
X58676000Y-21626012D01*
X58676000Y-23153988D01*
X58671932Y-23195297D01*
X58661675Y-23229109D01*
X58645014Y-23260279D01*
X58622596Y-23287596D01*
X58595279Y-23310014D01*
X58564109Y-23326675D01*
X58530297Y-23336932D01*
X58488988Y-23341000D01*
X57186012Y-23341000D01*
X57144703Y-23336932D01*
X57110891Y-23326675D01*
X57079721Y-23310014D01*
X57052404Y-23287596D01*
X57029986Y-23260279D01*
X57013325Y-23229109D01*
X57003068Y-23195297D01*
X56999000Y-23153988D01*
X56999000Y-21626012D01*
X57003068Y-21584703D01*
X57013325Y-21550891D01*
X57029986Y-21519721D01*
X57052404Y-21492404D01*
X57079721Y-21469986D01*
X57110891Y-21453325D01*
X57144703Y-21443068D01*
X57186012Y-21439000D01*
X58488988Y-21439000D01*
X58530297Y-21443068D01*
G37*
G36*
X54355297Y-21443068D02*
G01*
X54389109Y-21453325D01*
X54420279Y-21469986D01*
X54447596Y-21492404D01*
X54470014Y-21519721D01*
X54486675Y-21550891D01*
X54496932Y-21584703D01*
X54501000Y-21626012D01*
X54501000Y-23153988D01*
X54496932Y-23195297D01*
X54486675Y-23229109D01*
X54470014Y-23260279D01*
X54447596Y-23287596D01*
X54420279Y-23310014D01*
X54389109Y-23326675D01*
X54355297Y-23336932D01*
X54313988Y-23341000D01*
X53011012Y-23341000D01*
X52969703Y-23336932D01*
X52935891Y-23326675D01*
X52904721Y-23310014D01*
X52877404Y-23287596D01*
X52854986Y-23260279D01*
X52838325Y-23229109D01*
X52828068Y-23195297D01*
X52824000Y-23153988D01*
X52824000Y-21626012D01*
X52828068Y-21584703D01*
X52838325Y-21550891D01*
X52854986Y-21519721D01*
X52877404Y-21492404D01*
X52904721Y-21469986D01*
X52935891Y-21453325D01*
X52969703Y-21443068D01*
X53011012Y-21439000D01*
X54313988Y-21439000D01*
X54355297Y-21443068D01*
G37*
G36*
X41040297Y-21443068D02*
G01*
X41074109Y-21453325D01*
X41105279Y-21469986D01*
X41132596Y-21492404D01*
X41155014Y-21519721D01*
X41171675Y-21550891D01*
X41181932Y-21584703D01*
X41186000Y-21626012D01*
X41186000Y-23153988D01*
X41181932Y-23195297D01*
X41171675Y-23229109D01*
X41155014Y-23260279D01*
X41132596Y-23287596D01*
X41105279Y-23310014D01*
X41074109Y-23326675D01*
X41040297Y-23336932D01*
X40998988Y-23341000D01*
X39696012Y-23341000D01*
X39654703Y-23336932D01*
X39620891Y-23326675D01*
X39589721Y-23310014D01*
X39562404Y-23287596D01*
X39539986Y-23260279D01*
X39523325Y-23229109D01*
X39513068Y-23195297D01*
X39509000Y-23153988D01*
X39509000Y-21626012D01*
X39513068Y-21584703D01*
X39523325Y-21550891D01*
X39539986Y-21519721D01*
X39562404Y-21492404D01*
X39589721Y-21469986D01*
X39620891Y-21453325D01*
X39654703Y-21443068D01*
X39696012Y-21439000D01*
X40998988Y-21439000D01*
X41040297Y-21443068D01*
G37*
G36*
X23550297Y-21443068D02*
G01*
X23584109Y-21453325D01*
X23615279Y-21469986D01*
X23642596Y-21492404D01*
X23665014Y-21519721D01*
X23681675Y-21550891D01*
X23691932Y-21584703D01*
X23696000Y-21626012D01*
X23696000Y-23153988D01*
X23691932Y-23195297D01*
X23681675Y-23229109D01*
X23665014Y-23260279D01*
X23642596Y-23287596D01*
X23615279Y-23310014D01*
X23584109Y-23326675D01*
X23550297Y-23336932D01*
X23508988Y-23341000D01*
X22206012Y-23341000D01*
X22164703Y-23336932D01*
X22130891Y-23326675D01*
X22099721Y-23310014D01*
X22072404Y-23287596D01*
X22049986Y-23260279D01*
X22033325Y-23229109D01*
X22023068Y-23195297D01*
X22019000Y-23153988D01*
X22019000Y-21626012D01*
X22023068Y-21584703D01*
X22033325Y-21550891D01*
X22049986Y-21519721D01*
X22072404Y-21492404D01*
X22099721Y-21469986D01*
X22130891Y-21453325D01*
X22164703Y-21443068D01*
X22206012Y-21439000D01*
X23508988Y-21439000D01*
X23550297Y-21443068D01*
G37*
G36*
X31533499Y-21859445D02*
G01*
X31570995Y-21870820D01*
X31605554Y-21889292D01*
X31635847Y-21914153D01*
X31660708Y-21944446D01*
X31679180Y-21979005D01*
X31690555Y-22016501D01*
X31695000Y-22061638D01*
X31695000Y-22800362D01*
X31690555Y-22845499D01*
X31679180Y-22882995D01*
X31660708Y-22917554D01*
X31635847Y-22947847D01*
X31605554Y-22972708D01*
X31570995Y-22991180D01*
X31533499Y-23002555D01*
X31488362Y-23007000D01*
X30849638Y-23007000D01*
X30804501Y-23002555D01*
X30767005Y-22991180D01*
X30732446Y-22972708D01*
X30702153Y-22947847D01*
X30677292Y-22917554D01*
X30658820Y-22882995D01*
X30647445Y-22845499D01*
X30643000Y-22800362D01*
X30643000Y-22061638D01*
X30647445Y-22016501D01*
X30658820Y-21979005D01*
X30677292Y-21944446D01*
X30702153Y-21914153D01*
X30732446Y-21889292D01*
X30767005Y-21870820D01*
X30804501Y-21859445D01*
X30849638Y-21855000D01*
X31488362Y-21855000D01*
X31533499Y-21859445D01*
G37*
G36*
X13909499Y-21859445D02*
G01*
X13946995Y-21870820D01*
X13981554Y-21889292D01*
X14011847Y-21914153D01*
X14036708Y-21944446D01*
X14055180Y-21979005D01*
X14066555Y-22016501D01*
X14071000Y-22061638D01*
X14071000Y-22800362D01*
X14066555Y-22845499D01*
X14055180Y-22882995D01*
X14036708Y-22917554D01*
X14011847Y-22947847D01*
X13981554Y-22972708D01*
X13946995Y-22991180D01*
X13909499Y-23002555D01*
X13864362Y-23007000D01*
X13225638Y-23007000D01*
X13180501Y-23002555D01*
X13143005Y-22991180D01*
X13108446Y-22972708D01*
X13078153Y-22947847D01*
X13053292Y-22917554D01*
X13034820Y-22882995D01*
X13023445Y-22845499D01*
X13019000Y-22800362D01*
X13019000Y-22061638D01*
X13023445Y-22016501D01*
X13034820Y-21979005D01*
X13053292Y-21944446D01*
X13078153Y-21914153D01*
X13108446Y-21889292D01*
X13143005Y-21870820D01*
X13180501Y-21859445D01*
X13225638Y-21855000D01*
X13864362Y-21855000D01*
X13909499Y-21859445D01*
G37*
G36*
X15414499Y-21859445D02*
G01*
X15451995Y-21870820D01*
X15486554Y-21889292D01*
X15516847Y-21914153D01*
X15541708Y-21944446D01*
X15560180Y-21979005D01*
X15571555Y-22016501D01*
X15576000Y-22061638D01*
X15576000Y-22800362D01*
X15571555Y-22845499D01*
X15560180Y-22882995D01*
X15541708Y-22917554D01*
X15516847Y-22947847D01*
X15486554Y-22972708D01*
X15451995Y-22991180D01*
X15414499Y-23002555D01*
X15369362Y-23007000D01*
X14730638Y-23007000D01*
X14685501Y-23002555D01*
X14648005Y-22991180D01*
X14613446Y-22972708D01*
X14583153Y-22947847D01*
X14558292Y-22917554D01*
X14539820Y-22882995D01*
X14528445Y-22845499D01*
X14524000Y-22800362D01*
X14524000Y-22061638D01*
X14528445Y-22016501D01*
X14539820Y-21979005D01*
X14558292Y-21944446D01*
X14583153Y-21914153D01*
X14613446Y-21889292D01*
X14648005Y-21870820D01*
X14685501Y-21859445D01*
X14730638Y-21855000D01*
X15369362Y-21855000D01*
X15414499Y-21859445D01*
G37*
G36*
X16919499Y-21859445D02*
G01*
X16956995Y-21870820D01*
X16991554Y-21889292D01*
X17021847Y-21914153D01*
X17046708Y-21944446D01*
X17065180Y-21979005D01*
X17076555Y-22016501D01*
X17081000Y-22061638D01*
X17081000Y-22800362D01*
X17076555Y-22845499D01*
X17065180Y-22882995D01*
X17046708Y-22917554D01*
X17021847Y-22947847D01*
X16991554Y-22972708D01*
X16956995Y-22991180D01*
X16919499Y-23002555D01*
X16874362Y-23007000D01*
X16235638Y-23007000D01*
X16190501Y-23002555D01*
X16153005Y-22991180D01*
X16118446Y-22972708D01*
X16088153Y-22947847D01*
X16063292Y-22917554D01*
X16044820Y-22882995D01*
X16033445Y-22845499D01*
X16029000Y-22800362D01*
X16029000Y-22061638D01*
X16033445Y-22016501D01*
X16044820Y-21979005D01*
X16063292Y-21944446D01*
X16088153Y-21914153D01*
X16118446Y-21889292D01*
X16153005Y-21870820D01*
X16190501Y-21859445D01*
X16235638Y-21855000D01*
X16874362Y-21855000D01*
X16919499Y-21859445D01*
G37*
G36*
X66614499Y-21859445D02*
G01*
X66651995Y-21870820D01*
X66686554Y-21889292D01*
X66716847Y-21914153D01*
X66741708Y-21944446D01*
X66760180Y-21979005D01*
X66771555Y-22016501D01*
X66776000Y-22061638D01*
X66776000Y-22800362D01*
X66771555Y-22845499D01*
X66760180Y-22882995D01*
X66741708Y-22917554D01*
X66716847Y-22947847D01*
X66686554Y-22972708D01*
X66651995Y-22991180D01*
X66614499Y-23002555D01*
X66569362Y-23007000D01*
X65930638Y-23007000D01*
X65885501Y-23002555D01*
X65848005Y-22991180D01*
X65813446Y-22972708D01*
X65783153Y-22947847D01*
X65758292Y-22917554D01*
X65739820Y-22882995D01*
X65728445Y-22845499D01*
X65724000Y-22800362D01*
X65724000Y-22061638D01*
X65728445Y-22016501D01*
X65739820Y-21979005D01*
X65758292Y-21944446D01*
X65783153Y-21914153D01*
X65813446Y-21889292D01*
X65848005Y-21870820D01*
X65885501Y-21859445D01*
X65930638Y-21855000D01*
X66569362Y-21855000D01*
X66614499Y-21859445D01*
G37*
G36*
X68114499Y-21859445D02*
G01*
X68151995Y-21870820D01*
X68186554Y-21889292D01*
X68216847Y-21914153D01*
X68241708Y-21944446D01*
X68260180Y-21979005D01*
X68271555Y-22016501D01*
X68276000Y-22061638D01*
X68276000Y-22800362D01*
X68271555Y-22845499D01*
X68260180Y-22882995D01*
X68241708Y-22917554D01*
X68216847Y-22947847D01*
X68186554Y-22972708D01*
X68151995Y-22991180D01*
X68114499Y-23002555D01*
X68069362Y-23007000D01*
X67430638Y-23007000D01*
X67385501Y-23002555D01*
X67348005Y-22991180D01*
X67313446Y-22972708D01*
X67283153Y-22947847D01*
X67258292Y-22917554D01*
X67239820Y-22882995D01*
X67228445Y-22845499D01*
X67224000Y-22800362D01*
X67224000Y-22061638D01*
X67228445Y-22016501D01*
X67239820Y-21979005D01*
X67258292Y-21944446D01*
X67283153Y-21914153D01*
X67313446Y-21889292D01*
X67348005Y-21870820D01*
X67385501Y-21859445D01*
X67430638Y-21855000D01*
X68069362Y-21855000D01*
X68114499Y-21859445D01*
G37*
G36*
X34581499Y-21859445D02*
G01*
X34618995Y-21870820D01*
X34653554Y-21889292D01*
X34683847Y-21914153D01*
X34708708Y-21944446D01*
X34727180Y-21979005D01*
X34738555Y-22016501D01*
X34743000Y-22061638D01*
X34743000Y-22800362D01*
X34738555Y-22845499D01*
X34727180Y-22882995D01*
X34708708Y-22917554D01*
X34683847Y-22947847D01*
X34653554Y-22972708D01*
X34618995Y-22991180D01*
X34581499Y-23002555D01*
X34536362Y-23007000D01*
X33897638Y-23007000D01*
X33852501Y-23002555D01*
X33815005Y-22991180D01*
X33780446Y-22972708D01*
X33750153Y-22947847D01*
X33725292Y-22917554D01*
X33706820Y-22882995D01*
X33695445Y-22845499D01*
X33691000Y-22800362D01*
X33691000Y-22061638D01*
X33695445Y-22016501D01*
X33706820Y-21979005D01*
X33725292Y-21944446D01*
X33750153Y-21914153D01*
X33780446Y-21889292D01*
X33815005Y-21870820D01*
X33852501Y-21859445D01*
X33897638Y-21855000D01*
X34536362Y-21855000D01*
X34581499Y-21859445D01*
G37*
G36*
X65114499Y-21859445D02*
G01*
X65151995Y-21870820D01*
X65186554Y-21889292D01*
X65216847Y-21914153D01*
X65241708Y-21944446D01*
X65260180Y-21979005D01*
X65271555Y-22016501D01*
X65276000Y-22061638D01*
X65276000Y-22800362D01*
X65271555Y-22845499D01*
X65260180Y-22882995D01*
X65241708Y-22917554D01*
X65216847Y-22947847D01*
X65186554Y-22972708D01*
X65151995Y-22991180D01*
X65114499Y-23002555D01*
X65069362Y-23007000D01*
X64430638Y-23007000D01*
X64385501Y-23002555D01*
X64348005Y-22991180D01*
X64313446Y-22972708D01*
X64283153Y-22947847D01*
X64258292Y-22917554D01*
X64239820Y-22882995D01*
X64228445Y-22845499D01*
X64224000Y-22800362D01*
X64224000Y-22061638D01*
X64228445Y-22016501D01*
X64239820Y-21979005D01*
X64258292Y-21944446D01*
X64283153Y-21914153D01*
X64313446Y-21889292D01*
X64348005Y-21870820D01*
X64385501Y-21859445D01*
X64430638Y-21855000D01*
X65069362Y-21855000D01*
X65114499Y-21859445D01*
G37*
G36*
X49789499Y-21859445D02*
G01*
X49826995Y-21870820D01*
X49861554Y-21889292D01*
X49891847Y-21914153D01*
X49916708Y-21944446D01*
X49935180Y-21979005D01*
X49946555Y-22016501D01*
X49951000Y-22061638D01*
X49951000Y-22800362D01*
X49946555Y-22845499D01*
X49935180Y-22882995D01*
X49916708Y-22917554D01*
X49891847Y-22947847D01*
X49861554Y-22972708D01*
X49826995Y-22991180D01*
X49789499Y-23002555D01*
X49744362Y-23007000D01*
X49105638Y-23007000D01*
X49060501Y-23002555D01*
X49023005Y-22991180D01*
X48988446Y-22972708D01*
X48958153Y-22947847D01*
X48933292Y-22917554D01*
X48914820Y-22882995D01*
X48903445Y-22845499D01*
X48899000Y-22800362D01*
X48899000Y-22061638D01*
X48903445Y-22016501D01*
X48914820Y-21979005D01*
X48933292Y-21944446D01*
X48958153Y-21914153D01*
X48988446Y-21889292D01*
X49023005Y-21870820D01*
X49060501Y-21859445D01*
X49105638Y-21855000D01*
X49744362Y-21855000D01*
X49789499Y-21859445D01*
G37*
G36*
X51289499Y-21859445D02*
G01*
X51326995Y-21870820D01*
X51361554Y-21889292D01*
X51391847Y-21914153D01*
X51416708Y-21944446D01*
X51435180Y-21979005D01*
X51446555Y-22016501D01*
X51451000Y-22061638D01*
X51451000Y-22800362D01*
X51446555Y-22845499D01*
X51435180Y-22882995D01*
X51416708Y-22917554D01*
X51391847Y-22947847D01*
X51361554Y-22972708D01*
X51326995Y-22991180D01*
X51289499Y-23002555D01*
X51244362Y-23007000D01*
X50605638Y-23007000D01*
X50560501Y-23002555D01*
X50523005Y-22991180D01*
X50488446Y-22972708D01*
X50458153Y-22947847D01*
X50433292Y-22917554D01*
X50414820Y-22882995D01*
X50403445Y-22845499D01*
X50399000Y-22800362D01*
X50399000Y-22061638D01*
X50403445Y-22016501D01*
X50414820Y-21979005D01*
X50433292Y-21944446D01*
X50458153Y-21914153D01*
X50488446Y-21889292D01*
X50523005Y-21870820D01*
X50560501Y-21859445D01*
X50605638Y-21855000D01*
X51244362Y-21855000D01*
X51289499Y-21859445D01*
G37*
G36*
X48264499Y-21859445D02*
G01*
X48301995Y-21870820D01*
X48336554Y-21889292D01*
X48366847Y-21914153D01*
X48391708Y-21944446D01*
X48410180Y-21979005D01*
X48421555Y-22016501D01*
X48426000Y-22061638D01*
X48426000Y-22800362D01*
X48421555Y-22845499D01*
X48410180Y-22882995D01*
X48391708Y-22917554D01*
X48366847Y-22947847D01*
X48336554Y-22972708D01*
X48301995Y-22991180D01*
X48264499Y-23002555D01*
X48219362Y-23007000D01*
X47580638Y-23007000D01*
X47535501Y-23002555D01*
X47498005Y-22991180D01*
X47463446Y-22972708D01*
X47433153Y-22947847D01*
X47408292Y-22917554D01*
X47389820Y-22882995D01*
X47378445Y-22845499D01*
X47374000Y-22800362D01*
X47374000Y-22061638D01*
X47378445Y-22016501D01*
X47389820Y-21979005D01*
X47408292Y-21944446D01*
X47433153Y-21914153D01*
X47463446Y-21889292D01*
X47498005Y-21870820D01*
X47535501Y-21859445D01*
X47580638Y-21855000D01*
X48219362Y-21855000D01*
X48264499Y-21859445D01*
G37*
G36*
X33057499Y-21859445D02*
G01*
X33094995Y-21870820D01*
X33129554Y-21889292D01*
X33159847Y-21914153D01*
X33184708Y-21944446D01*
X33203180Y-21979005D01*
X33214555Y-22016501D01*
X33219000Y-22061638D01*
X33219000Y-22800362D01*
X33214555Y-22845499D01*
X33203180Y-22882995D01*
X33184708Y-22917554D01*
X33159847Y-22947847D01*
X33129554Y-22972708D01*
X33094995Y-22991180D01*
X33057499Y-23002555D01*
X33012362Y-23007000D01*
X32373638Y-23007000D01*
X32328501Y-23002555D01*
X32291005Y-22991180D01*
X32256446Y-22972708D01*
X32226153Y-22947847D01*
X32201292Y-22917554D01*
X32182820Y-22882995D01*
X32171445Y-22845499D01*
X32167000Y-22800362D01*
X32167000Y-22061638D01*
X32171445Y-22016501D01*
X32182820Y-21979005D01*
X32201292Y-21944446D01*
X32226153Y-21914153D01*
X32256446Y-21889292D01*
X32291005Y-21870820D01*
X32328501Y-21859445D01*
X32373638Y-21855000D01*
X33012362Y-21855000D01*
X33057499Y-21859445D01*
G37*
G36*
X46224499Y-21559445D02*
G01*
X46261995Y-21570820D01*
X46296554Y-21589292D01*
X46326847Y-21614153D01*
X46351708Y-21644446D01*
X46370180Y-21679005D01*
X46381555Y-21716501D01*
X46386000Y-21761638D01*
X46386000Y-22500362D01*
X46381555Y-22545499D01*
X46370180Y-22582995D01*
X46351708Y-22617554D01*
X46326847Y-22647847D01*
X46296554Y-22672708D01*
X46261995Y-22691180D01*
X46224499Y-22702555D01*
X46179362Y-22707000D01*
X45540638Y-22707000D01*
X45495501Y-22702555D01*
X45458005Y-22691180D01*
X45423446Y-22672708D01*
X45393153Y-22647847D01*
X45368292Y-22617554D01*
X45349820Y-22582995D01*
X45338445Y-22545499D01*
X45334000Y-22500362D01*
X45334000Y-21761638D01*
X45338445Y-21716501D01*
X45349820Y-21679005D01*
X45368292Y-21644446D01*
X45393153Y-21614153D01*
X45423446Y-21589292D01*
X45458005Y-21570820D01*
X45495501Y-21559445D01*
X45540638Y-21555000D01*
X46179362Y-21555000D01*
X46224499Y-21559445D01*
G37*
G36*
X26824499Y-21559445D02*
G01*
X26861995Y-21570820D01*
X26896554Y-21589292D01*
X26926847Y-21614153D01*
X26951708Y-21644446D01*
X26970180Y-21679005D01*
X26981555Y-21716501D01*
X26986000Y-21761638D01*
X26986000Y-22500362D01*
X26981555Y-22545499D01*
X26970180Y-22582995D01*
X26951708Y-22617554D01*
X26926847Y-22647847D01*
X26896554Y-22672708D01*
X26861995Y-22691180D01*
X26824499Y-22702555D01*
X26779362Y-22707000D01*
X26140638Y-22707000D01*
X26095501Y-22702555D01*
X26058005Y-22691180D01*
X26023446Y-22672708D01*
X25993153Y-22647847D01*
X25968292Y-22617554D01*
X25949820Y-22582995D01*
X25938445Y-22545499D01*
X25934000Y-22500362D01*
X25934000Y-21761638D01*
X25938445Y-21716501D01*
X25949820Y-21679005D01*
X25968292Y-21644446D01*
X25993153Y-21614153D01*
X26023446Y-21589292D01*
X26058005Y-21570820D01*
X26095501Y-21559445D01*
X26140638Y-21555000D01*
X26779362Y-21555000D01*
X26824499Y-21559445D01*
G37*
G36*
X28334499Y-21559445D02*
G01*
X28371995Y-21570820D01*
X28406554Y-21589292D01*
X28436847Y-21614153D01*
X28461708Y-21644446D01*
X28480180Y-21679005D01*
X28491555Y-21716501D01*
X28496000Y-21761638D01*
X28496000Y-22500362D01*
X28491555Y-22545499D01*
X28480180Y-22582995D01*
X28461708Y-22617554D01*
X28436847Y-22647847D01*
X28406554Y-22672708D01*
X28371995Y-22691180D01*
X28334499Y-22702555D01*
X28289362Y-22707000D01*
X27650638Y-22707000D01*
X27605501Y-22702555D01*
X27568005Y-22691180D01*
X27533446Y-22672708D01*
X27503153Y-22647847D01*
X27478292Y-22617554D01*
X27459820Y-22582995D01*
X27448445Y-22545499D01*
X27444000Y-22500362D01*
X27444000Y-21761638D01*
X27448445Y-21716501D01*
X27459820Y-21679005D01*
X27478292Y-21644446D01*
X27503153Y-21614153D01*
X27533446Y-21589292D01*
X27568005Y-21570820D01*
X27605501Y-21559445D01*
X27650638Y-21555000D01*
X28289362Y-21555000D01*
X28334499Y-21559445D01*
G37*
G36*
X44700499Y-21559445D02*
G01*
X44737995Y-21570820D01*
X44772554Y-21589292D01*
X44802847Y-21614153D01*
X44827708Y-21644446D01*
X44846180Y-21679005D01*
X44857555Y-21716501D01*
X44862000Y-21761638D01*
X44862000Y-22500362D01*
X44857555Y-22545499D01*
X44846180Y-22582995D01*
X44827708Y-22617554D01*
X44802847Y-22647847D01*
X44772554Y-22672708D01*
X44737995Y-22691180D01*
X44700499Y-22702555D01*
X44655362Y-22707000D01*
X44016638Y-22707000D01*
X43971501Y-22702555D01*
X43934005Y-22691180D01*
X43899446Y-22672708D01*
X43869153Y-22647847D01*
X43844292Y-22617554D01*
X43825820Y-22582995D01*
X43814445Y-22545499D01*
X43810000Y-22500362D01*
X43810000Y-21761638D01*
X43814445Y-21716501D01*
X43825820Y-21679005D01*
X43844292Y-21644446D01*
X43869153Y-21614153D01*
X43899446Y-21589292D01*
X43934005Y-21570820D01*
X43971501Y-21559445D01*
X44016638Y-21555000D01*
X44655362Y-21555000D01*
X44700499Y-21559445D01*
G37*
G36*
X83543512Y-20893927D02*
G01*
X83692812Y-20923624D01*
X83856784Y-20991544D01*
X84004354Y-21090147D01*
X84129853Y-21215646D01*
X84228456Y-21363216D01*
X84296376Y-21527188D01*
X84331000Y-21701259D01*
X84331000Y-21878741D01*
X84296376Y-22052812D01*
X84228456Y-22216784D01*
X84129853Y-22364354D01*
X84004354Y-22489853D01*
X83856784Y-22588456D01*
X83692812Y-22656376D01*
X83543512Y-22686073D01*
X83518742Y-22691000D01*
X83341258Y-22691000D01*
X83316488Y-22686073D01*
X83167188Y-22656376D01*
X83003216Y-22588456D01*
X82855646Y-22489853D01*
X82730147Y-22364354D01*
X82631544Y-22216784D01*
X82563624Y-22052812D01*
X82529000Y-21878741D01*
X82529000Y-21701259D01*
X82563624Y-21527188D01*
X82631544Y-21363216D01*
X82730147Y-21215646D01*
X82855646Y-21090147D01*
X83003216Y-20991544D01*
X83167188Y-20923624D01*
X83316488Y-20893927D01*
X83341258Y-20889000D01*
X83518742Y-20889000D01*
X83543512Y-20893927D01*
G37*
G36*
X6393512Y-20893927D02*
G01*
X6542812Y-20923624D01*
X6706784Y-20991544D01*
X6854354Y-21090147D01*
X6979853Y-21215646D01*
X7078456Y-21363216D01*
X7146376Y-21527188D01*
X7181000Y-21701259D01*
X7181000Y-21878741D01*
X7146376Y-22052812D01*
X7078456Y-22216784D01*
X6979853Y-22364354D01*
X6854354Y-22489853D01*
X6706784Y-22588456D01*
X6542812Y-22656376D01*
X6393512Y-22686073D01*
X6368742Y-22691000D01*
X6191258Y-22691000D01*
X6166488Y-22686073D01*
X6017188Y-22656376D01*
X5853216Y-22588456D01*
X5705646Y-22489853D01*
X5580147Y-22364354D01*
X5481544Y-22216784D01*
X5413624Y-22052812D01*
X5379000Y-21878741D01*
X5379000Y-21701259D01*
X5413624Y-21527188D01*
X5481544Y-21363216D01*
X5580147Y-21215646D01*
X5705646Y-21090147D01*
X5853216Y-20991544D01*
X6017188Y-20923624D01*
X6166488Y-20893927D01*
X6191258Y-20889000D01*
X6368742Y-20889000D01*
X6393512Y-20893927D01*
G37*
G36*
X86083512Y-20893927D02*
G01*
X86232812Y-20923624D01*
X86396784Y-20991544D01*
X86544354Y-21090147D01*
X86669853Y-21215646D01*
X86768456Y-21363216D01*
X86836376Y-21527188D01*
X86871000Y-21701259D01*
X86871000Y-21878741D01*
X86836376Y-22052812D01*
X86768456Y-22216784D01*
X86669853Y-22364354D01*
X86544354Y-22489853D01*
X86396784Y-22588456D01*
X86232812Y-22656376D01*
X86083512Y-22686073D01*
X86058742Y-22691000D01*
X85881258Y-22691000D01*
X85856488Y-22686073D01*
X85707188Y-22656376D01*
X85543216Y-22588456D01*
X85395646Y-22489853D01*
X85270147Y-22364354D01*
X85171544Y-22216784D01*
X85103624Y-22052812D01*
X85069000Y-21878741D01*
X85069000Y-21701259D01*
X85103624Y-21527188D01*
X85171544Y-21363216D01*
X85270147Y-21215646D01*
X85395646Y-21090147D01*
X85543216Y-20991544D01*
X85707188Y-20923624D01*
X85856488Y-20893927D01*
X85881258Y-20889000D01*
X86058742Y-20889000D01*
X86083512Y-20893927D01*
G37*
G36*
X3853512Y-20893927D02*
G01*
X4002812Y-20923624D01*
X4166784Y-20991544D01*
X4314354Y-21090147D01*
X4439853Y-21215646D01*
X4538456Y-21363216D01*
X4606376Y-21527188D01*
X4641000Y-21701259D01*
X4641000Y-21878741D01*
X4606376Y-22052812D01*
X4538456Y-22216784D01*
X4439853Y-22364354D01*
X4314354Y-22489853D01*
X4166784Y-22588456D01*
X4002812Y-22656376D01*
X3853512Y-22686073D01*
X3828742Y-22691000D01*
X3651258Y-22691000D01*
X3626488Y-22686073D01*
X3477188Y-22656376D01*
X3313216Y-22588456D01*
X3165646Y-22489853D01*
X3040147Y-22364354D01*
X2941544Y-22216784D01*
X2873624Y-22052812D01*
X2839000Y-21878741D01*
X2839000Y-21701259D01*
X2873624Y-21527188D01*
X2941544Y-21363216D01*
X3040147Y-21215646D01*
X3165646Y-21090147D01*
X3313216Y-20991544D01*
X3477188Y-20923624D01*
X3626488Y-20893927D01*
X3651258Y-20889000D01*
X3828742Y-20889000D01*
X3853512Y-20893927D01*
G37*
G36*
X62064499Y-21459445D02*
G01*
X62101995Y-21470820D01*
X62136554Y-21489292D01*
X62166847Y-21514153D01*
X62191708Y-21544446D01*
X62210180Y-21579005D01*
X62221555Y-21616501D01*
X62226000Y-21661638D01*
X62226000Y-22400362D01*
X62221555Y-22445499D01*
X62210180Y-22482995D01*
X62191708Y-22517554D01*
X62166847Y-22547847D01*
X62136554Y-22572708D01*
X62101995Y-22591180D01*
X62064499Y-22602555D01*
X62019362Y-22607000D01*
X61380638Y-22607000D01*
X61335501Y-22602555D01*
X61298005Y-22591180D01*
X61263446Y-22572708D01*
X61233153Y-22547847D01*
X61208292Y-22517554D01*
X61189820Y-22482995D01*
X61178445Y-22445499D01*
X61174000Y-22400362D01*
X61174000Y-21661638D01*
X61178445Y-21616501D01*
X61189820Y-21579005D01*
X61208292Y-21544446D01*
X61233153Y-21514153D01*
X61263446Y-21489292D01*
X61298005Y-21470820D01*
X61335501Y-21459445D01*
X61380638Y-21455000D01*
X62019362Y-21455000D01*
X62064499Y-21459445D01*
G37*
G36*
X63564499Y-21459445D02*
G01*
X63601995Y-21470820D01*
X63636554Y-21489292D01*
X63666847Y-21514153D01*
X63691708Y-21544446D01*
X63710180Y-21579005D01*
X63721555Y-21616501D01*
X63726000Y-21661638D01*
X63726000Y-22400362D01*
X63721555Y-22445499D01*
X63710180Y-22482995D01*
X63691708Y-22517554D01*
X63666847Y-22547847D01*
X63636554Y-22572708D01*
X63601995Y-22591180D01*
X63564499Y-22602555D01*
X63519362Y-22607000D01*
X62880638Y-22607000D01*
X62835501Y-22602555D01*
X62798005Y-22591180D01*
X62763446Y-22572708D01*
X62733153Y-22547847D01*
X62708292Y-22517554D01*
X62689820Y-22482995D01*
X62678445Y-22445499D01*
X62674000Y-22400362D01*
X62674000Y-21661638D01*
X62678445Y-21616501D01*
X62689820Y-21579005D01*
X62708292Y-21544446D01*
X62733153Y-21514153D01*
X62763446Y-21489292D01*
X62798005Y-21470820D01*
X62835501Y-21459445D01*
X62880638Y-21455000D01*
X63519362Y-21455000D01*
X63564499Y-21459445D01*
G37*
G36*
X79664499Y-21403445D02*
G01*
X79701995Y-21414820D01*
X79736554Y-21433292D01*
X79766847Y-21458153D01*
X79791708Y-21488446D01*
X79810180Y-21523005D01*
X79821555Y-21560501D01*
X79826000Y-21605638D01*
X79826000Y-22344362D01*
X79821555Y-22389499D01*
X79810180Y-22426995D01*
X79791708Y-22461554D01*
X79766847Y-22491847D01*
X79736554Y-22516708D01*
X79701995Y-22535180D01*
X79664499Y-22546555D01*
X79619362Y-22551000D01*
X78980638Y-22551000D01*
X78935501Y-22546555D01*
X78898005Y-22535180D01*
X78863446Y-22516708D01*
X78833153Y-22491847D01*
X78808292Y-22461554D01*
X78789820Y-22426995D01*
X78778445Y-22389499D01*
X78774000Y-22344362D01*
X78774000Y-21605638D01*
X78778445Y-21560501D01*
X78789820Y-21523005D01*
X78808292Y-21488446D01*
X78833153Y-21458153D01*
X78863446Y-21433292D01*
X78898005Y-21414820D01*
X78935501Y-21403445D01*
X78980638Y-21399000D01*
X79619362Y-21399000D01*
X79664499Y-21403445D01*
G37*
G36*
X81264499Y-21403445D02*
G01*
X81301995Y-21414820D01*
X81336554Y-21433292D01*
X81366847Y-21458153D01*
X81391708Y-21488446D01*
X81410180Y-21523005D01*
X81421555Y-21560501D01*
X81426000Y-21605638D01*
X81426000Y-22344362D01*
X81421555Y-22389499D01*
X81410180Y-22426995D01*
X81391708Y-22461554D01*
X81366847Y-22491847D01*
X81336554Y-22516708D01*
X81301995Y-22535180D01*
X81264499Y-22546555D01*
X81219362Y-22551000D01*
X80580638Y-22551000D01*
X80535501Y-22546555D01*
X80498005Y-22535180D01*
X80463446Y-22516708D01*
X80433153Y-22491847D01*
X80408292Y-22461554D01*
X80389820Y-22426995D01*
X80378445Y-22389499D01*
X80374000Y-22344362D01*
X80374000Y-21605638D01*
X80378445Y-21560501D01*
X80389820Y-21523005D01*
X80408292Y-21488446D01*
X80433153Y-21458153D01*
X80463446Y-21433292D01*
X80498005Y-21414820D01*
X80535501Y-21403445D01*
X80580638Y-21399000D01*
X81219362Y-21399000D01*
X81264499Y-21403445D01*
G37*
G36*
X31533499Y-20109445D02*
G01*
X31570995Y-20120820D01*
X31605554Y-20139292D01*
X31635847Y-20164153D01*
X31660708Y-20194446D01*
X31679180Y-20229005D01*
X31690555Y-20266501D01*
X31695000Y-20311638D01*
X31695000Y-21050362D01*
X31690555Y-21095499D01*
X31679180Y-21132995D01*
X31660708Y-21167554D01*
X31635847Y-21197847D01*
X31605554Y-21222708D01*
X31570995Y-21241180D01*
X31533499Y-21252555D01*
X31488362Y-21257000D01*
X30849638Y-21257000D01*
X30804501Y-21252555D01*
X30767005Y-21241180D01*
X30732446Y-21222708D01*
X30702153Y-21197847D01*
X30677292Y-21167554D01*
X30658820Y-21132995D01*
X30647445Y-21095499D01*
X30643000Y-21050362D01*
X30643000Y-20311638D01*
X30647445Y-20266501D01*
X30658820Y-20229005D01*
X30677292Y-20194446D01*
X30702153Y-20164153D01*
X30732446Y-20139292D01*
X30767005Y-20120820D01*
X30804501Y-20109445D01*
X30849638Y-20105000D01*
X31488362Y-20105000D01*
X31533499Y-20109445D01*
G37*
G36*
X33057499Y-20109445D02*
G01*
X33094995Y-20120820D01*
X33129554Y-20139292D01*
X33159847Y-20164153D01*
X33184708Y-20194446D01*
X33203180Y-20229005D01*
X33214555Y-20266501D01*
X33219000Y-20311638D01*
X33219000Y-21050362D01*
X33214555Y-21095499D01*
X33203180Y-21132995D01*
X33184708Y-21167554D01*
X33159847Y-21197847D01*
X33129554Y-21222708D01*
X33094995Y-21241180D01*
X33057499Y-21252555D01*
X33012362Y-21257000D01*
X32373638Y-21257000D01*
X32328501Y-21252555D01*
X32291005Y-21241180D01*
X32256446Y-21222708D01*
X32226153Y-21197847D01*
X32201292Y-21167554D01*
X32182820Y-21132995D01*
X32171445Y-21095499D01*
X32167000Y-21050362D01*
X32167000Y-20311638D01*
X32171445Y-20266501D01*
X32182820Y-20229005D01*
X32201292Y-20194446D01*
X32226153Y-20164153D01*
X32256446Y-20139292D01*
X32291005Y-20120820D01*
X32328501Y-20109445D01*
X32373638Y-20105000D01*
X33012362Y-20105000D01*
X33057499Y-20109445D01*
G37*
G36*
X49789499Y-20109445D02*
G01*
X49826995Y-20120820D01*
X49861554Y-20139292D01*
X49891847Y-20164153D01*
X49916708Y-20194446D01*
X49935180Y-20229005D01*
X49946555Y-20266501D01*
X49951000Y-20311638D01*
X49951000Y-21050362D01*
X49946555Y-21095499D01*
X49935180Y-21132995D01*
X49916708Y-21167554D01*
X49891847Y-21197847D01*
X49861554Y-21222708D01*
X49826995Y-21241180D01*
X49789499Y-21252555D01*
X49744362Y-21257000D01*
X49105638Y-21257000D01*
X49060501Y-21252555D01*
X49023005Y-21241180D01*
X48988446Y-21222708D01*
X48958153Y-21197847D01*
X48933292Y-21167554D01*
X48914820Y-21132995D01*
X48903445Y-21095499D01*
X48899000Y-21050362D01*
X48899000Y-20311638D01*
X48903445Y-20266501D01*
X48914820Y-20229005D01*
X48933292Y-20194446D01*
X48958153Y-20164153D01*
X48988446Y-20139292D01*
X49023005Y-20120820D01*
X49060501Y-20109445D01*
X49105638Y-20105000D01*
X49744362Y-20105000D01*
X49789499Y-20109445D01*
G37*
G36*
X51289499Y-20109445D02*
G01*
X51326995Y-20120820D01*
X51361554Y-20139292D01*
X51391847Y-20164153D01*
X51416708Y-20194446D01*
X51435180Y-20229005D01*
X51446555Y-20266501D01*
X51451000Y-20311638D01*
X51451000Y-21050362D01*
X51446555Y-21095499D01*
X51435180Y-21132995D01*
X51416708Y-21167554D01*
X51391847Y-21197847D01*
X51361554Y-21222708D01*
X51326995Y-21241180D01*
X51289499Y-21252555D01*
X51244362Y-21257000D01*
X50605638Y-21257000D01*
X50560501Y-21252555D01*
X50523005Y-21241180D01*
X50488446Y-21222708D01*
X50458153Y-21197847D01*
X50433292Y-21167554D01*
X50414820Y-21132995D01*
X50403445Y-21095499D01*
X50399000Y-21050362D01*
X50399000Y-20311638D01*
X50403445Y-20266501D01*
X50414820Y-20229005D01*
X50433292Y-20194446D01*
X50458153Y-20164153D01*
X50488446Y-20139292D01*
X50523005Y-20120820D01*
X50560501Y-20109445D01*
X50605638Y-20105000D01*
X51244362Y-20105000D01*
X51289499Y-20109445D01*
G37*
G36*
X34581499Y-20109445D02*
G01*
X34618995Y-20120820D01*
X34653554Y-20139292D01*
X34683847Y-20164153D01*
X34708708Y-20194446D01*
X34727180Y-20229005D01*
X34738555Y-20266501D01*
X34743000Y-20311638D01*
X34743000Y-21050362D01*
X34738555Y-21095499D01*
X34727180Y-21132995D01*
X34708708Y-21167554D01*
X34683847Y-21197847D01*
X34653554Y-21222708D01*
X34618995Y-21241180D01*
X34581499Y-21252555D01*
X34536362Y-21257000D01*
X33897638Y-21257000D01*
X33852501Y-21252555D01*
X33815005Y-21241180D01*
X33780446Y-21222708D01*
X33750153Y-21197847D01*
X33725292Y-21167554D01*
X33706820Y-21132995D01*
X33695445Y-21095499D01*
X33691000Y-21050362D01*
X33691000Y-20311638D01*
X33695445Y-20266501D01*
X33706820Y-20229005D01*
X33725292Y-20194446D01*
X33750153Y-20164153D01*
X33780446Y-20139292D01*
X33815005Y-20120820D01*
X33852501Y-20109445D01*
X33897638Y-20105000D01*
X34536362Y-20105000D01*
X34581499Y-20109445D01*
G37*
G36*
X65114499Y-20109445D02*
G01*
X65151995Y-20120820D01*
X65186554Y-20139292D01*
X65216847Y-20164153D01*
X65241708Y-20194446D01*
X65260180Y-20229005D01*
X65271555Y-20266501D01*
X65276000Y-20311638D01*
X65276000Y-21050362D01*
X65271555Y-21095499D01*
X65260180Y-21132995D01*
X65241708Y-21167554D01*
X65216847Y-21197847D01*
X65186554Y-21222708D01*
X65151995Y-21241180D01*
X65114499Y-21252555D01*
X65069362Y-21257000D01*
X64430638Y-21257000D01*
X64385501Y-21252555D01*
X64348005Y-21241180D01*
X64313446Y-21222708D01*
X64283153Y-21197847D01*
X64258292Y-21167554D01*
X64239820Y-21132995D01*
X64228445Y-21095499D01*
X64224000Y-21050362D01*
X64224000Y-20311638D01*
X64228445Y-20266501D01*
X64239820Y-20229005D01*
X64258292Y-20194446D01*
X64283153Y-20164153D01*
X64313446Y-20139292D01*
X64348005Y-20120820D01*
X64385501Y-20109445D01*
X64430638Y-20105000D01*
X65069362Y-20105000D01*
X65114499Y-20109445D01*
G37*
G36*
X13909499Y-20109445D02*
G01*
X13946995Y-20120820D01*
X13981554Y-20139292D01*
X14011847Y-20164153D01*
X14036708Y-20194446D01*
X14055180Y-20229005D01*
X14066555Y-20266501D01*
X14071000Y-20311638D01*
X14071000Y-21050362D01*
X14066555Y-21095499D01*
X14055180Y-21132995D01*
X14036708Y-21167554D01*
X14011847Y-21197847D01*
X13981554Y-21222708D01*
X13946995Y-21241180D01*
X13909499Y-21252555D01*
X13864362Y-21257000D01*
X13225638Y-21257000D01*
X13180501Y-21252555D01*
X13143005Y-21241180D01*
X13108446Y-21222708D01*
X13078153Y-21197847D01*
X13053292Y-21167554D01*
X13034820Y-21132995D01*
X13023445Y-21095499D01*
X13019000Y-21050362D01*
X13019000Y-20311638D01*
X13023445Y-20266501D01*
X13034820Y-20229005D01*
X13053292Y-20194446D01*
X13078153Y-20164153D01*
X13108446Y-20139292D01*
X13143005Y-20120820D01*
X13180501Y-20109445D01*
X13225638Y-20105000D01*
X13864362Y-20105000D01*
X13909499Y-20109445D01*
G37*
G36*
X16919499Y-20109445D02*
G01*
X16956995Y-20120820D01*
X16991554Y-20139292D01*
X17021847Y-20164153D01*
X17046708Y-20194446D01*
X17065180Y-20229005D01*
X17076555Y-20266501D01*
X17081000Y-20311638D01*
X17081000Y-21050362D01*
X17076555Y-21095499D01*
X17065180Y-21132995D01*
X17046708Y-21167554D01*
X17021847Y-21197847D01*
X16991554Y-21222708D01*
X16956995Y-21241180D01*
X16919499Y-21252555D01*
X16874362Y-21257000D01*
X16235638Y-21257000D01*
X16190501Y-21252555D01*
X16153005Y-21241180D01*
X16118446Y-21222708D01*
X16088153Y-21197847D01*
X16063292Y-21167554D01*
X16044820Y-21132995D01*
X16033445Y-21095499D01*
X16029000Y-21050362D01*
X16029000Y-20311638D01*
X16033445Y-20266501D01*
X16044820Y-20229005D01*
X16063292Y-20194446D01*
X16088153Y-20164153D01*
X16118446Y-20139292D01*
X16153005Y-20120820D01*
X16190501Y-20109445D01*
X16235638Y-20105000D01*
X16874362Y-20105000D01*
X16919499Y-20109445D01*
G37*
G36*
X66614499Y-20109445D02*
G01*
X66651995Y-20120820D01*
X66686554Y-20139292D01*
X66716847Y-20164153D01*
X66741708Y-20194446D01*
X66760180Y-20229005D01*
X66771555Y-20266501D01*
X66776000Y-20311638D01*
X66776000Y-21050362D01*
X66771555Y-21095499D01*
X66760180Y-21132995D01*
X66741708Y-21167554D01*
X66716847Y-21197847D01*
X66686554Y-21222708D01*
X66651995Y-21241180D01*
X66614499Y-21252555D01*
X66569362Y-21257000D01*
X65930638Y-21257000D01*
X65885501Y-21252555D01*
X65848005Y-21241180D01*
X65813446Y-21222708D01*
X65783153Y-21197847D01*
X65758292Y-21167554D01*
X65739820Y-21132995D01*
X65728445Y-21095499D01*
X65724000Y-21050362D01*
X65724000Y-20311638D01*
X65728445Y-20266501D01*
X65739820Y-20229005D01*
X65758292Y-20194446D01*
X65783153Y-20164153D01*
X65813446Y-20139292D01*
X65848005Y-20120820D01*
X65885501Y-20109445D01*
X65930638Y-20105000D01*
X66569362Y-20105000D01*
X66614499Y-20109445D01*
G37*
G36*
X15414499Y-20109445D02*
G01*
X15451995Y-20120820D01*
X15486554Y-20139292D01*
X15516847Y-20164153D01*
X15541708Y-20194446D01*
X15560180Y-20229005D01*
X15571555Y-20266501D01*
X15576000Y-20311638D01*
X15576000Y-21050362D01*
X15571555Y-21095499D01*
X15560180Y-21132995D01*
X15541708Y-21167554D01*
X15516847Y-21197847D01*
X15486554Y-21222708D01*
X15451995Y-21241180D01*
X15414499Y-21252555D01*
X15369362Y-21257000D01*
X14730638Y-21257000D01*
X14685501Y-21252555D01*
X14648005Y-21241180D01*
X14613446Y-21222708D01*
X14583153Y-21197847D01*
X14558292Y-21167554D01*
X14539820Y-21132995D01*
X14528445Y-21095499D01*
X14524000Y-21050362D01*
X14524000Y-20311638D01*
X14528445Y-20266501D01*
X14539820Y-20229005D01*
X14558292Y-20194446D01*
X14583153Y-20164153D01*
X14613446Y-20139292D01*
X14648005Y-20120820D01*
X14685501Y-20109445D01*
X14730638Y-20105000D01*
X15369362Y-20105000D01*
X15414499Y-20109445D01*
G37*
G36*
X48264499Y-20109445D02*
G01*
X48301995Y-20120820D01*
X48336554Y-20139292D01*
X48366847Y-20164153D01*
X48391708Y-20194446D01*
X48410180Y-20229005D01*
X48421555Y-20266501D01*
X48426000Y-20311638D01*
X48426000Y-21050362D01*
X48421555Y-21095499D01*
X48410180Y-21132995D01*
X48391708Y-21167554D01*
X48366847Y-21197847D01*
X48336554Y-21222708D01*
X48301995Y-21241180D01*
X48264499Y-21252555D01*
X48219362Y-21257000D01*
X47580638Y-21257000D01*
X47535501Y-21252555D01*
X47498005Y-21241180D01*
X47463446Y-21222708D01*
X47433153Y-21197847D01*
X47408292Y-21167554D01*
X47389820Y-21132995D01*
X47378445Y-21095499D01*
X47374000Y-21050362D01*
X47374000Y-20311638D01*
X47378445Y-20266501D01*
X47389820Y-20229005D01*
X47408292Y-20194446D01*
X47433153Y-20164153D01*
X47463446Y-20139292D01*
X47498005Y-20120820D01*
X47535501Y-20109445D01*
X47580638Y-20105000D01*
X48219362Y-20105000D01*
X48264499Y-20109445D01*
G37*
G36*
X68114499Y-20109445D02*
G01*
X68151995Y-20120820D01*
X68186554Y-20139292D01*
X68216847Y-20164153D01*
X68241708Y-20194446D01*
X68260180Y-20229005D01*
X68271555Y-20266501D01*
X68276000Y-20311638D01*
X68276000Y-21050362D01*
X68271555Y-21095499D01*
X68260180Y-21132995D01*
X68241708Y-21167554D01*
X68216847Y-21197847D01*
X68186554Y-21222708D01*
X68151995Y-21241180D01*
X68114499Y-21252555D01*
X68069362Y-21257000D01*
X67430638Y-21257000D01*
X67385501Y-21252555D01*
X67348005Y-21241180D01*
X67313446Y-21222708D01*
X67283153Y-21197847D01*
X67258292Y-21167554D01*
X67239820Y-21132995D01*
X67228445Y-21095499D01*
X67224000Y-21050362D01*
X67224000Y-20311638D01*
X67228445Y-20266501D01*
X67239820Y-20229005D01*
X67258292Y-20194446D01*
X67283153Y-20164153D01*
X67313446Y-20139292D01*
X67348005Y-20120820D01*
X67385501Y-20109445D01*
X67430638Y-20105000D01*
X68069362Y-20105000D01*
X68114499Y-20109445D01*
G37*
G36*
X46224499Y-19809445D02*
G01*
X46261995Y-19820820D01*
X46296554Y-19839292D01*
X46326847Y-19864153D01*
X46351708Y-19894446D01*
X46370180Y-19929005D01*
X46381555Y-19966501D01*
X46386000Y-20011638D01*
X46386000Y-20750362D01*
X46381555Y-20795499D01*
X46370180Y-20832995D01*
X46351708Y-20867554D01*
X46326847Y-20897847D01*
X46296554Y-20922708D01*
X46261995Y-20941180D01*
X46224499Y-20952555D01*
X46179362Y-20957000D01*
X45540638Y-20957000D01*
X45495501Y-20952555D01*
X45458005Y-20941180D01*
X45423446Y-20922708D01*
X45393153Y-20897847D01*
X45368292Y-20867554D01*
X45349820Y-20832995D01*
X45338445Y-20795499D01*
X45334000Y-20750362D01*
X45334000Y-20011638D01*
X45338445Y-19966501D01*
X45349820Y-19929005D01*
X45368292Y-19894446D01*
X45393153Y-19864153D01*
X45423446Y-19839292D01*
X45458005Y-19820820D01*
X45495501Y-19809445D01*
X45540638Y-19805000D01*
X46179362Y-19805000D01*
X46224499Y-19809445D01*
G37*
G36*
X44700499Y-19809445D02*
G01*
X44737995Y-19820820D01*
X44772554Y-19839292D01*
X44802847Y-19864153D01*
X44827708Y-19894446D01*
X44846180Y-19929005D01*
X44857555Y-19966501D01*
X44862000Y-20011638D01*
X44862000Y-20750362D01*
X44857555Y-20795499D01*
X44846180Y-20832995D01*
X44827708Y-20867554D01*
X44802847Y-20897847D01*
X44772554Y-20922708D01*
X44737995Y-20941180D01*
X44700499Y-20952555D01*
X44655362Y-20957000D01*
X44016638Y-20957000D01*
X43971501Y-20952555D01*
X43934005Y-20941180D01*
X43899446Y-20922708D01*
X43869153Y-20897847D01*
X43844292Y-20867554D01*
X43825820Y-20832995D01*
X43814445Y-20795499D01*
X43810000Y-20750362D01*
X43810000Y-20011638D01*
X43814445Y-19966501D01*
X43825820Y-19929005D01*
X43844292Y-19894446D01*
X43869153Y-19864153D01*
X43899446Y-19839292D01*
X43934005Y-19820820D01*
X43971501Y-19809445D01*
X44016638Y-19805000D01*
X44655362Y-19805000D01*
X44700499Y-19809445D01*
G37*
G36*
X28334499Y-19809445D02*
G01*
X28371995Y-19820820D01*
X28406554Y-19839292D01*
X28436847Y-19864153D01*
X28461708Y-19894446D01*
X28480180Y-19929005D01*
X28491555Y-19966501D01*
X28496000Y-20011638D01*
X28496000Y-20750362D01*
X28491555Y-20795499D01*
X28480180Y-20832995D01*
X28461708Y-20867554D01*
X28436847Y-20897847D01*
X28406554Y-20922708D01*
X28371995Y-20941180D01*
X28334499Y-20952555D01*
X28289362Y-20957000D01*
X27650638Y-20957000D01*
X27605501Y-20952555D01*
X27568005Y-20941180D01*
X27533446Y-20922708D01*
X27503153Y-20897847D01*
X27478292Y-20867554D01*
X27459820Y-20832995D01*
X27448445Y-20795499D01*
X27444000Y-20750362D01*
X27444000Y-20011638D01*
X27448445Y-19966501D01*
X27459820Y-19929005D01*
X27478292Y-19894446D01*
X27503153Y-19864153D01*
X27533446Y-19839292D01*
X27568005Y-19820820D01*
X27605501Y-19809445D01*
X27650638Y-19805000D01*
X28289362Y-19805000D01*
X28334499Y-19809445D01*
G37*
G36*
X26824499Y-19809445D02*
G01*
X26861995Y-19820820D01*
X26896554Y-19839292D01*
X26926847Y-19864153D01*
X26951708Y-19894446D01*
X26970180Y-19929005D01*
X26981555Y-19966501D01*
X26986000Y-20011638D01*
X26986000Y-20750362D01*
X26981555Y-20795499D01*
X26970180Y-20832995D01*
X26951708Y-20867554D01*
X26926847Y-20897847D01*
X26896554Y-20922708D01*
X26861995Y-20941180D01*
X26824499Y-20952555D01*
X26779362Y-20957000D01*
X26140638Y-20957000D01*
X26095501Y-20952555D01*
X26058005Y-20941180D01*
X26023446Y-20922708D01*
X25993153Y-20897847D01*
X25968292Y-20867554D01*
X25949820Y-20832995D01*
X25938445Y-20795499D01*
X25934000Y-20750362D01*
X25934000Y-20011638D01*
X25938445Y-19966501D01*
X25949820Y-19929005D01*
X25968292Y-19894446D01*
X25993153Y-19864153D01*
X26023446Y-19839292D01*
X26058005Y-19820820D01*
X26095501Y-19809445D01*
X26140638Y-19805000D01*
X26779362Y-19805000D01*
X26824499Y-19809445D01*
G37*
G36*
X62064499Y-19709445D02*
G01*
X62101995Y-19720820D01*
X62136554Y-19739292D01*
X62166847Y-19764153D01*
X62191708Y-19794446D01*
X62210180Y-19829005D01*
X62221555Y-19866501D01*
X62226000Y-19911638D01*
X62226000Y-20650362D01*
X62221555Y-20695499D01*
X62210180Y-20732995D01*
X62191708Y-20767554D01*
X62166847Y-20797847D01*
X62136554Y-20822708D01*
X62101995Y-20841180D01*
X62064499Y-20852555D01*
X62019362Y-20857000D01*
X61380638Y-20857000D01*
X61335501Y-20852555D01*
X61298005Y-20841180D01*
X61263446Y-20822708D01*
X61233153Y-20797847D01*
X61208292Y-20767554D01*
X61189820Y-20732995D01*
X61178445Y-20695499D01*
X61174000Y-20650362D01*
X61174000Y-19911638D01*
X61178445Y-19866501D01*
X61189820Y-19829005D01*
X61208292Y-19794446D01*
X61233153Y-19764153D01*
X61263446Y-19739292D01*
X61298005Y-19720820D01*
X61335501Y-19709445D01*
X61380638Y-19705000D01*
X62019362Y-19705000D01*
X62064499Y-19709445D01*
G37*
G36*
X63564499Y-19709445D02*
G01*
X63601995Y-19720820D01*
X63636554Y-19739292D01*
X63666847Y-19764153D01*
X63691708Y-19794446D01*
X63710180Y-19829005D01*
X63721555Y-19866501D01*
X63726000Y-19911638D01*
X63726000Y-20650362D01*
X63721555Y-20695499D01*
X63710180Y-20732995D01*
X63691708Y-20767554D01*
X63666847Y-20797847D01*
X63636554Y-20822708D01*
X63601995Y-20841180D01*
X63564499Y-20852555D01*
X63519362Y-20857000D01*
X62880638Y-20857000D01*
X62835501Y-20852555D01*
X62798005Y-20841180D01*
X62763446Y-20822708D01*
X62733153Y-20797847D01*
X62708292Y-20767554D01*
X62689820Y-20732995D01*
X62678445Y-20695499D01*
X62674000Y-20650362D01*
X62674000Y-19911638D01*
X62678445Y-19866501D01*
X62689820Y-19829005D01*
X62708292Y-19794446D01*
X62733153Y-19764153D01*
X62763446Y-19739292D01*
X62798005Y-19720820D01*
X62835501Y-19709445D01*
X62880638Y-19705000D01*
X63519362Y-19705000D01*
X63564499Y-19709445D01*
G37*
G36*
X81264499Y-19653445D02*
G01*
X81301995Y-19664820D01*
X81336554Y-19683292D01*
X81366847Y-19708153D01*
X81391708Y-19738446D01*
X81410180Y-19773005D01*
X81421555Y-19810501D01*
X81426000Y-19855638D01*
X81426000Y-20594362D01*
X81421555Y-20639499D01*
X81410180Y-20676995D01*
X81391708Y-20711554D01*
X81366847Y-20741847D01*
X81336554Y-20766708D01*
X81301995Y-20785180D01*
X81264499Y-20796555D01*
X81219362Y-20801000D01*
X80580638Y-20801000D01*
X80535501Y-20796555D01*
X80498005Y-20785180D01*
X80463446Y-20766708D01*
X80433153Y-20741847D01*
X80408292Y-20711554D01*
X80389820Y-20676995D01*
X80378445Y-20639499D01*
X80374000Y-20594362D01*
X80374000Y-19855638D01*
X80378445Y-19810501D01*
X80389820Y-19773005D01*
X80408292Y-19738446D01*
X80433153Y-19708153D01*
X80463446Y-19683292D01*
X80498005Y-19664820D01*
X80535501Y-19653445D01*
X80580638Y-19649000D01*
X81219362Y-19649000D01*
X81264499Y-19653445D01*
G37*
G36*
X79664499Y-19653445D02*
G01*
X79701995Y-19664820D01*
X79736554Y-19683292D01*
X79766847Y-19708153D01*
X79791708Y-19738446D01*
X79810180Y-19773005D01*
X79821555Y-19810501D01*
X79826000Y-19855638D01*
X79826000Y-20594362D01*
X79821555Y-20639499D01*
X79810180Y-20676995D01*
X79791708Y-20711554D01*
X79766847Y-20741847D01*
X79736554Y-20766708D01*
X79701995Y-20785180D01*
X79664499Y-20796555D01*
X79619362Y-20801000D01*
X78980638Y-20801000D01*
X78935501Y-20796555D01*
X78898005Y-20785180D01*
X78863446Y-20766708D01*
X78833153Y-20741847D01*
X78808292Y-20711554D01*
X78789820Y-20676995D01*
X78778445Y-20639499D01*
X78774000Y-20594362D01*
X78774000Y-19855638D01*
X78778445Y-19810501D01*
X78789820Y-19773005D01*
X78808292Y-19738446D01*
X78833153Y-19708153D01*
X78863446Y-19683292D01*
X78898005Y-19664820D01*
X78935501Y-19653445D01*
X78980638Y-19649000D01*
X79619362Y-19649000D01*
X79664499Y-19653445D01*
G37*
G36*
X42619333Y-20728500D02*
G01*
X41842333Y-20728500D01*
X41842333Y-19876500D01*
X42619333Y-19876500D01*
X42619333Y-20728500D01*
G37*
G36*
X23843500Y-20728500D02*
G01*
X23066500Y-20728500D01*
X23066500Y-19876500D01*
X23843500Y-19876500D01*
X23843500Y-20728500D01*
G37*
G36*
X25101000Y-20728500D02*
G01*
X24324000Y-20728500D01*
X24324000Y-19876500D01*
X25101000Y-19876500D01*
X25101000Y-20728500D01*
G37*
G36*
X21266000Y-20728500D02*
G01*
X20489000Y-20728500D01*
X20489000Y-19876500D01*
X21266000Y-19876500D01*
X21266000Y-20728500D01*
G37*
G36*
X40041833Y-20728500D02*
G01*
X39264833Y-20728500D01*
X39264833Y-19876500D01*
X40041833Y-19876500D01*
X40041833Y-20728500D01*
G37*
G36*
X38784333Y-20728500D02*
G01*
X38007333Y-20728500D01*
X38007333Y-19876500D01*
X38784333Y-19876500D01*
X38784333Y-20728500D01*
G37*
G36*
X60121000Y-20728500D02*
G01*
X59344000Y-20728500D01*
X59344000Y-19876500D01*
X60121000Y-19876500D01*
X60121000Y-20728500D01*
G37*
G36*
X73821000Y-20728500D02*
G01*
X73044000Y-20728500D01*
X73044000Y-19876500D01*
X73821000Y-19876500D01*
X73821000Y-20728500D01*
G37*
G36*
X75078500Y-20728500D02*
G01*
X74301500Y-20728500D01*
X74301500Y-19876500D01*
X75078500Y-19876500D01*
X75078500Y-20728500D01*
G37*
G36*
X58863500Y-20728500D02*
G01*
X58086500Y-20728500D01*
X58086500Y-19876500D01*
X58863500Y-19876500D01*
X58863500Y-20728500D01*
G37*
G36*
X76398500Y-20728500D02*
G01*
X75621500Y-20728500D01*
X75621500Y-19876500D01*
X76398500Y-19876500D01*
X76398500Y-20728500D01*
G37*
G36*
X77656000Y-20728500D02*
G01*
X76879000Y-20728500D01*
X76879000Y-19876500D01*
X77656000Y-19876500D01*
X77656000Y-20728500D01*
G37*
G36*
X57543500Y-20728500D02*
G01*
X56766500Y-20728500D01*
X56766500Y-19876500D01*
X57543500Y-19876500D01*
X57543500Y-20728500D01*
G37*
G36*
X56286000Y-20728500D02*
G01*
X55509000Y-20728500D01*
X55509000Y-19876500D01*
X56286000Y-19876500D01*
X56286000Y-20728500D01*
G37*
G36*
X41361833Y-20728500D02*
G01*
X40584833Y-20728500D01*
X40584833Y-19876500D01*
X41361833Y-19876500D01*
X41361833Y-20728500D01*
G37*
G36*
X22523500Y-20728500D02*
G01*
X21746500Y-20728500D01*
X21746500Y-19876500D01*
X22523500Y-19876500D01*
X22523500Y-20728500D01*
G37*
G36*
X83543512Y-18353927D02*
G01*
X83692812Y-18383624D01*
X83856784Y-18451544D01*
X84004354Y-18550147D01*
X84129853Y-18675646D01*
X84228456Y-18823216D01*
X84296376Y-18987188D01*
X84331000Y-19161259D01*
X84331000Y-19338741D01*
X84296376Y-19512812D01*
X84228456Y-19676784D01*
X84129853Y-19824354D01*
X84004354Y-19949853D01*
X83856784Y-20048456D01*
X83692812Y-20116376D01*
X83543512Y-20146073D01*
X83518742Y-20151000D01*
X83341258Y-20151000D01*
X83316488Y-20146073D01*
X83167188Y-20116376D01*
X83003216Y-20048456D01*
X82855646Y-19949853D01*
X82730147Y-19824354D01*
X82631544Y-19676784D01*
X82563624Y-19512812D01*
X82529000Y-19338741D01*
X82529000Y-19161259D01*
X82563624Y-18987188D01*
X82631544Y-18823216D01*
X82730147Y-18675646D01*
X82855646Y-18550147D01*
X83003216Y-18451544D01*
X83167188Y-18383624D01*
X83316488Y-18353927D01*
X83341258Y-18349000D01*
X83518742Y-18349000D01*
X83543512Y-18353927D01*
G37*
G36*
X86083512Y-18353927D02*
G01*
X86232812Y-18383624D01*
X86396784Y-18451544D01*
X86544354Y-18550147D01*
X86669853Y-18675646D01*
X86768456Y-18823216D01*
X86836376Y-18987188D01*
X86871000Y-19161259D01*
X86871000Y-19338741D01*
X86836376Y-19512812D01*
X86768456Y-19676784D01*
X86669853Y-19824354D01*
X86544354Y-19949853D01*
X86396784Y-20048456D01*
X86232812Y-20116376D01*
X86083512Y-20146073D01*
X86058742Y-20151000D01*
X85881258Y-20151000D01*
X85856488Y-20146073D01*
X85707188Y-20116376D01*
X85543216Y-20048456D01*
X85395646Y-19949853D01*
X85270147Y-19824354D01*
X85171544Y-19676784D01*
X85103624Y-19512812D01*
X85069000Y-19338741D01*
X85069000Y-19161259D01*
X85103624Y-18987188D01*
X85171544Y-18823216D01*
X85270147Y-18675646D01*
X85395646Y-18550147D01*
X85543216Y-18451544D01*
X85707188Y-18383624D01*
X85856488Y-18353927D01*
X85881258Y-18349000D01*
X86058742Y-18349000D01*
X86083512Y-18353927D01*
G37*
G36*
X3853512Y-18353927D02*
G01*
X4002812Y-18383624D01*
X4166784Y-18451544D01*
X4314354Y-18550147D01*
X4439853Y-18675646D01*
X4538456Y-18823216D01*
X4606376Y-18987188D01*
X4641000Y-19161259D01*
X4641000Y-19338741D01*
X4606376Y-19512812D01*
X4538456Y-19676784D01*
X4439853Y-19824354D01*
X4314354Y-19949853D01*
X4166784Y-20048456D01*
X4002812Y-20116376D01*
X3853512Y-20146073D01*
X3828742Y-20151000D01*
X3651258Y-20151000D01*
X3626488Y-20146073D01*
X3477188Y-20116376D01*
X3313216Y-20048456D01*
X3165646Y-19949853D01*
X3040147Y-19824354D01*
X2941544Y-19676784D01*
X2873624Y-19512812D01*
X2839000Y-19338741D01*
X2839000Y-19161259D01*
X2873624Y-18987188D01*
X2941544Y-18823216D01*
X3040147Y-18675646D01*
X3165646Y-18550147D01*
X3313216Y-18451544D01*
X3477188Y-18383624D01*
X3626488Y-18353927D01*
X3651258Y-18349000D01*
X3828742Y-18349000D01*
X3853512Y-18353927D01*
G37*
G36*
X6393512Y-18353927D02*
G01*
X6542812Y-18383624D01*
X6706784Y-18451544D01*
X6854354Y-18550147D01*
X6979853Y-18675646D01*
X7078456Y-18823216D01*
X7146376Y-18987188D01*
X7181000Y-19161259D01*
X7181000Y-19338741D01*
X7146376Y-19512812D01*
X7078456Y-19676784D01*
X6979853Y-19824354D01*
X6854354Y-19949853D01*
X6706784Y-20048456D01*
X6542812Y-20116376D01*
X6393512Y-20146073D01*
X6368742Y-20151000D01*
X6191258Y-20151000D01*
X6166488Y-20146073D01*
X6017188Y-20116376D01*
X5853216Y-20048456D01*
X5705646Y-19949853D01*
X5580147Y-19824354D01*
X5481544Y-19676784D01*
X5413624Y-19512812D01*
X5379000Y-19338741D01*
X5379000Y-19161259D01*
X5413624Y-18987188D01*
X5481544Y-18823216D01*
X5580147Y-18675646D01*
X5705646Y-18550147D01*
X5853216Y-18451544D01*
X6017188Y-18383624D01*
X6166488Y-18353927D01*
X6191258Y-18349000D01*
X6368742Y-18349000D01*
X6393512Y-18353927D01*
G37*
G36*
X33057499Y-18503445D02*
G01*
X33094995Y-18514820D01*
X33129554Y-18533292D01*
X33159847Y-18558153D01*
X33184708Y-18588446D01*
X33203180Y-18623005D01*
X33214555Y-18660501D01*
X33219000Y-18705638D01*
X33219000Y-19444362D01*
X33214555Y-19489499D01*
X33203180Y-19526995D01*
X33184708Y-19561554D01*
X33159847Y-19591847D01*
X33129554Y-19616708D01*
X33094995Y-19635180D01*
X33057499Y-19646555D01*
X33012362Y-19651000D01*
X32373638Y-19651000D01*
X32328501Y-19646555D01*
X32291005Y-19635180D01*
X32256446Y-19616708D01*
X32226153Y-19591847D01*
X32201292Y-19561554D01*
X32182820Y-19526995D01*
X32171445Y-19489499D01*
X32167000Y-19444362D01*
X32167000Y-18705638D01*
X32171445Y-18660501D01*
X32182820Y-18623005D01*
X32201292Y-18588446D01*
X32226153Y-18558153D01*
X32256446Y-18533292D01*
X32291005Y-18514820D01*
X32328501Y-18503445D01*
X32373638Y-18499000D01*
X33012362Y-18499000D01*
X33057499Y-18503445D01*
G37*
G36*
X48289499Y-18503445D02*
G01*
X48326995Y-18514820D01*
X48361554Y-18533292D01*
X48391847Y-18558153D01*
X48416708Y-18588446D01*
X48435180Y-18623005D01*
X48446555Y-18660501D01*
X48451000Y-18705638D01*
X48451000Y-19444362D01*
X48446555Y-19489499D01*
X48435180Y-19526995D01*
X48416708Y-19561554D01*
X48391847Y-19591847D01*
X48361554Y-19616708D01*
X48326995Y-19635180D01*
X48289499Y-19646555D01*
X48244362Y-19651000D01*
X47605638Y-19651000D01*
X47560501Y-19646555D01*
X47523005Y-19635180D01*
X47488446Y-19616708D01*
X47458153Y-19591847D01*
X47433292Y-19561554D01*
X47414820Y-19526995D01*
X47403445Y-19489499D01*
X47399000Y-19444362D01*
X47399000Y-18705638D01*
X47403445Y-18660501D01*
X47414820Y-18623005D01*
X47433292Y-18588446D01*
X47458153Y-18558153D01*
X47488446Y-18533292D01*
X47523005Y-18514820D01*
X47560501Y-18503445D01*
X47605638Y-18499000D01*
X48244362Y-18499000D01*
X48289499Y-18503445D01*
G37*
G36*
X68114499Y-18503445D02*
G01*
X68151995Y-18514820D01*
X68186554Y-18533292D01*
X68216847Y-18558153D01*
X68241708Y-18588446D01*
X68260180Y-18623005D01*
X68271555Y-18660501D01*
X68276000Y-18705638D01*
X68276000Y-19444362D01*
X68271555Y-19489499D01*
X68260180Y-19526995D01*
X68241708Y-19561554D01*
X68216847Y-19591847D01*
X68186554Y-19616708D01*
X68151995Y-19635180D01*
X68114499Y-19646555D01*
X68069362Y-19651000D01*
X67430638Y-19651000D01*
X67385501Y-19646555D01*
X67348005Y-19635180D01*
X67313446Y-19616708D01*
X67283153Y-19591847D01*
X67258292Y-19561554D01*
X67239820Y-19526995D01*
X67228445Y-19489499D01*
X67224000Y-19444362D01*
X67224000Y-18705638D01*
X67228445Y-18660501D01*
X67239820Y-18623005D01*
X67258292Y-18588446D01*
X67283153Y-18558153D01*
X67313446Y-18533292D01*
X67348005Y-18514820D01*
X67385501Y-18503445D01*
X67430638Y-18499000D01*
X68069362Y-18499000D01*
X68114499Y-18503445D01*
G37*
G36*
X15419499Y-18503445D02*
G01*
X15456995Y-18514820D01*
X15491554Y-18533292D01*
X15521847Y-18558153D01*
X15546708Y-18588446D01*
X15565180Y-18623005D01*
X15576555Y-18660501D01*
X15581000Y-18705638D01*
X15581000Y-19444362D01*
X15576555Y-19489499D01*
X15565180Y-19526995D01*
X15546708Y-19561554D01*
X15521847Y-19591847D01*
X15491554Y-19616708D01*
X15456995Y-19635180D01*
X15419499Y-19646555D01*
X15374362Y-19651000D01*
X14735638Y-19651000D01*
X14690501Y-19646555D01*
X14653005Y-19635180D01*
X14618446Y-19616708D01*
X14588153Y-19591847D01*
X14563292Y-19561554D01*
X14544820Y-19526995D01*
X14533445Y-19489499D01*
X14529000Y-19444362D01*
X14529000Y-18705638D01*
X14533445Y-18660501D01*
X14544820Y-18623005D01*
X14563292Y-18588446D01*
X14588153Y-18558153D01*
X14618446Y-18533292D01*
X14653005Y-18514820D01*
X14690501Y-18503445D01*
X14735638Y-18499000D01*
X15374362Y-18499000D01*
X15419499Y-18503445D01*
G37*
G36*
X13899499Y-18503445D02*
G01*
X13936995Y-18514820D01*
X13971554Y-18533292D01*
X14001847Y-18558153D01*
X14026708Y-18588446D01*
X14045180Y-18623005D01*
X14056555Y-18660501D01*
X14061000Y-18705638D01*
X14061000Y-19444362D01*
X14056555Y-19489499D01*
X14045180Y-19526995D01*
X14026708Y-19561554D01*
X14001847Y-19591847D01*
X13971554Y-19616708D01*
X13936995Y-19635180D01*
X13899499Y-19646555D01*
X13854362Y-19651000D01*
X13215638Y-19651000D01*
X13170501Y-19646555D01*
X13133005Y-19635180D01*
X13098446Y-19616708D01*
X13068153Y-19591847D01*
X13043292Y-19561554D01*
X13024820Y-19526995D01*
X13013445Y-19489499D01*
X13009000Y-19444362D01*
X13009000Y-18705638D01*
X13013445Y-18660501D01*
X13024820Y-18623005D01*
X13043292Y-18588446D01*
X13068153Y-18558153D01*
X13098446Y-18533292D01*
X13133005Y-18514820D01*
X13170501Y-18503445D01*
X13215638Y-18499000D01*
X13854362Y-18499000D01*
X13899499Y-18503445D01*
G37*
G36*
X66614499Y-18503445D02*
G01*
X66651995Y-18514820D01*
X66686554Y-18533292D01*
X66716847Y-18558153D01*
X66741708Y-18588446D01*
X66760180Y-18623005D01*
X66771555Y-18660501D01*
X66776000Y-18705638D01*
X66776000Y-19444362D01*
X66771555Y-19489499D01*
X66760180Y-19526995D01*
X66741708Y-19561554D01*
X66716847Y-19591847D01*
X66686554Y-19616708D01*
X66651995Y-19635180D01*
X66614499Y-19646555D01*
X66569362Y-19651000D01*
X65930638Y-19651000D01*
X65885501Y-19646555D01*
X65848005Y-19635180D01*
X65813446Y-19616708D01*
X65783153Y-19591847D01*
X65758292Y-19561554D01*
X65739820Y-19526995D01*
X65728445Y-19489499D01*
X65724000Y-19444362D01*
X65724000Y-18705638D01*
X65728445Y-18660501D01*
X65739820Y-18623005D01*
X65758292Y-18588446D01*
X65783153Y-18558153D01*
X65813446Y-18533292D01*
X65848005Y-18514820D01*
X65885501Y-18503445D01*
X65930638Y-18499000D01*
X66569362Y-18499000D01*
X66614499Y-18503445D01*
G37*
G36*
X31533499Y-18503445D02*
G01*
X31570995Y-18514820D01*
X31605554Y-18533292D01*
X31635847Y-18558153D01*
X31660708Y-18588446D01*
X31679180Y-18623005D01*
X31690555Y-18660501D01*
X31695000Y-18705638D01*
X31695000Y-19444362D01*
X31690555Y-19489499D01*
X31679180Y-19526995D01*
X31660708Y-19561554D01*
X31635847Y-19591847D01*
X31605554Y-19616708D01*
X31570995Y-19635180D01*
X31533499Y-19646555D01*
X31488362Y-19651000D01*
X30849638Y-19651000D01*
X30804501Y-19646555D01*
X30767005Y-19635180D01*
X30732446Y-19616708D01*
X30702153Y-19591847D01*
X30677292Y-19561554D01*
X30658820Y-19526995D01*
X30647445Y-19489499D01*
X30643000Y-19444362D01*
X30643000Y-18705638D01*
X30647445Y-18660501D01*
X30658820Y-18623005D01*
X30677292Y-18588446D01*
X30702153Y-18558153D01*
X30732446Y-18533292D01*
X30767005Y-18514820D01*
X30804501Y-18503445D01*
X30849638Y-18499000D01*
X31488362Y-18499000D01*
X31533499Y-18503445D01*
G37*
G36*
X49814499Y-18503445D02*
G01*
X49851995Y-18514820D01*
X49886554Y-18533292D01*
X49916847Y-18558153D01*
X49941708Y-18588446D01*
X49960180Y-18623005D01*
X49971555Y-18660501D01*
X49976000Y-18705638D01*
X49976000Y-19444362D01*
X49971555Y-19489499D01*
X49960180Y-19526995D01*
X49941708Y-19561554D01*
X49916847Y-19591847D01*
X49886554Y-19616708D01*
X49851995Y-19635180D01*
X49814499Y-19646555D01*
X49769362Y-19651000D01*
X49130638Y-19651000D01*
X49085501Y-19646555D01*
X49048005Y-19635180D01*
X49013446Y-19616708D01*
X48983153Y-19591847D01*
X48958292Y-19561554D01*
X48939820Y-19526995D01*
X48928445Y-19489499D01*
X48924000Y-19444362D01*
X48924000Y-18705638D01*
X48928445Y-18660501D01*
X48939820Y-18623005D01*
X48958292Y-18588446D01*
X48983153Y-18558153D01*
X49013446Y-18533292D01*
X49048005Y-18514820D01*
X49085501Y-18503445D01*
X49130638Y-18499000D01*
X49769362Y-18499000D01*
X49814499Y-18503445D01*
G37*
G36*
X21266000Y-14901501D02*
G01*
X21268402Y-14925887D01*
X21275515Y-14949336D01*
X21287066Y-14970947D01*
X21302611Y-14989889D01*
X21321553Y-15005434D01*
X21343164Y-15016985D01*
X21366613Y-15024098D01*
X21390999Y-15026500D01*
X21621501Y-15026500D01*
X21645887Y-15024098D01*
X21669336Y-15016985D01*
X21690947Y-15005434D01*
X21709889Y-14989889D01*
X21725434Y-14970947D01*
X21736985Y-14949336D01*
X21744098Y-14925887D01*
X21746500Y-14901501D01*
X21746500Y-14371500D01*
X22523500Y-14371500D01*
X22523500Y-14901501D01*
X22525902Y-14925887D01*
X22533015Y-14949336D01*
X22544566Y-14970947D01*
X22560111Y-14989889D01*
X22579053Y-15005434D01*
X22600664Y-15016985D01*
X22624113Y-15024098D01*
X22648499Y-15026500D01*
X22941501Y-15026500D01*
X22965887Y-15024098D01*
X22989336Y-15016985D01*
X23010947Y-15005434D01*
X23029889Y-14989889D01*
X23045434Y-14970947D01*
X23056985Y-14949336D01*
X23064098Y-14925887D01*
X23066500Y-14901501D01*
X23066500Y-14371500D01*
X23843500Y-14371500D01*
X23843500Y-14901501D01*
X23845902Y-14925887D01*
X23853015Y-14949336D01*
X23864566Y-14970947D01*
X23880111Y-14989889D01*
X23899053Y-15005434D01*
X23920664Y-15016985D01*
X23944113Y-15024098D01*
X23968499Y-15026500D01*
X24199001Y-15026500D01*
X24223387Y-15024098D01*
X24246836Y-15016985D01*
X24268447Y-15005434D01*
X24287389Y-14989889D01*
X24302934Y-14970947D01*
X24314485Y-14949336D01*
X24321598Y-14925887D01*
X24324000Y-14901501D01*
X24324000Y-14371500D01*
X25101000Y-14371500D01*
X25101000Y-19423500D01*
X20489000Y-19423500D01*
X20489000Y-14371500D01*
X21266000Y-14371500D01*
X21266000Y-14901501D01*
G37*
G36*
X73821000Y-14901501D02*
G01*
X73823402Y-14925887D01*
X73830515Y-14949336D01*
X73842066Y-14970947D01*
X73857611Y-14989889D01*
X73876553Y-15005434D01*
X73898164Y-15016985D01*
X73921613Y-15024098D01*
X73945999Y-15026500D01*
X74176501Y-15026500D01*
X74200887Y-15024098D01*
X74224336Y-15016985D01*
X74245947Y-15005434D01*
X74264889Y-14989889D01*
X74280434Y-14970947D01*
X74291985Y-14949336D01*
X74299098Y-14925887D01*
X74301500Y-14901501D01*
X74301500Y-14371500D01*
X75078500Y-14371500D01*
X75078500Y-14901501D01*
X75080902Y-14925887D01*
X75088015Y-14949336D01*
X75099566Y-14970947D01*
X75115111Y-14989889D01*
X75134053Y-15005434D01*
X75155664Y-15016985D01*
X75179113Y-15024098D01*
X75203499Y-15026500D01*
X75496501Y-15026500D01*
X75520887Y-15024098D01*
X75544336Y-15016985D01*
X75565947Y-15005434D01*
X75584889Y-14989889D01*
X75600434Y-14970947D01*
X75611985Y-14949336D01*
X75619098Y-14925887D01*
X75621500Y-14901501D01*
X75621500Y-14371500D01*
X76398500Y-14371500D01*
X76398500Y-14901501D01*
X76400902Y-14925887D01*
X76408015Y-14949336D01*
X76419566Y-14970947D01*
X76435111Y-14989889D01*
X76454053Y-15005434D01*
X76475664Y-15016985D01*
X76499113Y-15024098D01*
X76523499Y-15026500D01*
X76754001Y-15026500D01*
X76778387Y-15024098D01*
X76801836Y-15016985D01*
X76823447Y-15005434D01*
X76842389Y-14989889D01*
X76857934Y-14970947D01*
X76869485Y-14949336D01*
X76876598Y-14925887D01*
X76879000Y-14901501D01*
X76879000Y-14371500D01*
X77656000Y-14371500D01*
X77656000Y-19423500D01*
X73044000Y-19423500D01*
X73044000Y-14371500D01*
X73821000Y-14371500D01*
X73821000Y-14901501D01*
G37*
G36*
X38784333Y-14901501D02*
G01*
X38786735Y-14925887D01*
X38793848Y-14949336D01*
X38805399Y-14970947D01*
X38820944Y-14989889D01*
X38839886Y-15005434D01*
X38861497Y-15016985D01*
X38884946Y-15024098D01*
X38909332Y-15026500D01*
X39139834Y-15026500D01*
X39164220Y-15024098D01*
X39187669Y-15016985D01*
X39209280Y-15005434D01*
X39228222Y-14989889D01*
X39243767Y-14970947D01*
X39255318Y-14949336D01*
X39262431Y-14925887D01*
X39264833Y-14901501D01*
X39264833Y-14371500D01*
X40041833Y-14371500D01*
X40041833Y-14901501D01*
X40044235Y-14925887D01*
X40051348Y-14949336D01*
X40062899Y-14970947D01*
X40078444Y-14989889D01*
X40097386Y-15005434D01*
X40118997Y-15016985D01*
X40142446Y-15024098D01*
X40166832Y-15026500D01*
X40459834Y-15026500D01*
X40484220Y-15024098D01*
X40507669Y-15016985D01*
X40529280Y-15005434D01*
X40548222Y-14989889D01*
X40563767Y-14970947D01*
X40575318Y-14949336D01*
X40582431Y-14925887D01*
X40584833Y-14901501D01*
X40584833Y-14371500D01*
X41361833Y-14371500D01*
X41361833Y-14901501D01*
X41364235Y-14925887D01*
X41371348Y-14949336D01*
X41382899Y-14970947D01*
X41398444Y-14989889D01*
X41417386Y-15005434D01*
X41438997Y-15016985D01*
X41462446Y-15024098D01*
X41486832Y-15026500D01*
X41717334Y-15026500D01*
X41741720Y-15024098D01*
X41765169Y-15016985D01*
X41786780Y-15005434D01*
X41805722Y-14989889D01*
X41821267Y-14970947D01*
X41832818Y-14949336D01*
X41839931Y-14925887D01*
X41842333Y-14901501D01*
X41842333Y-14371500D01*
X42619333Y-14371500D01*
X42619333Y-19423500D01*
X38007333Y-19423500D01*
X38007333Y-14371500D01*
X38784333Y-14371500D01*
X38784333Y-14901501D01*
G37*
G36*
X56286000Y-14901501D02*
G01*
X56288402Y-14925887D01*
X56295515Y-14949336D01*
X56307066Y-14970947D01*
X56322611Y-14989889D01*
X56341553Y-15005434D01*
X56363164Y-15016985D01*
X56386613Y-15024098D01*
X56410999Y-15026500D01*
X56641501Y-15026500D01*
X56665887Y-15024098D01*
X56689336Y-15016985D01*
X56710947Y-15005434D01*
X56729889Y-14989889D01*
X56745434Y-14970947D01*
X56756985Y-14949336D01*
X56764098Y-14925887D01*
X56766500Y-14901501D01*
X56766500Y-14371500D01*
X57543500Y-14371500D01*
X57543500Y-14901501D01*
X57545902Y-14925887D01*
X57553015Y-14949336D01*
X57564566Y-14970947D01*
X57580111Y-14989889D01*
X57599053Y-15005434D01*
X57620664Y-15016985D01*
X57644113Y-15024098D01*
X57668499Y-15026500D01*
X57961501Y-15026500D01*
X57985887Y-15024098D01*
X58009336Y-15016985D01*
X58030947Y-15005434D01*
X58049889Y-14989889D01*
X58065434Y-14970947D01*
X58076985Y-14949336D01*
X58084098Y-14925887D01*
X58086500Y-14901501D01*
X58086500Y-14371500D01*
X58863500Y-14371500D01*
X58863500Y-14901501D01*
X58865902Y-14925887D01*
X58873015Y-14949336D01*
X58884566Y-14970947D01*
X58900111Y-14989889D01*
X58919053Y-15005434D01*
X58940664Y-15016985D01*
X58964113Y-15024098D01*
X58988499Y-15026500D01*
X59219001Y-15026500D01*
X59243387Y-15024098D01*
X59266836Y-15016985D01*
X59288447Y-15005434D01*
X59307389Y-14989889D01*
X59322934Y-14970947D01*
X59334485Y-14949336D01*
X59341598Y-14925887D01*
X59344000Y-14901501D01*
X59344000Y-14371500D01*
X60121000Y-14371500D01*
X60121000Y-19423500D01*
X55509000Y-19423500D01*
X55509000Y-14371500D01*
X56286000Y-14371500D01*
X56286000Y-14901501D01*
G37*
G36*
X66614499Y-16753445D02*
G01*
X66651995Y-16764820D01*
X66686554Y-16783292D01*
X66716847Y-16808153D01*
X66741708Y-16838446D01*
X66760180Y-16873005D01*
X66771555Y-16910501D01*
X66776000Y-16955638D01*
X66776000Y-17694362D01*
X66771555Y-17739499D01*
X66760180Y-17776995D01*
X66741708Y-17811554D01*
X66716847Y-17841847D01*
X66686554Y-17866708D01*
X66651995Y-17885180D01*
X66614499Y-17896555D01*
X66569362Y-17901000D01*
X65930638Y-17901000D01*
X65885501Y-17896555D01*
X65848005Y-17885180D01*
X65813446Y-17866708D01*
X65783153Y-17841847D01*
X65758292Y-17811554D01*
X65739820Y-17776995D01*
X65728445Y-17739499D01*
X65724000Y-17694362D01*
X65724000Y-16955638D01*
X65728445Y-16910501D01*
X65739820Y-16873005D01*
X65758292Y-16838446D01*
X65783153Y-16808153D01*
X65813446Y-16783292D01*
X65848005Y-16764820D01*
X65885501Y-16753445D01*
X65930638Y-16749000D01*
X66569362Y-16749000D01*
X66614499Y-16753445D01*
G37*
G36*
X15419499Y-16753445D02*
G01*
X15456995Y-16764820D01*
X15491554Y-16783292D01*
X15521847Y-16808153D01*
X15546708Y-16838446D01*
X15565180Y-16873005D01*
X15576555Y-16910501D01*
X15581000Y-16955638D01*
X15581000Y-17694362D01*
X15576555Y-17739499D01*
X15565180Y-17776995D01*
X15546708Y-17811554D01*
X15521847Y-17841847D01*
X15491554Y-17866708D01*
X15456995Y-17885180D01*
X15419499Y-17896555D01*
X15374362Y-17901000D01*
X14735638Y-17901000D01*
X14690501Y-17896555D01*
X14653005Y-17885180D01*
X14618446Y-17866708D01*
X14588153Y-17841847D01*
X14563292Y-17811554D01*
X14544820Y-17776995D01*
X14533445Y-17739499D01*
X14529000Y-17694362D01*
X14529000Y-16955638D01*
X14533445Y-16910501D01*
X14544820Y-16873005D01*
X14563292Y-16838446D01*
X14588153Y-16808153D01*
X14618446Y-16783292D01*
X14653005Y-16764820D01*
X14690501Y-16753445D01*
X14735638Y-16749000D01*
X15374362Y-16749000D01*
X15419499Y-16753445D01*
G37*
G36*
X48289499Y-16753445D02*
G01*
X48326995Y-16764820D01*
X48361554Y-16783292D01*
X48391847Y-16808153D01*
X48416708Y-16838446D01*
X48435180Y-16873005D01*
X48446555Y-16910501D01*
X48451000Y-16955638D01*
X48451000Y-17694362D01*
X48446555Y-17739499D01*
X48435180Y-17776995D01*
X48416708Y-17811554D01*
X48391847Y-17841847D01*
X48361554Y-17866708D01*
X48326995Y-17885180D01*
X48289499Y-17896555D01*
X48244362Y-17901000D01*
X47605638Y-17901000D01*
X47560501Y-17896555D01*
X47523005Y-17885180D01*
X47488446Y-17866708D01*
X47458153Y-17841847D01*
X47433292Y-17811554D01*
X47414820Y-17776995D01*
X47403445Y-17739499D01*
X47399000Y-17694362D01*
X47399000Y-16955638D01*
X47403445Y-16910501D01*
X47414820Y-16873005D01*
X47433292Y-16838446D01*
X47458153Y-16808153D01*
X47488446Y-16783292D01*
X47523005Y-16764820D01*
X47560501Y-16753445D01*
X47605638Y-16749000D01*
X48244362Y-16749000D01*
X48289499Y-16753445D01*
G37*
G36*
X31533499Y-16753445D02*
G01*
X31570995Y-16764820D01*
X31605554Y-16783292D01*
X31635847Y-16808153D01*
X31660708Y-16838446D01*
X31679180Y-16873005D01*
X31690555Y-16910501D01*
X31695000Y-16955638D01*
X31695000Y-17694362D01*
X31690555Y-17739499D01*
X31679180Y-17776995D01*
X31660708Y-17811554D01*
X31635847Y-17841847D01*
X31605554Y-17866708D01*
X31570995Y-17885180D01*
X31533499Y-17896555D01*
X31488362Y-17901000D01*
X30849638Y-17901000D01*
X30804501Y-17896555D01*
X30767005Y-17885180D01*
X30732446Y-17866708D01*
X30702153Y-17841847D01*
X30677292Y-17811554D01*
X30658820Y-17776995D01*
X30647445Y-17739499D01*
X30643000Y-17694362D01*
X30643000Y-16955638D01*
X30647445Y-16910501D01*
X30658820Y-16873005D01*
X30677292Y-16838446D01*
X30702153Y-16808153D01*
X30732446Y-16783292D01*
X30767005Y-16764820D01*
X30804501Y-16753445D01*
X30849638Y-16749000D01*
X31488362Y-16749000D01*
X31533499Y-16753445D01*
G37*
G36*
X33057499Y-16753445D02*
G01*
X33094995Y-16764820D01*
X33129554Y-16783292D01*
X33159847Y-16808153D01*
X33184708Y-16838446D01*
X33203180Y-16873005D01*
X33214555Y-16910501D01*
X33219000Y-16955638D01*
X33219000Y-17694362D01*
X33214555Y-17739499D01*
X33203180Y-17776995D01*
X33184708Y-17811554D01*
X33159847Y-17841847D01*
X33129554Y-17866708D01*
X33094995Y-17885180D01*
X33057499Y-17896555D01*
X33012362Y-17901000D01*
X32373638Y-17901000D01*
X32328501Y-17896555D01*
X32291005Y-17885180D01*
X32256446Y-17866708D01*
X32226153Y-17841847D01*
X32201292Y-17811554D01*
X32182820Y-17776995D01*
X32171445Y-17739499D01*
X32167000Y-17694362D01*
X32167000Y-16955638D01*
X32171445Y-16910501D01*
X32182820Y-16873005D01*
X32201292Y-16838446D01*
X32226153Y-16808153D01*
X32256446Y-16783292D01*
X32291005Y-16764820D01*
X32328501Y-16753445D01*
X32373638Y-16749000D01*
X33012362Y-16749000D01*
X33057499Y-16753445D01*
G37*
G36*
X13899499Y-16753445D02*
G01*
X13936995Y-16764820D01*
X13971554Y-16783292D01*
X14001847Y-16808153D01*
X14026708Y-16838446D01*
X14045180Y-16873005D01*
X14056555Y-16910501D01*
X14061000Y-16955638D01*
X14061000Y-17694362D01*
X14056555Y-17739499D01*
X14045180Y-17776995D01*
X14026708Y-17811554D01*
X14001847Y-17841847D01*
X13971554Y-17866708D01*
X13936995Y-17885180D01*
X13899499Y-17896555D01*
X13854362Y-17901000D01*
X13215638Y-17901000D01*
X13170501Y-17896555D01*
X13133005Y-17885180D01*
X13098446Y-17866708D01*
X13068153Y-17841847D01*
X13043292Y-17811554D01*
X13024820Y-17776995D01*
X13013445Y-17739499D01*
X13009000Y-17694362D01*
X13009000Y-16955638D01*
X13013445Y-16910501D01*
X13024820Y-16873005D01*
X13043292Y-16838446D01*
X13068153Y-16808153D01*
X13098446Y-16783292D01*
X13133005Y-16764820D01*
X13170501Y-16753445D01*
X13215638Y-16749000D01*
X13854362Y-16749000D01*
X13899499Y-16753445D01*
G37*
G36*
X49814499Y-16753445D02*
G01*
X49851995Y-16764820D01*
X49886554Y-16783292D01*
X49916847Y-16808153D01*
X49941708Y-16838446D01*
X49960180Y-16873005D01*
X49971555Y-16910501D01*
X49976000Y-16955638D01*
X49976000Y-17694362D01*
X49971555Y-17739499D01*
X49960180Y-17776995D01*
X49941708Y-17811554D01*
X49916847Y-17841847D01*
X49886554Y-17866708D01*
X49851995Y-17885180D01*
X49814499Y-17896555D01*
X49769362Y-17901000D01*
X49130638Y-17901000D01*
X49085501Y-17896555D01*
X49048005Y-17885180D01*
X49013446Y-17866708D01*
X48983153Y-17841847D01*
X48958292Y-17811554D01*
X48939820Y-17776995D01*
X48928445Y-17739499D01*
X48924000Y-17694362D01*
X48924000Y-16955638D01*
X48928445Y-16910501D01*
X48939820Y-16873005D01*
X48958292Y-16838446D01*
X48983153Y-16808153D01*
X49013446Y-16783292D01*
X49048005Y-16764820D01*
X49085501Y-16753445D01*
X49130638Y-16749000D01*
X49769362Y-16749000D01*
X49814499Y-16753445D01*
G37*
G36*
X68114499Y-16753445D02*
G01*
X68151995Y-16764820D01*
X68186554Y-16783292D01*
X68216847Y-16808153D01*
X68241708Y-16838446D01*
X68260180Y-16873005D01*
X68271555Y-16910501D01*
X68276000Y-16955638D01*
X68276000Y-17694362D01*
X68271555Y-17739499D01*
X68260180Y-17776995D01*
X68241708Y-17811554D01*
X68216847Y-17841847D01*
X68186554Y-17866708D01*
X68151995Y-17885180D01*
X68114499Y-17896555D01*
X68069362Y-17901000D01*
X67430638Y-17901000D01*
X67385501Y-17896555D01*
X67348005Y-17885180D01*
X67313446Y-17866708D01*
X67283153Y-17841847D01*
X67258292Y-17811554D01*
X67239820Y-17776995D01*
X67228445Y-17739499D01*
X67224000Y-17694362D01*
X67224000Y-16955638D01*
X67228445Y-16910501D01*
X67239820Y-16873005D01*
X67258292Y-16838446D01*
X67283153Y-16808153D01*
X67313446Y-16783292D01*
X67348005Y-16764820D01*
X67385501Y-16753445D01*
X67430638Y-16749000D01*
X68069362Y-16749000D01*
X68114499Y-16753445D01*
G37*
G36*
X86083512Y-15813927D02*
G01*
X86232812Y-15843624D01*
X86396784Y-15911544D01*
X86544354Y-16010147D01*
X86669853Y-16135646D01*
X86768456Y-16283216D01*
X86836376Y-16447188D01*
X86871000Y-16621259D01*
X86871000Y-16798741D01*
X86836376Y-16972812D01*
X86768456Y-17136784D01*
X86669853Y-17284354D01*
X86544354Y-17409853D01*
X86396784Y-17508456D01*
X86232812Y-17576376D01*
X86083512Y-17606073D01*
X86058742Y-17611000D01*
X85881258Y-17611000D01*
X85856488Y-17606073D01*
X85707188Y-17576376D01*
X85543216Y-17508456D01*
X85395646Y-17409853D01*
X85270147Y-17284354D01*
X85171544Y-17136784D01*
X85103624Y-16972812D01*
X85069000Y-16798741D01*
X85069000Y-16621259D01*
X85103624Y-16447188D01*
X85171544Y-16283216D01*
X85270147Y-16135646D01*
X85395646Y-16010147D01*
X85543216Y-15911544D01*
X85707188Y-15843624D01*
X85856488Y-15813927D01*
X85881258Y-15809000D01*
X86058742Y-15809000D01*
X86083512Y-15813927D01*
G37*
G36*
X83543512Y-15813927D02*
G01*
X83692812Y-15843624D01*
X83856784Y-15911544D01*
X84004354Y-16010147D01*
X84129853Y-16135646D01*
X84228456Y-16283216D01*
X84296376Y-16447188D01*
X84331000Y-16621259D01*
X84331000Y-16798741D01*
X84296376Y-16972812D01*
X84228456Y-17136784D01*
X84129853Y-17284354D01*
X84004354Y-17409853D01*
X83856784Y-17508456D01*
X83692812Y-17576376D01*
X83543512Y-17606073D01*
X83518742Y-17611000D01*
X83341258Y-17611000D01*
X83316488Y-17606073D01*
X83167188Y-17576376D01*
X83003216Y-17508456D01*
X82855646Y-17409853D01*
X82730147Y-17284354D01*
X82631544Y-17136784D01*
X82563624Y-16972812D01*
X82529000Y-16798741D01*
X82529000Y-16621259D01*
X82563624Y-16447188D01*
X82631544Y-16283216D01*
X82730147Y-16135646D01*
X82855646Y-16010147D01*
X83003216Y-15911544D01*
X83167188Y-15843624D01*
X83316488Y-15813927D01*
X83341258Y-15809000D01*
X83518742Y-15809000D01*
X83543512Y-15813927D01*
G37*
G36*
X6393512Y-15813927D02*
G01*
X6542812Y-15843624D01*
X6706784Y-15911544D01*
X6854354Y-16010147D01*
X6979853Y-16135646D01*
X7078456Y-16283216D01*
X7146376Y-16447188D01*
X7181000Y-16621259D01*
X7181000Y-16798741D01*
X7146376Y-16972812D01*
X7078456Y-17136784D01*
X6979853Y-17284354D01*
X6854354Y-17409853D01*
X6706784Y-17508456D01*
X6542812Y-17576376D01*
X6393512Y-17606073D01*
X6368742Y-17611000D01*
X6191258Y-17611000D01*
X6166488Y-17606073D01*
X6017188Y-17576376D01*
X5853216Y-17508456D01*
X5705646Y-17409853D01*
X5580147Y-17284354D01*
X5481544Y-17136784D01*
X5413624Y-16972812D01*
X5379000Y-16798741D01*
X5379000Y-16621259D01*
X5413624Y-16447188D01*
X5481544Y-16283216D01*
X5580147Y-16135646D01*
X5705646Y-16010147D01*
X5853216Y-15911544D01*
X6017188Y-15843624D01*
X6166488Y-15813927D01*
X6191258Y-15809000D01*
X6368742Y-15809000D01*
X6393512Y-15813927D01*
G37*
G36*
X3853512Y-15813927D02*
G01*
X4002812Y-15843624D01*
X4166784Y-15911544D01*
X4314354Y-16010147D01*
X4439853Y-16135646D01*
X4538456Y-16283216D01*
X4606376Y-16447188D01*
X4641000Y-16621259D01*
X4641000Y-16798741D01*
X4606376Y-16972812D01*
X4538456Y-17136784D01*
X4439853Y-17284354D01*
X4314354Y-17409853D01*
X4166784Y-17508456D01*
X4002812Y-17576376D01*
X3853512Y-17606073D01*
X3828742Y-17611000D01*
X3651258Y-17611000D01*
X3626488Y-17606073D01*
X3477188Y-17576376D01*
X3313216Y-17508456D01*
X3165646Y-17409853D01*
X3040147Y-17284354D01*
X2941544Y-17136784D01*
X2873624Y-16972812D01*
X2839000Y-16798741D01*
X2839000Y-16621259D01*
X2873624Y-16447188D01*
X2941544Y-16283216D01*
X3040147Y-16135646D01*
X3165646Y-16010147D01*
X3313216Y-15911544D01*
X3477188Y-15843624D01*
X3626488Y-15813927D01*
X3651258Y-15809000D01*
X3828742Y-15809000D01*
X3853512Y-15813927D01*
G37*
G36*
X3853512Y-13273927D02*
G01*
X4002812Y-13303624D01*
X4166784Y-13371544D01*
X4314354Y-13470147D01*
X4439853Y-13595646D01*
X4538456Y-13743216D01*
X4606376Y-13907188D01*
X4641000Y-14081259D01*
X4641000Y-14258741D01*
X4606376Y-14432812D01*
X4538456Y-14596784D01*
X4439853Y-14744354D01*
X4314354Y-14869853D01*
X4166784Y-14968456D01*
X4002812Y-15036376D01*
X3853512Y-15066073D01*
X3828742Y-15071000D01*
X3651258Y-15071000D01*
X3626488Y-15066073D01*
X3477188Y-15036376D01*
X3313216Y-14968456D01*
X3165646Y-14869853D01*
X3040147Y-14744354D01*
X2941544Y-14596784D01*
X2873624Y-14432812D01*
X2839000Y-14258741D01*
X2839000Y-14081259D01*
X2873624Y-13907188D01*
X2941544Y-13743216D01*
X3040147Y-13595646D01*
X3165646Y-13470147D01*
X3313216Y-13371544D01*
X3477188Y-13303624D01*
X3626488Y-13273927D01*
X3651258Y-13269000D01*
X3828742Y-13269000D01*
X3853512Y-13273927D01*
G37*
G36*
X6393512Y-13273927D02*
G01*
X6542812Y-13303624D01*
X6706784Y-13371544D01*
X6854354Y-13470147D01*
X6979853Y-13595646D01*
X7078456Y-13743216D01*
X7146376Y-13907188D01*
X7181000Y-14081259D01*
X7181000Y-14258741D01*
X7146376Y-14432812D01*
X7078456Y-14596784D01*
X6979853Y-14744354D01*
X6854354Y-14869853D01*
X6706784Y-14968456D01*
X6542812Y-15036376D01*
X6393512Y-15066073D01*
X6368742Y-15071000D01*
X6191258Y-15071000D01*
X6166488Y-15066073D01*
X6017188Y-15036376D01*
X5853216Y-14968456D01*
X5705646Y-14869853D01*
X5580147Y-14744354D01*
X5481544Y-14596784D01*
X5413624Y-14432812D01*
X5379000Y-14258741D01*
X5379000Y-14081259D01*
X5413624Y-13907188D01*
X5481544Y-13743216D01*
X5580147Y-13595646D01*
X5705646Y-13470147D01*
X5853216Y-13371544D01*
X6017188Y-13303624D01*
X6166488Y-13273927D01*
X6191258Y-13269000D01*
X6368742Y-13269000D01*
X6393512Y-13273927D01*
G37*
G36*
X83543512Y-13273927D02*
G01*
X83692812Y-13303624D01*
X83856784Y-13371544D01*
X84004354Y-13470147D01*
X84129853Y-13595646D01*
X84228456Y-13743216D01*
X84296376Y-13907188D01*
X84331000Y-14081259D01*
X84331000Y-14258741D01*
X84296376Y-14432812D01*
X84228456Y-14596784D01*
X84129853Y-14744354D01*
X84004354Y-14869853D01*
X83856784Y-14968456D01*
X83692812Y-15036376D01*
X83543512Y-15066073D01*
X83518742Y-15071000D01*
X83341258Y-15071000D01*
X83316488Y-15066073D01*
X83167188Y-15036376D01*
X83003216Y-14968456D01*
X82855646Y-14869853D01*
X82730147Y-14744354D01*
X82631544Y-14596784D01*
X82563624Y-14432812D01*
X82529000Y-14258741D01*
X82529000Y-14081259D01*
X82563624Y-13907188D01*
X82631544Y-13743216D01*
X82730147Y-13595646D01*
X82855646Y-13470147D01*
X83003216Y-13371544D01*
X83167188Y-13303624D01*
X83316488Y-13273927D01*
X83341258Y-13269000D01*
X83518742Y-13269000D01*
X83543512Y-13273927D01*
G37*
G36*
X86083512Y-13273927D02*
G01*
X86232812Y-13303624D01*
X86396784Y-13371544D01*
X86544354Y-13470147D01*
X86669853Y-13595646D01*
X86768456Y-13743216D01*
X86836376Y-13907188D01*
X86871000Y-14081259D01*
X86871000Y-14258741D01*
X86836376Y-14432812D01*
X86768456Y-14596784D01*
X86669853Y-14744354D01*
X86544354Y-14869853D01*
X86396784Y-14968456D01*
X86232812Y-15036376D01*
X86083512Y-15066073D01*
X86058742Y-15071000D01*
X85881258Y-15071000D01*
X85856488Y-15066073D01*
X85707188Y-15036376D01*
X85543216Y-14968456D01*
X85395646Y-14869853D01*
X85270147Y-14744354D01*
X85171544Y-14596784D01*
X85103624Y-14432812D01*
X85069000Y-14258741D01*
X85069000Y-14081259D01*
X85103624Y-13907188D01*
X85171544Y-13743216D01*
X85270147Y-13595646D01*
X85395646Y-13470147D01*
X85543216Y-13371544D01*
X85707188Y-13303624D01*
X85856488Y-13273927D01*
X85881258Y-13269000D01*
X86058742Y-13269000D01*
X86083512Y-13273927D01*
G37*
G36*
X75778288Y-9473969D02*
G01*
X75952410Y-9508604D01*
X76234674Y-9625521D01*
X76488705Y-9795259D01*
X76704741Y-10011295D01*
X76874479Y-10265326D01*
X76991396Y-10547590D01*
X77051000Y-10847240D01*
X77051000Y-11152760D01*
X76991396Y-11452410D01*
X76874479Y-11734674D01*
X76704741Y-11988705D01*
X76488705Y-12204741D01*
X76234674Y-12374479D01*
X75952410Y-12491396D01*
X75802585Y-12521198D01*
X75652761Y-12551000D01*
X75347239Y-12551000D01*
X75197415Y-12521198D01*
X75047590Y-12491396D01*
X74765326Y-12374479D01*
X74511295Y-12204741D01*
X74295259Y-11988705D01*
X74125521Y-11734674D01*
X74008604Y-11452410D01*
X73949000Y-11152760D01*
X73949000Y-10847240D01*
X74008604Y-10547590D01*
X74125521Y-10265326D01*
X74295259Y-10011295D01*
X74511295Y-9795259D01*
X74765326Y-9625521D01*
X75047590Y-9508604D01*
X75221712Y-9473969D01*
X75347239Y-9449000D01*
X75652761Y-9449000D01*
X75778288Y-9473969D01*
G37*
G36*
X40778288Y-9473969D02*
G01*
X40952410Y-9508604D01*
X41234674Y-9625521D01*
X41488705Y-9795259D01*
X41704741Y-10011295D01*
X41874479Y-10265326D01*
X41991396Y-10547590D01*
X42051000Y-10847240D01*
X42051000Y-11152760D01*
X41991396Y-11452410D01*
X41874479Y-11734674D01*
X41704741Y-11988705D01*
X41488705Y-12204741D01*
X41234674Y-12374479D01*
X40952410Y-12491396D01*
X40802585Y-12521198D01*
X40652761Y-12551000D01*
X40347239Y-12551000D01*
X40197415Y-12521198D01*
X40047590Y-12491396D01*
X39765326Y-12374479D01*
X39511295Y-12204741D01*
X39295259Y-11988705D01*
X39125521Y-11734674D01*
X39008604Y-11452410D01*
X38949000Y-11152760D01*
X38949000Y-10847240D01*
X39008604Y-10547590D01*
X39125521Y-10265326D01*
X39295259Y-10011295D01*
X39511295Y-9795259D01*
X39765326Y-9625521D01*
X40047590Y-9508604D01*
X40221712Y-9473969D01*
X40347239Y-9449000D01*
X40652761Y-9449000D01*
X40778288Y-9473969D01*
G37*
G36*
X23278288Y-9473969D02*
G01*
X23452410Y-9508604D01*
X23734674Y-9625521D01*
X23988705Y-9795259D01*
X24204741Y-10011295D01*
X24374479Y-10265326D01*
X24491396Y-10547590D01*
X24551000Y-10847240D01*
X24551000Y-11152760D01*
X24491396Y-11452410D01*
X24374479Y-11734674D01*
X24204741Y-11988705D01*
X23988705Y-12204741D01*
X23734674Y-12374479D01*
X23452410Y-12491396D01*
X23302585Y-12521198D01*
X23152761Y-12551000D01*
X22847239Y-12551000D01*
X22697415Y-12521198D01*
X22547590Y-12491396D01*
X22265326Y-12374479D01*
X22011295Y-12204741D01*
X21795259Y-11988705D01*
X21625521Y-11734674D01*
X21508604Y-11452410D01*
X21449000Y-11152760D01*
X21449000Y-10847240D01*
X21508604Y-10547590D01*
X21625521Y-10265326D01*
X21795259Y-10011295D01*
X22011295Y-9795259D01*
X22265326Y-9625521D01*
X22547590Y-9508604D01*
X22721712Y-9473969D01*
X22847239Y-9449000D01*
X23152761Y-9449000D01*
X23278288Y-9473969D01*
G37*
G36*
X58278288Y-9473969D02*
G01*
X58452410Y-9508604D01*
X58734674Y-9625521D01*
X58988705Y-9795259D01*
X59204741Y-10011295D01*
X59374479Y-10265326D01*
X59491396Y-10547590D01*
X59551000Y-10847240D01*
X59551000Y-11152760D01*
X59491396Y-11452410D01*
X59374479Y-11734674D01*
X59204741Y-11988705D01*
X58988705Y-12204741D01*
X58734674Y-12374479D01*
X58452410Y-12491396D01*
X58302585Y-12521198D01*
X58152761Y-12551000D01*
X57847239Y-12551000D01*
X57697415Y-12521198D01*
X57547590Y-12491396D01*
X57265326Y-12374479D01*
X57011295Y-12204741D01*
X56795259Y-11988705D01*
X56625521Y-11734674D01*
X56508604Y-11452410D01*
X56449000Y-11152760D01*
X56449000Y-10847240D01*
X56508604Y-10547590D01*
X56625521Y-10265326D01*
X56795259Y-10011295D01*
X57011295Y-9795259D01*
X57265326Y-9625521D01*
X57547590Y-9508604D01*
X57721712Y-9473969D01*
X57847239Y-9449000D01*
X58152761Y-9449000D01*
X58278288Y-9473969D01*
G37*
G36*
X3853512Y-10733927D02*
G01*
X4002812Y-10763624D01*
X4166784Y-10831544D01*
X4314354Y-10930147D01*
X4439853Y-11055646D01*
X4538456Y-11203216D01*
X4606376Y-11367188D01*
X4641000Y-11541259D01*
X4641000Y-11718741D01*
X4606376Y-11892812D01*
X4538456Y-12056784D01*
X4439853Y-12204354D01*
X4314354Y-12329853D01*
X4166784Y-12428456D01*
X4002812Y-12496376D01*
X3853512Y-12526073D01*
X3828742Y-12531000D01*
X3651258Y-12531000D01*
X3626488Y-12526073D01*
X3477188Y-12496376D01*
X3313216Y-12428456D01*
X3165646Y-12329853D01*
X3040147Y-12204354D01*
X2941544Y-12056784D01*
X2873624Y-11892812D01*
X2839000Y-11718741D01*
X2839000Y-11541259D01*
X2873624Y-11367188D01*
X2941544Y-11203216D01*
X3040147Y-11055646D01*
X3165646Y-10930147D01*
X3313216Y-10831544D01*
X3477188Y-10763624D01*
X3626488Y-10733927D01*
X3651258Y-10729000D01*
X3828742Y-10729000D01*
X3853512Y-10733927D01*
G37*
G36*
X83543512Y-10733927D02*
G01*
X83692812Y-10763624D01*
X83856784Y-10831544D01*
X84004354Y-10930147D01*
X84129853Y-11055646D01*
X84228456Y-11203216D01*
X84296376Y-11367188D01*
X84331000Y-11541259D01*
X84331000Y-11718741D01*
X84296376Y-11892812D01*
X84228456Y-12056784D01*
X84129853Y-12204354D01*
X84004354Y-12329853D01*
X83856784Y-12428456D01*
X83692812Y-12496376D01*
X83543512Y-12526073D01*
X83518742Y-12531000D01*
X83341258Y-12531000D01*
X83316488Y-12526073D01*
X83167188Y-12496376D01*
X83003216Y-12428456D01*
X82855646Y-12329853D01*
X82730147Y-12204354D01*
X82631544Y-12056784D01*
X82563624Y-11892812D01*
X82529000Y-11718741D01*
X82529000Y-11541259D01*
X82563624Y-11367188D01*
X82631544Y-11203216D01*
X82730147Y-11055646D01*
X82855646Y-10930147D01*
X83003216Y-10831544D01*
X83167188Y-10763624D01*
X83316488Y-10733927D01*
X83341258Y-10729000D01*
X83518742Y-10729000D01*
X83543512Y-10733927D01*
G37*
G36*
X6393512Y-10733927D02*
G01*
X6542812Y-10763624D01*
X6706784Y-10831544D01*
X6854354Y-10930147D01*
X6979853Y-11055646D01*
X7078456Y-11203216D01*
X7146376Y-11367188D01*
X7181000Y-11541259D01*
X7181000Y-11718741D01*
X7146376Y-11892812D01*
X7078456Y-12056784D01*
X6979853Y-12204354D01*
X6854354Y-12329853D01*
X6706784Y-12428456D01*
X6542812Y-12496376D01*
X6393512Y-12526073D01*
X6368742Y-12531000D01*
X6191258Y-12531000D01*
X6166488Y-12526073D01*
X6017188Y-12496376D01*
X5853216Y-12428456D01*
X5705646Y-12329853D01*
X5580147Y-12204354D01*
X5481544Y-12056784D01*
X5413624Y-11892812D01*
X5379000Y-11718741D01*
X5379000Y-11541259D01*
X5413624Y-11367188D01*
X5481544Y-11203216D01*
X5580147Y-11055646D01*
X5705646Y-10930147D01*
X5853216Y-10831544D01*
X6017188Y-10763624D01*
X6166488Y-10733927D01*
X6191258Y-10729000D01*
X6368742Y-10729000D01*
X6393512Y-10733927D01*
G37*
G36*
X86083512Y-10733927D02*
G01*
X86232812Y-10763624D01*
X86396784Y-10831544D01*
X86544354Y-10930147D01*
X86669853Y-11055646D01*
X86768456Y-11203216D01*
X86836376Y-11367188D01*
X86871000Y-11541259D01*
X86871000Y-11718741D01*
X86836376Y-11892812D01*
X86768456Y-12056784D01*
X86669853Y-12204354D01*
X86544354Y-12329853D01*
X86396784Y-12428456D01*
X86232812Y-12496376D01*
X86083512Y-12526073D01*
X86058742Y-12531000D01*
X85881258Y-12531000D01*
X85856488Y-12526073D01*
X85707188Y-12496376D01*
X85543216Y-12428456D01*
X85395646Y-12329853D01*
X85270147Y-12204354D01*
X85171544Y-12056784D01*
X85103624Y-11892812D01*
X85069000Y-11718741D01*
X85069000Y-11541259D01*
X85103624Y-11367188D01*
X85171544Y-11203216D01*
X85270147Y-11055646D01*
X85395646Y-10930147D01*
X85543216Y-10831544D01*
X85707188Y-10763624D01*
X85856488Y-10733927D01*
X85881258Y-10729000D01*
X86058742Y-10729000D01*
X86083512Y-10733927D01*
G37*
G36*
X6393512Y-8193927D02*
G01*
X6542812Y-8223624D01*
X6706784Y-8291544D01*
X6854354Y-8390147D01*
X6979853Y-8515646D01*
X7078456Y-8663216D01*
X7146376Y-8827188D01*
X7181000Y-9001259D01*
X7181000Y-9178741D01*
X7146376Y-9352812D01*
X7078456Y-9516784D01*
X6979853Y-9664354D01*
X6854354Y-9789853D01*
X6706784Y-9888456D01*
X6542812Y-9956376D01*
X6393512Y-9986073D01*
X6368742Y-9991000D01*
X6191258Y-9991000D01*
X6166488Y-9986073D01*
X6017188Y-9956376D01*
X5853216Y-9888456D01*
X5705646Y-9789853D01*
X5580147Y-9664354D01*
X5481544Y-9516784D01*
X5413624Y-9352812D01*
X5379000Y-9178741D01*
X5379000Y-9001259D01*
X5413624Y-8827188D01*
X5481544Y-8663216D01*
X5580147Y-8515646D01*
X5705646Y-8390147D01*
X5853216Y-8291544D01*
X6017188Y-8223624D01*
X6166488Y-8193927D01*
X6191258Y-8189000D01*
X6368742Y-8189000D01*
X6393512Y-8193927D01*
G37*
G36*
X3853512Y-8193927D02*
G01*
X4002812Y-8223624D01*
X4166784Y-8291544D01*
X4314354Y-8390147D01*
X4439853Y-8515646D01*
X4538456Y-8663216D01*
X4606376Y-8827188D01*
X4641000Y-9001259D01*
X4641000Y-9178741D01*
X4606376Y-9352812D01*
X4538456Y-9516784D01*
X4439853Y-9664354D01*
X4314354Y-9789853D01*
X4166784Y-9888456D01*
X4002812Y-9956376D01*
X3853512Y-9986073D01*
X3828742Y-9991000D01*
X3651258Y-9991000D01*
X3626488Y-9986073D01*
X3477188Y-9956376D01*
X3313216Y-9888456D01*
X3165646Y-9789853D01*
X3040147Y-9664354D01*
X2941544Y-9516784D01*
X2873624Y-9352812D01*
X2839000Y-9178741D01*
X2839000Y-9001259D01*
X2873624Y-8827188D01*
X2941544Y-8663216D01*
X3040147Y-8515646D01*
X3165646Y-8390147D01*
X3313216Y-8291544D01*
X3477188Y-8223624D01*
X3626488Y-8193927D01*
X3651258Y-8189000D01*
X3828742Y-8189000D01*
X3853512Y-8193927D01*
G37*
G36*
X83543512Y-8193927D02*
G01*
X83692812Y-8223624D01*
X83856784Y-8291544D01*
X84004354Y-8390147D01*
X84129853Y-8515646D01*
X84228456Y-8663216D01*
X84296376Y-8827188D01*
X84331000Y-9001259D01*
X84331000Y-9178741D01*
X84296376Y-9352812D01*
X84228456Y-9516784D01*
X84129853Y-9664354D01*
X84004354Y-9789853D01*
X83856784Y-9888456D01*
X83692812Y-9956376D01*
X83543512Y-9986073D01*
X83518742Y-9991000D01*
X83341258Y-9991000D01*
X83316488Y-9986073D01*
X83167188Y-9956376D01*
X83003216Y-9888456D01*
X82855646Y-9789853D01*
X82730147Y-9664354D01*
X82631544Y-9516784D01*
X82563624Y-9352812D01*
X82529000Y-9178741D01*
X82529000Y-9001259D01*
X82563624Y-8827188D01*
X82631544Y-8663216D01*
X82730147Y-8515646D01*
X82855646Y-8390147D01*
X83003216Y-8291544D01*
X83167188Y-8223624D01*
X83316488Y-8193927D01*
X83341258Y-8189000D01*
X83518742Y-8189000D01*
X83543512Y-8193927D01*
G37*
G36*
X86083512Y-8193927D02*
G01*
X86232812Y-8223624D01*
X86396784Y-8291544D01*
X86544354Y-8390147D01*
X86669853Y-8515646D01*
X86768456Y-8663216D01*
X86836376Y-8827188D01*
X86871000Y-9001259D01*
X86871000Y-9178741D01*
X86836376Y-9352812D01*
X86768456Y-9516784D01*
X86669853Y-9664354D01*
X86544354Y-9789853D01*
X86396784Y-9888456D01*
X86232812Y-9956376D01*
X86083512Y-9986073D01*
X86058742Y-9991000D01*
X85881258Y-9991000D01*
X85856488Y-9986073D01*
X85707188Y-9956376D01*
X85543216Y-9888456D01*
X85395646Y-9789853D01*
X85270147Y-9664354D01*
X85171544Y-9516784D01*
X85103624Y-9352812D01*
X85069000Y-9178741D01*
X85069000Y-9001259D01*
X85103624Y-8827188D01*
X85171544Y-8663216D01*
X85270147Y-8515646D01*
X85395646Y-8390147D01*
X85543216Y-8291544D01*
X85707188Y-8223624D01*
X85856488Y-8193927D01*
X85881258Y-8189000D01*
X86058742Y-8189000D01*
X86083512Y-8193927D01*
G37*
G36*
X44652499Y-8403445D02*
G01*
X44689995Y-8414820D01*
X44724554Y-8433292D01*
X44754847Y-8458153D01*
X44779708Y-8488446D01*
X44798180Y-8523005D01*
X44809555Y-8560501D01*
X44814000Y-8605638D01*
X44814000Y-9344362D01*
X44809555Y-9389499D01*
X44798180Y-9426995D01*
X44779708Y-9461554D01*
X44754847Y-9491847D01*
X44724554Y-9516708D01*
X44689995Y-9535180D01*
X44652499Y-9546555D01*
X44607362Y-9551000D01*
X43968638Y-9551000D01*
X43923501Y-9546555D01*
X43886005Y-9535180D01*
X43851446Y-9516708D01*
X43821153Y-9491847D01*
X43796292Y-9461554D01*
X43777820Y-9426995D01*
X43766445Y-9389499D01*
X43762000Y-9344362D01*
X43762000Y-8605638D01*
X43766445Y-8560501D01*
X43777820Y-8523005D01*
X43796292Y-8488446D01*
X43821153Y-8458153D01*
X43851446Y-8433292D01*
X43886005Y-8414820D01*
X43923501Y-8403445D01*
X43968638Y-8399000D01*
X44607362Y-8399000D01*
X44652499Y-8403445D01*
G37*
G36*
X28564499Y-8403445D02*
G01*
X28601995Y-8414820D01*
X28636554Y-8433292D01*
X28666847Y-8458153D01*
X28691708Y-8488446D01*
X28710180Y-8523005D01*
X28721555Y-8560501D01*
X28726000Y-8605638D01*
X28726000Y-9344362D01*
X28721555Y-9389499D01*
X28710180Y-9426995D01*
X28691708Y-9461554D01*
X28666847Y-9491847D01*
X28636554Y-9516708D01*
X28601995Y-9535180D01*
X28564499Y-9546555D01*
X28519362Y-9551000D01*
X27880638Y-9551000D01*
X27835501Y-9546555D01*
X27798005Y-9535180D01*
X27763446Y-9516708D01*
X27733153Y-9491847D01*
X27708292Y-9461554D01*
X27689820Y-9426995D01*
X27678445Y-9389499D01*
X27674000Y-9344362D01*
X27674000Y-8605638D01*
X27678445Y-8560501D01*
X27689820Y-8523005D01*
X27708292Y-8488446D01*
X27733153Y-8458153D01*
X27763446Y-8433292D01*
X27798005Y-8414820D01*
X27835501Y-8403445D01*
X27880638Y-8399000D01*
X28519362Y-8399000D01*
X28564499Y-8403445D01*
G37*
G36*
X46164499Y-8403445D02*
G01*
X46201995Y-8414820D01*
X46236554Y-8433292D01*
X46266847Y-8458153D01*
X46291708Y-8488446D01*
X46310180Y-8523005D01*
X46321555Y-8560501D01*
X46326000Y-8605638D01*
X46326000Y-9344362D01*
X46321555Y-9389499D01*
X46310180Y-9426995D01*
X46291708Y-9461554D01*
X46266847Y-9491847D01*
X46236554Y-9516708D01*
X46201995Y-9535180D01*
X46164499Y-9546555D01*
X46119362Y-9551000D01*
X45480638Y-9551000D01*
X45435501Y-9546555D01*
X45398005Y-9535180D01*
X45363446Y-9516708D01*
X45333153Y-9491847D01*
X45308292Y-9461554D01*
X45289820Y-9426995D01*
X45278445Y-9389499D01*
X45274000Y-9344362D01*
X45274000Y-8605638D01*
X45278445Y-8560501D01*
X45289820Y-8523005D01*
X45308292Y-8488446D01*
X45333153Y-8458153D01*
X45363446Y-8433292D01*
X45398005Y-8414820D01*
X45435501Y-8403445D01*
X45480638Y-8399000D01*
X46119362Y-8399000D01*
X46164499Y-8403445D01*
G37*
G36*
X63764499Y-8403445D02*
G01*
X63801995Y-8414820D01*
X63836554Y-8433292D01*
X63866847Y-8458153D01*
X63891708Y-8488446D01*
X63910180Y-8523005D01*
X63921555Y-8560501D01*
X63926000Y-8605638D01*
X63926000Y-9344362D01*
X63921555Y-9389499D01*
X63910180Y-9426995D01*
X63891708Y-9461554D01*
X63866847Y-9491847D01*
X63836554Y-9516708D01*
X63801995Y-9535180D01*
X63764499Y-9546555D01*
X63719362Y-9551000D01*
X63080638Y-9551000D01*
X63035501Y-9546555D01*
X62998005Y-9535180D01*
X62963446Y-9516708D01*
X62933153Y-9491847D01*
X62908292Y-9461554D01*
X62889820Y-9426995D01*
X62878445Y-9389499D01*
X62874000Y-9344362D01*
X62874000Y-8605638D01*
X62878445Y-8560501D01*
X62889820Y-8523005D01*
X62908292Y-8488446D01*
X62933153Y-8458153D01*
X62963446Y-8433292D01*
X62998005Y-8414820D01*
X63035501Y-8403445D01*
X63080638Y-8399000D01*
X63719362Y-8399000D01*
X63764499Y-8403445D01*
G37*
G36*
X27046499Y-8403445D02*
G01*
X27083995Y-8414820D01*
X27118554Y-8433292D01*
X27148847Y-8458153D01*
X27173708Y-8488446D01*
X27192180Y-8523005D01*
X27203555Y-8560501D01*
X27208000Y-8605638D01*
X27208000Y-9344362D01*
X27203555Y-9389499D01*
X27192180Y-9426995D01*
X27173708Y-9461554D01*
X27148847Y-9491847D01*
X27118554Y-9516708D01*
X27083995Y-9535180D01*
X27046499Y-9546555D01*
X27001362Y-9551000D01*
X26362638Y-9551000D01*
X26317501Y-9546555D01*
X26280005Y-9535180D01*
X26245446Y-9516708D01*
X26215153Y-9491847D01*
X26190292Y-9461554D01*
X26171820Y-9426995D01*
X26160445Y-9389499D01*
X26156000Y-9344362D01*
X26156000Y-8605638D01*
X26160445Y-8560501D01*
X26171820Y-8523005D01*
X26190292Y-8488446D01*
X26215153Y-8458153D01*
X26245446Y-8433292D01*
X26280005Y-8414820D01*
X26317501Y-8403445D01*
X26362638Y-8399000D01*
X27001362Y-8399000D01*
X27046499Y-8403445D01*
G37*
G36*
X62258499Y-8403445D02*
G01*
X62295995Y-8414820D01*
X62330554Y-8433292D01*
X62360847Y-8458153D01*
X62385708Y-8488446D01*
X62404180Y-8523005D01*
X62415555Y-8560501D01*
X62420000Y-8605638D01*
X62420000Y-9344362D01*
X62415555Y-9389499D01*
X62404180Y-9426995D01*
X62385708Y-9461554D01*
X62360847Y-9491847D01*
X62330554Y-9516708D01*
X62295995Y-9535180D01*
X62258499Y-9546555D01*
X62213362Y-9551000D01*
X61574638Y-9551000D01*
X61529501Y-9546555D01*
X61492005Y-9535180D01*
X61457446Y-9516708D01*
X61427153Y-9491847D01*
X61402292Y-9461554D01*
X61383820Y-9426995D01*
X61372445Y-9389499D01*
X61368000Y-9344362D01*
X61368000Y-8605638D01*
X61372445Y-8560501D01*
X61383820Y-8523005D01*
X61402292Y-8488446D01*
X61427153Y-8458153D01*
X61457446Y-8433292D01*
X61492005Y-8414820D01*
X61529501Y-8403445D01*
X61574638Y-8399000D01*
X62213362Y-8399000D01*
X62258499Y-8403445D01*
G37*
G36*
X81364499Y-8403445D02*
G01*
X81401995Y-8414820D01*
X81436554Y-8433292D01*
X81466847Y-8458153D01*
X81491708Y-8488446D01*
X81510180Y-8523005D01*
X81521555Y-8560501D01*
X81526000Y-8605638D01*
X81526000Y-9344362D01*
X81521555Y-9389499D01*
X81510180Y-9426995D01*
X81491708Y-9461554D01*
X81466847Y-9491847D01*
X81436554Y-9516708D01*
X81401995Y-9535180D01*
X81364499Y-9546555D01*
X81319362Y-9551000D01*
X80680638Y-9551000D01*
X80635501Y-9546555D01*
X80598005Y-9535180D01*
X80563446Y-9516708D01*
X80533153Y-9491847D01*
X80508292Y-9461554D01*
X80489820Y-9426995D01*
X80478445Y-9389499D01*
X80474000Y-9344362D01*
X80474000Y-8605638D01*
X80478445Y-8560501D01*
X80489820Y-8523005D01*
X80508292Y-8488446D01*
X80533153Y-8458153D01*
X80563446Y-8433292D01*
X80598005Y-8414820D01*
X80635501Y-8403445D01*
X80680638Y-8399000D01*
X81319362Y-8399000D01*
X81364499Y-8403445D01*
G37*
G36*
X79864499Y-8403445D02*
G01*
X79901995Y-8414820D01*
X79936554Y-8433292D01*
X79966847Y-8458153D01*
X79991708Y-8488446D01*
X80010180Y-8523005D01*
X80021555Y-8560501D01*
X80026000Y-8605638D01*
X80026000Y-9344362D01*
X80021555Y-9389499D01*
X80010180Y-9426995D01*
X79991708Y-9461554D01*
X79966847Y-9491847D01*
X79936554Y-9516708D01*
X79901995Y-9535180D01*
X79864499Y-9546555D01*
X79819362Y-9551000D01*
X79180638Y-9551000D01*
X79135501Y-9546555D01*
X79098005Y-9535180D01*
X79063446Y-9516708D01*
X79033153Y-9491847D01*
X79008292Y-9461554D01*
X78989820Y-9426995D01*
X78978445Y-9389499D01*
X78974000Y-9344362D01*
X78974000Y-8605638D01*
X78978445Y-8560501D01*
X78989820Y-8523005D01*
X79008292Y-8488446D01*
X79033153Y-8458153D01*
X79063446Y-8433292D01*
X79098005Y-8414820D01*
X79135501Y-8403445D01*
X79180638Y-8399000D01*
X79819362Y-8399000D01*
X79864499Y-8403445D01*
G37*
G36*
X46164499Y-6653445D02*
G01*
X46201995Y-6664820D01*
X46236554Y-6683292D01*
X46266847Y-6708153D01*
X46291708Y-6738446D01*
X46310180Y-6773005D01*
X46321555Y-6810501D01*
X46326000Y-6855638D01*
X46326000Y-7594362D01*
X46321555Y-7639499D01*
X46310180Y-7676995D01*
X46291708Y-7711554D01*
X46266847Y-7741847D01*
X46236554Y-7766708D01*
X46201995Y-7785180D01*
X46164499Y-7796555D01*
X46119362Y-7801000D01*
X45480638Y-7801000D01*
X45435501Y-7796555D01*
X45398005Y-7785180D01*
X45363446Y-7766708D01*
X45333153Y-7741847D01*
X45308292Y-7711554D01*
X45289820Y-7676995D01*
X45278445Y-7639499D01*
X45274000Y-7594362D01*
X45274000Y-6855638D01*
X45278445Y-6810501D01*
X45289820Y-6773005D01*
X45308292Y-6738446D01*
X45333153Y-6708153D01*
X45363446Y-6683292D01*
X45398005Y-6664820D01*
X45435501Y-6653445D01*
X45480638Y-6649000D01*
X46119362Y-6649000D01*
X46164499Y-6653445D01*
G37*
G36*
X44652499Y-6653445D02*
G01*
X44689995Y-6664820D01*
X44724554Y-6683292D01*
X44754847Y-6708153D01*
X44779708Y-6738446D01*
X44798180Y-6773005D01*
X44809555Y-6810501D01*
X44814000Y-6855638D01*
X44814000Y-7594362D01*
X44809555Y-7639499D01*
X44798180Y-7676995D01*
X44779708Y-7711554D01*
X44754847Y-7741847D01*
X44724554Y-7766708D01*
X44689995Y-7785180D01*
X44652499Y-7796555D01*
X44607362Y-7801000D01*
X43968638Y-7801000D01*
X43923501Y-7796555D01*
X43886005Y-7785180D01*
X43851446Y-7766708D01*
X43821153Y-7741847D01*
X43796292Y-7711554D01*
X43777820Y-7676995D01*
X43766445Y-7639499D01*
X43762000Y-7594362D01*
X43762000Y-6855638D01*
X43766445Y-6810501D01*
X43777820Y-6773005D01*
X43796292Y-6738446D01*
X43821153Y-6708153D01*
X43851446Y-6683292D01*
X43886005Y-6664820D01*
X43923501Y-6653445D01*
X43968638Y-6649000D01*
X44607362Y-6649000D01*
X44652499Y-6653445D01*
G37*
G36*
X27046499Y-6653445D02*
G01*
X27083995Y-6664820D01*
X27118554Y-6683292D01*
X27148847Y-6708153D01*
X27173708Y-6738446D01*
X27192180Y-6773005D01*
X27203555Y-6810501D01*
X27208000Y-6855638D01*
X27208000Y-7594362D01*
X27203555Y-7639499D01*
X27192180Y-7676995D01*
X27173708Y-7711554D01*
X27148847Y-7741847D01*
X27118554Y-7766708D01*
X27083995Y-7785180D01*
X27046499Y-7796555D01*
X27001362Y-7801000D01*
X26362638Y-7801000D01*
X26317501Y-7796555D01*
X26280005Y-7785180D01*
X26245446Y-7766708D01*
X26215153Y-7741847D01*
X26190292Y-7711554D01*
X26171820Y-7676995D01*
X26160445Y-7639499D01*
X26156000Y-7594362D01*
X26156000Y-6855638D01*
X26160445Y-6810501D01*
X26171820Y-6773005D01*
X26190292Y-6738446D01*
X26215153Y-6708153D01*
X26245446Y-6683292D01*
X26280005Y-6664820D01*
X26317501Y-6653445D01*
X26362638Y-6649000D01*
X27001362Y-6649000D01*
X27046499Y-6653445D01*
G37*
G36*
X28564499Y-6653445D02*
G01*
X28601995Y-6664820D01*
X28636554Y-6683292D01*
X28666847Y-6708153D01*
X28691708Y-6738446D01*
X28710180Y-6773005D01*
X28721555Y-6810501D01*
X28726000Y-6855638D01*
X28726000Y-7594362D01*
X28721555Y-7639499D01*
X28710180Y-7676995D01*
X28691708Y-7711554D01*
X28666847Y-7741847D01*
X28636554Y-7766708D01*
X28601995Y-7785180D01*
X28564499Y-7796555D01*
X28519362Y-7801000D01*
X27880638Y-7801000D01*
X27835501Y-7796555D01*
X27798005Y-7785180D01*
X27763446Y-7766708D01*
X27733153Y-7741847D01*
X27708292Y-7711554D01*
X27689820Y-7676995D01*
X27678445Y-7639499D01*
X27674000Y-7594362D01*
X27674000Y-6855638D01*
X27678445Y-6810501D01*
X27689820Y-6773005D01*
X27708292Y-6738446D01*
X27733153Y-6708153D01*
X27763446Y-6683292D01*
X27798005Y-6664820D01*
X27835501Y-6653445D01*
X27880638Y-6649000D01*
X28519362Y-6649000D01*
X28564499Y-6653445D01*
G37*
G36*
X79864499Y-6653445D02*
G01*
X79901995Y-6664820D01*
X79936554Y-6683292D01*
X79966847Y-6708153D01*
X79991708Y-6738446D01*
X80010180Y-6773005D01*
X80021555Y-6810501D01*
X80026000Y-6855638D01*
X80026000Y-7594362D01*
X80021555Y-7639499D01*
X80010180Y-7676995D01*
X79991708Y-7711554D01*
X79966847Y-7741847D01*
X79936554Y-7766708D01*
X79901995Y-7785180D01*
X79864499Y-7796555D01*
X79819362Y-7801000D01*
X79180638Y-7801000D01*
X79135501Y-7796555D01*
X79098005Y-7785180D01*
X79063446Y-7766708D01*
X79033153Y-7741847D01*
X79008292Y-7711554D01*
X78989820Y-7676995D01*
X78978445Y-7639499D01*
X78974000Y-7594362D01*
X78974000Y-6855638D01*
X78978445Y-6810501D01*
X78989820Y-6773005D01*
X79008292Y-6738446D01*
X79033153Y-6708153D01*
X79063446Y-6683292D01*
X79098005Y-6664820D01*
X79135501Y-6653445D01*
X79180638Y-6649000D01*
X79819362Y-6649000D01*
X79864499Y-6653445D01*
G37*
G36*
X62258499Y-6653445D02*
G01*
X62295995Y-6664820D01*
X62330554Y-6683292D01*
X62360847Y-6708153D01*
X62385708Y-6738446D01*
X62404180Y-6773005D01*
X62415555Y-6810501D01*
X62420000Y-6855638D01*
X62420000Y-7594362D01*
X62415555Y-7639499D01*
X62404180Y-7676995D01*
X62385708Y-7711554D01*
X62360847Y-7741847D01*
X62330554Y-7766708D01*
X62295995Y-7785180D01*
X62258499Y-7796555D01*
X62213362Y-7801000D01*
X61574638Y-7801000D01*
X61529501Y-7796555D01*
X61492005Y-7785180D01*
X61457446Y-7766708D01*
X61427153Y-7741847D01*
X61402292Y-7711554D01*
X61383820Y-7676995D01*
X61372445Y-7639499D01*
X61368000Y-7594362D01*
X61368000Y-6855638D01*
X61372445Y-6810501D01*
X61383820Y-6773005D01*
X61402292Y-6738446D01*
X61427153Y-6708153D01*
X61457446Y-6683292D01*
X61492005Y-6664820D01*
X61529501Y-6653445D01*
X61574638Y-6649000D01*
X62213362Y-6649000D01*
X62258499Y-6653445D01*
G37*
G36*
X63764499Y-6653445D02*
G01*
X63801995Y-6664820D01*
X63836554Y-6683292D01*
X63866847Y-6708153D01*
X63891708Y-6738446D01*
X63910180Y-6773005D01*
X63921555Y-6810501D01*
X63926000Y-6855638D01*
X63926000Y-7594362D01*
X63921555Y-7639499D01*
X63910180Y-7676995D01*
X63891708Y-7711554D01*
X63866847Y-7741847D01*
X63836554Y-7766708D01*
X63801995Y-7785180D01*
X63764499Y-7796555D01*
X63719362Y-7801000D01*
X63080638Y-7801000D01*
X63035501Y-7796555D01*
X62998005Y-7785180D01*
X62963446Y-7766708D01*
X62933153Y-7741847D01*
X62908292Y-7711554D01*
X62889820Y-7676995D01*
X62878445Y-7639499D01*
X62874000Y-7594362D01*
X62874000Y-6855638D01*
X62878445Y-6810501D01*
X62889820Y-6773005D01*
X62908292Y-6738446D01*
X62933153Y-6708153D01*
X62963446Y-6683292D01*
X62998005Y-6664820D01*
X63035501Y-6653445D01*
X63080638Y-6649000D01*
X63719362Y-6649000D01*
X63764499Y-6653445D01*
G37*
G36*
X81364499Y-6653445D02*
G01*
X81401995Y-6664820D01*
X81436554Y-6683292D01*
X81466847Y-6708153D01*
X81491708Y-6738446D01*
X81510180Y-6773005D01*
X81521555Y-6810501D01*
X81526000Y-6855638D01*
X81526000Y-7594362D01*
X81521555Y-7639499D01*
X81510180Y-7676995D01*
X81491708Y-7711554D01*
X81466847Y-7741847D01*
X81436554Y-7766708D01*
X81401995Y-7785180D01*
X81364499Y-7796555D01*
X81319362Y-7801000D01*
X80680638Y-7801000D01*
X80635501Y-7796555D01*
X80598005Y-7785180D01*
X80563446Y-7766708D01*
X80533153Y-7741847D01*
X80508292Y-7711554D01*
X80489820Y-7676995D01*
X80478445Y-7639499D01*
X80474000Y-7594362D01*
X80474000Y-6855638D01*
X80478445Y-6810501D01*
X80489820Y-6773005D01*
X80508292Y-6738446D01*
X80533153Y-6708153D01*
X80563446Y-6683292D01*
X80598005Y-6664820D01*
X80635501Y-6653445D01*
X80680638Y-6649000D01*
X81319362Y-6649000D01*
X81364499Y-6653445D01*
G37*
G36*
X73821000Y-7652250D02*
G01*
X73044000Y-7652250D01*
X73044000Y-6800250D01*
X73821000Y-6800250D01*
X73821000Y-7652250D01*
G37*
G36*
X60121000Y-7652250D02*
G01*
X59344000Y-7652250D01*
X59344000Y-6800250D01*
X60121000Y-6800250D01*
X60121000Y-7652250D01*
G37*
G36*
X58863500Y-7652250D02*
G01*
X58086500Y-7652250D01*
X58086500Y-6800250D01*
X58863500Y-6800250D01*
X58863500Y-7652250D01*
G37*
G36*
X57543500Y-7652250D02*
G01*
X56766500Y-7652250D01*
X56766500Y-6800250D01*
X57543500Y-6800250D01*
X57543500Y-7652250D01*
G37*
G36*
X23843500Y-7652250D02*
G01*
X23066500Y-7652250D01*
X23066500Y-6800250D01*
X23843500Y-6800250D01*
X23843500Y-7652250D01*
G37*
G36*
X56286000Y-7652250D02*
G01*
X55509000Y-7652250D01*
X55509000Y-6800250D01*
X56286000Y-6800250D01*
X56286000Y-7652250D01*
G37*
G36*
X42619333Y-7652250D02*
G01*
X41842333Y-7652250D01*
X41842333Y-6800250D01*
X42619333Y-6800250D01*
X42619333Y-7652250D01*
G37*
G36*
X41361833Y-7652250D02*
G01*
X40584833Y-7652250D01*
X40584833Y-6800250D01*
X41361833Y-6800250D01*
X41361833Y-7652250D01*
G37*
G36*
X76398500Y-7652250D02*
G01*
X75621500Y-7652250D01*
X75621500Y-6800250D01*
X76398500Y-6800250D01*
X76398500Y-7652250D01*
G37*
G36*
X77656000Y-7652250D02*
G01*
X76879000Y-7652250D01*
X76879000Y-6800250D01*
X77656000Y-6800250D01*
X77656000Y-7652250D01*
G37*
G36*
X21266000Y-7652250D02*
G01*
X20489000Y-7652250D01*
X20489000Y-6800250D01*
X21266000Y-6800250D01*
X21266000Y-7652250D01*
G37*
G36*
X22523500Y-7652250D02*
G01*
X21746500Y-7652250D01*
X21746500Y-6800250D01*
X22523500Y-6800250D01*
X22523500Y-7652250D01*
G37*
G36*
X25101000Y-7652250D02*
G01*
X24324000Y-7652250D01*
X24324000Y-6800250D01*
X25101000Y-6800250D01*
X25101000Y-7652250D01*
G37*
G36*
X38784333Y-7652250D02*
G01*
X38007333Y-7652250D01*
X38007333Y-6800250D01*
X38784333Y-6800250D01*
X38784333Y-7652250D01*
G37*
G36*
X75078500Y-7652250D02*
G01*
X74301500Y-7652250D01*
X74301500Y-6800250D01*
X75078500Y-6800250D01*
X75078500Y-7652250D01*
G37*
G36*
X40041833Y-7652250D02*
G01*
X39264833Y-7652250D01*
X39264833Y-6800250D01*
X40041833Y-6800250D01*
X40041833Y-7652250D01*
G37*
G36*
X3853512Y-5653927D02*
G01*
X4002812Y-5683624D01*
X4166784Y-5751544D01*
X4314354Y-5850147D01*
X4439853Y-5975646D01*
X4538456Y-6123216D01*
X4606376Y-6287188D01*
X4636073Y-6436488D01*
X4641000Y-6461258D01*
X4641000Y-6638742D01*
X4638075Y-6653445D01*
X4606376Y-6812812D01*
X4538456Y-6976784D01*
X4439853Y-7124354D01*
X4314354Y-7249853D01*
X4166784Y-7348456D01*
X4002812Y-7416376D01*
X3853512Y-7446073D01*
X3828742Y-7451000D01*
X3651258Y-7451000D01*
X3626488Y-7446073D01*
X3477188Y-7416376D01*
X3313216Y-7348456D01*
X3165646Y-7249853D01*
X3040147Y-7124354D01*
X2941544Y-6976784D01*
X2873624Y-6812812D01*
X2841925Y-6653445D01*
X2839000Y-6638742D01*
X2839000Y-6461258D01*
X2843927Y-6436488D01*
X2873624Y-6287188D01*
X2941544Y-6123216D01*
X3040147Y-5975646D01*
X3165646Y-5850147D01*
X3313216Y-5751544D01*
X3477188Y-5683624D01*
X3626488Y-5653927D01*
X3651258Y-5649000D01*
X3828742Y-5649000D01*
X3853512Y-5653927D01*
G37*
G36*
X6393512Y-5653927D02*
G01*
X6542812Y-5683624D01*
X6706784Y-5751544D01*
X6854354Y-5850147D01*
X6979853Y-5975646D01*
X7078456Y-6123216D01*
X7146376Y-6287188D01*
X7176073Y-6436488D01*
X7181000Y-6461258D01*
X7181000Y-6638742D01*
X7178075Y-6653445D01*
X7146376Y-6812812D01*
X7078456Y-6976784D01*
X6979853Y-7124354D01*
X6854354Y-7249853D01*
X6706784Y-7348456D01*
X6542812Y-7416376D01*
X6393512Y-7446073D01*
X6368742Y-7451000D01*
X6191258Y-7451000D01*
X6166488Y-7446073D01*
X6017188Y-7416376D01*
X5853216Y-7348456D01*
X5705646Y-7249853D01*
X5580147Y-7124354D01*
X5481544Y-6976784D01*
X5413624Y-6812812D01*
X5381925Y-6653445D01*
X5379000Y-6638742D01*
X5379000Y-6461258D01*
X5383927Y-6436488D01*
X5413624Y-6287188D01*
X5481544Y-6123216D01*
X5580147Y-5975646D01*
X5705646Y-5850147D01*
X5853216Y-5751544D01*
X6017188Y-5683624D01*
X6166488Y-5653927D01*
X6191258Y-5649000D01*
X6368742Y-5649000D01*
X6393512Y-5653927D01*
G37*
G36*
X83543512Y-5653927D02*
G01*
X83692812Y-5683624D01*
X83856784Y-5751544D01*
X84004354Y-5850147D01*
X84129853Y-5975646D01*
X84228456Y-6123216D01*
X84296376Y-6287188D01*
X84326073Y-6436488D01*
X84331000Y-6461258D01*
X84331000Y-6638742D01*
X84328075Y-6653445D01*
X84296376Y-6812812D01*
X84228456Y-6976784D01*
X84129853Y-7124354D01*
X84004354Y-7249853D01*
X83856784Y-7348456D01*
X83692812Y-7416376D01*
X83543512Y-7446073D01*
X83518742Y-7451000D01*
X83341258Y-7451000D01*
X83316488Y-7446073D01*
X83167188Y-7416376D01*
X83003216Y-7348456D01*
X82855646Y-7249853D01*
X82730147Y-7124354D01*
X82631544Y-6976784D01*
X82563624Y-6812812D01*
X82531925Y-6653445D01*
X82529000Y-6638742D01*
X82529000Y-6461258D01*
X82533927Y-6436488D01*
X82563624Y-6287188D01*
X82631544Y-6123216D01*
X82730147Y-5975646D01*
X82855646Y-5850147D01*
X83003216Y-5751544D01*
X83167188Y-5683624D01*
X83316488Y-5653927D01*
X83341258Y-5649000D01*
X83518742Y-5649000D01*
X83543512Y-5653927D01*
G37*
G36*
X86083512Y-5653927D02*
G01*
X86232812Y-5683624D01*
X86396784Y-5751544D01*
X86544354Y-5850147D01*
X86669853Y-5975646D01*
X86768456Y-6123216D01*
X86836376Y-6287188D01*
X86866073Y-6436488D01*
X86871000Y-6461258D01*
X86871000Y-6638742D01*
X86868075Y-6653445D01*
X86836376Y-6812812D01*
X86768456Y-6976784D01*
X86669853Y-7124354D01*
X86544354Y-7249853D01*
X86396784Y-7348456D01*
X86232812Y-7416376D01*
X86083512Y-7446073D01*
X86058742Y-7451000D01*
X85881258Y-7451000D01*
X85856488Y-7446073D01*
X85707188Y-7416376D01*
X85543216Y-7348456D01*
X85395646Y-7249853D01*
X85270147Y-7124354D01*
X85171544Y-6976784D01*
X85103624Y-6812812D01*
X85071925Y-6653445D01*
X85069000Y-6638742D01*
X85069000Y-6461258D01*
X85073927Y-6436488D01*
X85103624Y-6287188D01*
X85171544Y-6123216D01*
X85270147Y-5975646D01*
X85395646Y-5850147D01*
X85543216Y-5751544D01*
X85707188Y-5683624D01*
X85856488Y-5653927D01*
X85881258Y-5649000D01*
X86058742Y-5649000D01*
X86083512Y-5653927D01*
G37*
G36*
X38784333Y-1825251D02*
G01*
X38786735Y-1849637D01*
X38793848Y-1873086D01*
X38805399Y-1894697D01*
X38820944Y-1913639D01*
X38839886Y-1929184D01*
X38861497Y-1940735D01*
X38884946Y-1947848D01*
X38909332Y-1950250D01*
X39139834Y-1950250D01*
X39164220Y-1947848D01*
X39187669Y-1940735D01*
X39209280Y-1929184D01*
X39228222Y-1913639D01*
X39243767Y-1894697D01*
X39255318Y-1873086D01*
X39262431Y-1849637D01*
X39264833Y-1825251D01*
X39264833Y-1295250D01*
X40041833Y-1295250D01*
X40041833Y-1825251D01*
X40044235Y-1849637D01*
X40051348Y-1873086D01*
X40062899Y-1894697D01*
X40078444Y-1913639D01*
X40097386Y-1929184D01*
X40118997Y-1940735D01*
X40142446Y-1947848D01*
X40166832Y-1950250D01*
X40459834Y-1950250D01*
X40484220Y-1947848D01*
X40507669Y-1940735D01*
X40529280Y-1929184D01*
X40548222Y-1913639D01*
X40563767Y-1894697D01*
X40575318Y-1873086D01*
X40582431Y-1849637D01*
X40584833Y-1825251D01*
X40584833Y-1295250D01*
X41361833Y-1295250D01*
X41361833Y-1825251D01*
X41364235Y-1849637D01*
X41371348Y-1873086D01*
X41382899Y-1894697D01*
X41398444Y-1913639D01*
X41417386Y-1929184D01*
X41438997Y-1940735D01*
X41462446Y-1947848D01*
X41486832Y-1950250D01*
X41717334Y-1950250D01*
X41741720Y-1947848D01*
X41765169Y-1940735D01*
X41786780Y-1929184D01*
X41805722Y-1913639D01*
X41821267Y-1894697D01*
X41832818Y-1873086D01*
X41839931Y-1849637D01*
X41842333Y-1825251D01*
X41842333Y-1295250D01*
X42619333Y-1295250D01*
X42619333Y-6347250D01*
X38007333Y-6347250D01*
X38007333Y-1295250D01*
X38784333Y-1295250D01*
X38784333Y-1825251D01*
G37*
G36*
X56286000Y-1825251D02*
G01*
X56288402Y-1849637D01*
X56295515Y-1873086D01*
X56307066Y-1894697D01*
X56322611Y-1913639D01*
X56341553Y-1929184D01*
X56363164Y-1940735D01*
X56386613Y-1947848D01*
X56410999Y-1950250D01*
X56641501Y-1950250D01*
X56665887Y-1947848D01*
X56689336Y-1940735D01*
X56710947Y-1929184D01*
X56729889Y-1913639D01*
X56745434Y-1894697D01*
X56756985Y-1873086D01*
X56764098Y-1849637D01*
X56766500Y-1825251D01*
X56766500Y-1295250D01*
X57543500Y-1295250D01*
X57543500Y-1825251D01*
X57545902Y-1849637D01*
X57553015Y-1873086D01*
X57564566Y-1894697D01*
X57580111Y-1913639D01*
X57599053Y-1929184D01*
X57620664Y-1940735D01*
X57644113Y-1947848D01*
X57668499Y-1950250D01*
X57961501Y-1950250D01*
X57985887Y-1947848D01*
X58009336Y-1940735D01*
X58030947Y-1929184D01*
X58049889Y-1913639D01*
X58065434Y-1894697D01*
X58076985Y-1873086D01*
X58084098Y-1849637D01*
X58086500Y-1825251D01*
X58086500Y-1295250D01*
X58863500Y-1295250D01*
X58863500Y-1825251D01*
X58865902Y-1849637D01*
X58873015Y-1873086D01*
X58884566Y-1894697D01*
X58900111Y-1913639D01*
X58919053Y-1929184D01*
X58940664Y-1940735D01*
X58964113Y-1947848D01*
X58988499Y-1950250D01*
X59219001Y-1950250D01*
X59243387Y-1947848D01*
X59266836Y-1940735D01*
X59288447Y-1929184D01*
X59307389Y-1913639D01*
X59322934Y-1894697D01*
X59334485Y-1873086D01*
X59341598Y-1849637D01*
X59344000Y-1825251D01*
X59344000Y-1295250D01*
X60121000Y-1295250D01*
X60121000Y-6347250D01*
X55509000Y-6347250D01*
X55509000Y-1295250D01*
X56286000Y-1295250D01*
X56286000Y-1825251D01*
G37*
G36*
X73821000Y-1825251D02*
G01*
X73823402Y-1849637D01*
X73830515Y-1873086D01*
X73842066Y-1894697D01*
X73857611Y-1913639D01*
X73876553Y-1929184D01*
X73898164Y-1940735D01*
X73921613Y-1947848D01*
X73945999Y-1950250D01*
X74176501Y-1950250D01*
X74200887Y-1947848D01*
X74224336Y-1940735D01*
X74245947Y-1929184D01*
X74264889Y-1913639D01*
X74280434Y-1894697D01*
X74291985Y-1873086D01*
X74299098Y-1849637D01*
X74301500Y-1825251D01*
X74301500Y-1295250D01*
X75078500Y-1295250D01*
X75078500Y-1825251D01*
X75080902Y-1849637D01*
X75088015Y-1873086D01*
X75099566Y-1894697D01*
X75115111Y-1913639D01*
X75134053Y-1929184D01*
X75155664Y-1940735D01*
X75179113Y-1947848D01*
X75203499Y-1950250D01*
X75496501Y-1950250D01*
X75520887Y-1947848D01*
X75544336Y-1940735D01*
X75565947Y-1929184D01*
X75584889Y-1913639D01*
X75600434Y-1894697D01*
X75611985Y-1873086D01*
X75619098Y-1849637D01*
X75621500Y-1825251D01*
X75621500Y-1295250D01*
X76398500Y-1295250D01*
X76398500Y-1825251D01*
X76400902Y-1849637D01*
X76408015Y-1873086D01*
X76419566Y-1894697D01*
X76435111Y-1913639D01*
X76454053Y-1929184D01*
X76475664Y-1940735D01*
X76499113Y-1947848D01*
X76523499Y-1950250D01*
X76754001Y-1950250D01*
X76778387Y-1947848D01*
X76801836Y-1940735D01*
X76823447Y-1929184D01*
X76842389Y-1913639D01*
X76857934Y-1894697D01*
X76869485Y-1873086D01*
X76876598Y-1849637D01*
X76879000Y-1825251D01*
X76879000Y-1295250D01*
X77656000Y-1295250D01*
X77656000Y-6347250D01*
X73044000Y-6347250D01*
X73044000Y-1295250D01*
X73821000Y-1295250D01*
X73821000Y-1825251D01*
G37*
G36*
X21266000Y-1825251D02*
G01*
X21268402Y-1849637D01*
X21275515Y-1873086D01*
X21287066Y-1894697D01*
X21302611Y-1913639D01*
X21321553Y-1929184D01*
X21343164Y-1940735D01*
X21366613Y-1947848D01*
X21390999Y-1950250D01*
X21621501Y-1950250D01*
X21645887Y-1947848D01*
X21669336Y-1940735D01*
X21690947Y-1929184D01*
X21709889Y-1913639D01*
X21725434Y-1894697D01*
X21736985Y-1873086D01*
X21744098Y-1849637D01*
X21746500Y-1825251D01*
X21746500Y-1295250D01*
X22523500Y-1295250D01*
X22523500Y-1825251D01*
X22525902Y-1849637D01*
X22533015Y-1873086D01*
X22544566Y-1894697D01*
X22560111Y-1913639D01*
X22579053Y-1929184D01*
X22600664Y-1940735D01*
X22624113Y-1947848D01*
X22648499Y-1950250D01*
X22941501Y-1950250D01*
X22965887Y-1947848D01*
X22989336Y-1940735D01*
X23010947Y-1929184D01*
X23029889Y-1913639D01*
X23045434Y-1894697D01*
X23056985Y-1873086D01*
X23064098Y-1849637D01*
X23066500Y-1825251D01*
X23066500Y-1295250D01*
X23843500Y-1295250D01*
X23843500Y-1825251D01*
X23845902Y-1849637D01*
X23853015Y-1873086D01*
X23864566Y-1894697D01*
X23880111Y-1913639D01*
X23899053Y-1929184D01*
X23920664Y-1940735D01*
X23944113Y-1947848D01*
X23968499Y-1950250D01*
X24199001Y-1950250D01*
X24223387Y-1947848D01*
X24246836Y-1940735D01*
X24268447Y-1929184D01*
X24287389Y-1913639D01*
X24302934Y-1894697D01*
X24314485Y-1873086D01*
X24321598Y-1849637D01*
X24324000Y-1825251D01*
X24324000Y-1295250D01*
X25101000Y-1295250D01*
X25101000Y-6347250D01*
X20489000Y-6347250D01*
X20489000Y-1295250D01*
X21266000Y-1295250D01*
X21266000Y-1825251D01*
G37*
G36*
X16048228Y-3681703D02*
G01*
X16203100Y-3745853D01*
X16342481Y-3838985D01*
X16461015Y-3957519D01*
X16554147Y-4096900D01*
X16618297Y-4251772D01*
X16651000Y-4416184D01*
X16651000Y-4583816D01*
X16618297Y-4748228D01*
X16554147Y-4903100D01*
X16461015Y-5042481D01*
X16342481Y-5161015D01*
X16203100Y-5254147D01*
X16048228Y-5318297D01*
X15883816Y-5351000D01*
X15716184Y-5351000D01*
X15551772Y-5318297D01*
X15396900Y-5254147D01*
X15257519Y-5161015D01*
X15138985Y-5042481D01*
X15045853Y-4903100D01*
X14981703Y-4748228D01*
X14949000Y-4583816D01*
X14949000Y-4416184D01*
X14981703Y-4251772D01*
X15045853Y-4096900D01*
X15138985Y-3957519D01*
X15257519Y-3838985D01*
X15396900Y-3745853D01*
X15551772Y-3681703D01*
X15716184Y-3649000D01*
X15883816Y-3649000D01*
X16048228Y-3681703D01*
G37*
G36*
X19151000Y-5351000D02*
G01*
X17449000Y-5351000D01*
X17449000Y-3649000D01*
X19151000Y-3649000D01*
X19151000Y-5351000D01*
G37*
G36*
X36751000Y-5351000D02*
G01*
X35049000Y-5351000D01*
X35049000Y-3649000D01*
X36751000Y-3649000D01*
X36751000Y-5351000D01*
G37*
G36*
X33648228Y-3681703D02*
G01*
X33803100Y-3745853D01*
X33942481Y-3838985D01*
X34061015Y-3957519D01*
X34154147Y-4096900D01*
X34218297Y-4251772D01*
X34251000Y-4416184D01*
X34251000Y-4583816D01*
X34218297Y-4748228D01*
X34154147Y-4903100D01*
X34061015Y-5042481D01*
X33942481Y-5161015D01*
X33803100Y-5254147D01*
X33648228Y-5318297D01*
X33483816Y-5351000D01*
X33316184Y-5351000D01*
X33151772Y-5318297D01*
X32996900Y-5254147D01*
X32857519Y-5161015D01*
X32738985Y-5042481D01*
X32645853Y-4903100D01*
X32581703Y-4748228D01*
X32549000Y-4583816D01*
X32549000Y-4416184D01*
X32581703Y-4251772D01*
X32645853Y-4096900D01*
X32738985Y-3957519D01*
X32857519Y-3838985D01*
X32996900Y-3745853D01*
X33151772Y-3681703D01*
X33316184Y-3649000D01*
X33483816Y-3649000D01*
X33648228Y-3681703D01*
G37*
G36*
X51048228Y-3681703D02*
G01*
X51203100Y-3745853D01*
X51342481Y-3838985D01*
X51461015Y-3957519D01*
X51554147Y-4096900D01*
X51618297Y-4251772D01*
X51651000Y-4416184D01*
X51651000Y-4583816D01*
X51618297Y-4748228D01*
X51554147Y-4903100D01*
X51461015Y-5042481D01*
X51342481Y-5161015D01*
X51203100Y-5254147D01*
X51048228Y-5318297D01*
X50883816Y-5351000D01*
X50716184Y-5351000D01*
X50551772Y-5318297D01*
X50396900Y-5254147D01*
X50257519Y-5161015D01*
X50138985Y-5042481D01*
X50045853Y-4903100D01*
X49981703Y-4748228D01*
X49949000Y-4583816D01*
X49949000Y-4416184D01*
X49981703Y-4251772D01*
X50045853Y-4096900D01*
X50138985Y-3957519D01*
X50257519Y-3838985D01*
X50396900Y-3745853D01*
X50551772Y-3681703D01*
X50716184Y-3649000D01*
X50883816Y-3649000D01*
X51048228Y-3681703D01*
G37*
G36*
X54151000Y-5351000D02*
G01*
X52449000Y-5351000D01*
X52449000Y-3649000D01*
X54151000Y-3649000D01*
X54151000Y-5351000D01*
G37*
G36*
X71751000Y-5251000D02*
G01*
X70049000Y-5251000D01*
X70049000Y-3549000D01*
X71751000Y-3549000D01*
X71751000Y-5251000D01*
G37*
G36*
X68648228Y-3581703D02*
G01*
X68803100Y-3645853D01*
X68942481Y-3738985D01*
X69061015Y-3857519D01*
X69154147Y-3996900D01*
X69218297Y-4151772D01*
X69251000Y-4316184D01*
X69251000Y-4483816D01*
X69218297Y-4648228D01*
X69154147Y-4803100D01*
X69061015Y-4942481D01*
X68942481Y-5061015D01*
X68803100Y-5154147D01*
X68648228Y-5218297D01*
X68483816Y-5251000D01*
X68316184Y-5251000D01*
X68151772Y-5218297D01*
X67996900Y-5154147D01*
X67857519Y-5061015D01*
X67738985Y-4942481D01*
X67645853Y-4803100D01*
X67581703Y-4648228D01*
X67549000Y-4483816D01*
X67549000Y-4316184D01*
X67581703Y-4151772D01*
X67645853Y-3996900D01*
X67738985Y-3857519D01*
X67857519Y-3738985D01*
X67996900Y-3645853D01*
X68151772Y-3581703D01*
X68316184Y-3549000D01*
X68483816Y-3549000D01*
X68648228Y-3581703D01*
G37*
G36*
X86083512Y-3113927D02*
G01*
X86232812Y-3143624D01*
X86396784Y-3211544D01*
X86544354Y-3310147D01*
X86669853Y-3435646D01*
X86768456Y-3583216D01*
X86836376Y-3747188D01*
X86871000Y-3921259D01*
X86871000Y-4098741D01*
X86836376Y-4272812D01*
X86768456Y-4436784D01*
X86669853Y-4584354D01*
X86544354Y-4709853D01*
X86396784Y-4808456D01*
X86232812Y-4876376D01*
X86083512Y-4906073D01*
X86058742Y-4911000D01*
X85881258Y-4911000D01*
X85856488Y-4906073D01*
X85707188Y-4876376D01*
X85543216Y-4808456D01*
X85395646Y-4709853D01*
X85270147Y-4584354D01*
X85171544Y-4436784D01*
X85103624Y-4272812D01*
X85069000Y-4098741D01*
X85069000Y-3921259D01*
X85103624Y-3747188D01*
X85171544Y-3583216D01*
X85270147Y-3435646D01*
X85395646Y-3310147D01*
X85543216Y-3211544D01*
X85707188Y-3143624D01*
X85856488Y-3113927D01*
X85881258Y-3109000D01*
X86058742Y-3109000D01*
X86083512Y-3113927D01*
G37*
G36*
X6393512Y-3113927D02*
G01*
X6542812Y-3143624D01*
X6706784Y-3211544D01*
X6854354Y-3310147D01*
X6979853Y-3435646D01*
X7078456Y-3583216D01*
X7146376Y-3747188D01*
X7181000Y-3921259D01*
X7181000Y-4098741D01*
X7146376Y-4272812D01*
X7078456Y-4436784D01*
X6979853Y-4584354D01*
X6854354Y-4709853D01*
X6706784Y-4808456D01*
X6542812Y-4876376D01*
X6393512Y-4906073D01*
X6368742Y-4911000D01*
X6191258Y-4911000D01*
X6166488Y-4906073D01*
X6017188Y-4876376D01*
X5853216Y-4808456D01*
X5705646Y-4709853D01*
X5580147Y-4584354D01*
X5481544Y-4436784D01*
X5413624Y-4272812D01*
X5379000Y-4098741D01*
X5379000Y-3921259D01*
X5413624Y-3747188D01*
X5481544Y-3583216D01*
X5580147Y-3435646D01*
X5705646Y-3310147D01*
X5853216Y-3211544D01*
X6017188Y-3143624D01*
X6166488Y-3113927D01*
X6191258Y-3109000D01*
X6368742Y-3109000D01*
X6393512Y-3113927D01*
G37*
G36*
X3853512Y-3113927D02*
G01*
X4002812Y-3143624D01*
X4166784Y-3211544D01*
X4314354Y-3310147D01*
X4439853Y-3435646D01*
X4538456Y-3583216D01*
X4606376Y-3747188D01*
X4641000Y-3921259D01*
X4641000Y-4098741D01*
X4606376Y-4272812D01*
X4538456Y-4436784D01*
X4439853Y-4584354D01*
X4314354Y-4709853D01*
X4166784Y-4808456D01*
X4002812Y-4876376D01*
X3853512Y-4906073D01*
X3828742Y-4911000D01*
X3651258Y-4911000D01*
X3626488Y-4906073D01*
X3477188Y-4876376D01*
X3313216Y-4808456D01*
X3165646Y-4709853D01*
X3040147Y-4584354D01*
X2941544Y-4436784D01*
X2873624Y-4272812D01*
X2839000Y-4098741D01*
X2839000Y-3921259D01*
X2873624Y-3747188D01*
X2941544Y-3583216D01*
X3040147Y-3435646D01*
X3165646Y-3310147D01*
X3313216Y-3211544D01*
X3477188Y-3143624D01*
X3626488Y-3113927D01*
X3651258Y-3109000D01*
X3828742Y-3109000D01*
X3853512Y-3113927D01*
G37*
G36*
X83543512Y-3113927D02*
G01*
X83692812Y-3143624D01*
X83856784Y-3211544D01*
X84004354Y-3310147D01*
X84129853Y-3435646D01*
X84228456Y-3583216D01*
X84296376Y-3747188D01*
X84331000Y-3921259D01*
X84331000Y-4098741D01*
X84296376Y-4272812D01*
X84228456Y-4436784D01*
X84129853Y-4584354D01*
X84004354Y-4709853D01*
X83856784Y-4808456D01*
X83692812Y-4876376D01*
X83543512Y-4906073D01*
X83518742Y-4911000D01*
X83341258Y-4911000D01*
X83316488Y-4906073D01*
X83167188Y-4876376D01*
X83003216Y-4808456D01*
X82855646Y-4709853D01*
X82730147Y-4584354D01*
X82631544Y-4436784D01*
X82563624Y-4272812D01*
X82529000Y-4098741D01*
X82529000Y-3921259D01*
X82563624Y-3747188D01*
X82631544Y-3583216D01*
X82730147Y-3435646D01*
X82855646Y-3310147D01*
X83003216Y-3211544D01*
X83167188Y-3143624D01*
X83316488Y-3113927D01*
X83341258Y-3109000D01*
X83518742Y-3109000D01*
X83543512Y-3113927D01*
G37*
M02*
